G75*
%MOIN*%
%OFA0B0*%
%FSLAX25Y25*%
%IPPOS*%
%LPD*%
%AMOC8*
5,1,8,0,0,1.08239X$1,22.5*
%
%ADD10C,0.00000*%
%ADD11C,0.00500*%
%ADD12C,0.02400*%
%ADD13C,0.00600*%
%ADD14C,0.00800*%
%ADD15R,0.00750X0.03500*%
%ADD16C,0.01200*%
%ADD17R,0.03937X0.00787*%
%ADD18R,0.03500X0.00750*%
%ADD19C,0.00200*%
%ADD20C,0.00400*%
%ADD21R,0.00787X0.03937*%
%ADD22C,0.03619*%
%ADD23C,0.00700*%
%ADD24R,0.00270X0.00030*%
%ADD25R,0.00450X0.00030*%
%ADD26R,0.00600X0.00030*%
%ADD27R,0.00720X0.00030*%
%ADD28R,0.00810X0.00030*%
%ADD29R,0.00900X0.00030*%
%ADD30R,0.01020X0.00030*%
%ADD31R,0.01080X0.00030*%
%ADD32R,0.01140X0.00030*%
%ADD33R,0.01200X0.00030*%
%ADD34R,0.01260X0.00030*%
%ADD35R,0.01350X0.00030*%
%ADD36R,0.01380X0.00030*%
%ADD37R,0.01440X0.00030*%
%ADD38R,0.01500X0.00030*%
%ADD39R,0.01530X0.00030*%
%ADD40R,0.01590X0.00030*%
%ADD41R,0.01650X0.00030*%
%ADD42R,0.01680X0.00030*%
%ADD43R,0.01740X0.00030*%
%ADD44R,0.01770X0.00030*%
%ADD45R,0.01830X0.00030*%
%ADD46R,0.01890X0.00030*%
%ADD47R,0.01920X0.00030*%
%ADD48R,0.01950X0.00030*%
%ADD49R,0.02010X0.00030*%
%ADD50R,0.02040X0.00030*%
%ADD51R,0.02070X0.00030*%
%ADD52R,0.02130X0.00030*%
%ADD53R,0.02160X0.00030*%
%ADD54R,0.02220X0.00030*%
%ADD55R,0.02250X0.00030*%
%ADD56R,0.02280X0.00030*%
%ADD57R,0.02340X0.00030*%
%ADD58R,0.02370X0.00030*%
%ADD59R,0.02400X0.00030*%
%ADD60R,0.02460X0.00030*%
%ADD61R,0.02490X0.00030*%
%ADD62R,0.02520X0.00030*%
%ADD63R,0.02580X0.00030*%
%ADD64R,0.02610X0.00030*%
%ADD65R,0.02670X0.00030*%
%ADD66R,0.02700X0.00030*%
%ADD67R,0.02730X0.00030*%
%ADD68R,0.02790X0.00030*%
%ADD69R,0.02820X0.00030*%
%ADD70R,0.02850X0.00030*%
%ADD71R,0.02910X0.00030*%
%ADD72R,0.02940X0.00030*%
%ADD73R,0.02970X0.00030*%
%ADD74R,0.03030X0.00030*%
%ADD75R,0.03060X0.00030*%
%ADD76R,0.03120X0.00030*%
%ADD77R,0.03150X0.00030*%
%ADD78R,0.03180X0.00030*%
%ADD79R,0.03240X0.00030*%
%ADD80R,0.03270X0.00030*%
%ADD81R,0.03300X0.00030*%
%ADD82R,0.00360X0.00030*%
%ADD83R,0.03360X0.00030*%
%ADD84R,0.00570X0.00030*%
%ADD85R,0.03390X0.00030*%
%ADD86R,0.00750X0.00030*%
%ADD87R,0.03450X0.00030*%
%ADD88R,0.00870X0.00030*%
%ADD89R,0.03480X0.00030*%
%ADD90R,0.01020X0.00030*%
%ADD91R,0.03510X0.00030*%
%ADD92R,0.01140X0.00030*%
%ADD93R,0.03570X0.00030*%
%ADD94R,0.03600X0.00030*%
%ADD95R,0.01380X0.00030*%
%ADD96R,0.03630X0.00030*%
%ADD97R,0.03690X0.00030*%
%ADD98R,0.01620X0.00030*%
%ADD99R,0.03720X0.00030*%
%ADD100R,0.01710X0.00030*%
%ADD101R,0.03750X0.00030*%
%ADD102R,0.01830X0.00030*%
%ADD103R,0.03810X0.00030*%
%ADD104R,0.03840X0.00030*%
%ADD105R,0.02040X0.00030*%
%ADD106R,0.03900X0.00030*%
%ADD107R,0.02160X0.00030*%
%ADD108R,0.03930X0.00030*%
%ADD109R,0.03960X0.00030*%
%ADD110R,0.02340X0.00030*%
%ADD111R,0.04020X0.00030*%
%ADD112R,0.02430X0.00030*%
%ADD113R,0.04050X0.00030*%
%ADD114R,0.02550X0.00030*%
%ADD115R,0.04080X0.00030*%
%ADD116R,0.02640X0.00030*%
%ADD117R,0.04140X0.00030*%
%ADD118R,0.04170X0.00030*%
%ADD119R,0.02820X0.00030*%
%ADD120R,0.04200X0.00030*%
%ADD121R,0.02910X0.00030*%
%ADD122R,0.04230X0.00030*%
%ADD123R,0.03000X0.00030*%
%ADD124R,0.04290X0.00030*%
%ADD125R,0.03090X0.00030*%
%ADD126R,0.04320X0.00030*%
%ADD127R,0.04350X0.00030*%
%ADD128R,0.03270X0.00030*%
%ADD129R,0.04380X0.00030*%
%ADD130R,0.03330X0.00030*%
%ADD131R,0.04410X0.00030*%
%ADD132R,0.03420X0.00030*%
%ADD133R,0.04440X0.00030*%
%ADD134R,0.04470X0.00030*%
%ADD135R,0.04500X0.00030*%
%ADD136R,0.03720X0.00030*%
%ADD137R,0.04530X0.00030*%
%ADD138R,0.03780X0.00030*%
%ADD139R,0.04560X0.00030*%
%ADD140R,0.03870X0.00030*%
%ADD141R,0.04590X0.00030*%
%ADD142R,0.03960X0.00030*%
%ADD143R,0.04620X0.00030*%
%ADD144R,0.04020X0.00030*%
%ADD145R,0.04650X0.00030*%
%ADD146R,0.04110X0.00030*%
%ADD147R,0.04680X0.00030*%
%ADD148R,0.04710X0.00030*%
%ADD149R,0.04260X0.00030*%
%ADD150R,0.04740X0.00030*%
%ADD151R,0.04350X0.00030*%
%ADD152R,0.04770X0.00030*%
%ADD153R,0.04770X0.00030*%
%ADD154R,0.04800X0.00030*%
%ADD155R,0.04830X0.00030*%
%ADD156R,0.04860X0.00030*%
%ADD157R,0.04680X0.00030*%
%ADD158R,0.04890X0.00030*%
%ADD159R,0.04890X0.00030*%
%ADD160R,0.04770X0.00030*%
%ADD161R,0.04920X0.00030*%
%ADD162R,0.04950X0.00030*%
%ADD163R,0.04980X0.00030*%
%ADD164R,0.04890X0.00030*%
%ADD165R,0.04980X0.00030*%
%ADD166R,0.05010X0.00030*%
%ADD167R,0.04980X0.00030*%
%ADD168R,0.05040X0.00030*%
%ADD169R,0.05010X0.00030*%
%ADD170R,0.05070X0.00030*%
%ADD171R,0.05070X0.00030*%
%ADD172R,0.05100X0.00030*%
%ADD173R,0.05130X0.00030*%
%ADD174R,0.05190X0.00030*%
%ADD175R,0.05160X0.00030*%
%ADD176R,0.05220X0.00030*%
%ADD177R,0.05280X0.00030*%
%ADD178R,0.05190X0.00030*%
%ADD179R,0.05280X0.00030*%
%ADD180R,0.05220X0.00030*%
%ADD181R,0.05310X0.00030*%
%ADD182R,0.05370X0.00030*%
%ADD183R,0.05250X0.00030*%
%ADD184R,0.05400X0.00030*%
%ADD185R,0.05430X0.00030*%
%ADD186R,0.05430X0.00030*%
%ADD187R,0.05460X0.00030*%
%ADD188R,0.05490X0.00030*%
%ADD189R,0.05340X0.00030*%
%ADD190R,0.05490X0.00030*%
%ADD191R,0.05340X0.00030*%
%ADD192R,0.05520X0.00030*%
%ADD193R,0.05550X0.00030*%
%ADD194R,0.05370X0.00030*%
%ADD195R,0.05580X0.00030*%
%ADD196R,0.05400X0.00030*%
%ADD197R,0.05610X0.00030*%
%ADD198R,0.05610X0.00030*%
%ADD199R,0.05640X0.00030*%
%ADD200R,0.05670X0.00030*%
%ADD201R,0.05460X0.00030*%
%ADD202R,0.05700X0.00030*%
%ADD203R,0.05460X0.00030*%
%ADD204R,0.05700X0.00030*%
%ADD205R,0.05730X0.00030*%
%ADD206R,0.05490X0.00030*%
%ADD207R,0.05760X0.00030*%
%ADD208R,0.05730X0.00030*%
%ADD209R,0.05760X0.00030*%
%ADD210R,0.05790X0.00030*%
%ADD211R,0.05790X0.00030*%
%ADD212R,0.05550X0.00030*%
%ADD213R,0.05790X0.00030*%
%ADD214R,0.05520X0.00030*%
%ADD215R,0.05820X0.00030*%
%ADD216R,0.05820X0.00030*%
%ADD217R,0.05520X0.00030*%
%ADD218R,0.05850X0.00030*%
%ADD219R,0.05850X0.00030*%
%ADD220R,0.05880X0.00030*%
%ADD221R,0.05880X0.00030*%
%ADD222R,0.05490X0.00030*%
%ADD223R,0.05880X0.00030*%
%ADD224R,0.05460X0.00030*%
%ADD225R,0.05430X0.00030*%
%ADD226R,0.11250X0.00030*%
%ADD227R,0.11250X0.00030*%
%ADD228R,0.11220X0.00030*%
%ADD229R,0.11190X0.00030*%
%ADD230R,0.11160X0.00030*%
%ADD231R,0.11130X0.00030*%
%ADD232R,0.11100X0.00030*%
%ADD233R,0.11070X0.00030*%
%ADD234R,0.11070X0.00030*%
%ADD235R,0.11040X0.00030*%
%ADD236R,0.11010X0.00030*%
%ADD237R,0.07740X0.00030*%
%ADD238R,0.07650X0.00030*%
%ADD239R,0.02970X0.00030*%
%ADD240R,0.07590X0.00030*%
%ADD241R,0.02940X0.00030*%
%ADD242R,0.07530X0.00030*%
%ADD243R,0.02880X0.00030*%
%ADD244R,0.07500X0.00030*%
%ADD245R,0.07410X0.00030*%
%ADD246R,0.07380X0.00030*%
%ADD247R,0.07350X0.00030*%
%ADD248R,0.02790X0.00030*%
%ADD249R,0.07290X0.00030*%
%ADD250R,0.02760X0.00030*%
%ADD251R,0.07260X0.00030*%
%ADD252R,0.07230X0.00030*%
%ADD253R,0.07170X0.00030*%
%ADD254R,0.02700X0.00030*%
%ADD255R,0.07140X0.00030*%
%ADD256R,0.07110X0.00030*%
%ADD257R,0.02670X0.00030*%
%ADD258R,0.07050X0.00030*%
%ADD259R,0.02640X0.00030*%
%ADD260R,0.06990X0.00030*%
%ADD261R,0.06960X0.00030*%
%ADD262R,0.02610X0.00030*%
%ADD263R,0.06930X0.00030*%
%ADD264R,0.06900X0.00030*%
%ADD265R,0.03690X0.00030*%
%ADD266R,0.03120X0.00030*%
%ADD267R,0.03540X0.00030*%
%ADD268R,0.03480X0.00030*%
%ADD269R,0.02820X0.00030*%
%ADD270R,0.02550X0.00030*%
%ADD271R,0.02520X0.00030*%
%ADD272R,0.02490X0.00030*%
%ADD273R,0.02580X0.00030*%
%ADD274R,0.02490X0.00030*%
%ADD275R,0.03330X0.00030*%
%ADD276R,0.02430X0.00030*%
%ADD277R,0.02460X0.00030*%
%ADD278R,0.02370X0.00030*%
%ADD279R,0.03300X0.00030*%
%ADD280R,0.02310X0.00030*%
%ADD281R,0.02160X0.00030*%
%ADD282R,0.03270X0.00030*%
%ADD283R,0.02130X0.00030*%
%ADD284R,0.02340X0.00030*%
%ADD285R,0.02070X0.00030*%
%ADD286R,0.02310X0.00030*%
%ADD287R,0.03210X0.00030*%
%ADD288R,0.02280X0.00030*%
%ADD289R,0.03210X0.00030*%
%ADD290R,0.03210X0.00030*%
%ADD291R,0.02250X0.00030*%
%ADD292R,0.03180X0.00030*%
%ADD293R,0.02220X0.00030*%
%ADD294R,0.01800X0.00030*%
%ADD295R,0.01740X0.00030*%
%ADD296R,0.02190X0.00030*%
%ADD297R,0.03180X0.00030*%
%ADD298R,0.01620X0.00030*%
%ADD299R,0.02100X0.00030*%
%ADD300R,0.00300X0.00030*%
%ADD301R,0.01590X0.00030*%
%ADD302R,0.02070X0.00030*%
%ADD303R,0.01530X0.00030*%
%ADD304R,0.01170X0.00030*%
%ADD305R,0.01470X0.00030*%
%ADD306R,0.01980X0.00030*%
%ADD307R,0.01680X0.00030*%
%ADD308R,0.01410X0.00030*%
%ADD309R,0.01980X0.00030*%
%ADD310R,0.01860X0.00030*%
%ADD311R,0.01920X0.00030*%
%ADD312R,0.01320X0.00030*%
%ADD313R,0.03120X0.00030*%
%ADD314R,0.01290X0.00030*%
%ADD315R,0.01860X0.00030*%
%ADD316R,0.02520X0.00030*%
%ADD317R,0.03090X0.00030*%
%ADD318R,0.01260X0.00030*%
%ADD319R,0.03120X0.00030*%
%ADD320R,0.04620X0.00030*%
%ADD321R,0.04710X0.00030*%
%ADD322R,0.03090X0.00030*%
%ADD323R,0.03090X0.00030*%
%ADD324R,0.01170X0.00030*%
%ADD325R,0.04920X0.00030*%
%ADD326R,0.01110X0.00030*%
%ADD327R,0.05100X0.00030*%
%ADD328R,0.01050X0.00030*%
%ADD329R,0.03060X0.00030*%
%ADD330R,0.01050X0.00030*%
%ADD331R,0.05250X0.00030*%
%ADD332R,0.03060X0.00030*%
%ADD333R,0.05310X0.00030*%
%ADD334R,0.00990X0.00030*%
%ADD335R,0.00960X0.00030*%
%ADD336R,0.00960X0.00030*%
%ADD337R,0.05670X0.00030*%
%ADD338R,0.00930X0.00030*%
%ADD339R,0.03000X0.00030*%
%ADD340R,0.00930X0.00030*%
%ADD341R,0.05940X0.00030*%
%ADD342R,0.06030X0.00030*%
%ADD343R,0.06090X0.00030*%
%ADD344R,0.06180X0.00030*%
%ADD345R,0.06240X0.00030*%
%ADD346R,0.02940X0.00030*%
%ADD347R,0.06330X0.00030*%
%ADD348R,0.00960X0.00030*%
%ADD349R,0.06420X0.00030*%
%ADD350R,0.06510X0.00030*%
%ADD351R,0.02910X0.00030*%
%ADD352R,0.06630X0.00030*%
%ADD353R,0.07950X0.00030*%
%ADD354R,0.02880X0.00030*%
%ADD355R,0.07980X0.00030*%
%ADD356R,0.08070X0.00030*%
%ADD357R,0.08100X0.00030*%
%ADD358R,0.02790X0.00030*%
%ADD359R,0.08160X0.00030*%
%ADD360R,0.02760X0.00030*%
%ADD361R,0.08250X0.00030*%
%ADD362R,0.02730X0.00030*%
%ADD363R,0.08310X0.00030*%
%ADD364R,0.08430X0.00030*%
%ADD365R,0.00240X0.00030*%
%ADD366R,0.11310X0.00030*%
%ADD367R,0.12300X0.00030*%
%ADD368R,0.12510X0.00030*%
%ADD369R,0.12660X0.00030*%
%ADD370R,0.12810X0.00030*%
%ADD371R,0.12930X0.00030*%
%ADD372R,0.13050X0.00030*%
%ADD373R,0.13200X0.00030*%
%ADD374R,0.13290X0.00030*%
%ADD375R,0.13410X0.00030*%
%ADD376R,0.13500X0.00030*%
%ADD377R,0.13590X0.00030*%
%ADD378R,0.13710X0.00030*%
%ADD379R,0.07200X0.00030*%
%ADD380R,0.06060X0.00030*%
%ADD381R,0.06960X0.00030*%
%ADD382R,0.06960X0.00030*%
%ADD383R,0.06930X0.00030*%
%ADD384R,0.06930X0.00030*%
%ADD385R,0.06990X0.00030*%
%ADD386R,0.05430X0.00030*%
%ADD387R,0.07020X0.00030*%
%ADD388R,0.07140X0.00030*%
%ADD389R,0.07170X0.00030*%
%ADD390R,0.01980X0.00030*%
%ADD391R,0.04470X0.00030*%
%ADD392R,0.04440X0.00030*%
%ADD393R,0.01920X0.00030*%
%ADD394R,0.04410X0.00030*%
%ADD395R,0.04320X0.00030*%
%ADD396R,0.02010X0.00030*%
%ADD397R,0.04230X0.00030*%
%ADD398R,0.02070X0.00030*%
%ADD399R,0.05670X0.00030*%
%ADD400R,0.04170X0.00030*%
%ADD401R,0.04140X0.00030*%
%ADD402R,0.04140X0.00030*%
%ADD403R,0.04110X0.00030*%
%ADD404R,0.02370X0.00030*%
%ADD405R,0.06000X0.00030*%
%ADD406R,0.06060X0.00030*%
%ADD407R,0.06270X0.00030*%
%ADD408R,0.04020X0.00030*%
%ADD409R,0.06360X0.00030*%
%ADD410R,0.03990X0.00030*%
%ADD411R,0.06510X0.00030*%
%ADD412R,0.03990X0.00030*%
%ADD413R,0.06690X0.00030*%
%ADD414R,0.10800X0.00030*%
%ADD415R,0.03960X0.00030*%
%ADD416R,0.09510X0.00030*%
%ADD417R,0.03960X0.00030*%
%ADD418R,0.01110X0.00030*%
%ADD419R,0.09480X0.00030*%
%ADD420R,0.09480X0.00030*%
%ADD421R,0.03930X0.00030*%
%ADD422R,0.01110X0.00030*%
%ADD423R,0.03930X0.00030*%
%ADD424R,0.09450X0.00030*%
%ADD425R,0.01140X0.00030*%
%ADD426R,0.09450X0.00030*%
%ADD427R,0.01170X0.00030*%
%ADD428R,0.01230X0.00030*%
%ADD429R,0.09420X0.00030*%
%ADD430R,0.03900X0.00030*%
%ADD431R,0.01290X0.00030*%
%ADD432R,0.09420X0.00030*%
%ADD433R,0.09390X0.00030*%
%ADD434R,0.01500X0.00030*%
%ADD435R,0.09360X0.00030*%
%ADD436R,0.09360X0.00030*%
%ADD437R,0.09330X0.00030*%
%ADD438R,0.01650X0.00030*%
%ADD439R,0.09300X0.00030*%
%ADD440R,0.01680X0.00030*%
%ADD441R,0.04080X0.00030*%
%ADD442R,0.01740X0.00030*%
%ADD443R,0.09270X0.00030*%
%ADD444R,0.09270X0.00030*%
%ADD445R,0.01890X0.00030*%
%ADD446R,0.09240X0.00030*%
%ADD447R,0.04230X0.00030*%
%ADD448R,0.09210X0.00030*%
%ADD449R,0.04260X0.00030*%
%ADD450R,0.02160X0.00030*%
%ADD451R,0.09180X0.00030*%
%ADD452R,0.09180X0.00030*%
%ADD453R,0.02460X0.00030*%
%ADD454R,0.09150X0.00030*%
%ADD455R,0.07320X0.00030*%
%ADD456R,0.09090X0.00030*%
%ADD457R,0.09060X0.00030*%
%ADD458R,0.09060X0.00030*%
%ADD459R,0.09030X0.00030*%
%ADD460R,0.08970X0.00030*%
%ADD461R,0.07440X0.00030*%
%ADD462R,0.08940X0.00030*%
%ADD463R,0.07470X0.00030*%
%ADD464R,0.08880X0.00030*%
%ADD465R,0.07470X0.00030*%
%ADD466R,0.08850X0.00030*%
%ADD467R,0.08790X0.00030*%
%ADD468R,0.07530X0.00030*%
%ADD469R,0.08700X0.00030*%
%ADD470R,0.07560X0.00030*%
%ADD471R,0.08610X0.00030*%
%ADD472R,0.07560X0.00030*%
%ADD473R,0.08550X0.00030*%
%ADD474R,0.07620X0.00030*%
%ADD475R,0.08460X0.00030*%
%ADD476R,0.08370X0.00030*%
%ADD477R,0.07680X0.00030*%
%ADD478R,0.07710X0.00030*%
%ADD479R,0.08040X0.00030*%
%ADD480R,0.07770X0.00030*%
%ADD481R,0.07860X0.00030*%
%ADD482R,0.07800X0.00030*%
%ADD483R,0.07830X0.00030*%
%ADD484R,0.07860X0.00030*%
%ADD485R,0.07860X0.00030*%
%ADD486R,0.07890X0.00030*%
%ADD487R,0.07380X0.00030*%
%ADD488R,0.05610X0.00030*%
%ADD489R,0.07980X0.00030*%
%ADD490R,0.01710X0.00030*%
%ADD491R,0.05370X0.00030*%
%ADD492R,0.08010X0.00030*%
%ADD493R,0.01710X0.00030*%
%ADD494R,0.08070X0.00030*%
%ADD495R,0.08130X0.00030*%
%ADD496R,0.01830X0.00030*%
%ADD497R,0.04710X0.00030*%
%ADD498R,0.08190X0.00030*%
%ADD499R,0.04560X0.00030*%
%ADD500R,0.08220X0.00030*%
%ADD501R,0.01860X0.00030*%
%ADD502R,0.08280X0.00030*%
%ADD503R,0.08340X0.00030*%
%ADD504R,0.08400X0.00030*%
%ADD505R,0.08460X0.00030*%
%ADD506R,0.08520X0.00030*%
%ADD507R,0.08550X0.00030*%
%ADD508R,0.08610X0.00030*%
%ADD509R,0.02190X0.00030*%
%ADD510R,0.08670X0.00030*%
%ADD511R,0.02190X0.00030*%
%ADD512R,0.02520X0.00030*%
%ADD513R,0.02280X0.00030*%
%ADD514R,0.01890X0.00030*%
%ADD515R,0.06900X0.00030*%
%ADD516R,0.01920X0.00030*%
%ADD517R,0.02340X0.00030*%
%ADD518R,0.01410X0.00030*%
%ADD519R,0.00390X0.00030*%
%ADD520R,0.05040X0.00030*%
%ADD521R,0.06870X0.00030*%
%ADD522R,0.06870X0.00030*%
%ADD523R,0.06840X0.00030*%
%ADD524R,0.06840X0.00030*%
%ADD525R,0.06810X0.00030*%
%ADD526R,0.06780X0.00030*%
%ADD527R,0.06780X0.00030*%
%ADD528R,0.06750X0.00030*%
%ADD529R,0.05340X0.00030*%
%ADD530R,0.06720X0.00030*%
%ADD531R,0.05340X0.00030*%
%ADD532R,0.06660X0.00030*%
%ADD533R,0.06570X0.00030*%
%ADD534R,0.06480X0.00030*%
%ADD535R,0.06390X0.00030*%
%ADD536R,0.06210X0.00030*%
%ADD537R,0.06120X0.00030*%
%ADD538R,0.06060X0.00030*%
%ADD539R,0.06000X0.00030*%
%ADD540R,0.05910X0.00030*%
%ADD541R,0.05730X0.00030*%
%ADD542R,0.05310X0.00030*%
%ADD543R,0.05190X0.00030*%
%ADD544R,0.05160X0.00030*%
%ADD545R,0.05070X0.00030*%
%ADD546R,0.04860X0.00030*%
%ADD547R,0.04830X0.00030*%
%ADD548R,0.04620X0.00030*%
%ADD549R,0.04620X0.00030*%
%ADD550R,0.04590X0.00030*%
%ADD551R,0.04500X0.00030*%
%ADD552R,0.04440X0.00030*%
%ADD553R,0.04320X0.00030*%
%ADD554R,0.04050X0.00030*%
%ADD555R,0.03870X0.00030*%
%ADD556R,0.03750X0.00030*%
%ADD557R,0.03660X0.00030*%
%ADD558R,0.03570X0.00030*%
%ADD559R,0.03570X0.00030*%
%ADD560R,0.03540X0.00030*%
%ADD561R,0.03480X0.00030*%
%ADD562R,0.03450X0.00030*%
%ADD563R,0.03270X0.00030*%
%ADD564R,0.02970X0.00030*%
%ADD565R,0.02940X0.00030*%
%ADD566R,0.02790X0.00030*%
%ADD567R,0.02670X0.00030*%
%ADD568R,0.02610X0.00030*%
%ADD569R,0.02490X0.00030*%
%ADD570R,0.02190X0.00030*%
%ADD571R,0.02040X0.00030*%
%ADD572R,0.01710X0.00030*%
%ADD573R,0.01560X0.00030*%
%ADD574R,0.01470X0.00030*%
%ADD575R,0.01440X0.00030*%
%ADD576R,0.01290X0.00030*%
%ADD577R,0.01200X0.00030*%
%ADD578R,0.01080X0.00030*%
%ADD579R,0.00960X0.00030*%
%ADD580R,0.00810X0.00030*%
%ADD581R,0.00600X0.00030*%
%ADD582R,0.00480X0.00030*%
D10*
X0030750Y0024415D02*
X0135750Y0024415D01*
X0135992Y0024418D01*
X0136233Y0024427D01*
X0136474Y0024441D01*
X0136715Y0024462D01*
X0136955Y0024488D01*
X0137195Y0024520D01*
X0137434Y0024558D01*
X0137671Y0024601D01*
X0137908Y0024651D01*
X0138143Y0024706D01*
X0138377Y0024766D01*
X0138609Y0024833D01*
X0138840Y0024904D01*
X0139069Y0024982D01*
X0139296Y0025065D01*
X0139521Y0025153D01*
X0139744Y0025247D01*
X0139964Y0025346D01*
X0140182Y0025451D01*
X0140397Y0025560D01*
X0140610Y0025675D01*
X0140820Y0025795D01*
X0141026Y0025920D01*
X0141230Y0026050D01*
X0141431Y0026185D01*
X0141628Y0026325D01*
X0141822Y0026469D01*
X0142012Y0026618D01*
X0142198Y0026772D01*
X0142381Y0026930D01*
X0142560Y0027092D01*
X0142735Y0027259D01*
X0142906Y0027430D01*
X0143073Y0027605D01*
X0143235Y0027784D01*
X0143393Y0027967D01*
X0143547Y0028153D01*
X0143696Y0028343D01*
X0143840Y0028537D01*
X0143980Y0028734D01*
X0144115Y0028935D01*
X0144245Y0029139D01*
X0144370Y0029345D01*
X0144490Y0029555D01*
X0144605Y0029768D01*
X0144714Y0029983D01*
X0144819Y0030201D01*
X0144918Y0030421D01*
X0145012Y0030644D01*
X0145100Y0030869D01*
X0145183Y0031096D01*
X0145261Y0031325D01*
X0145332Y0031556D01*
X0145399Y0031788D01*
X0145459Y0032022D01*
X0145514Y0032257D01*
X0145564Y0032494D01*
X0145607Y0032731D01*
X0145645Y0032970D01*
X0145677Y0033210D01*
X0145703Y0033450D01*
X0145724Y0033691D01*
X0145738Y0033932D01*
X0145747Y0034173D01*
X0145750Y0034415D01*
X0145750Y0189415D01*
X0145747Y0189657D01*
X0145738Y0189898D01*
X0145724Y0190139D01*
X0145703Y0190380D01*
X0145677Y0190620D01*
X0145645Y0190860D01*
X0145607Y0191099D01*
X0145564Y0191336D01*
X0145514Y0191573D01*
X0145459Y0191808D01*
X0145399Y0192042D01*
X0145332Y0192274D01*
X0145261Y0192505D01*
X0145183Y0192734D01*
X0145100Y0192961D01*
X0145012Y0193186D01*
X0144918Y0193409D01*
X0144819Y0193629D01*
X0144714Y0193847D01*
X0144605Y0194062D01*
X0144490Y0194275D01*
X0144370Y0194485D01*
X0144245Y0194691D01*
X0144115Y0194895D01*
X0143980Y0195096D01*
X0143840Y0195293D01*
X0143696Y0195487D01*
X0143547Y0195677D01*
X0143393Y0195863D01*
X0143235Y0196046D01*
X0143073Y0196225D01*
X0142906Y0196400D01*
X0142735Y0196571D01*
X0142560Y0196738D01*
X0142381Y0196900D01*
X0142198Y0197058D01*
X0142012Y0197212D01*
X0141822Y0197361D01*
X0141628Y0197505D01*
X0141431Y0197645D01*
X0141230Y0197780D01*
X0141026Y0197910D01*
X0140820Y0198035D01*
X0140610Y0198155D01*
X0140397Y0198270D01*
X0140182Y0198379D01*
X0139964Y0198484D01*
X0139744Y0198583D01*
X0139521Y0198677D01*
X0139296Y0198765D01*
X0139069Y0198848D01*
X0138840Y0198926D01*
X0138609Y0198997D01*
X0138377Y0199064D01*
X0138143Y0199124D01*
X0137908Y0199179D01*
X0137671Y0199229D01*
X0137434Y0199272D01*
X0137195Y0199310D01*
X0136955Y0199342D01*
X0136715Y0199368D01*
X0136474Y0199389D01*
X0136233Y0199403D01*
X0135992Y0199412D01*
X0135750Y0199415D01*
X0030750Y0199415D01*
X0030508Y0199412D01*
X0030267Y0199403D01*
X0030026Y0199389D01*
X0029785Y0199368D01*
X0029545Y0199342D01*
X0029305Y0199310D01*
X0029066Y0199272D01*
X0028829Y0199229D01*
X0028592Y0199179D01*
X0028357Y0199124D01*
X0028123Y0199064D01*
X0027891Y0198997D01*
X0027660Y0198926D01*
X0027431Y0198848D01*
X0027204Y0198765D01*
X0026979Y0198677D01*
X0026756Y0198583D01*
X0026536Y0198484D01*
X0026318Y0198379D01*
X0026103Y0198270D01*
X0025890Y0198155D01*
X0025680Y0198035D01*
X0025474Y0197910D01*
X0025270Y0197780D01*
X0025069Y0197645D01*
X0024872Y0197505D01*
X0024678Y0197361D01*
X0024488Y0197212D01*
X0024302Y0197058D01*
X0024119Y0196900D01*
X0023940Y0196738D01*
X0023765Y0196571D01*
X0023594Y0196400D01*
X0023427Y0196225D01*
X0023265Y0196046D01*
X0023107Y0195863D01*
X0022953Y0195677D01*
X0022804Y0195487D01*
X0022660Y0195293D01*
X0022520Y0195096D01*
X0022385Y0194895D01*
X0022255Y0194691D01*
X0022130Y0194485D01*
X0022010Y0194275D01*
X0021895Y0194062D01*
X0021786Y0193847D01*
X0021681Y0193629D01*
X0021582Y0193409D01*
X0021488Y0193186D01*
X0021400Y0192961D01*
X0021317Y0192734D01*
X0021239Y0192505D01*
X0021168Y0192274D01*
X0021101Y0192042D01*
X0021041Y0191808D01*
X0020986Y0191573D01*
X0020936Y0191336D01*
X0020893Y0191099D01*
X0020855Y0190860D01*
X0020823Y0190620D01*
X0020797Y0190380D01*
X0020776Y0190139D01*
X0020762Y0189898D01*
X0020753Y0189657D01*
X0020750Y0189415D01*
X0020750Y0075915D01*
X0025250Y0075915D01*
X0025250Y0060915D01*
X0020750Y0060915D01*
X0020750Y0034415D01*
X0020753Y0034173D01*
X0020762Y0033932D01*
X0020776Y0033691D01*
X0020797Y0033450D01*
X0020823Y0033210D01*
X0020855Y0032970D01*
X0020893Y0032731D01*
X0020936Y0032494D01*
X0020986Y0032257D01*
X0021041Y0032022D01*
X0021101Y0031788D01*
X0021168Y0031556D01*
X0021239Y0031325D01*
X0021317Y0031096D01*
X0021400Y0030869D01*
X0021488Y0030644D01*
X0021582Y0030421D01*
X0021681Y0030201D01*
X0021786Y0029983D01*
X0021895Y0029768D01*
X0022010Y0029555D01*
X0022130Y0029345D01*
X0022255Y0029139D01*
X0022385Y0028935D01*
X0022520Y0028734D01*
X0022660Y0028537D01*
X0022804Y0028343D01*
X0022953Y0028153D01*
X0023107Y0027967D01*
X0023265Y0027784D01*
X0023427Y0027605D01*
X0023594Y0027430D01*
X0023765Y0027259D01*
X0023940Y0027092D01*
X0024119Y0026930D01*
X0024302Y0026772D01*
X0024488Y0026618D01*
X0024678Y0026469D01*
X0024872Y0026325D01*
X0025069Y0026185D01*
X0025270Y0026050D01*
X0025474Y0025920D01*
X0025680Y0025795D01*
X0025890Y0025675D01*
X0026103Y0025560D01*
X0026318Y0025451D01*
X0026536Y0025346D01*
X0026756Y0025247D01*
X0026979Y0025153D01*
X0027204Y0025065D01*
X0027431Y0024982D01*
X0027660Y0024904D01*
X0027891Y0024833D01*
X0028123Y0024766D01*
X0028357Y0024706D01*
X0028592Y0024651D01*
X0028829Y0024601D01*
X0029066Y0024558D01*
X0029305Y0024520D01*
X0029545Y0024488D01*
X0029785Y0024462D01*
X0030026Y0024441D01*
X0030267Y0024427D01*
X0030508Y0024418D01*
X0030750Y0024415D01*
X0059529Y0068415D02*
X0059531Y0068516D01*
X0059537Y0068617D01*
X0059547Y0068718D01*
X0059561Y0068818D01*
X0059579Y0068917D01*
X0059601Y0069016D01*
X0059626Y0069114D01*
X0059656Y0069211D01*
X0059689Y0069306D01*
X0059726Y0069400D01*
X0059767Y0069493D01*
X0059811Y0069584D01*
X0059859Y0069673D01*
X0059911Y0069760D01*
X0059966Y0069845D01*
X0060024Y0069927D01*
X0060085Y0070008D01*
X0060150Y0070086D01*
X0060217Y0070161D01*
X0060287Y0070233D01*
X0060361Y0070303D01*
X0060437Y0070370D01*
X0060515Y0070434D01*
X0060596Y0070494D01*
X0060679Y0070551D01*
X0060765Y0070605D01*
X0060853Y0070656D01*
X0060942Y0070703D01*
X0061033Y0070747D01*
X0061126Y0070786D01*
X0061221Y0070823D01*
X0061316Y0070855D01*
X0061413Y0070884D01*
X0061512Y0070908D01*
X0061610Y0070929D01*
X0061710Y0070946D01*
X0061810Y0070959D01*
X0061911Y0070968D01*
X0062012Y0070973D01*
X0062113Y0070974D01*
X0062214Y0070971D01*
X0062315Y0070964D01*
X0062416Y0070953D01*
X0062516Y0070938D01*
X0062615Y0070919D01*
X0062714Y0070896D01*
X0062811Y0070870D01*
X0062908Y0070839D01*
X0063003Y0070805D01*
X0063096Y0070767D01*
X0063189Y0070725D01*
X0063279Y0070680D01*
X0063368Y0070631D01*
X0063454Y0070579D01*
X0063538Y0070523D01*
X0063621Y0070464D01*
X0063700Y0070402D01*
X0063778Y0070337D01*
X0063852Y0070269D01*
X0063924Y0070197D01*
X0063993Y0070124D01*
X0064059Y0070047D01*
X0064122Y0069968D01*
X0064182Y0069886D01*
X0064238Y0069802D01*
X0064291Y0069716D01*
X0064341Y0069628D01*
X0064387Y0069538D01*
X0064430Y0069447D01*
X0064469Y0069353D01*
X0064504Y0069258D01*
X0064535Y0069162D01*
X0064563Y0069065D01*
X0064587Y0068967D01*
X0064607Y0068868D01*
X0064623Y0068768D01*
X0064635Y0068667D01*
X0064643Y0068567D01*
X0064647Y0068466D01*
X0064647Y0068364D01*
X0064643Y0068263D01*
X0064635Y0068163D01*
X0064623Y0068062D01*
X0064607Y0067962D01*
X0064587Y0067863D01*
X0064563Y0067765D01*
X0064535Y0067668D01*
X0064504Y0067572D01*
X0064469Y0067477D01*
X0064430Y0067383D01*
X0064387Y0067292D01*
X0064341Y0067202D01*
X0064291Y0067114D01*
X0064238Y0067028D01*
X0064182Y0066944D01*
X0064122Y0066862D01*
X0064059Y0066783D01*
X0063993Y0066706D01*
X0063924Y0066633D01*
X0063852Y0066561D01*
X0063778Y0066493D01*
X0063700Y0066428D01*
X0063621Y0066366D01*
X0063538Y0066307D01*
X0063454Y0066251D01*
X0063367Y0066199D01*
X0063279Y0066150D01*
X0063189Y0066105D01*
X0063096Y0066063D01*
X0063003Y0066025D01*
X0062908Y0065991D01*
X0062811Y0065960D01*
X0062714Y0065934D01*
X0062615Y0065911D01*
X0062516Y0065892D01*
X0062416Y0065877D01*
X0062315Y0065866D01*
X0062214Y0065859D01*
X0062113Y0065856D01*
X0062012Y0065857D01*
X0061911Y0065862D01*
X0061810Y0065871D01*
X0061710Y0065884D01*
X0061610Y0065901D01*
X0061512Y0065922D01*
X0061413Y0065946D01*
X0061316Y0065975D01*
X0061221Y0066007D01*
X0061126Y0066044D01*
X0061033Y0066083D01*
X0060942Y0066127D01*
X0060853Y0066174D01*
X0060765Y0066225D01*
X0060679Y0066279D01*
X0060596Y0066336D01*
X0060515Y0066396D01*
X0060437Y0066460D01*
X0060361Y0066527D01*
X0060287Y0066597D01*
X0060217Y0066669D01*
X0060150Y0066744D01*
X0060085Y0066822D01*
X0060024Y0066903D01*
X0059966Y0066985D01*
X0059911Y0067070D01*
X0059859Y0067157D01*
X0059811Y0067246D01*
X0059767Y0067337D01*
X0059726Y0067430D01*
X0059689Y0067524D01*
X0059656Y0067619D01*
X0059626Y0067716D01*
X0059601Y0067814D01*
X0059579Y0067913D01*
X0059561Y0068012D01*
X0059547Y0068112D01*
X0059537Y0068213D01*
X0059531Y0068314D01*
X0059529Y0068415D01*
X0031450Y0096061D02*
X0029088Y0096061D01*
X0029089Y0096060D02*
X0029023Y0096068D01*
X0028959Y0096080D01*
X0028895Y0096096D01*
X0028832Y0096115D01*
X0028771Y0096139D01*
X0028711Y0096166D01*
X0028653Y0096196D01*
X0028597Y0096230D01*
X0028543Y0096267D01*
X0028491Y0096308D01*
X0028442Y0096352D01*
X0028395Y0096398D01*
X0028352Y0096447D01*
X0028311Y0096499D01*
X0028274Y0096553D01*
X0028240Y0096609D01*
X0028210Y0096667D01*
X0028183Y0096727D01*
X0028159Y0096788D01*
X0028140Y0096851D01*
X0028124Y0096915D01*
X0028112Y0096979D01*
X0028104Y0097045D01*
X0028100Y0097110D01*
X0028100Y0097176D01*
X0028104Y0097241D01*
X0028104Y0097242D02*
X0028100Y0097307D01*
X0028100Y0097373D01*
X0028104Y0097438D01*
X0028112Y0097504D01*
X0028124Y0097568D01*
X0028140Y0097632D01*
X0028159Y0097695D01*
X0028183Y0097756D01*
X0028210Y0097816D01*
X0028240Y0097874D01*
X0028274Y0097930D01*
X0028311Y0097984D01*
X0028352Y0098036D01*
X0028395Y0098085D01*
X0028442Y0098131D01*
X0028491Y0098175D01*
X0028543Y0098216D01*
X0028597Y0098253D01*
X0028653Y0098287D01*
X0028711Y0098317D01*
X0028771Y0098344D01*
X0028832Y0098368D01*
X0028895Y0098387D01*
X0028959Y0098403D01*
X0029023Y0098415D01*
X0029089Y0098423D01*
X0029088Y0098423D02*
X0031450Y0098423D01*
X0031513Y0098415D01*
X0031575Y0098404D01*
X0031637Y0098389D01*
X0031697Y0098371D01*
X0031757Y0098349D01*
X0031815Y0098324D01*
X0031871Y0098295D01*
X0031926Y0098263D01*
X0031978Y0098228D01*
X0032029Y0098190D01*
X0032077Y0098150D01*
X0032123Y0098106D01*
X0032166Y0098060D01*
X0032207Y0098011D01*
X0032245Y0097960D01*
X0032279Y0097908D01*
X0032311Y0097853D01*
X0032339Y0097796D01*
X0032364Y0097738D01*
X0032385Y0097678D01*
X0032403Y0097618D01*
X0032417Y0097556D01*
X0032428Y0097494D01*
X0032435Y0097431D01*
X0032439Y0097368D01*
X0032438Y0097305D01*
X0032435Y0097242D01*
X0032435Y0097241D02*
X0032438Y0097178D01*
X0032439Y0097115D01*
X0032435Y0097052D01*
X0032428Y0096989D01*
X0032417Y0096927D01*
X0032403Y0096865D01*
X0032385Y0096805D01*
X0032364Y0096745D01*
X0032339Y0096687D01*
X0032311Y0096630D01*
X0032279Y0096575D01*
X0032245Y0096523D01*
X0032207Y0096472D01*
X0032166Y0096423D01*
X0032123Y0096377D01*
X0032077Y0096333D01*
X0032029Y0096293D01*
X0031978Y0096255D01*
X0031926Y0096220D01*
X0031871Y0096188D01*
X0031815Y0096159D01*
X0031757Y0096134D01*
X0031697Y0096112D01*
X0031637Y0096094D01*
X0031575Y0096079D01*
X0031513Y0096068D01*
X0031450Y0096060D01*
X0036372Y0103738D02*
X0036374Y0103812D01*
X0036380Y0103886D01*
X0036390Y0103959D01*
X0036404Y0104032D01*
X0036421Y0104104D01*
X0036443Y0104174D01*
X0036468Y0104244D01*
X0036497Y0104312D01*
X0036530Y0104378D01*
X0036566Y0104443D01*
X0036606Y0104505D01*
X0036648Y0104566D01*
X0036694Y0104624D01*
X0036743Y0104679D01*
X0036795Y0104732D01*
X0036850Y0104782D01*
X0036907Y0104828D01*
X0036967Y0104872D01*
X0037029Y0104912D01*
X0037093Y0104949D01*
X0037159Y0104983D01*
X0037227Y0105013D01*
X0037296Y0105039D01*
X0037367Y0105062D01*
X0037438Y0105080D01*
X0037511Y0105095D01*
X0037584Y0105106D01*
X0037658Y0105113D01*
X0037732Y0105116D01*
X0037805Y0105115D01*
X0037879Y0105110D01*
X0037953Y0105101D01*
X0038026Y0105088D01*
X0038098Y0105071D01*
X0038169Y0105051D01*
X0038239Y0105026D01*
X0038307Y0104998D01*
X0038374Y0104967D01*
X0038439Y0104931D01*
X0038502Y0104893D01*
X0038563Y0104851D01*
X0038622Y0104805D01*
X0038678Y0104757D01*
X0038731Y0104706D01*
X0038781Y0104652D01*
X0038829Y0104595D01*
X0038873Y0104536D01*
X0038915Y0104474D01*
X0038953Y0104411D01*
X0038987Y0104345D01*
X0039018Y0104278D01*
X0039045Y0104209D01*
X0039068Y0104139D01*
X0039088Y0104068D01*
X0039104Y0103995D01*
X0039116Y0103922D01*
X0039124Y0103849D01*
X0039128Y0103775D01*
X0039128Y0103701D01*
X0039124Y0103627D01*
X0039116Y0103554D01*
X0039104Y0103481D01*
X0039088Y0103408D01*
X0039068Y0103337D01*
X0039045Y0103267D01*
X0039018Y0103198D01*
X0038987Y0103131D01*
X0038953Y0103065D01*
X0038915Y0103002D01*
X0038873Y0102940D01*
X0038829Y0102881D01*
X0038781Y0102824D01*
X0038731Y0102770D01*
X0038678Y0102719D01*
X0038622Y0102671D01*
X0038563Y0102625D01*
X0038502Y0102583D01*
X0038439Y0102545D01*
X0038374Y0102509D01*
X0038307Y0102478D01*
X0038239Y0102450D01*
X0038169Y0102425D01*
X0038098Y0102405D01*
X0038026Y0102388D01*
X0037953Y0102375D01*
X0037879Y0102366D01*
X0037805Y0102361D01*
X0037732Y0102360D01*
X0037658Y0102363D01*
X0037584Y0102370D01*
X0037511Y0102381D01*
X0037438Y0102396D01*
X0037367Y0102414D01*
X0037296Y0102437D01*
X0037227Y0102463D01*
X0037159Y0102493D01*
X0037093Y0102527D01*
X0037029Y0102564D01*
X0036967Y0102604D01*
X0036907Y0102648D01*
X0036850Y0102694D01*
X0036795Y0102744D01*
X0036743Y0102797D01*
X0036694Y0102852D01*
X0036648Y0102910D01*
X0036606Y0102971D01*
X0036566Y0103033D01*
X0036530Y0103098D01*
X0036497Y0103164D01*
X0036468Y0103232D01*
X0036443Y0103302D01*
X0036421Y0103372D01*
X0036404Y0103444D01*
X0036390Y0103517D01*
X0036380Y0103590D01*
X0036374Y0103664D01*
X0036372Y0103738D01*
X0036372Y0119092D02*
X0036374Y0119166D01*
X0036380Y0119240D01*
X0036390Y0119313D01*
X0036404Y0119386D01*
X0036421Y0119458D01*
X0036443Y0119528D01*
X0036468Y0119598D01*
X0036497Y0119666D01*
X0036530Y0119732D01*
X0036566Y0119797D01*
X0036606Y0119859D01*
X0036648Y0119920D01*
X0036694Y0119978D01*
X0036743Y0120033D01*
X0036795Y0120086D01*
X0036850Y0120136D01*
X0036907Y0120182D01*
X0036967Y0120226D01*
X0037029Y0120266D01*
X0037093Y0120303D01*
X0037159Y0120337D01*
X0037227Y0120367D01*
X0037296Y0120393D01*
X0037367Y0120416D01*
X0037438Y0120434D01*
X0037511Y0120449D01*
X0037584Y0120460D01*
X0037658Y0120467D01*
X0037732Y0120470D01*
X0037805Y0120469D01*
X0037879Y0120464D01*
X0037953Y0120455D01*
X0038026Y0120442D01*
X0038098Y0120425D01*
X0038169Y0120405D01*
X0038239Y0120380D01*
X0038307Y0120352D01*
X0038374Y0120321D01*
X0038439Y0120285D01*
X0038502Y0120247D01*
X0038563Y0120205D01*
X0038622Y0120159D01*
X0038678Y0120111D01*
X0038731Y0120060D01*
X0038781Y0120006D01*
X0038829Y0119949D01*
X0038873Y0119890D01*
X0038915Y0119828D01*
X0038953Y0119765D01*
X0038987Y0119699D01*
X0039018Y0119632D01*
X0039045Y0119563D01*
X0039068Y0119493D01*
X0039088Y0119422D01*
X0039104Y0119349D01*
X0039116Y0119276D01*
X0039124Y0119203D01*
X0039128Y0119129D01*
X0039128Y0119055D01*
X0039124Y0118981D01*
X0039116Y0118908D01*
X0039104Y0118835D01*
X0039088Y0118762D01*
X0039068Y0118691D01*
X0039045Y0118621D01*
X0039018Y0118552D01*
X0038987Y0118485D01*
X0038953Y0118419D01*
X0038915Y0118356D01*
X0038873Y0118294D01*
X0038829Y0118235D01*
X0038781Y0118178D01*
X0038731Y0118124D01*
X0038678Y0118073D01*
X0038622Y0118025D01*
X0038563Y0117979D01*
X0038502Y0117937D01*
X0038439Y0117899D01*
X0038374Y0117863D01*
X0038307Y0117832D01*
X0038239Y0117804D01*
X0038169Y0117779D01*
X0038098Y0117759D01*
X0038026Y0117742D01*
X0037953Y0117729D01*
X0037879Y0117720D01*
X0037805Y0117715D01*
X0037732Y0117714D01*
X0037658Y0117717D01*
X0037584Y0117724D01*
X0037511Y0117735D01*
X0037438Y0117750D01*
X0037367Y0117768D01*
X0037296Y0117791D01*
X0037227Y0117817D01*
X0037159Y0117847D01*
X0037093Y0117881D01*
X0037029Y0117918D01*
X0036967Y0117958D01*
X0036907Y0118002D01*
X0036850Y0118048D01*
X0036795Y0118098D01*
X0036743Y0118151D01*
X0036694Y0118206D01*
X0036648Y0118264D01*
X0036606Y0118325D01*
X0036566Y0118387D01*
X0036530Y0118452D01*
X0036497Y0118518D01*
X0036468Y0118586D01*
X0036443Y0118656D01*
X0036421Y0118726D01*
X0036404Y0118798D01*
X0036390Y0118871D01*
X0036380Y0118944D01*
X0036374Y0119018D01*
X0036372Y0119092D01*
X0031450Y0124407D02*
X0029088Y0124407D01*
X0029089Y0124407D02*
X0029023Y0124415D01*
X0028959Y0124427D01*
X0028895Y0124443D01*
X0028832Y0124462D01*
X0028771Y0124486D01*
X0028711Y0124513D01*
X0028653Y0124543D01*
X0028597Y0124577D01*
X0028543Y0124614D01*
X0028491Y0124655D01*
X0028442Y0124699D01*
X0028395Y0124745D01*
X0028352Y0124794D01*
X0028311Y0124846D01*
X0028274Y0124900D01*
X0028240Y0124956D01*
X0028210Y0125014D01*
X0028183Y0125074D01*
X0028159Y0125135D01*
X0028140Y0125198D01*
X0028124Y0125262D01*
X0028112Y0125326D01*
X0028104Y0125392D01*
X0028100Y0125457D01*
X0028100Y0125523D01*
X0028104Y0125588D01*
X0028104Y0125589D02*
X0028100Y0125654D01*
X0028100Y0125720D01*
X0028104Y0125785D01*
X0028112Y0125851D01*
X0028124Y0125915D01*
X0028140Y0125979D01*
X0028159Y0126042D01*
X0028183Y0126103D01*
X0028210Y0126163D01*
X0028240Y0126221D01*
X0028274Y0126277D01*
X0028311Y0126331D01*
X0028352Y0126383D01*
X0028395Y0126432D01*
X0028442Y0126478D01*
X0028491Y0126522D01*
X0028543Y0126563D01*
X0028597Y0126600D01*
X0028653Y0126634D01*
X0028711Y0126664D01*
X0028771Y0126691D01*
X0028832Y0126715D01*
X0028895Y0126734D01*
X0028959Y0126750D01*
X0029023Y0126762D01*
X0029089Y0126770D01*
X0029088Y0126769D02*
X0031450Y0126769D01*
X0031450Y0126770D02*
X0031513Y0126762D01*
X0031575Y0126751D01*
X0031637Y0126736D01*
X0031697Y0126718D01*
X0031757Y0126696D01*
X0031815Y0126671D01*
X0031871Y0126642D01*
X0031926Y0126610D01*
X0031978Y0126575D01*
X0032029Y0126537D01*
X0032077Y0126497D01*
X0032123Y0126453D01*
X0032166Y0126407D01*
X0032207Y0126358D01*
X0032245Y0126307D01*
X0032279Y0126255D01*
X0032311Y0126200D01*
X0032339Y0126143D01*
X0032364Y0126085D01*
X0032385Y0126025D01*
X0032403Y0125965D01*
X0032417Y0125903D01*
X0032428Y0125841D01*
X0032435Y0125778D01*
X0032439Y0125715D01*
X0032438Y0125652D01*
X0032435Y0125589D01*
X0032435Y0125588D02*
X0032438Y0125525D01*
X0032439Y0125462D01*
X0032435Y0125399D01*
X0032428Y0125336D01*
X0032417Y0125274D01*
X0032403Y0125212D01*
X0032385Y0125152D01*
X0032364Y0125092D01*
X0032339Y0125034D01*
X0032311Y0124977D01*
X0032279Y0124922D01*
X0032245Y0124870D01*
X0032207Y0124819D01*
X0032166Y0124770D01*
X0032123Y0124724D01*
X0032077Y0124680D01*
X0032029Y0124640D01*
X0031978Y0124602D01*
X0031926Y0124567D01*
X0031871Y0124535D01*
X0031815Y0124506D01*
X0031757Y0124481D01*
X0031697Y0124459D01*
X0031637Y0124441D01*
X0031575Y0124426D01*
X0031513Y0124415D01*
X0031450Y0124407D01*
D11*
X0024364Y0126376D02*
X0020821Y0126376D01*
X0020821Y0096454D01*
X0024364Y0096454D01*
X0042080Y0101573D02*
X0042080Y0104722D01*
X0045200Y0104366D02*
X0045200Y0107369D01*
X0048202Y0107369D02*
X0048202Y0104366D01*
X0046701Y0102865D01*
X0045200Y0104366D01*
X0047133Y0103168D02*
X0047133Y0101417D01*
X0048301Y0102000D01*
X0048885Y0102000D01*
X0049469Y0101417D01*
X0049469Y0100249D01*
X0048885Y0099665D01*
X0047717Y0099665D01*
X0047133Y0100249D01*
X0047133Y0103168D02*
X0049469Y0103168D01*
X0049804Y0102865D02*
X0052056Y0102865D01*
X0052806Y0103616D01*
X0052806Y0104366D01*
X0052056Y0105117D01*
X0049804Y0105117D01*
X0050817Y0103168D02*
X0050817Y0100833D01*
X0051984Y0099665D01*
X0053152Y0100833D01*
X0053152Y0103168D01*
X0054408Y0103616D02*
X0055158Y0102865D01*
X0056659Y0102865D01*
X0057410Y0103616D01*
X0057410Y0107369D01*
X0059011Y0106618D02*
X0059011Y0105868D01*
X0059762Y0105117D01*
X0061263Y0105117D01*
X0062014Y0104366D01*
X0062014Y0103616D01*
X0061263Y0102865D01*
X0059762Y0102865D01*
X0059011Y0103616D01*
X0059011Y0106618D02*
X0059762Y0107369D01*
X0061263Y0107369D01*
X0062014Y0106618D01*
X0062702Y0111865D02*
X0062702Y0114868D01*
X0061201Y0116369D01*
X0059700Y0114868D01*
X0059700Y0111865D01*
X0059700Y0114117D02*
X0062702Y0114117D01*
X0064304Y0116369D02*
X0064304Y0111865D01*
X0066556Y0111865D01*
X0067306Y0112616D01*
X0067306Y0115618D01*
X0066556Y0116369D01*
X0064304Y0116369D01*
X0068908Y0115618D02*
X0068908Y0112616D01*
X0069658Y0111865D01*
X0071159Y0111865D01*
X0071910Y0112616D01*
X0071910Y0115618D02*
X0071159Y0116369D01*
X0069658Y0116369D01*
X0068908Y0115618D01*
X0068617Y0100168D02*
X0067450Y0100168D01*
X0066866Y0099584D01*
X0066866Y0097249D01*
X0067450Y0096665D01*
X0068617Y0096665D01*
X0069201Y0097249D01*
X0070317Y0099045D02*
X0070317Y0162037D01*
X0141183Y0162037D01*
X0141183Y0099045D01*
X0070317Y0099045D01*
X0069201Y0099584D02*
X0068617Y0100168D01*
X0065518Y0099584D02*
X0065518Y0097249D01*
X0064934Y0096665D01*
X0063183Y0096665D01*
X0063183Y0100168D01*
X0064934Y0100168D01*
X0065518Y0099584D01*
X0061835Y0099000D02*
X0061835Y0096665D01*
X0061835Y0098417D02*
X0059500Y0098417D01*
X0059500Y0099000D02*
X0060667Y0100168D01*
X0061835Y0099000D01*
X0059500Y0099000D02*
X0059500Y0096665D01*
X0054408Y0103616D02*
X0054408Y0107369D01*
X0052806Y0106618D02*
X0052806Y0105868D01*
X0052056Y0105117D01*
X0052806Y0106618D02*
X0052056Y0107369D01*
X0049804Y0107369D01*
X0049804Y0102865D01*
X0042080Y0118108D02*
X0042080Y0121258D01*
X0024687Y0075108D02*
X0020750Y0075108D01*
X0024687Y0075108D02*
X0024687Y0061722D01*
X0020750Y0061722D01*
X0022678Y0039168D02*
X0024429Y0039168D01*
X0025013Y0038584D01*
X0025013Y0038000D01*
X0024429Y0037417D01*
X0022678Y0037417D01*
X0022678Y0039168D02*
X0022678Y0035665D01*
X0024429Y0035665D01*
X0025013Y0036249D01*
X0025013Y0036833D01*
X0024429Y0037417D01*
X0026361Y0036249D02*
X0026945Y0036833D01*
X0028696Y0036833D01*
X0028696Y0037417D02*
X0028696Y0035665D01*
X0026945Y0035665D01*
X0026361Y0036249D01*
X0026945Y0038000D02*
X0028113Y0038000D01*
X0028696Y0037417D01*
X0030044Y0038000D02*
X0031212Y0038000D01*
X0030628Y0038584D02*
X0030628Y0036249D01*
X0031212Y0035665D01*
X0033950Y0035749D02*
X0033950Y0038084D01*
X0034534Y0038668D01*
X0035702Y0038668D01*
X0036286Y0038084D01*
X0036286Y0036917D02*
X0035118Y0036917D01*
X0036286Y0036917D02*
X0036286Y0035749D01*
X0035702Y0035165D01*
X0034534Y0035165D01*
X0033950Y0035749D01*
X0037633Y0035165D02*
X0037633Y0038668D01*
X0039969Y0035165D01*
X0039969Y0038668D01*
X0041317Y0038668D02*
X0043068Y0038668D01*
X0043652Y0038084D01*
X0043652Y0035749D01*
X0043068Y0035165D01*
X0041317Y0035165D01*
X0041317Y0038668D01*
X0047081Y0036833D02*
X0049416Y0036833D01*
X0048248Y0035665D02*
X0048248Y0038000D01*
X0051497Y0038249D02*
X0051497Y0039417D01*
X0052081Y0040000D01*
X0053248Y0039417D02*
X0053832Y0040000D01*
X0054416Y0040000D01*
X0055000Y0039417D01*
X0055000Y0038249D01*
X0054416Y0037665D01*
X0053248Y0038249D02*
X0053248Y0039417D01*
X0053248Y0038249D02*
X0052664Y0037665D01*
X0052081Y0037665D01*
X0051497Y0038249D01*
X0051497Y0041348D02*
X0051497Y0043100D01*
X0052081Y0043684D01*
X0053248Y0043684D01*
X0053832Y0043100D01*
X0053832Y0041348D01*
X0055000Y0041348D02*
X0051497Y0041348D01*
X0051497Y0045031D02*
X0055000Y0045031D01*
X0053832Y0045031D02*
X0051497Y0047367D01*
X0051497Y0048714D02*
X0051497Y0050466D01*
X0052081Y0051050D01*
X0053248Y0051050D01*
X0053832Y0050466D01*
X0053832Y0048714D01*
X0055000Y0048714D02*
X0051497Y0048714D01*
X0053832Y0049882D02*
X0055000Y0051050D01*
X0055000Y0047367D02*
X0053248Y0045615D01*
X0059497Y0044799D02*
X0063000Y0044799D01*
X0061832Y0045966D01*
X0063000Y0047134D01*
X0059497Y0047134D01*
X0059497Y0048482D02*
X0059497Y0050233D01*
X0060081Y0050817D01*
X0061248Y0050817D01*
X0061832Y0050233D01*
X0061832Y0048482D01*
X0061832Y0049650D02*
X0063000Y0050817D01*
X0063000Y0048482D02*
X0059497Y0048482D01*
X0060081Y0043451D02*
X0061248Y0043451D01*
X0061832Y0042867D01*
X0061832Y0041116D01*
X0063000Y0041116D02*
X0059497Y0041116D01*
X0059497Y0042867D01*
X0060081Y0043451D01*
X0064500Y0038168D02*
X0066251Y0038168D01*
X0066835Y0037584D01*
X0066835Y0036417D01*
X0066251Y0035833D01*
X0064500Y0035833D01*
X0065667Y0035833D02*
X0066835Y0034665D01*
X0068183Y0034665D02*
X0069934Y0034665D01*
X0070518Y0035249D01*
X0069934Y0035833D01*
X0068767Y0035833D01*
X0068183Y0036417D01*
X0068767Y0037000D01*
X0070518Y0037000D01*
X0071866Y0037000D02*
X0073034Y0037000D01*
X0072450Y0037584D02*
X0072450Y0035249D01*
X0073034Y0034665D01*
X0077497Y0035165D02*
X0077497Y0036917D01*
X0078081Y0037500D01*
X0079248Y0037500D01*
X0079832Y0036917D01*
X0079832Y0035165D01*
X0081000Y0035165D02*
X0077497Y0035165D01*
X0078081Y0038848D02*
X0078664Y0038848D01*
X0079248Y0039432D01*
X0079248Y0040600D01*
X0079832Y0041184D01*
X0080416Y0041184D01*
X0081000Y0040600D01*
X0081000Y0039432D01*
X0080416Y0038848D01*
X0078081Y0038848D02*
X0077497Y0039432D01*
X0077497Y0040600D01*
X0078081Y0041184D01*
X0084950Y0038168D02*
X0084950Y0034665D01*
X0084950Y0035833D02*
X0087286Y0038168D01*
X0088633Y0036417D02*
X0089217Y0037000D01*
X0090385Y0037000D01*
X0090969Y0036417D01*
X0090969Y0035833D01*
X0088633Y0035833D01*
X0088633Y0035249D02*
X0088633Y0036417D01*
X0088633Y0035249D02*
X0089217Y0034665D01*
X0090385Y0034665D01*
X0092317Y0035249D02*
X0092317Y0037000D01*
X0092317Y0035249D02*
X0092900Y0034665D01*
X0094652Y0034665D01*
X0094652Y0034081D02*
X0094068Y0033497D01*
X0093484Y0033497D01*
X0094652Y0034081D02*
X0094652Y0037000D01*
X0096997Y0036917D02*
X0096997Y0035165D01*
X0100500Y0035165D01*
X0099332Y0035165D02*
X0099332Y0036917D01*
X0098748Y0037500D01*
X0097581Y0037500D01*
X0096997Y0036917D01*
X0096997Y0038848D02*
X0096997Y0040016D01*
X0096997Y0039432D02*
X0100500Y0039432D01*
X0100500Y0038848D02*
X0100500Y0040016D01*
X0100500Y0037500D02*
X0099332Y0036333D01*
X0106497Y0035833D02*
X0110000Y0035833D01*
X0110000Y0038348D02*
X0106497Y0040684D01*
X0106497Y0038348D02*
X0110000Y0040684D01*
X0106497Y0037000D02*
X0106497Y0034665D01*
X0116997Y0035165D02*
X0116997Y0036917D01*
X0117581Y0037500D01*
X0118748Y0037500D01*
X0119332Y0036917D01*
X0119332Y0035165D01*
X0120500Y0035165D02*
X0116997Y0035165D01*
X0119332Y0036333D02*
X0120500Y0037500D01*
X0120500Y0038848D02*
X0116997Y0041184D01*
X0116997Y0038848D02*
X0120500Y0041184D01*
X0126497Y0040600D02*
X0126497Y0039432D01*
X0127081Y0038848D01*
X0127664Y0038848D01*
X0128248Y0039432D01*
X0128248Y0040600D01*
X0128832Y0041184D01*
X0129416Y0041184D01*
X0130000Y0040600D01*
X0130000Y0039432D01*
X0129416Y0038848D01*
X0130000Y0037500D02*
X0126497Y0037500D01*
X0126497Y0035165D02*
X0130000Y0037500D01*
X0130000Y0035165D02*
X0126497Y0035165D01*
X0126497Y0040600D02*
X0127081Y0041184D01*
X0135413Y0039432D02*
X0135997Y0039432D01*
X0137164Y0039432D02*
X0137164Y0038848D01*
X0137164Y0039432D02*
X0139500Y0039432D01*
X0139500Y0038848D02*
X0139500Y0040016D01*
X0138916Y0041304D02*
X0139500Y0041887D01*
X0139500Y0043055D01*
X0138916Y0043639D01*
X0137748Y0043639D01*
X0137164Y0043055D01*
X0137164Y0041887D01*
X0137748Y0041304D01*
X0138916Y0041304D01*
X0138332Y0037500D02*
X0135997Y0037500D01*
X0135997Y0035165D02*
X0138332Y0035165D01*
X0139500Y0036333D01*
X0138332Y0037500D01*
X0137344Y0022969D02*
X0135092Y0022969D01*
X0135092Y0018465D01*
X0135092Y0019966D02*
X0137344Y0019966D01*
X0138094Y0020717D01*
X0138094Y0022218D01*
X0137344Y0022969D01*
X0139696Y0021468D02*
X0141197Y0022969D01*
X0141197Y0018465D01*
X0139696Y0018465D02*
X0142698Y0018465D01*
X0132740Y0019216D02*
X0132740Y0022969D01*
X0133490Y0022969D02*
X0131989Y0022969D01*
X0132740Y0019216D02*
X0131989Y0018465D01*
X0131239Y0018465D01*
X0130488Y0019216D01*
X0097835Y0049417D02*
X0095500Y0049417D01*
X0096400Y0051165D02*
X0095817Y0051749D01*
X0095817Y0052917D01*
X0096400Y0053500D01*
X0098152Y0053500D01*
X0098152Y0051165D02*
X0096400Y0051165D01*
X0094529Y0051165D02*
X0093361Y0051165D01*
X0093945Y0051165D02*
X0093945Y0053500D01*
X0093361Y0053500D01*
X0093945Y0054668D02*
X0093945Y0055252D01*
X0092013Y0054668D02*
X0092013Y0051165D01*
X0091667Y0050584D02*
X0091667Y0048249D01*
X0090500Y0049417D02*
X0092835Y0049417D01*
X0089678Y0051165D02*
X0089678Y0054668D01*
X0090846Y0053500D01*
X0092013Y0054668D01*
X0085534Y0036417D02*
X0087286Y0034665D01*
X0064500Y0034665D02*
X0064500Y0038168D01*
X0059335Y0035417D02*
X0057000Y0035417D01*
X0140997Y0087249D02*
X0141581Y0086665D01*
X0140997Y0087249D02*
X0140997Y0088417D01*
X0141581Y0089000D01*
X0142164Y0089000D01*
X0144500Y0086665D01*
X0144500Y0089000D01*
X0144500Y0090348D02*
X0144500Y0090932D01*
X0143916Y0090932D01*
X0143916Y0090348D01*
X0144500Y0090348D01*
X0143916Y0092190D02*
X0143332Y0092190D01*
X0142748Y0092774D01*
X0142748Y0093941D01*
X0143332Y0094525D01*
X0143916Y0094525D01*
X0144500Y0093941D01*
X0144500Y0092774D01*
X0143916Y0092190D01*
X0142748Y0092774D02*
X0142164Y0092190D01*
X0141581Y0092190D01*
X0140997Y0092774D01*
X0140997Y0093941D01*
X0141581Y0094525D01*
X0142164Y0094525D01*
X0142748Y0093941D01*
X0143332Y0095873D02*
X0140997Y0095873D01*
X0143332Y0095873D02*
X0144500Y0097041D01*
X0143332Y0098208D01*
X0140997Y0098208D01*
X0101000Y0165665D02*
X0097497Y0165665D01*
X0101000Y0168000D01*
X0097497Y0168000D01*
X0099248Y0169348D02*
X0098664Y0169932D01*
X0098664Y0171100D01*
X0099248Y0171684D01*
X0099832Y0171684D01*
X0099832Y0169348D01*
X0100416Y0169348D02*
X0099248Y0169348D01*
X0100416Y0169348D02*
X0101000Y0169932D01*
X0101000Y0171100D01*
X0100416Y0173615D02*
X0098081Y0173615D01*
X0098664Y0173031D02*
X0098664Y0174199D01*
X0100416Y0173615D02*
X0101000Y0174199D01*
X0126000Y0175165D02*
X0126000Y0178668D01*
X0127751Y0178668D01*
X0128335Y0178084D01*
X0128335Y0176917D01*
X0127751Y0176333D01*
X0126000Y0176333D01*
X0129683Y0175165D02*
X0130851Y0176333D01*
X0132018Y0175165D01*
X0132018Y0178668D01*
X0133366Y0178668D02*
X0134534Y0177500D01*
X0135701Y0178668D01*
X0135701Y0175165D01*
X0133366Y0175165D02*
X0133366Y0178668D01*
X0129683Y0178668D02*
X0129683Y0175165D01*
X0135700Y0183865D02*
X0135700Y0188369D01*
X0137952Y0188369D01*
X0138702Y0187618D01*
X0138702Y0186117D01*
X0137952Y0185366D01*
X0135700Y0185366D01*
X0140304Y0183865D02*
X0141805Y0185366D01*
X0143306Y0183865D01*
X0143306Y0188369D01*
X0144908Y0188369D02*
X0146409Y0186868D01*
X0147910Y0188369D01*
X0147910Y0183865D01*
X0144908Y0183865D02*
X0144908Y0188369D01*
X0140304Y0188369D02*
X0140304Y0183865D01*
X0209500Y0192480D02*
X0210750Y0192480D01*
X0210750Y0194980D01*
X0209500Y0194980D01*
X0209500Y0192480D01*
X0210750Y0192480D02*
X0210750Y0188730D01*
X0220750Y0188730D01*
X0220750Y0198730D01*
X0210750Y0198730D01*
X0210750Y0194980D01*
X0210750Y0188730D02*
X0210750Y0068730D01*
X0230750Y0068730D01*
X0230750Y0198730D01*
X0220750Y0198730D01*
X0052652Y0183000D02*
X0052652Y0180081D01*
X0052068Y0179497D01*
X0051484Y0179497D01*
X0050900Y0180665D02*
X0052652Y0180665D01*
X0050900Y0180665D02*
X0050317Y0181249D01*
X0050317Y0183000D01*
X0048969Y0182417D02*
X0048969Y0181833D01*
X0046633Y0181833D01*
X0046633Y0182417D02*
X0047217Y0183000D01*
X0048385Y0183000D01*
X0048969Y0182417D01*
X0048385Y0180665D02*
X0047217Y0180665D01*
X0046633Y0181249D01*
X0046633Y0182417D01*
X0045286Y0184168D02*
X0042950Y0181833D01*
X0043534Y0182417D02*
X0045286Y0180665D01*
X0042950Y0180665D02*
X0042950Y0184168D01*
D12*
X0066773Y0152588D02*
X0066775Y0152636D01*
X0066781Y0152684D01*
X0066791Y0152731D01*
X0066804Y0152777D01*
X0066822Y0152822D01*
X0066842Y0152866D01*
X0066867Y0152908D01*
X0066895Y0152947D01*
X0066925Y0152984D01*
X0066959Y0153018D01*
X0066996Y0153050D01*
X0067034Y0153079D01*
X0067075Y0153104D01*
X0067118Y0153126D01*
X0067163Y0153144D01*
X0067209Y0153158D01*
X0067256Y0153169D01*
X0067304Y0153176D01*
X0067352Y0153179D01*
X0067400Y0153178D01*
X0067448Y0153173D01*
X0067496Y0153164D01*
X0067542Y0153152D01*
X0067587Y0153135D01*
X0067631Y0153115D01*
X0067673Y0153092D01*
X0067713Y0153065D01*
X0067751Y0153035D01*
X0067786Y0153002D01*
X0067818Y0152966D01*
X0067848Y0152928D01*
X0067874Y0152887D01*
X0067896Y0152844D01*
X0067916Y0152800D01*
X0067931Y0152755D01*
X0067943Y0152708D01*
X0067951Y0152660D01*
X0067955Y0152612D01*
X0067955Y0152564D01*
X0067951Y0152516D01*
X0067943Y0152468D01*
X0067931Y0152421D01*
X0067916Y0152376D01*
X0067896Y0152332D01*
X0067874Y0152289D01*
X0067848Y0152248D01*
X0067818Y0152210D01*
X0067786Y0152174D01*
X0067751Y0152141D01*
X0067713Y0152111D01*
X0067673Y0152084D01*
X0067631Y0152061D01*
X0067587Y0152041D01*
X0067542Y0152024D01*
X0067496Y0152012D01*
X0067448Y0152003D01*
X0067400Y0151998D01*
X0067352Y0151997D01*
X0067304Y0152000D01*
X0067256Y0152007D01*
X0067209Y0152018D01*
X0067163Y0152032D01*
X0067118Y0152050D01*
X0067075Y0152072D01*
X0067034Y0152097D01*
X0066996Y0152126D01*
X0066959Y0152158D01*
X0066925Y0152192D01*
X0066895Y0152229D01*
X0066867Y0152268D01*
X0066842Y0152310D01*
X0066822Y0152354D01*
X0066804Y0152399D01*
X0066791Y0152445D01*
X0066781Y0152492D01*
X0066775Y0152540D01*
X0066773Y0152588D01*
D13*
X0067047Y0159822D02*
X0067047Y0161123D01*
X0067481Y0161557D01*
X0069216Y0161557D01*
X0069650Y0161123D01*
X0069650Y0159822D01*
X0067047Y0159822D01*
X0067915Y0162769D02*
X0067047Y0163636D01*
X0069650Y0163636D01*
X0069650Y0162769D02*
X0069650Y0164503D01*
X0070813Y0163755D02*
X0071247Y0163321D01*
X0072115Y0163321D01*
X0072548Y0163755D01*
X0072548Y0165924D01*
X0073760Y0165056D02*
X0074627Y0165924D01*
X0074627Y0163321D01*
X0073760Y0163321D02*
X0075495Y0163321D01*
X0070813Y0163755D02*
X0070813Y0165924D01*
X0071745Y0175026D02*
X0072612Y0175026D01*
X0073046Y0175460D01*
X0073046Y0175893D01*
X0072612Y0176327D01*
X0071311Y0176327D01*
X0071311Y0175460D01*
X0071745Y0175026D01*
X0071311Y0176327D02*
X0072179Y0177195D01*
X0073046Y0177628D01*
X0072957Y0178152D02*
X0071222Y0178152D01*
X0070788Y0178586D01*
X0070788Y0179453D01*
X0071222Y0179887D01*
X0070788Y0181099D02*
X0072090Y0181099D01*
X0071656Y0181966D01*
X0071656Y0182400D01*
X0072090Y0182833D01*
X0072957Y0182833D01*
X0073391Y0182400D01*
X0073391Y0181532D01*
X0072957Y0181099D01*
X0072957Y0179887D02*
X0073391Y0179453D01*
X0073391Y0178586D01*
X0072957Y0178152D01*
X0070788Y0181099D02*
X0070788Y0182833D01*
X0069666Y0177628D02*
X0068798Y0177628D01*
X0068365Y0177195D01*
X0068365Y0175460D01*
X0068798Y0175026D01*
X0069666Y0175026D01*
X0070099Y0175460D01*
X0070099Y0177195D02*
X0069666Y0177628D01*
X0050178Y0198715D02*
X0048443Y0198715D01*
X0049310Y0198715D02*
X0049310Y0201317D01*
X0048443Y0200450D01*
X0047231Y0201317D02*
X0047231Y0198715D01*
X0046364Y0199582D01*
X0045496Y0198715D01*
X0045496Y0201317D01*
X0044285Y0200884D02*
X0043851Y0201317D01*
X0042983Y0201317D01*
X0042550Y0200884D01*
X0042550Y0200450D01*
X0042983Y0200016D01*
X0043851Y0200016D01*
X0044285Y0199582D01*
X0044285Y0199149D01*
X0043851Y0198715D01*
X0042983Y0198715D01*
X0042550Y0199149D01*
X0026700Y0161593D02*
X0026700Y0159858D01*
X0024965Y0161593D01*
X0024531Y0161593D01*
X0024097Y0161159D01*
X0024097Y0160292D01*
X0024531Y0159858D01*
X0024097Y0158646D02*
X0026700Y0158646D01*
X0024097Y0156912D01*
X0026700Y0156912D01*
X0026266Y0155700D02*
X0026700Y0155266D01*
X0026700Y0154399D01*
X0026266Y0153965D01*
X0024531Y0153965D01*
X0024097Y0154399D01*
X0024097Y0155266D01*
X0024531Y0155700D01*
X0030273Y0143734D02*
X0028273Y0142234D01*
X0030273Y0140734D01*
X0030273Y0143734D01*
X0030273Y0143585D02*
X0030074Y0143585D01*
X0030273Y0142986D02*
X0029276Y0142986D01*
X0028478Y0142388D02*
X0030273Y0142388D01*
X0030273Y0141789D02*
X0028866Y0141789D01*
X0028447Y0141861D02*
X0029748Y0141861D01*
X0030181Y0141427D01*
X0030181Y0140559D01*
X0029748Y0140126D01*
X0028447Y0140126D01*
X0029314Y0140126D02*
X0030181Y0139258D01*
X0031393Y0139692D02*
X0031393Y0141427D01*
X0031827Y0141861D01*
X0032694Y0141861D01*
X0033128Y0141427D01*
X0033128Y0140559D02*
X0032261Y0140559D01*
X0033128Y0140559D02*
X0033128Y0139692D01*
X0032694Y0139258D01*
X0031827Y0139258D01*
X0031393Y0139692D01*
X0030273Y0141191D02*
X0029664Y0141191D01*
X0028447Y0141861D02*
X0028447Y0139258D01*
X0027235Y0139258D02*
X0027235Y0141861D01*
X0027235Y0140559D02*
X0025500Y0140559D01*
X0025500Y0139258D02*
X0025500Y0141861D01*
X0024288Y0141427D02*
X0023855Y0141861D01*
X0022987Y0141861D01*
X0022554Y0141427D01*
X0022554Y0139692D01*
X0022987Y0139258D01*
X0023855Y0139258D01*
X0024288Y0139692D01*
X0024787Y0137936D02*
X0026088Y0137936D01*
X0026522Y0137502D01*
X0026522Y0135768D01*
X0026088Y0135334D01*
X0024787Y0135334D01*
X0024787Y0137936D01*
X0027734Y0137502D02*
X0027734Y0135768D01*
X0028167Y0135334D01*
X0029035Y0135334D01*
X0029469Y0135768D01*
X0029469Y0137502D01*
X0029035Y0137936D01*
X0028167Y0137936D01*
X0027734Y0137502D01*
X0028254Y0136458D02*
X0028254Y0133458D01*
X0030254Y0134958D01*
X0028254Y0136458D01*
X0028254Y0136403D02*
X0028328Y0136403D01*
X0028254Y0135804D02*
X0029126Y0135804D01*
X0029924Y0135205D02*
X0028254Y0135205D01*
X0028254Y0134607D02*
X0029785Y0134607D01*
X0028987Y0134008D02*
X0028254Y0134008D01*
X0030680Y0135334D02*
X0030680Y0137936D01*
X0032415Y0135334D01*
X0032415Y0137936D01*
X0033627Y0137936D02*
X0033627Y0135334D01*
X0035362Y0135334D01*
X0034494Y0136635D02*
X0033627Y0136635D01*
X0033627Y0137936D02*
X0035362Y0137936D01*
X0051550Y0137817D02*
X0051550Y0135215D01*
X0051550Y0136082D02*
X0052851Y0136082D01*
X0053285Y0136516D01*
X0053285Y0137384D01*
X0052851Y0137817D01*
X0051550Y0137817D01*
X0052417Y0136082D02*
X0053285Y0135215D01*
X0054496Y0135215D02*
X0056231Y0135215D01*
X0055364Y0135215D02*
X0055364Y0137817D01*
X0054496Y0136950D01*
X0054559Y0142215D02*
X0056294Y0143950D01*
X0056294Y0144384D01*
X0055860Y0144817D01*
X0054993Y0144817D01*
X0054559Y0144384D01*
X0053348Y0144384D02*
X0053348Y0143516D01*
X0052914Y0143082D01*
X0051613Y0143082D01*
X0051613Y0142215D02*
X0051613Y0144817D01*
X0052914Y0144817D01*
X0053348Y0144384D01*
X0052480Y0143082D02*
X0053348Y0142215D01*
X0054559Y0142215D02*
X0056294Y0142215D01*
X0059047Y0131003D02*
X0059481Y0131003D01*
X0061216Y0129269D01*
X0061650Y0129269D01*
X0062281Y0128396D02*
X0062715Y0128396D01*
X0063149Y0127963D01*
X0063582Y0128396D01*
X0064016Y0128396D01*
X0064450Y0127963D01*
X0064450Y0127095D01*
X0064016Y0126662D01*
X0063149Y0127529D02*
X0063149Y0127963D01*
X0062281Y0128396D02*
X0061847Y0127963D01*
X0061847Y0127095D01*
X0062281Y0126662D01*
X0061650Y0126756D02*
X0061650Y0127623D01*
X0061216Y0128057D01*
X0061650Y0126756D02*
X0061216Y0126322D01*
X0059481Y0126322D01*
X0059047Y0126756D01*
X0059047Y0127623D01*
X0059481Y0128057D01*
X0059047Y0129269D02*
X0059047Y0131003D01*
X0062281Y0125450D02*
X0063149Y0125450D01*
X0063582Y0125016D01*
X0063582Y0123715D01*
X0063582Y0124582D02*
X0064450Y0125450D01*
X0064450Y0123715D02*
X0061847Y0123715D01*
X0061847Y0125016D01*
X0062281Y0125450D01*
X0062351Y0109817D02*
X0061483Y0109817D01*
X0061050Y0109384D01*
X0061050Y0107649D01*
X0061483Y0107215D01*
X0062351Y0107215D01*
X0062785Y0107649D01*
X0063996Y0107215D02*
X0065731Y0107215D01*
X0064864Y0107215D02*
X0064864Y0109817D01*
X0063996Y0108950D01*
X0062785Y0109384D02*
X0062351Y0109817D01*
X0058404Y0093117D02*
X0058838Y0092684D01*
X0057103Y0090949D01*
X0057537Y0090515D01*
X0058404Y0090515D01*
X0058838Y0090949D01*
X0058838Y0092684D01*
X0058404Y0093117D02*
X0057537Y0093117D01*
X0057103Y0092684D01*
X0057103Y0090949D01*
X0055891Y0090515D02*
X0054157Y0090515D01*
X0055024Y0090515D02*
X0055024Y0093117D01*
X0054157Y0092250D01*
X0052945Y0092684D02*
X0052511Y0093117D01*
X0051644Y0093117D01*
X0051210Y0092684D01*
X0051210Y0090949D01*
X0051644Y0090515D01*
X0052511Y0090515D01*
X0052945Y0090949D01*
X0052983Y0088817D02*
X0052550Y0088384D01*
X0052550Y0086649D01*
X0052983Y0086215D01*
X0053851Y0086215D01*
X0054285Y0086649D01*
X0055090Y0086117D02*
X0054657Y0085684D01*
X0054657Y0083949D01*
X0055090Y0083515D01*
X0055958Y0083515D01*
X0056391Y0083949D01*
X0057603Y0084816D02*
X0059338Y0084816D01*
X0058904Y0083515D02*
X0058904Y0086117D01*
X0057603Y0084816D01*
X0057231Y0086215D02*
X0055496Y0086215D01*
X0055090Y0086117D02*
X0055958Y0086117D01*
X0056391Y0085684D01*
X0056364Y0086215D02*
X0056364Y0088817D01*
X0055496Y0087950D01*
X0054285Y0088384D02*
X0053851Y0088817D01*
X0052983Y0088817D01*
X0058443Y0087950D02*
X0059310Y0088817D01*
X0059310Y0086215D01*
X0058443Y0086215D02*
X0060178Y0086215D01*
X0073250Y0085683D02*
X0073250Y0083948D01*
X0073684Y0083514D01*
X0074552Y0083514D01*
X0074985Y0083948D01*
X0076197Y0083514D02*
X0077932Y0083514D01*
X0077064Y0083514D02*
X0077064Y0086116D01*
X0076197Y0085249D01*
X0074985Y0085683D02*
X0074552Y0086116D01*
X0073684Y0086116D01*
X0073250Y0085683D01*
X0079144Y0084815D02*
X0080445Y0084815D01*
X0080878Y0084382D01*
X0080878Y0083948D01*
X0080445Y0083514D01*
X0079577Y0083514D01*
X0079144Y0083948D01*
X0079144Y0084815D01*
X0080011Y0085683D01*
X0080878Y0086116D01*
X0080878Y0071116D02*
X0079144Y0071116D01*
X0080878Y0071116D02*
X0080878Y0070683D01*
X0079144Y0068948D01*
X0079144Y0068514D01*
X0077932Y0068514D02*
X0076197Y0068514D01*
X0077064Y0068514D02*
X0077064Y0071116D01*
X0076197Y0070249D01*
X0074985Y0070683D02*
X0074552Y0071116D01*
X0073684Y0071116D01*
X0073250Y0070683D01*
X0073250Y0068948D01*
X0073684Y0068514D01*
X0074552Y0068514D01*
X0074985Y0068948D01*
X0072190Y0060467D02*
X0069588Y0060467D01*
X0070889Y0059166D01*
X0070889Y0060900D01*
X0072190Y0057954D02*
X0069588Y0056219D01*
X0069943Y0056817D02*
X0071244Y0056817D01*
X0071678Y0056384D01*
X0071678Y0055516D01*
X0071244Y0055082D01*
X0069943Y0055082D01*
X0069943Y0054215D02*
X0069943Y0056817D01*
X0069588Y0057954D02*
X0072190Y0056219D01*
X0072889Y0056384D02*
X0072889Y0055950D01*
X0073323Y0055516D01*
X0074190Y0055516D01*
X0074624Y0055082D01*
X0074624Y0054649D01*
X0074190Y0054215D01*
X0073323Y0054215D01*
X0072889Y0054649D01*
X0071678Y0054215D02*
X0070810Y0055082D01*
X0068731Y0054215D02*
X0068731Y0056817D01*
X0066996Y0056817D02*
X0066996Y0054215D01*
X0067864Y0055082D01*
X0068731Y0054215D01*
X0069750Y0051415D02*
X0069750Y0048415D01*
X0071750Y0049915D01*
X0069750Y0051415D01*
X0069750Y0051414D02*
X0069751Y0051414D01*
X0069750Y0050815D02*
X0070549Y0050815D01*
X0071347Y0050217D02*
X0069750Y0050217D01*
X0069750Y0049618D02*
X0071354Y0049618D01*
X0070556Y0049020D02*
X0069750Y0049020D01*
X0069750Y0048421D02*
X0069758Y0048421D01*
X0065351Y0055082D02*
X0064050Y0055082D01*
X0064050Y0054215D02*
X0064050Y0056817D01*
X0065351Y0056817D01*
X0065785Y0056384D01*
X0065785Y0055516D01*
X0065351Y0055082D01*
X0072889Y0056384D02*
X0073323Y0056817D01*
X0074190Y0056817D01*
X0074624Y0056384D01*
X0075836Y0056817D02*
X0077571Y0056817D01*
X0076703Y0056817D02*
X0076703Y0054215D01*
X0078782Y0054215D02*
X0078782Y0055950D01*
X0079650Y0056817D01*
X0080517Y0055950D01*
X0080517Y0054215D01*
X0080517Y0055516D02*
X0078782Y0055516D01*
X0081729Y0056817D02*
X0083464Y0056817D01*
X0082596Y0056817D02*
X0082596Y0054215D01*
X0083750Y0052849D02*
X0084183Y0052415D01*
X0084617Y0052415D01*
X0085051Y0052849D01*
X0085051Y0055017D01*
X0084617Y0055017D02*
X0085485Y0055017D01*
X0086696Y0055017D02*
X0087997Y0055017D01*
X0088431Y0054584D01*
X0088431Y0053716D01*
X0087997Y0053282D01*
X0086696Y0053282D01*
X0086696Y0052415D02*
X0086696Y0055017D01*
X0089643Y0054584D02*
X0090076Y0055017D01*
X0090944Y0055017D01*
X0091378Y0054584D01*
X0091378Y0054150D01*
X0089643Y0052415D01*
X0091378Y0052415D01*
X0082797Y0045817D02*
X0081496Y0044516D01*
X0083231Y0044516D01*
X0082797Y0043215D02*
X0082797Y0045817D01*
X0080285Y0045384D02*
X0080285Y0044516D01*
X0079851Y0044082D01*
X0078550Y0044082D01*
X0078550Y0043215D02*
X0078550Y0045817D01*
X0079851Y0045817D01*
X0080285Y0045384D01*
X0079417Y0044082D02*
X0080285Y0043215D01*
X0095943Y0067716D02*
X0096810Y0067716D01*
X0097244Y0068150D01*
X0098456Y0067716D02*
X0100191Y0067716D01*
X0099323Y0067716D02*
X0099323Y0070318D01*
X0098456Y0069451D01*
X0098945Y0069514D02*
X0098945Y0072116D01*
X0097644Y0070815D01*
X0099378Y0070815D01*
X0101402Y0070318D02*
X0101402Y0069017D01*
X0102270Y0069451D01*
X0102704Y0069451D01*
X0103137Y0069017D01*
X0103137Y0068150D01*
X0102704Y0067716D01*
X0101836Y0067716D01*
X0101402Y0068150D01*
X0101402Y0070318D02*
X0103137Y0070318D01*
X0097244Y0069884D02*
X0096810Y0070318D01*
X0095943Y0070318D01*
X0095509Y0069884D01*
X0095509Y0068150D01*
X0095943Y0067716D01*
X0095564Y0069514D02*
X0095564Y0072116D01*
X0094697Y0071249D01*
X0093485Y0071683D02*
X0093052Y0072116D01*
X0092184Y0072116D01*
X0091750Y0071683D01*
X0091750Y0069948D01*
X0092184Y0069514D01*
X0093052Y0069514D01*
X0093485Y0069948D01*
X0094697Y0069514D02*
X0096432Y0069514D01*
X0110410Y0052566D02*
X0110410Y0050831D01*
X0111712Y0050831D01*
X0111278Y0051698D01*
X0111278Y0052132D01*
X0111712Y0052566D01*
X0112579Y0052566D01*
X0113013Y0052132D01*
X0113013Y0051265D01*
X0112579Y0050831D01*
X0112579Y0049619D02*
X0110844Y0049619D01*
X0110410Y0049185D01*
X0110410Y0047884D01*
X0113013Y0047884D01*
X0113013Y0049185D01*
X0112579Y0049619D01*
X0127719Y0050152D02*
X0129020Y0050152D01*
X0129454Y0050586D01*
X0129454Y0052321D01*
X0129020Y0052754D01*
X0127719Y0052754D01*
X0127719Y0050152D01*
X0130666Y0051453D02*
X0132400Y0051453D01*
X0131967Y0050152D02*
X0131967Y0052754D01*
X0130666Y0051453D01*
X0131099Y0056652D02*
X0131967Y0056652D01*
X0132400Y0057086D01*
X0132400Y0057519D01*
X0131967Y0057953D01*
X0130666Y0057953D01*
X0130666Y0057086D01*
X0131099Y0056652D01*
X0130666Y0057953D02*
X0131533Y0058821D01*
X0132400Y0059254D01*
X0129454Y0058821D02*
X0129454Y0057086D01*
X0129020Y0056652D01*
X0127719Y0056652D01*
X0127719Y0059254D01*
X0129020Y0059254D01*
X0129454Y0058821D01*
X0128716Y0076822D02*
X0129150Y0077256D01*
X0129150Y0078123D01*
X0128716Y0078557D01*
X0128716Y0079769D02*
X0129150Y0080202D01*
X0129150Y0081070D01*
X0128716Y0081503D01*
X0126981Y0081503D01*
X0126547Y0081070D01*
X0126547Y0080202D01*
X0126981Y0079769D01*
X0127415Y0079769D01*
X0127849Y0080202D01*
X0127849Y0081503D01*
X0126981Y0078557D02*
X0126547Y0078123D01*
X0126547Y0077256D01*
X0126981Y0076822D01*
X0128716Y0076822D01*
X0103450Y0098215D02*
X0103450Y0099516D01*
X0103016Y0099950D01*
X0101281Y0099950D01*
X0100847Y0099516D01*
X0100847Y0098215D01*
X0103450Y0098215D01*
X0103450Y0101162D02*
X0101715Y0102896D01*
X0101281Y0102896D01*
X0100847Y0102463D01*
X0100847Y0101595D01*
X0101281Y0101162D01*
X0103450Y0101162D02*
X0103450Y0102896D01*
X0055297Y0047317D02*
X0055731Y0046884D01*
X0055731Y0046450D01*
X0055297Y0046016D01*
X0055731Y0045582D01*
X0055731Y0045149D01*
X0055297Y0044715D01*
X0054430Y0044715D01*
X0053996Y0045149D01*
X0052785Y0045149D02*
X0052351Y0044715D01*
X0051483Y0044715D01*
X0051050Y0045149D01*
X0051050Y0046884D01*
X0051483Y0047317D01*
X0052351Y0047317D01*
X0052785Y0046884D01*
X0053996Y0046884D02*
X0054430Y0047317D01*
X0055297Y0047317D01*
X0055297Y0046016D02*
X0054864Y0046016D01*
X0019838Y0044684D02*
X0019404Y0045117D01*
X0018537Y0045117D01*
X0018103Y0044684D01*
X0016891Y0044684D02*
X0016458Y0045117D01*
X0015590Y0045117D01*
X0015157Y0044684D01*
X0015157Y0042949D01*
X0015590Y0042515D01*
X0016458Y0042515D01*
X0016891Y0042949D01*
X0018103Y0042515D02*
X0019838Y0044250D01*
X0019838Y0044684D01*
X0019838Y0042515D02*
X0018103Y0042515D01*
X0017610Y0116759D02*
X0015008Y0118494D01*
X0015442Y0119706D02*
X0015008Y0120139D01*
X0015008Y0121007D01*
X0015442Y0121440D01*
X0015876Y0121440D01*
X0017610Y0119706D01*
X0017610Y0121440D01*
X0017610Y0118494D02*
X0015008Y0116759D01*
X0039369Y0118949D02*
X0039803Y0118515D01*
X0040670Y0118515D01*
X0041104Y0118949D01*
X0041104Y0121117D01*
X0042316Y0120684D02*
X0042749Y0121117D01*
X0043617Y0121117D01*
X0044051Y0120684D01*
X0044051Y0120250D01*
X0042316Y0118515D01*
X0044051Y0118515D01*
X0039369Y0118949D02*
X0039369Y0121117D01*
X0097847Y0163215D02*
X0100450Y0164950D01*
X0097847Y0164950D01*
X0097847Y0166162D02*
X0100450Y0166162D01*
X0100450Y0167896D01*
X0099149Y0167029D02*
X0099149Y0166162D01*
X0097847Y0166162D02*
X0097847Y0167896D01*
X0097847Y0169108D02*
X0097847Y0170843D01*
X0097847Y0169975D02*
X0100450Y0169975D01*
X0100016Y0172055D02*
X0100450Y0172488D01*
X0100450Y0173356D01*
X0100016Y0173789D01*
X0099582Y0173789D01*
X0099149Y0173356D01*
X0099149Y0172488D01*
X0098715Y0172055D01*
X0098281Y0172055D01*
X0097847Y0172488D01*
X0097847Y0173356D01*
X0098281Y0173789D01*
X0097847Y0175001D02*
X0097847Y0176736D01*
X0097847Y0175869D02*
X0100450Y0175869D01*
X0100450Y0177948D02*
X0098715Y0177948D01*
X0097847Y0178815D01*
X0098715Y0179682D01*
X0100450Y0179682D01*
X0099149Y0179682D02*
X0099149Y0177948D01*
X0097847Y0180894D02*
X0097847Y0182629D01*
X0097847Y0181762D02*
X0100450Y0181762D01*
X0104147Y0182362D02*
X0104147Y0183663D01*
X0104581Y0184096D01*
X0105449Y0184096D01*
X0105882Y0183663D01*
X0105882Y0182362D01*
X0106750Y0182362D02*
X0104147Y0182362D01*
X0104147Y0181150D02*
X0104147Y0180282D01*
X0104147Y0180716D02*
X0106316Y0180716D01*
X0106750Y0180282D01*
X0106750Y0179849D01*
X0106316Y0179415D01*
X0110347Y0179516D02*
X0110781Y0179950D01*
X0111649Y0179950D01*
X0112082Y0179516D01*
X0112082Y0178215D01*
X0112082Y0179082D02*
X0112950Y0179950D01*
X0112516Y0181162D02*
X0112950Y0181595D01*
X0112950Y0182463D01*
X0112516Y0182896D01*
X0111649Y0182896D01*
X0111215Y0182463D01*
X0111215Y0182029D01*
X0111649Y0181162D01*
X0110347Y0181162D01*
X0110347Y0182896D01*
X0106750Y0185742D02*
X0106316Y0185308D01*
X0106750Y0185742D02*
X0106750Y0186609D01*
X0106316Y0187043D01*
X0105882Y0187043D01*
X0105449Y0186609D01*
X0105449Y0186175D01*
X0105449Y0186609D02*
X0105015Y0187043D01*
X0104581Y0187043D01*
X0104147Y0186609D01*
X0104147Y0185742D01*
X0104581Y0185308D01*
X0110347Y0179516D02*
X0110347Y0178215D01*
X0112950Y0178215D01*
X0104750Y0170915D02*
X0106250Y0168915D01*
X0103250Y0168915D01*
X0104750Y0170915D01*
X0104452Y0170518D02*
X0105048Y0170518D01*
X0105497Y0169919D02*
X0104003Y0169919D01*
X0103554Y0169321D02*
X0105946Y0169321D01*
X0100450Y0163215D02*
X0097847Y0163215D01*
X0126984Y0188153D02*
X0126984Y0189454D01*
X0127418Y0189888D01*
X0129153Y0189888D01*
X0129587Y0189454D01*
X0129587Y0188153D01*
X0126984Y0188153D01*
X0127418Y0191099D02*
X0126984Y0191533D01*
X0126984Y0192400D01*
X0127418Y0192834D01*
X0127852Y0192834D01*
X0128286Y0192400D01*
X0128719Y0192834D01*
X0129153Y0192834D01*
X0129587Y0192400D01*
X0129587Y0191533D01*
X0129153Y0191099D01*
X0128286Y0191967D02*
X0128286Y0192400D01*
D14*
X0125506Y0193352D02*
X0125506Y0185478D01*
X0124325Y0188037D02*
X0121175Y0188037D01*
X0122750Y0190399D01*
X0124325Y0188037D01*
X0123537Y0188628D02*
X0121962Y0188628D01*
X0122750Y0189809D01*
X0123537Y0188628D01*
X0123165Y0189186D02*
X0122335Y0189186D01*
X0119994Y0185478D02*
X0119994Y0193352D01*
X0127876Y0189415D02*
X0127878Y0189608D01*
X0127885Y0189801D01*
X0127897Y0189994D01*
X0127914Y0190187D01*
X0127935Y0190379D01*
X0127961Y0190570D01*
X0127992Y0190761D01*
X0128027Y0190951D01*
X0128067Y0191140D01*
X0128112Y0191328D01*
X0128161Y0191515D01*
X0128215Y0191701D01*
X0128273Y0191885D01*
X0128336Y0192068D01*
X0128404Y0192249D01*
X0128475Y0192428D01*
X0128552Y0192606D01*
X0128632Y0192782D01*
X0128717Y0192955D01*
X0128806Y0193127D01*
X0128899Y0193296D01*
X0128996Y0193463D01*
X0129098Y0193628D01*
X0129203Y0193790D01*
X0129312Y0193949D01*
X0129426Y0194106D01*
X0129543Y0194259D01*
X0129663Y0194410D01*
X0129788Y0194558D01*
X0129916Y0194703D01*
X0130047Y0194844D01*
X0130182Y0194983D01*
X0130321Y0195118D01*
X0130462Y0195249D01*
X0130607Y0195377D01*
X0130755Y0195502D01*
X0130906Y0195622D01*
X0131059Y0195739D01*
X0131216Y0195853D01*
X0131375Y0195962D01*
X0131537Y0196067D01*
X0131702Y0196169D01*
X0131869Y0196266D01*
X0132038Y0196359D01*
X0132210Y0196448D01*
X0132383Y0196533D01*
X0132559Y0196613D01*
X0132737Y0196690D01*
X0132916Y0196761D01*
X0133097Y0196829D01*
X0133280Y0196892D01*
X0133464Y0196950D01*
X0133650Y0197004D01*
X0133837Y0197053D01*
X0134025Y0197098D01*
X0134214Y0197138D01*
X0134404Y0197173D01*
X0134595Y0197204D01*
X0134786Y0197230D01*
X0134978Y0197251D01*
X0135171Y0197268D01*
X0135364Y0197280D01*
X0135557Y0197287D01*
X0135750Y0197289D01*
X0135943Y0197287D01*
X0136136Y0197280D01*
X0136329Y0197268D01*
X0136522Y0197251D01*
X0136714Y0197230D01*
X0136905Y0197204D01*
X0137096Y0197173D01*
X0137286Y0197138D01*
X0137475Y0197098D01*
X0137663Y0197053D01*
X0137850Y0197004D01*
X0138036Y0196950D01*
X0138220Y0196892D01*
X0138403Y0196829D01*
X0138584Y0196761D01*
X0138763Y0196690D01*
X0138941Y0196613D01*
X0139117Y0196533D01*
X0139290Y0196448D01*
X0139462Y0196359D01*
X0139631Y0196266D01*
X0139798Y0196169D01*
X0139963Y0196067D01*
X0140125Y0195962D01*
X0140284Y0195853D01*
X0140441Y0195739D01*
X0140594Y0195622D01*
X0140745Y0195502D01*
X0140893Y0195377D01*
X0141038Y0195249D01*
X0141179Y0195118D01*
X0141318Y0194983D01*
X0141453Y0194844D01*
X0141584Y0194703D01*
X0141712Y0194558D01*
X0141837Y0194410D01*
X0141957Y0194259D01*
X0142074Y0194106D01*
X0142188Y0193949D01*
X0142297Y0193790D01*
X0142402Y0193628D01*
X0142504Y0193463D01*
X0142601Y0193296D01*
X0142694Y0193127D01*
X0142783Y0192955D01*
X0142868Y0192782D01*
X0142948Y0192606D01*
X0143025Y0192428D01*
X0143096Y0192249D01*
X0143164Y0192068D01*
X0143227Y0191885D01*
X0143285Y0191701D01*
X0143339Y0191515D01*
X0143388Y0191328D01*
X0143433Y0191140D01*
X0143473Y0190951D01*
X0143508Y0190761D01*
X0143539Y0190570D01*
X0143565Y0190379D01*
X0143586Y0190187D01*
X0143603Y0189994D01*
X0143615Y0189801D01*
X0143622Y0189608D01*
X0143624Y0189415D01*
X0143622Y0189222D01*
X0143615Y0189029D01*
X0143603Y0188836D01*
X0143586Y0188643D01*
X0143565Y0188451D01*
X0143539Y0188260D01*
X0143508Y0188069D01*
X0143473Y0187879D01*
X0143433Y0187690D01*
X0143388Y0187502D01*
X0143339Y0187315D01*
X0143285Y0187129D01*
X0143227Y0186945D01*
X0143164Y0186762D01*
X0143096Y0186581D01*
X0143025Y0186402D01*
X0142948Y0186224D01*
X0142868Y0186048D01*
X0142783Y0185875D01*
X0142694Y0185703D01*
X0142601Y0185534D01*
X0142504Y0185367D01*
X0142402Y0185202D01*
X0142297Y0185040D01*
X0142188Y0184881D01*
X0142074Y0184724D01*
X0141957Y0184571D01*
X0141837Y0184420D01*
X0141712Y0184272D01*
X0141584Y0184127D01*
X0141453Y0183986D01*
X0141318Y0183847D01*
X0141179Y0183712D01*
X0141038Y0183581D01*
X0140893Y0183453D01*
X0140745Y0183328D01*
X0140594Y0183208D01*
X0140441Y0183091D01*
X0140284Y0182977D01*
X0140125Y0182868D01*
X0139963Y0182763D01*
X0139798Y0182661D01*
X0139631Y0182564D01*
X0139462Y0182471D01*
X0139290Y0182382D01*
X0139117Y0182297D01*
X0138941Y0182217D01*
X0138763Y0182140D01*
X0138584Y0182069D01*
X0138403Y0182001D01*
X0138220Y0181938D01*
X0138036Y0181880D01*
X0137850Y0181826D01*
X0137663Y0181777D01*
X0137475Y0181732D01*
X0137286Y0181692D01*
X0137096Y0181657D01*
X0136905Y0181626D01*
X0136714Y0181600D01*
X0136522Y0181579D01*
X0136329Y0181562D01*
X0136136Y0181550D01*
X0135943Y0181543D01*
X0135750Y0181541D01*
X0135557Y0181543D01*
X0135364Y0181550D01*
X0135171Y0181562D01*
X0134978Y0181579D01*
X0134786Y0181600D01*
X0134595Y0181626D01*
X0134404Y0181657D01*
X0134214Y0181692D01*
X0134025Y0181732D01*
X0133837Y0181777D01*
X0133650Y0181826D01*
X0133464Y0181880D01*
X0133280Y0181938D01*
X0133097Y0182001D01*
X0132916Y0182069D01*
X0132737Y0182140D01*
X0132559Y0182217D01*
X0132383Y0182297D01*
X0132210Y0182382D01*
X0132038Y0182471D01*
X0131869Y0182564D01*
X0131702Y0182661D01*
X0131537Y0182763D01*
X0131375Y0182868D01*
X0131216Y0182977D01*
X0131059Y0183091D01*
X0130906Y0183208D01*
X0130755Y0183328D01*
X0130607Y0183453D01*
X0130462Y0183581D01*
X0130321Y0183712D01*
X0130182Y0183847D01*
X0130047Y0183986D01*
X0129916Y0184127D01*
X0129788Y0184272D01*
X0129663Y0184420D01*
X0129543Y0184571D01*
X0129426Y0184724D01*
X0129312Y0184881D01*
X0129203Y0185040D01*
X0129098Y0185202D01*
X0128996Y0185367D01*
X0128899Y0185534D01*
X0128806Y0185703D01*
X0128717Y0185875D01*
X0128632Y0186048D01*
X0128552Y0186224D01*
X0128475Y0186402D01*
X0128404Y0186581D01*
X0128336Y0186762D01*
X0128273Y0186945D01*
X0128215Y0187129D01*
X0128161Y0187315D01*
X0128112Y0187502D01*
X0128067Y0187690D01*
X0128027Y0187879D01*
X0127992Y0188069D01*
X0127961Y0188260D01*
X0127935Y0188451D01*
X0127914Y0188643D01*
X0127897Y0188836D01*
X0127885Y0189029D01*
X0127878Y0189222D01*
X0127876Y0189415D01*
X0065506Y0163852D02*
X0065506Y0156978D01*
X0064325Y0159234D02*
X0061175Y0159234D01*
X0062750Y0161596D01*
X0064325Y0159234D01*
X0063537Y0159628D02*
X0061962Y0159628D01*
X0062750Y0160809D01*
X0063537Y0159628D01*
X0063528Y0159641D02*
X0061971Y0159641D01*
X0062504Y0160440D02*
X0062996Y0160440D01*
X0059994Y0163852D02*
X0059994Y0156978D01*
X0052466Y0150013D02*
X0052466Y0146667D01*
X0036718Y0146667D01*
X0042624Y0150013D02*
X0042624Y0155525D01*
X0042624Y0150013D02*
X0052466Y0150013D01*
X0042624Y0169305D02*
X0042624Y0174817D01*
X0052466Y0174817D01*
X0052466Y0178163D01*
X0036718Y0178163D01*
X0041982Y0185410D02*
X0058517Y0185410D01*
X0058517Y0197421D02*
X0041982Y0197421D01*
X0022876Y0189415D02*
X0022878Y0189608D01*
X0022885Y0189801D01*
X0022897Y0189994D01*
X0022914Y0190187D01*
X0022935Y0190379D01*
X0022961Y0190570D01*
X0022992Y0190761D01*
X0023027Y0190951D01*
X0023067Y0191140D01*
X0023112Y0191328D01*
X0023161Y0191515D01*
X0023215Y0191701D01*
X0023273Y0191885D01*
X0023336Y0192068D01*
X0023404Y0192249D01*
X0023475Y0192428D01*
X0023552Y0192606D01*
X0023632Y0192782D01*
X0023717Y0192955D01*
X0023806Y0193127D01*
X0023899Y0193296D01*
X0023996Y0193463D01*
X0024098Y0193628D01*
X0024203Y0193790D01*
X0024312Y0193949D01*
X0024426Y0194106D01*
X0024543Y0194259D01*
X0024663Y0194410D01*
X0024788Y0194558D01*
X0024916Y0194703D01*
X0025047Y0194844D01*
X0025182Y0194983D01*
X0025321Y0195118D01*
X0025462Y0195249D01*
X0025607Y0195377D01*
X0025755Y0195502D01*
X0025906Y0195622D01*
X0026059Y0195739D01*
X0026216Y0195853D01*
X0026375Y0195962D01*
X0026537Y0196067D01*
X0026702Y0196169D01*
X0026869Y0196266D01*
X0027038Y0196359D01*
X0027210Y0196448D01*
X0027383Y0196533D01*
X0027559Y0196613D01*
X0027737Y0196690D01*
X0027916Y0196761D01*
X0028097Y0196829D01*
X0028280Y0196892D01*
X0028464Y0196950D01*
X0028650Y0197004D01*
X0028837Y0197053D01*
X0029025Y0197098D01*
X0029214Y0197138D01*
X0029404Y0197173D01*
X0029595Y0197204D01*
X0029786Y0197230D01*
X0029978Y0197251D01*
X0030171Y0197268D01*
X0030364Y0197280D01*
X0030557Y0197287D01*
X0030750Y0197289D01*
X0030943Y0197287D01*
X0031136Y0197280D01*
X0031329Y0197268D01*
X0031522Y0197251D01*
X0031714Y0197230D01*
X0031905Y0197204D01*
X0032096Y0197173D01*
X0032286Y0197138D01*
X0032475Y0197098D01*
X0032663Y0197053D01*
X0032850Y0197004D01*
X0033036Y0196950D01*
X0033220Y0196892D01*
X0033403Y0196829D01*
X0033584Y0196761D01*
X0033763Y0196690D01*
X0033941Y0196613D01*
X0034117Y0196533D01*
X0034290Y0196448D01*
X0034462Y0196359D01*
X0034631Y0196266D01*
X0034798Y0196169D01*
X0034963Y0196067D01*
X0035125Y0195962D01*
X0035284Y0195853D01*
X0035441Y0195739D01*
X0035594Y0195622D01*
X0035745Y0195502D01*
X0035893Y0195377D01*
X0036038Y0195249D01*
X0036179Y0195118D01*
X0036318Y0194983D01*
X0036453Y0194844D01*
X0036584Y0194703D01*
X0036712Y0194558D01*
X0036837Y0194410D01*
X0036957Y0194259D01*
X0037074Y0194106D01*
X0037188Y0193949D01*
X0037297Y0193790D01*
X0037402Y0193628D01*
X0037504Y0193463D01*
X0037601Y0193296D01*
X0037694Y0193127D01*
X0037783Y0192955D01*
X0037868Y0192782D01*
X0037948Y0192606D01*
X0038025Y0192428D01*
X0038096Y0192249D01*
X0038164Y0192068D01*
X0038227Y0191885D01*
X0038285Y0191701D01*
X0038339Y0191515D01*
X0038388Y0191328D01*
X0038433Y0191140D01*
X0038473Y0190951D01*
X0038508Y0190761D01*
X0038539Y0190570D01*
X0038565Y0190379D01*
X0038586Y0190187D01*
X0038603Y0189994D01*
X0038615Y0189801D01*
X0038622Y0189608D01*
X0038624Y0189415D01*
X0038622Y0189222D01*
X0038615Y0189029D01*
X0038603Y0188836D01*
X0038586Y0188643D01*
X0038565Y0188451D01*
X0038539Y0188260D01*
X0038508Y0188069D01*
X0038473Y0187879D01*
X0038433Y0187690D01*
X0038388Y0187502D01*
X0038339Y0187315D01*
X0038285Y0187129D01*
X0038227Y0186945D01*
X0038164Y0186762D01*
X0038096Y0186581D01*
X0038025Y0186402D01*
X0037948Y0186224D01*
X0037868Y0186048D01*
X0037783Y0185875D01*
X0037694Y0185703D01*
X0037601Y0185534D01*
X0037504Y0185367D01*
X0037402Y0185202D01*
X0037297Y0185040D01*
X0037188Y0184881D01*
X0037074Y0184724D01*
X0036957Y0184571D01*
X0036837Y0184420D01*
X0036712Y0184272D01*
X0036584Y0184127D01*
X0036453Y0183986D01*
X0036318Y0183847D01*
X0036179Y0183712D01*
X0036038Y0183581D01*
X0035893Y0183453D01*
X0035745Y0183328D01*
X0035594Y0183208D01*
X0035441Y0183091D01*
X0035284Y0182977D01*
X0035125Y0182868D01*
X0034963Y0182763D01*
X0034798Y0182661D01*
X0034631Y0182564D01*
X0034462Y0182471D01*
X0034290Y0182382D01*
X0034117Y0182297D01*
X0033941Y0182217D01*
X0033763Y0182140D01*
X0033584Y0182069D01*
X0033403Y0182001D01*
X0033220Y0181938D01*
X0033036Y0181880D01*
X0032850Y0181826D01*
X0032663Y0181777D01*
X0032475Y0181732D01*
X0032286Y0181692D01*
X0032096Y0181657D01*
X0031905Y0181626D01*
X0031714Y0181600D01*
X0031522Y0181579D01*
X0031329Y0181562D01*
X0031136Y0181550D01*
X0030943Y0181543D01*
X0030750Y0181541D01*
X0030557Y0181543D01*
X0030364Y0181550D01*
X0030171Y0181562D01*
X0029978Y0181579D01*
X0029786Y0181600D01*
X0029595Y0181626D01*
X0029404Y0181657D01*
X0029214Y0181692D01*
X0029025Y0181732D01*
X0028837Y0181777D01*
X0028650Y0181826D01*
X0028464Y0181880D01*
X0028280Y0181938D01*
X0028097Y0182001D01*
X0027916Y0182069D01*
X0027737Y0182140D01*
X0027559Y0182217D01*
X0027383Y0182297D01*
X0027210Y0182382D01*
X0027038Y0182471D01*
X0026869Y0182564D01*
X0026702Y0182661D01*
X0026537Y0182763D01*
X0026375Y0182868D01*
X0026216Y0182977D01*
X0026059Y0183091D01*
X0025906Y0183208D01*
X0025755Y0183328D01*
X0025607Y0183453D01*
X0025462Y0183581D01*
X0025321Y0183712D01*
X0025182Y0183847D01*
X0025047Y0183986D01*
X0024916Y0184127D01*
X0024788Y0184272D01*
X0024663Y0184420D01*
X0024543Y0184571D01*
X0024426Y0184724D01*
X0024312Y0184881D01*
X0024203Y0185040D01*
X0024098Y0185202D01*
X0023996Y0185367D01*
X0023899Y0185534D01*
X0023806Y0185703D01*
X0023717Y0185875D01*
X0023632Y0186048D01*
X0023552Y0186224D01*
X0023475Y0186402D01*
X0023404Y0186581D01*
X0023336Y0186762D01*
X0023273Y0186945D01*
X0023215Y0187129D01*
X0023161Y0187315D01*
X0023112Y0187502D01*
X0023067Y0187690D01*
X0023027Y0187879D01*
X0022992Y0188069D01*
X0022961Y0188260D01*
X0022935Y0188451D01*
X0022914Y0188643D01*
X0022897Y0188836D01*
X0022885Y0189029D01*
X0022878Y0189222D01*
X0022876Y0189415D01*
X0022939Y0171273D02*
X0022939Y0153557D01*
X0046254Y0124565D02*
X0046254Y0118265D01*
X0051175Y0117281D02*
X0054325Y0117281D01*
X0059246Y0118265D02*
X0059246Y0124565D01*
X0062482Y0081013D02*
X0067994Y0081013D01*
X0067994Y0080817D02*
X0067994Y0055817D01*
X0047521Y0055817D01*
X0026655Y0055817D02*
X0020750Y0055817D01*
X0020750Y0061722D01*
X0020750Y0075108D01*
X0020750Y0081013D01*
X0027049Y0081013D01*
X0036104Y0081013D02*
X0052246Y0081013D01*
X0071769Y0082427D02*
X0071769Y0071403D01*
X0071769Y0067427D02*
X0071769Y0056403D01*
X0086730Y0056403D02*
X0086730Y0067427D01*
X0090269Y0068427D02*
X0090269Y0057403D01*
X0090269Y0071403D02*
X0090269Y0082427D01*
X0086730Y0082427D02*
X0086730Y0071403D01*
X0102478Y0087084D02*
X0106021Y0087084D01*
X0105234Y0085510D02*
X0105236Y0085549D01*
X0105242Y0085588D01*
X0105252Y0085626D01*
X0105265Y0085663D01*
X0105282Y0085698D01*
X0105302Y0085732D01*
X0105326Y0085763D01*
X0105353Y0085792D01*
X0105382Y0085818D01*
X0105414Y0085841D01*
X0105448Y0085861D01*
X0105484Y0085877D01*
X0105521Y0085889D01*
X0105560Y0085898D01*
X0105599Y0085903D01*
X0105638Y0085904D01*
X0105677Y0085901D01*
X0105716Y0085894D01*
X0105753Y0085883D01*
X0105790Y0085869D01*
X0105825Y0085851D01*
X0105858Y0085830D01*
X0105889Y0085805D01*
X0105917Y0085778D01*
X0105942Y0085748D01*
X0105964Y0085715D01*
X0105983Y0085681D01*
X0105998Y0085645D01*
X0106010Y0085607D01*
X0106018Y0085569D01*
X0106022Y0085530D01*
X0106022Y0085490D01*
X0106018Y0085451D01*
X0106010Y0085413D01*
X0105998Y0085375D01*
X0105983Y0085339D01*
X0105964Y0085305D01*
X0105942Y0085272D01*
X0105917Y0085242D01*
X0105889Y0085215D01*
X0105858Y0085190D01*
X0105825Y0085169D01*
X0105790Y0085151D01*
X0105753Y0085137D01*
X0105716Y0085126D01*
X0105677Y0085119D01*
X0105638Y0085116D01*
X0105599Y0085117D01*
X0105560Y0085122D01*
X0105521Y0085131D01*
X0105484Y0085143D01*
X0105448Y0085159D01*
X0105414Y0085179D01*
X0105382Y0085202D01*
X0105353Y0085228D01*
X0105326Y0085257D01*
X0105302Y0085288D01*
X0105282Y0085322D01*
X0105265Y0085357D01*
X0105252Y0085394D01*
X0105242Y0085432D01*
X0105236Y0085471D01*
X0105234Y0085510D01*
X0105230Y0082427D02*
X0105230Y0071403D01*
X0105230Y0068427D02*
X0105230Y0057403D01*
X0114494Y0055852D02*
X0114494Y0047978D01*
X0117250Y0050931D02*
X0118825Y0053293D01*
X0115675Y0053293D01*
X0117250Y0050931D01*
X0117250Y0051521D02*
X0118037Y0052702D01*
X0116462Y0052702D01*
X0117250Y0051521D01*
X0117036Y0051842D02*
X0117464Y0051842D01*
X0117996Y0052641D02*
X0116503Y0052641D01*
X0120006Y0055852D02*
X0120006Y0047978D01*
X0127813Y0048671D02*
X0135687Y0048671D01*
X0135687Y0049659D02*
X0127813Y0049659D01*
X0130765Y0052415D02*
X0133128Y0050840D01*
X0133128Y0053990D01*
X0130765Y0052415D01*
X0131356Y0052415D02*
X0132537Y0051628D01*
X0132537Y0053202D01*
X0131356Y0052415D01*
X0131694Y0052641D02*
X0132537Y0052641D01*
X0132537Y0051842D02*
X0132215Y0051842D01*
X0135687Y0055171D02*
X0127813Y0055171D01*
X0133714Y0061769D02*
X0116785Y0061769D01*
X0116785Y0081061D01*
X0133714Y0081061D01*
X0133714Y0061769D01*
X0133128Y0047490D02*
X0133128Y0044340D01*
X0130765Y0045915D01*
X0133128Y0047490D01*
X0132537Y0046702D02*
X0132537Y0045128D01*
X0131356Y0045915D01*
X0132537Y0046702D01*
X0132537Y0046253D02*
X0131862Y0046253D01*
X0132047Y0045454D02*
X0132537Y0045454D01*
X0135687Y0043159D02*
X0127813Y0043159D01*
X0106021Y0095746D02*
X0102478Y0095746D01*
X0218331Y0137931D02*
X0221834Y0137931D01*
X0222535Y0138631D01*
X0222535Y0140033D01*
X0221834Y0140733D01*
X0218331Y0140733D01*
X0219032Y0142535D02*
X0218331Y0143235D01*
X0218331Y0144637D01*
X0219032Y0145337D01*
X0220433Y0144637D02*
X0220433Y0143235D01*
X0219732Y0142535D01*
X0219032Y0142535D01*
X0217631Y0143936D02*
X0223235Y0143936D01*
X0222535Y0144637D02*
X0221834Y0145337D01*
X0221134Y0145337D01*
X0220433Y0144637D01*
X0222535Y0144637D02*
X0222535Y0143235D01*
X0221834Y0142535D01*
X0221834Y0147139D02*
X0222535Y0147839D01*
X0222535Y0149240D01*
X0221834Y0149941D01*
X0221134Y0149941D01*
X0220433Y0149240D01*
X0220433Y0148540D01*
X0220433Y0149240D02*
X0219732Y0149941D01*
X0219032Y0149941D01*
X0218331Y0149240D01*
X0218331Y0147839D01*
X0219032Y0147139D01*
X0219032Y0151743D02*
X0218331Y0152443D01*
X0218331Y0153844D01*
X0219032Y0154545D01*
X0219732Y0154545D01*
X0220433Y0153844D01*
X0220433Y0152443D01*
X0219732Y0151743D01*
X0219032Y0151743D01*
X0220433Y0152443D02*
X0221134Y0151743D01*
X0221834Y0151743D01*
X0222535Y0152443D01*
X0222535Y0153844D01*
X0221834Y0154545D01*
X0221134Y0154545D01*
X0220433Y0153844D01*
D15*
X0071678Y0049915D03*
X0030182Y0134958D03*
X0028345Y0142234D03*
D16*
X0043313Y0140415D02*
X0043313Y0144415D01*
X0043250Y0137415D02*
X0043250Y0133415D01*
X0062250Y0115415D02*
X0066250Y0115415D01*
X0052750Y0109415D02*
X0052750Y0105415D01*
X0067750Y0094915D02*
X0067750Y0090915D01*
X0068250Y0087915D02*
X0068250Y0083915D01*
X0044250Y0084415D02*
X0044250Y0088415D01*
X0042750Y0046915D02*
X0042750Y0042915D01*
X0028750Y0042915D02*
X0028750Y0046915D01*
X0070250Y0045415D02*
X0070250Y0041415D01*
X0124750Y0090415D02*
X0128750Y0090415D01*
X0114750Y0169915D02*
X0110750Y0169915D01*
X0075191Y0169852D02*
X0071191Y0169852D01*
X0060065Y0173226D02*
X0060065Y0177226D01*
D17*
X0062750Y0161990D03*
X0122750Y0190793D03*
X0117250Y0050537D03*
D18*
X0104750Y0170843D03*
D19*
X0103610Y0086265D02*
X0102676Y0086265D01*
X0102676Y0084864D01*
X0102137Y0085097D02*
X0101903Y0084864D01*
X0101202Y0084864D01*
X0101202Y0084397D02*
X0101202Y0085798D01*
X0101903Y0085798D01*
X0102137Y0085564D01*
X0102137Y0085097D01*
X0102676Y0085564D02*
X0103143Y0085564D01*
X0100663Y0085097D02*
X0100430Y0084864D01*
X0099963Y0084864D01*
X0099729Y0085097D01*
X0100663Y0086032D01*
X0100663Y0085097D01*
X0099729Y0085097D02*
X0099729Y0086032D01*
X0099963Y0086265D01*
X0100430Y0086265D01*
X0100663Y0086032D01*
X0099190Y0084864D02*
X0098256Y0084864D01*
X0098723Y0084864D02*
X0098723Y0086265D01*
X0098256Y0085798D01*
X0078404Y0068967D02*
X0077470Y0068967D01*
X0077470Y0067566D01*
X0076931Y0067800D02*
X0076698Y0067566D01*
X0075997Y0067566D01*
X0075997Y0067099D02*
X0075997Y0068500D01*
X0076698Y0068500D01*
X0076931Y0068267D01*
X0076931Y0067800D01*
X0077470Y0068267D02*
X0077937Y0068267D01*
X0075458Y0068500D02*
X0075224Y0068267D01*
X0075458Y0068033D01*
X0075458Y0067800D01*
X0075224Y0067566D01*
X0074757Y0067566D01*
X0074524Y0067800D01*
X0073985Y0067800D02*
X0073751Y0067566D01*
X0073284Y0067566D01*
X0073050Y0067800D01*
X0073518Y0068267D02*
X0073751Y0068267D01*
X0073985Y0068033D01*
X0073985Y0067800D01*
X0073751Y0068267D02*
X0073985Y0068500D01*
X0073985Y0068734D01*
X0073751Y0068967D01*
X0073284Y0068967D01*
X0073050Y0068734D01*
X0074524Y0068734D02*
X0074757Y0068967D01*
X0075224Y0068967D01*
X0075458Y0068734D01*
X0075458Y0068500D01*
X0075224Y0068267D02*
X0074991Y0068267D01*
X0074757Y0053967D02*
X0075224Y0053967D01*
X0075458Y0053734D01*
X0074524Y0052800D01*
X0074757Y0052566D01*
X0075224Y0052566D01*
X0075458Y0052800D01*
X0075458Y0053734D01*
X0075997Y0053500D02*
X0076698Y0053500D01*
X0076931Y0053267D01*
X0076931Y0052800D01*
X0076698Y0052566D01*
X0075997Y0052566D01*
X0075997Y0052099D02*
X0075997Y0053500D01*
X0074757Y0053967D02*
X0074524Y0053734D01*
X0074524Y0052800D01*
X0073985Y0052566D02*
X0073050Y0052566D01*
X0073518Y0052566D02*
X0073518Y0053967D01*
X0073050Y0053500D01*
X0077470Y0053267D02*
X0077937Y0053267D01*
X0077470Y0053967D02*
X0078404Y0053967D01*
X0077470Y0053967D02*
X0077470Y0052566D01*
X0091550Y0053800D02*
X0091784Y0053566D01*
X0092251Y0053566D01*
X0092485Y0053800D01*
X0092485Y0054033D01*
X0092251Y0054267D01*
X0092018Y0054267D01*
X0092251Y0054267D02*
X0092485Y0054500D01*
X0092485Y0054734D01*
X0092251Y0054967D01*
X0091784Y0054967D01*
X0091550Y0054734D01*
X0093024Y0054734D02*
X0093257Y0054967D01*
X0093724Y0054967D01*
X0093958Y0054734D01*
X0093958Y0054500D01*
X0093724Y0054267D01*
X0093958Y0054033D01*
X0093958Y0053800D01*
X0093724Y0053566D01*
X0093257Y0053566D01*
X0093024Y0053800D01*
X0093491Y0054267D02*
X0093724Y0054267D01*
X0094497Y0054500D02*
X0094497Y0053099D01*
X0094497Y0053566D02*
X0095198Y0053566D01*
X0095431Y0053800D01*
X0095431Y0054267D01*
X0095198Y0054500D01*
X0094497Y0054500D01*
X0095970Y0054267D02*
X0096437Y0054267D01*
X0095970Y0054967D02*
X0096904Y0054967D01*
X0095970Y0054967D02*
X0095970Y0053566D01*
D20*
X0113934Y0083131D02*
X0115469Y0083131D01*
X0114701Y0083131D02*
X0114701Y0087735D01*
X0113934Y0087735D02*
X0115469Y0087735D01*
X0117003Y0086967D02*
X0117003Y0083898D01*
X0117771Y0083131D01*
X0119305Y0083131D01*
X0120073Y0083898D01*
X0121607Y0083131D02*
X0124676Y0083131D01*
X0123142Y0083131D02*
X0123142Y0087735D01*
X0121607Y0086200D01*
X0120073Y0086967D02*
X0119305Y0087735D01*
X0117771Y0087735D01*
X0117003Y0086967D01*
X0135285Y0099581D02*
X0138354Y0099581D01*
X0136819Y0099581D02*
X0136819Y0094977D01*
X0139889Y0094977D02*
X0139889Y0099581D01*
X0142191Y0099581D01*
X0142958Y0098813D01*
X0142958Y0097279D01*
X0142191Y0096512D01*
X0139889Y0096512D01*
X0144493Y0098046D02*
X0146027Y0099581D01*
X0146027Y0094977D01*
X0144493Y0094977D02*
X0147562Y0094977D01*
X0206550Y0167445D02*
X0205950Y0168045D01*
X0205950Y0169246D01*
X0206550Y0169847D01*
X0205950Y0171128D02*
X0209553Y0173530D01*
X0209553Y0171128D02*
X0205950Y0173530D01*
X0208952Y0169847D02*
X0209553Y0169246D01*
X0209553Y0168045D01*
X0208952Y0167445D01*
X0208352Y0167445D01*
X0207751Y0168045D01*
X0207151Y0167445D01*
X0206550Y0167445D01*
X0207751Y0168045D02*
X0207751Y0168646D01*
X0204700Y0192378D02*
X0204700Y0194780D01*
X0204700Y0193579D02*
X0208303Y0193579D01*
X0207102Y0194780D01*
X0138050Y0178080D02*
X0138050Y0175011D01*
X0138050Y0173476D02*
X0136515Y0171942D01*
X0137282Y0173476D02*
X0138050Y0172709D01*
X0138050Y0171175D01*
X0137282Y0170407D01*
X0134213Y0170407D01*
X0133446Y0171175D01*
X0133446Y0172709D01*
X0134213Y0173476D01*
X0137282Y0173476D01*
X0134980Y0175011D02*
X0133446Y0176546D01*
X0138050Y0176546D01*
D21*
X0130372Y0052415D03*
X0130372Y0045915D03*
D22*
X0120132Y0077813D03*
D23*
X0113900Y0178765D02*
X0110597Y0180967D01*
X0111698Y0182448D02*
X0110597Y0183549D01*
X0113900Y0183549D01*
X0113900Y0182448D02*
X0113900Y0184650D01*
X0113900Y0180967D02*
X0110597Y0178765D01*
X0061400Y0178765D02*
X0059748Y0180967D01*
X0058097Y0178765D01*
X0058097Y0182448D02*
X0061400Y0182448D01*
X0061400Y0184650D01*
X0061400Y0186131D02*
X0059198Y0186131D01*
X0058097Y0187232D01*
X0059198Y0188333D01*
X0061400Y0188333D01*
X0061400Y0189814D02*
X0061400Y0191466D01*
X0060849Y0192016D01*
X0060299Y0192016D01*
X0059748Y0191466D01*
X0059748Y0189814D01*
X0059748Y0188333D02*
X0059748Y0186131D01*
X0058097Y0189814D02*
X0058097Y0191466D01*
X0058647Y0192016D01*
X0059198Y0192016D01*
X0059748Y0191466D01*
X0059748Y0193498D02*
X0059748Y0194599D01*
X0058097Y0195700D02*
X0058097Y0193498D01*
X0061400Y0193498D01*
X0061400Y0195700D01*
X0061400Y0197181D02*
X0061400Y0199383D01*
X0061400Y0197181D02*
X0058097Y0197181D01*
X0058097Y0189814D02*
X0061400Y0189814D01*
D24*
X0091190Y0162915D03*
D25*
X0091190Y0162945D03*
D26*
X0091175Y0162975D03*
D27*
X0091175Y0163005D03*
X0088355Y0181965D03*
D28*
X0091190Y0163035D03*
D29*
X0091175Y0163065D03*
X0086705Y0170895D03*
X0086735Y0171015D03*
X0088355Y0181905D03*
D30*
X0088355Y0181845D03*
X0091715Y0175455D03*
X0086645Y0170685D03*
X0086645Y0170655D03*
X0091175Y0163095D03*
D31*
X0091175Y0163125D03*
D32*
X0091175Y0163155D03*
D33*
X0091145Y0163185D03*
X0086585Y0170415D03*
X0086165Y0173235D03*
D34*
X0080345Y0164835D03*
X0091145Y0163215D03*
D35*
X0091130Y0163245D03*
X0088340Y0181605D03*
X0088340Y0181635D03*
D36*
X0088325Y0181575D03*
X0091115Y0163275D03*
D37*
X0091115Y0163305D03*
X0091535Y0170145D03*
X0085985Y0173445D03*
D38*
X0086525Y0170145D03*
X0080405Y0164895D03*
X0091085Y0163335D03*
X0088325Y0181485D03*
D39*
X0085940Y0173505D03*
X0091070Y0163365D03*
D40*
X0091070Y0163395D03*
D41*
X0091040Y0163425D03*
X0086480Y0170025D03*
D42*
X0088655Y0174645D03*
X0091025Y0163455D03*
D43*
X0090995Y0163485D03*
D44*
X0090980Y0163515D03*
X0088700Y0174765D03*
X0086120Y0175305D03*
D45*
X0086120Y0175335D03*
X0088730Y0174855D03*
X0086450Y0169905D03*
X0090980Y0163545D03*
X0088250Y0181155D03*
D46*
X0088250Y0181125D03*
X0086450Y0169875D03*
X0090950Y0163575D03*
D47*
X0090935Y0163605D03*
X0086435Y0169845D03*
X0088235Y0181065D03*
X0088235Y0181095D03*
D48*
X0086150Y0175455D03*
X0088790Y0175005D03*
X0087020Y0172485D03*
X0086990Y0172455D03*
X0086420Y0169815D03*
X0080540Y0165015D03*
X0090920Y0163635D03*
X0091760Y0175365D03*
D49*
X0088790Y0175035D03*
X0090890Y0163665D03*
D50*
X0090875Y0163695D03*
X0089495Y0170115D03*
D51*
X0090860Y0163725D03*
D52*
X0090830Y0163755D03*
X0089600Y0169995D03*
X0088190Y0180855D03*
X0088190Y0180885D03*
D53*
X0088835Y0175215D03*
X0090815Y0163785D03*
D54*
X0090785Y0163815D03*
X0091535Y0170265D03*
D55*
X0089720Y0169845D03*
X0086360Y0169665D03*
X0088850Y0175305D03*
X0088850Y0175335D03*
X0088160Y0180765D03*
X0090770Y0163845D03*
X0080660Y0165105D03*
D56*
X0090755Y0163875D03*
D57*
X0090725Y0163905D03*
D58*
X0090710Y0163935D03*
X0089810Y0169695D03*
X0091760Y0175305D03*
X0088160Y0180645D03*
D59*
X0088145Y0180615D03*
X0088865Y0175485D03*
X0089855Y0169635D03*
X0090695Y0163965D03*
D60*
X0090665Y0163995D03*
X0089915Y0169515D03*
X0089915Y0169545D03*
D61*
X0090650Y0164025D03*
D62*
X0090635Y0164055D03*
D63*
X0090605Y0164085D03*
X0090005Y0169305D03*
X0090005Y0169335D03*
X0088115Y0180435D03*
X0088115Y0180465D03*
D64*
X0090590Y0164115D03*
D65*
X0090560Y0164145D03*
D66*
X0090545Y0164175D03*
X0090065Y0169125D03*
D67*
X0090080Y0169065D03*
X0090080Y0169035D03*
X0086240Y0169455D03*
X0084500Y0171405D03*
X0080870Y0165255D03*
X0090530Y0164205D03*
D68*
X0090500Y0164235D03*
X0088070Y0180255D03*
D69*
X0090485Y0164265D03*
D70*
X0090470Y0164295D03*
X0084080Y0171255D03*
X0088070Y0180195D03*
X0091790Y0175215D03*
D71*
X0087380Y0172875D03*
X0090440Y0164325D03*
D72*
X0090425Y0164355D03*
X0083795Y0171105D03*
X0083825Y0171135D03*
D73*
X0090410Y0164385D03*
D74*
X0090380Y0164415D03*
X0090050Y0168765D03*
X0091820Y0175185D03*
X0083480Y0170895D03*
X0083450Y0170865D03*
X0083420Y0170835D03*
X0083390Y0170805D03*
D75*
X0083315Y0170745D03*
X0083285Y0170715D03*
X0083255Y0170685D03*
X0083165Y0170595D03*
X0087455Y0172905D03*
X0090365Y0164445D03*
D76*
X0090335Y0164475D03*
X0082835Y0170175D03*
D77*
X0082820Y0170145D03*
X0082790Y0170115D03*
X0082790Y0170085D03*
X0082760Y0170055D03*
X0082730Y0169995D03*
X0082880Y0170235D03*
X0090320Y0164505D03*
X0088010Y0179895D03*
D78*
X0087995Y0179865D03*
X0082715Y0169965D03*
X0081095Y0165405D03*
X0090305Y0164535D03*
D79*
X0090275Y0164565D03*
X0082625Y0169755D03*
X0082625Y0169785D03*
D80*
X0082610Y0169695D03*
X0090260Y0164595D03*
D81*
X0090245Y0164625D03*
D82*
X0080195Y0164655D03*
D83*
X0082565Y0169515D03*
X0082565Y0169545D03*
X0090215Y0164655D03*
X0087965Y0179685D03*
X0087965Y0179715D03*
D84*
X0080210Y0164685D03*
D85*
X0090200Y0164685D03*
X0087950Y0179655D03*
D86*
X0080240Y0164715D03*
D87*
X0090170Y0164715D03*
D88*
X0091520Y0170085D03*
X0080270Y0164745D03*
D89*
X0090155Y0164745D03*
X0091865Y0175095D03*
D90*
X0080285Y0164775D03*
D91*
X0081290Y0165525D03*
X0090140Y0164775D03*
D92*
X0086615Y0170505D03*
X0086405Y0172995D03*
X0086285Y0173115D03*
X0086255Y0173145D03*
X0088355Y0181755D03*
X0088355Y0181785D03*
X0080315Y0164805D03*
D93*
X0090110Y0164805D03*
D94*
X0090095Y0164835D03*
X0091895Y0175065D03*
D95*
X0086045Y0173385D03*
X0086555Y0170265D03*
X0080375Y0164865D03*
D96*
X0081350Y0165555D03*
X0090080Y0164865D03*
X0087920Y0179445D03*
D97*
X0090050Y0164895D03*
D98*
X0080435Y0164925D03*
D99*
X0090035Y0164925D03*
D100*
X0086480Y0169995D03*
X0080480Y0164955D03*
X0091730Y0175395D03*
X0088280Y0181305D03*
D101*
X0091910Y0175035D03*
X0090020Y0164955D03*
D102*
X0080510Y0164985D03*
X0085760Y0173655D03*
D103*
X0089990Y0164985D03*
D104*
X0089975Y0165015D03*
X0087875Y0179235D03*
D105*
X0086165Y0175515D03*
X0088805Y0175095D03*
X0088805Y0175065D03*
X0089465Y0170145D03*
X0091535Y0170235D03*
X0086405Y0169785D03*
X0080585Y0165045D03*
D106*
X0081815Y0173205D03*
X0081785Y0173235D03*
X0089945Y0165045D03*
D107*
X0080615Y0165075D03*
D108*
X0081830Y0173175D03*
X0089930Y0165075D03*
D109*
X0089915Y0165105D03*
X0081935Y0173055D03*
X0081665Y0173415D03*
D110*
X0080705Y0165135D03*
D111*
X0089885Y0165135D03*
D112*
X0089870Y0169605D03*
X0087230Y0172755D03*
X0088850Y0175515D03*
X0088130Y0180585D03*
X0080750Y0165165D03*
D113*
X0081590Y0173595D03*
X0089870Y0165165D03*
D114*
X0089990Y0169365D03*
X0089960Y0169395D03*
X0087260Y0172785D03*
X0080780Y0165195D03*
D115*
X0082205Y0172785D03*
X0082175Y0172815D03*
X0081575Y0173655D03*
X0087815Y0178995D03*
X0089855Y0165195D03*
D116*
X0080825Y0165225D03*
D117*
X0089825Y0165225D03*
D118*
X0089810Y0165255D03*
X0081560Y0173715D03*
D119*
X0084155Y0171285D03*
X0090095Y0168945D03*
X0090095Y0168915D03*
X0080915Y0165285D03*
D120*
X0081695Y0165765D03*
X0082445Y0172605D03*
X0089795Y0165285D03*
D121*
X0086180Y0169395D03*
X0080960Y0165315D03*
X0088040Y0180135D03*
D122*
X0080390Y0176985D03*
X0089780Y0165315D03*
D123*
X0083645Y0171015D03*
X0083615Y0170985D03*
X0083555Y0170955D03*
X0081005Y0165345D03*
X0088025Y0180015D03*
X0088025Y0180045D03*
D124*
X0089750Y0165345D03*
D125*
X0081050Y0165375D03*
D126*
X0089735Y0165375D03*
D127*
X0089720Y0165405D03*
X0081590Y0173805D03*
X0087770Y0178755D03*
D128*
X0087980Y0179805D03*
X0087530Y0172935D03*
X0081140Y0165435D03*
D129*
X0082625Y0172485D03*
X0089705Y0165435D03*
D130*
X0082580Y0169605D03*
X0081200Y0165465D03*
D131*
X0081830Y0165855D03*
X0089690Y0165465D03*
D132*
X0082565Y0169455D03*
X0082565Y0169485D03*
X0081245Y0165495D03*
D133*
X0089675Y0165495D03*
X0092045Y0174885D03*
D134*
X0089660Y0165525D03*
D135*
X0089645Y0165555D03*
X0081875Y0165885D03*
X0081635Y0173835D03*
X0087755Y0178605D03*
D136*
X0087905Y0179355D03*
X0081395Y0165585D03*
D137*
X0081920Y0165915D03*
X0089630Y0165585D03*
X0080450Y0176955D03*
X0087740Y0178545D03*
D138*
X0087875Y0179265D03*
X0087875Y0179295D03*
X0081455Y0165615D03*
D139*
X0082865Y0172365D03*
X0089615Y0165615D03*
D140*
X0081500Y0165645D03*
X0091940Y0175005D03*
D141*
X0089600Y0165645D03*
X0081950Y0165945D03*
D142*
X0081545Y0165675D03*
D143*
X0089585Y0165675D03*
D144*
X0081605Y0165705D03*
X0082145Y0172845D03*
X0081605Y0173565D03*
X0087845Y0179055D03*
D145*
X0082940Y0172335D03*
X0089570Y0165705D03*
D146*
X0081650Y0165735D03*
X0082250Y0172755D03*
D147*
X0087725Y0178365D03*
X0087725Y0178395D03*
X0089555Y0165735D03*
D148*
X0089540Y0165765D03*
X0082040Y0166005D03*
X0087710Y0178335D03*
D149*
X0087785Y0178815D03*
X0087785Y0178845D03*
X0082535Y0172545D03*
X0081755Y0165795D03*
D150*
X0089525Y0165795D03*
X0087725Y0178305D03*
D151*
X0087770Y0178725D03*
X0081800Y0165825D03*
D152*
X0089510Y0165825D03*
X0080510Y0176925D03*
X0087710Y0178275D03*
D153*
X0087710Y0178245D03*
X0089510Y0165855D03*
D154*
X0089495Y0165885D03*
X0083045Y0172305D03*
D155*
X0082130Y0166095D03*
X0082100Y0166065D03*
X0089480Y0165915D03*
X0092120Y0174795D03*
D156*
X0089465Y0165945D03*
D157*
X0081995Y0165975D03*
D158*
X0089450Y0165975D03*
D159*
X0089450Y0166005D03*
D160*
X0090680Y0170445D03*
X0082070Y0166035D03*
D161*
X0089435Y0166035D03*
D162*
X0089420Y0166065D03*
X0092150Y0174765D03*
X0080540Y0176895D03*
X0082190Y0166155D03*
D163*
X0089405Y0166095D03*
X0087695Y0178005D03*
X0087695Y0178035D03*
D164*
X0087710Y0178125D03*
X0090710Y0170475D03*
X0082160Y0166125D03*
D165*
X0089405Y0166125D03*
X0087695Y0177975D03*
D166*
X0087680Y0177945D03*
X0090740Y0170535D03*
X0089390Y0166155D03*
D167*
X0082235Y0166185D03*
D168*
X0089375Y0166185D03*
X0087695Y0177915D03*
D169*
X0082250Y0166215D03*
D170*
X0089360Y0166215D03*
X0089360Y0166245D03*
D171*
X0082280Y0166245D03*
X0087620Y0175695D03*
X0087680Y0177855D03*
X0087680Y0177885D03*
D172*
X0087605Y0175725D03*
X0089345Y0166275D03*
X0082325Y0166275D03*
D173*
X0082340Y0166305D03*
X0089330Y0166305D03*
X0089330Y0166335D03*
X0087620Y0175755D03*
X0087620Y0175785D03*
X0087680Y0177735D03*
X0087680Y0177765D03*
X0087680Y0177795D03*
D174*
X0087620Y0175905D03*
X0087620Y0175845D03*
X0082400Y0166365D03*
X0082370Y0166335D03*
D175*
X0089315Y0166365D03*
X0089315Y0166395D03*
X0090785Y0170595D03*
X0087605Y0175815D03*
X0087665Y0177705D03*
D176*
X0087665Y0177615D03*
X0087665Y0177585D03*
X0087665Y0177555D03*
X0087605Y0175935D03*
X0082415Y0166395D03*
D177*
X0082445Y0166425D03*
X0089255Y0166575D03*
X0087605Y0176025D03*
D178*
X0087620Y0175875D03*
X0089300Y0166425D03*
D179*
X0089255Y0166605D03*
X0082475Y0166455D03*
X0080615Y0176835D03*
X0087605Y0176055D03*
X0087665Y0177435D03*
X0087665Y0177465D03*
X0087665Y0177495D03*
D180*
X0089285Y0166485D03*
X0089285Y0166455D03*
D181*
X0089240Y0166635D03*
X0089240Y0166665D03*
X0082490Y0166485D03*
D182*
X0082520Y0166515D03*
X0082550Y0166545D03*
X0087620Y0176235D03*
X0087620Y0176265D03*
X0087620Y0176295D03*
X0087620Y0176355D03*
X0087650Y0177165D03*
X0087650Y0177195D03*
X0087650Y0177255D03*
X0092990Y0172245D03*
D183*
X0092210Y0174705D03*
X0087620Y0175965D03*
X0087620Y0175995D03*
X0089270Y0166545D03*
X0089270Y0166515D03*
D184*
X0089195Y0166875D03*
X0093035Y0172275D03*
X0087635Y0177075D03*
X0082565Y0166575D03*
D185*
X0082580Y0166605D03*
X0089180Y0166935D03*
X0089180Y0166965D03*
X0089030Y0168195D03*
X0089030Y0168255D03*
X0089030Y0168285D03*
X0092780Y0172095D03*
X0093140Y0172365D03*
X0087620Y0176415D03*
X0087620Y0176445D03*
X0087620Y0176505D03*
X0087620Y0176535D03*
X0087620Y0176565D03*
X0087620Y0176595D03*
X0087620Y0176655D03*
X0087620Y0176685D03*
X0087620Y0176715D03*
X0087620Y0176745D03*
X0087620Y0176805D03*
X0087620Y0176835D03*
X0087620Y0176865D03*
X0087620Y0176895D03*
D186*
X0093110Y0172335D03*
X0082610Y0166635D03*
D187*
X0082625Y0166665D03*
X0089045Y0168105D03*
X0089045Y0168135D03*
X0089045Y0168165D03*
X0090845Y0170715D03*
D188*
X0092660Y0172035D03*
X0093230Y0172455D03*
X0089060Y0168045D03*
X0089060Y0168015D03*
X0089060Y0167985D03*
X0089060Y0167955D03*
X0082640Y0166695D03*
D189*
X0089225Y0166695D03*
X0089225Y0166755D03*
D190*
X0089150Y0167175D03*
X0082670Y0166725D03*
X0093200Y0172425D03*
D191*
X0089225Y0166725D03*
D192*
X0089135Y0167205D03*
X0089135Y0167235D03*
X0089135Y0167265D03*
X0089135Y0167295D03*
X0082685Y0166755D03*
D193*
X0082700Y0166785D03*
X0082730Y0166815D03*
X0089090Y0167505D03*
X0089090Y0167535D03*
X0089090Y0167565D03*
X0089090Y0167595D03*
X0089090Y0167655D03*
X0089090Y0167685D03*
X0093260Y0172485D03*
D194*
X0089210Y0166815D03*
X0089210Y0166785D03*
D195*
X0082745Y0166845D03*
X0093275Y0172515D03*
D196*
X0093065Y0172305D03*
X0092945Y0172215D03*
X0092915Y0172185D03*
X0092855Y0172155D03*
X0090815Y0170685D03*
X0089015Y0168345D03*
X0089015Y0168315D03*
X0089195Y0166905D03*
X0089195Y0166845D03*
X0087605Y0176385D03*
X0087635Y0176955D03*
X0087635Y0176985D03*
X0087635Y0177015D03*
X0087635Y0177045D03*
X0087635Y0177105D03*
X0087635Y0177135D03*
X0080645Y0176805D03*
D197*
X0082760Y0166875D03*
X0090860Y0170775D03*
D198*
X0092480Y0171945D03*
X0093290Y0172545D03*
X0082790Y0166905D03*
D199*
X0082805Y0166935D03*
D200*
X0082820Y0166965D03*
X0082850Y0166995D03*
X0092390Y0171915D03*
D201*
X0092705Y0172065D03*
X0093155Y0172395D03*
X0089165Y0167085D03*
X0089165Y0167055D03*
X0089165Y0166995D03*
D202*
X0082865Y0167025D03*
D203*
X0089165Y0167025D03*
D204*
X0082895Y0167085D03*
X0082865Y0167055D03*
X0093335Y0172605D03*
D205*
X0090860Y0170835D03*
X0082910Y0167115D03*
D206*
X0089150Y0167115D03*
X0089150Y0167145D03*
X0092600Y0172005D03*
X0092270Y0174645D03*
D207*
X0082925Y0167145D03*
D208*
X0082940Y0167175D03*
D209*
X0082955Y0167205D03*
X0082985Y0167265D03*
X0092315Y0171885D03*
X0093365Y0172635D03*
D210*
X0083000Y0167295D03*
X0082970Y0167235D03*
D211*
X0083000Y0167325D03*
D212*
X0089090Y0167625D03*
X0089120Y0167325D03*
X0092540Y0171975D03*
D213*
X0093380Y0172665D03*
X0083030Y0167355D03*
X0080780Y0176685D03*
D214*
X0090845Y0170745D03*
X0089075Y0167895D03*
X0089075Y0167865D03*
X0089075Y0167835D03*
X0089075Y0167805D03*
X0089075Y0167745D03*
X0089075Y0167715D03*
X0089105Y0167445D03*
X0089105Y0167415D03*
X0089105Y0167385D03*
X0089105Y0167355D03*
D215*
X0090875Y0170865D03*
X0083105Y0167535D03*
X0083075Y0167445D03*
X0083045Y0167415D03*
X0083045Y0167385D03*
D216*
X0083075Y0167475D03*
D217*
X0089075Y0167775D03*
X0089105Y0167475D03*
D218*
X0092210Y0171855D03*
X0093380Y0172695D03*
X0083360Y0168345D03*
X0083360Y0168315D03*
X0083360Y0168285D03*
X0083330Y0168195D03*
X0083300Y0168135D03*
X0083300Y0168105D03*
X0083270Y0168045D03*
X0083270Y0168015D03*
X0083270Y0167985D03*
X0083240Y0167895D03*
X0083210Y0167835D03*
X0083210Y0167805D03*
X0083180Y0167745D03*
X0083180Y0167715D03*
X0083150Y0167685D03*
X0083150Y0167655D03*
X0083120Y0167595D03*
X0083120Y0167565D03*
X0083090Y0167505D03*
D219*
X0083150Y0167625D03*
X0083240Y0167925D03*
X0083330Y0168225D03*
D220*
X0083195Y0167775D03*
D221*
X0083225Y0167865D03*
X0083255Y0167955D03*
X0083315Y0168165D03*
X0083345Y0168255D03*
X0090875Y0170895D03*
D222*
X0089060Y0167925D03*
X0080690Y0176775D03*
D223*
X0083285Y0168075D03*
D224*
X0089045Y0168075D03*
D225*
X0089030Y0168225D03*
X0087620Y0176475D03*
X0087620Y0176625D03*
X0087620Y0176775D03*
X0087620Y0176925D03*
D226*
X0086090Y0168375D03*
D227*
X0086090Y0168405D03*
D228*
X0086075Y0168435D03*
D229*
X0086090Y0168465D03*
X0086090Y0168495D03*
D230*
X0086075Y0168525D03*
D231*
X0086090Y0168555D03*
X0086090Y0168585D03*
D232*
X0086075Y0168615D03*
D233*
X0086090Y0168645D03*
D234*
X0086090Y0168675D03*
D235*
X0086075Y0168705D03*
D236*
X0086090Y0168735D03*
D237*
X0084455Y0168765D03*
X0082835Y0174405D03*
D238*
X0082880Y0174285D03*
X0084410Y0168795D03*
D239*
X0083690Y0171045D03*
X0090080Y0168795D03*
D240*
X0091610Y0174525D03*
X0084410Y0168825D03*
D241*
X0090095Y0168825D03*
D242*
X0084380Y0168855D03*
D243*
X0083945Y0171195D03*
X0090095Y0168885D03*
X0090095Y0168855D03*
X0088055Y0180165D03*
D244*
X0082925Y0174135D03*
X0084365Y0168885D03*
D245*
X0084350Y0168915D03*
X0082970Y0174015D03*
D246*
X0082985Y0173985D03*
X0082985Y0173955D03*
X0084335Y0168945D03*
D247*
X0084320Y0168975D03*
X0083000Y0173925D03*
D248*
X0090080Y0168975D03*
D249*
X0084320Y0169005D03*
D250*
X0090095Y0169005D03*
D251*
X0084305Y0169035D03*
D252*
X0084290Y0169065D03*
D253*
X0084290Y0169095D03*
D254*
X0090065Y0169095D03*
X0091535Y0170355D03*
X0091775Y0175245D03*
X0088085Y0180315D03*
X0088085Y0180345D03*
D255*
X0084275Y0169125D03*
D256*
X0084260Y0169155D03*
X0084290Y0172215D03*
D257*
X0090050Y0169185D03*
X0090050Y0169155D03*
D258*
X0084770Y0171855D03*
X0084320Y0172185D03*
X0084260Y0169215D03*
X0084260Y0169185D03*
D259*
X0086255Y0169485D03*
X0087305Y0172815D03*
X0090035Y0169245D03*
X0090035Y0169215D03*
D260*
X0084260Y0169245D03*
X0084380Y0172095D03*
D261*
X0084245Y0169275D03*
D262*
X0090020Y0169275D03*
D263*
X0084230Y0169305D03*
X0084470Y0172005D03*
X0084440Y0172035D03*
X0081590Y0175545D03*
X0081530Y0175635D03*
X0081500Y0175665D03*
X0081440Y0175755D03*
D264*
X0081425Y0175785D03*
X0081395Y0175815D03*
X0081365Y0175845D03*
X0081335Y0175905D03*
X0081305Y0175935D03*
X0081485Y0175695D03*
X0081545Y0175605D03*
X0081605Y0175515D03*
X0081635Y0175485D03*
X0081665Y0175455D03*
X0081695Y0175395D03*
X0081725Y0175365D03*
X0081725Y0175335D03*
X0081755Y0175305D03*
X0084245Y0169335D03*
D265*
X0082640Y0169365D03*
X0087890Y0179385D03*
D266*
X0086105Y0169365D03*
X0083015Y0170415D03*
X0082925Y0170295D03*
X0082895Y0170265D03*
X0082865Y0170205D03*
D267*
X0082595Y0169395D03*
D268*
X0082565Y0169425D03*
D269*
X0086225Y0169425D03*
D270*
X0089960Y0169425D03*
D271*
X0089945Y0169455D03*
X0088115Y0180495D03*
D272*
X0088130Y0180555D03*
X0089930Y0169485D03*
D273*
X0086285Y0169515D03*
X0088835Y0175605D03*
D274*
X0088850Y0175545D03*
X0086300Y0169545D03*
D275*
X0082580Y0169575D03*
X0091850Y0175125D03*
D276*
X0086330Y0169575D03*
D277*
X0089885Y0169575D03*
D278*
X0089840Y0169665D03*
X0091550Y0170295D03*
X0086330Y0169605D03*
X0088850Y0175455D03*
X0079700Y0177015D03*
D279*
X0082595Y0169665D03*
X0082595Y0169635D03*
X0087965Y0179745D03*
D280*
X0088160Y0180705D03*
X0089780Y0169755D03*
X0086360Y0169635D03*
D281*
X0086375Y0169695D03*
X0087125Y0172635D03*
D282*
X0082610Y0169725D03*
D283*
X0086390Y0169725D03*
X0089570Y0170025D03*
X0086180Y0175575D03*
D284*
X0088145Y0180675D03*
X0089795Y0169725D03*
D285*
X0086390Y0169755D03*
X0085640Y0173745D03*
X0086180Y0175545D03*
X0088220Y0180945D03*
D286*
X0088850Y0175395D03*
X0089750Y0169785D03*
D287*
X0082640Y0169815D03*
X0087980Y0179835D03*
D288*
X0085535Y0173805D03*
X0087185Y0172695D03*
X0089735Y0169815D03*
D289*
X0082700Y0169935D03*
X0082670Y0169845D03*
D290*
X0082670Y0169875D03*
D291*
X0089690Y0169875D03*
D292*
X0091835Y0175155D03*
X0082685Y0169905D03*
D293*
X0087155Y0172665D03*
X0089645Y0169935D03*
X0089675Y0169905D03*
X0088175Y0180795D03*
D294*
X0088265Y0181185D03*
X0088265Y0181215D03*
X0088715Y0174795D03*
X0089255Y0170355D03*
X0086465Y0169935D03*
D295*
X0086465Y0169965D03*
X0088685Y0174735D03*
X0088265Y0181245D03*
D296*
X0086210Y0175605D03*
X0091760Y0175335D03*
X0089630Y0169965D03*
D297*
X0082745Y0170025D03*
D298*
X0086495Y0170055D03*
X0088295Y0181365D03*
D299*
X0088205Y0180915D03*
X0088835Y0175185D03*
X0088835Y0175155D03*
X0087095Y0172605D03*
X0089555Y0170055D03*
D300*
X0091505Y0170055D03*
D301*
X0086510Y0170085D03*
X0085910Y0173535D03*
X0088310Y0181395D03*
D302*
X0086810Y0172305D03*
X0089510Y0170085D03*
D303*
X0086510Y0170115D03*
X0088310Y0181455D03*
D304*
X0086600Y0170445D03*
X0091520Y0170115D03*
D305*
X0086540Y0170175D03*
D306*
X0089435Y0170175D03*
D307*
X0091535Y0170175D03*
D308*
X0086540Y0170205D03*
X0086540Y0170235D03*
X0086030Y0173415D03*
D309*
X0089405Y0170205D03*
D310*
X0089315Y0170295D03*
X0091535Y0170205D03*
X0086135Y0175365D03*
D311*
X0088775Y0174945D03*
X0086945Y0172395D03*
X0086915Y0172365D03*
X0089345Y0170265D03*
X0089375Y0170235D03*
D312*
X0086555Y0170295D03*
X0086075Y0173355D03*
D313*
X0082955Y0170325D03*
X0087995Y0179925D03*
D314*
X0086570Y0170325D03*
D315*
X0089285Y0170325D03*
D316*
X0091535Y0170325D03*
X0088835Y0175575D03*
D317*
X0083150Y0170565D03*
X0083120Y0170535D03*
X0082970Y0170355D03*
D318*
X0086585Y0170355D03*
X0086585Y0170385D03*
X0086135Y0173295D03*
X0088355Y0181695D03*
D319*
X0082985Y0170385D03*
D320*
X0090635Y0170385D03*
D321*
X0090650Y0170415D03*
D322*
X0083090Y0170505D03*
X0083030Y0170445D03*
X0088010Y0179955D03*
D323*
X0083060Y0170475D03*
D324*
X0086600Y0170475D03*
D325*
X0090725Y0170505D03*
X0087695Y0178065D03*
X0087695Y0178095D03*
D326*
X0086330Y0173055D03*
X0086630Y0170565D03*
X0086630Y0170535D03*
D327*
X0090755Y0170565D03*
X0092195Y0174735D03*
X0080585Y0176865D03*
D328*
X0086810Y0171165D03*
X0086630Y0170595D03*
D329*
X0083345Y0170775D03*
X0083195Y0170625D03*
D330*
X0086630Y0170625D03*
D331*
X0090800Y0170625D03*
X0087650Y0177525D03*
D332*
X0088025Y0179985D03*
X0083225Y0170655D03*
D333*
X0087620Y0176085D03*
X0087620Y0176115D03*
X0087620Y0176145D03*
X0087650Y0177315D03*
X0087650Y0177345D03*
X0087650Y0177405D03*
X0090800Y0170655D03*
D334*
X0086780Y0171135D03*
X0086660Y0170745D03*
X0086660Y0170715D03*
D335*
X0086675Y0170775D03*
D336*
X0086675Y0170805D03*
D337*
X0090860Y0170805D03*
D338*
X0086750Y0171045D03*
X0086720Y0170985D03*
X0086720Y0170955D03*
X0086690Y0170865D03*
X0086690Y0170835D03*
D339*
X0083525Y0170925D03*
D340*
X0086720Y0170925D03*
X0086750Y0171075D03*
D341*
X0090875Y0170925D03*
X0093395Y0172725D03*
D342*
X0090890Y0170955D03*
D343*
X0090890Y0170985D03*
D344*
X0090905Y0171015D03*
X0093395Y0172815D03*
D345*
X0090905Y0171045D03*
X0080915Y0176505D03*
D346*
X0083735Y0171075D03*
D347*
X0080930Y0176475D03*
X0090890Y0171075D03*
D348*
X0086765Y0171105D03*
D349*
X0090905Y0171105D03*
X0080975Y0176415D03*
D350*
X0090890Y0171135D03*
D351*
X0083900Y0171165D03*
D352*
X0081080Y0176265D03*
X0081050Y0176295D03*
X0090890Y0171165D03*
D353*
X0090260Y0171195D03*
X0091790Y0174405D03*
X0082790Y0174615D03*
D354*
X0084005Y0171225D03*
D355*
X0082775Y0174675D03*
X0090275Y0171225D03*
D356*
X0090290Y0171255D03*
D357*
X0090305Y0171285D03*
X0082745Y0174765D03*
X0082745Y0174795D03*
D358*
X0084230Y0171315D03*
D359*
X0090305Y0171315D03*
X0091865Y0174345D03*
D360*
X0087335Y0172845D03*
X0084305Y0171345D03*
X0088085Y0180285D03*
D361*
X0091910Y0174315D03*
X0090320Y0171345D03*
D362*
X0084410Y0171375D03*
D363*
X0082700Y0174975D03*
X0090320Y0171375D03*
D364*
X0090320Y0171405D03*
D365*
X0082745Y0171435D03*
X0088325Y0182055D03*
D366*
X0088910Y0171435D03*
D367*
X0088445Y0171465D03*
D368*
X0088400Y0171495D03*
D369*
X0088355Y0171525D03*
D370*
X0088340Y0171555D03*
D371*
X0088310Y0171585D03*
D372*
X0088280Y0171615D03*
D373*
X0088265Y0171645D03*
D374*
X0088250Y0171675D03*
D375*
X0088250Y0171705D03*
D376*
X0088235Y0171735D03*
D377*
X0088220Y0171765D03*
D378*
X0088220Y0171795D03*
D379*
X0084905Y0171825D03*
D380*
X0092075Y0171825D03*
D381*
X0084695Y0171885D03*
X0084575Y0171945D03*
D382*
X0084635Y0171915D03*
D383*
X0084530Y0171975D03*
D384*
X0084410Y0172065D03*
D385*
X0084350Y0172125D03*
D386*
X0092810Y0172125D03*
D387*
X0084335Y0172155D03*
D388*
X0084275Y0172245D03*
D389*
X0084260Y0172275D03*
D390*
X0085685Y0173715D03*
X0087035Y0172515D03*
X0086885Y0172335D03*
X0088235Y0181035D03*
D391*
X0082790Y0172395D03*
D392*
X0082745Y0172425D03*
D393*
X0086975Y0172425D03*
X0088775Y0174975D03*
D394*
X0087770Y0178695D03*
X0082670Y0172455D03*
D395*
X0082565Y0172515D03*
X0092015Y0174915D03*
D396*
X0087050Y0172545D03*
X0086150Y0175485D03*
X0088220Y0181005D03*
D397*
X0087800Y0178875D03*
X0082490Y0172575D03*
D398*
X0087080Y0172575D03*
X0088820Y0175125D03*
D399*
X0093320Y0172575D03*
D400*
X0092000Y0174945D03*
X0087800Y0178905D03*
X0082400Y0172635D03*
D401*
X0082355Y0172665D03*
X0087815Y0178935D03*
X0087815Y0178965D03*
D402*
X0081575Y0173685D03*
X0082325Y0172695D03*
D403*
X0082280Y0172725D03*
D404*
X0087200Y0172725D03*
D405*
X0093395Y0172755D03*
D406*
X0093395Y0172785D03*
D407*
X0093380Y0172845D03*
D408*
X0091955Y0174975D03*
X0082115Y0172875D03*
D409*
X0093365Y0172875D03*
D410*
X0082070Y0172905D03*
X0081620Y0173505D03*
X0081620Y0173535D03*
D411*
X0081020Y0176355D03*
X0093350Y0172905D03*
D412*
X0087830Y0179085D03*
X0082010Y0172965D03*
X0082040Y0172935D03*
D413*
X0093290Y0172935D03*
D414*
X0091265Y0172965D03*
D415*
X0087845Y0179115D03*
X0081995Y0172995D03*
D416*
X0091940Y0172995D03*
D417*
X0081965Y0173025D03*
X0081635Y0173475D03*
D418*
X0086360Y0173025D03*
D419*
X0091985Y0173025D03*
D420*
X0092015Y0173055D03*
X0092045Y0173085D03*
X0092075Y0173115D03*
D421*
X0081920Y0173085D03*
X0081890Y0173115D03*
X0081770Y0173265D03*
X0081740Y0173295D03*
X0081680Y0173385D03*
X0081650Y0173445D03*
D422*
X0086300Y0173085D03*
D423*
X0081860Y0173145D03*
X0081710Y0173355D03*
X0087860Y0179145D03*
D424*
X0092150Y0173235D03*
X0092150Y0173205D03*
X0092090Y0173145D03*
D425*
X0086225Y0173175D03*
D426*
X0092120Y0173175D03*
D427*
X0086210Y0173205D03*
D428*
X0086150Y0173265D03*
D429*
X0092165Y0173265D03*
X0092195Y0173295D03*
D430*
X0087845Y0179175D03*
X0081725Y0173325D03*
D431*
X0086090Y0173325D03*
D432*
X0092195Y0173325D03*
D433*
X0092210Y0173355D03*
X0092210Y0173385D03*
X0092240Y0173415D03*
X0092240Y0173445D03*
D434*
X0085955Y0173475D03*
D435*
X0092255Y0173475D03*
D436*
X0092255Y0173505D03*
D437*
X0092270Y0173535D03*
D438*
X0088640Y0174615D03*
X0085880Y0173565D03*
X0088280Y0181335D03*
D439*
X0092255Y0173595D03*
X0092255Y0173565D03*
D440*
X0085835Y0173595D03*
D441*
X0081575Y0173625D03*
D442*
X0085805Y0173625D03*
D443*
X0092270Y0173625D03*
D444*
X0092270Y0173655D03*
D445*
X0088760Y0174915D03*
X0085730Y0173685D03*
D446*
X0092285Y0173685D03*
X0092285Y0173715D03*
D447*
X0081560Y0173745D03*
D448*
X0092270Y0173745D03*
D449*
X0081575Y0173775D03*
D450*
X0085595Y0173775D03*
D451*
X0092285Y0173775D03*
D452*
X0092285Y0173805D03*
D453*
X0085445Y0173835D03*
D454*
X0092270Y0173835D03*
X0092270Y0173865D03*
D455*
X0083015Y0173865D03*
X0083015Y0173895D03*
D456*
X0092270Y0173895D03*
D457*
X0092255Y0173925D03*
D458*
X0092255Y0173955D03*
D459*
X0092240Y0173985D03*
D460*
X0092240Y0174015D03*
D461*
X0082955Y0174045D03*
D462*
X0092225Y0174045D03*
D463*
X0082940Y0174075D03*
D464*
X0092195Y0174075D03*
D465*
X0091550Y0174555D03*
X0082940Y0174105D03*
D466*
X0092180Y0174105D03*
D467*
X0092150Y0174135D03*
D468*
X0082910Y0174165D03*
D469*
X0092135Y0174165D03*
D470*
X0082895Y0174195D03*
D471*
X0092090Y0174195D03*
D472*
X0082895Y0174225D03*
D473*
X0092060Y0174225D03*
D474*
X0082895Y0174255D03*
D475*
X0082685Y0175095D03*
X0092015Y0174255D03*
D476*
X0091970Y0174285D03*
X0082700Y0175035D03*
D477*
X0082865Y0174345D03*
X0082865Y0174315D03*
X0091655Y0174495D03*
D478*
X0082850Y0174375D03*
D479*
X0091835Y0174375D03*
D480*
X0091700Y0174465D03*
X0082820Y0174435D03*
D481*
X0091745Y0174435D03*
D482*
X0082835Y0174465D03*
D483*
X0082820Y0174495D03*
D484*
X0082805Y0174525D03*
D485*
X0082805Y0174555D03*
D486*
X0082790Y0174585D03*
D487*
X0091505Y0174585D03*
D488*
X0092300Y0174615D03*
X0080720Y0176745D03*
D489*
X0082775Y0174645D03*
D490*
X0088670Y0174675D03*
D491*
X0087620Y0176325D03*
X0087650Y0177225D03*
X0092240Y0174675D03*
D492*
X0082760Y0174705D03*
D493*
X0088670Y0174705D03*
D494*
X0082760Y0174735D03*
D495*
X0082730Y0174825D03*
D496*
X0088730Y0174825D03*
D497*
X0092090Y0174825D03*
D498*
X0082730Y0174855D03*
D499*
X0092075Y0174855D03*
D500*
X0082715Y0174885D03*
X0082715Y0174915D03*
D501*
X0088745Y0174885D03*
D502*
X0082715Y0174945D03*
D503*
X0082715Y0175005D03*
D504*
X0082685Y0175065D03*
D505*
X0082685Y0175125D03*
D506*
X0082685Y0175155D03*
D507*
X0082670Y0175185D03*
D508*
X0082670Y0175215D03*
X0082670Y0175245D03*
D509*
X0088850Y0175245D03*
D510*
X0082670Y0175275D03*
D511*
X0088850Y0175275D03*
D512*
X0091775Y0175275D03*
D513*
X0088865Y0175365D03*
X0088175Y0180735D03*
D514*
X0086120Y0175395D03*
D515*
X0081665Y0175425D03*
X0081575Y0175575D03*
X0081455Y0175725D03*
X0081365Y0175875D03*
D516*
X0086135Y0175425D03*
D517*
X0088865Y0175425D03*
D518*
X0091730Y0175425D03*
D519*
X0091700Y0175485D03*
D520*
X0087605Y0175635D03*
X0087605Y0175665D03*
D521*
X0081290Y0175965D03*
D522*
X0081260Y0175995D03*
D523*
X0081245Y0176025D03*
D524*
X0081215Y0176055D03*
D525*
X0081200Y0176085D03*
D526*
X0081185Y0176115D03*
D527*
X0081155Y0176145D03*
D528*
X0081140Y0176175D03*
D529*
X0087605Y0176175D03*
D530*
X0081125Y0176205D03*
D531*
X0087605Y0176205D03*
X0087635Y0177285D03*
D532*
X0081095Y0176235D03*
D533*
X0081050Y0176325D03*
D534*
X0081005Y0176385D03*
D535*
X0080960Y0176445D03*
D536*
X0080900Y0176535D03*
D537*
X0080885Y0176565D03*
D538*
X0080855Y0176595D03*
D539*
X0080825Y0176625D03*
D540*
X0080810Y0176655D03*
D541*
X0080750Y0176715D03*
D542*
X0087650Y0177375D03*
D543*
X0087680Y0177645D03*
D544*
X0087665Y0177675D03*
D545*
X0087680Y0177825D03*
D546*
X0087695Y0178155D03*
D547*
X0087710Y0178185D03*
X0087710Y0178215D03*
D548*
X0087725Y0178425D03*
D549*
X0087725Y0178455D03*
D550*
X0087740Y0178485D03*
X0087740Y0178515D03*
D551*
X0087755Y0178575D03*
D552*
X0087755Y0178635D03*
X0087755Y0178665D03*
D553*
X0087785Y0178785D03*
D554*
X0087830Y0179025D03*
D555*
X0087860Y0179205D03*
D556*
X0087890Y0179325D03*
D557*
X0087905Y0179415D03*
D558*
X0087920Y0179475D03*
D559*
X0087920Y0179505D03*
D560*
X0087935Y0179535D03*
D561*
X0087935Y0179565D03*
X0087935Y0179595D03*
D562*
X0087950Y0179625D03*
D563*
X0087980Y0179775D03*
D564*
X0088040Y0180075D03*
D565*
X0088055Y0180105D03*
D566*
X0088070Y0180225D03*
D567*
X0088100Y0180375D03*
D568*
X0088100Y0180405D03*
D569*
X0088130Y0180525D03*
D570*
X0088190Y0180825D03*
D571*
X0088205Y0180975D03*
D572*
X0088280Y0181275D03*
D573*
X0088295Y0181425D03*
D574*
X0088310Y0181515D03*
D575*
X0088325Y0181545D03*
D576*
X0088340Y0181665D03*
D577*
X0088355Y0181725D03*
D578*
X0088355Y0181815D03*
D579*
X0088355Y0181875D03*
D580*
X0088370Y0181935D03*
D581*
X0088355Y0181995D03*
D582*
X0088355Y0182025D03*
M02*
