G75*
%MOIN*%
%OFA0B0*%
%FSLAX25Y25*%
%IPPOS*%
%LPD*%
%AMOC8*
5,1,8,0,0,1.08239X$1,22.5*
%
%ADD10R,0.04731X0.03943*%
%ADD11R,0.03943X0.04731*%
%ADD12R,0.06306X0.06306*%
%ADD13R,0.09455X0.11030*%
%ADD14R,0.02565X0.05124*%
%ADD15R,0.05124X0.05124*%
%ADD16R,0.05518X0.06306*%
%ADD17R,0.18510X0.04337*%
%ADD18R,0.13786X0.06699*%
%ADD19R,0.06306X0.05518*%
%ADD20C,0.03156*%
%ADD21R,0.10243X0.10243*%
%ADD22C,0.05156*%
%ADD23R,0.08274X0.04337*%
%ADD24R,0.05709X0.01969*%
%ADD25R,0.03943X0.04337*%
%ADD26R,0.05912X0.05912*%
%ADD27R,0.11030X0.06699*%
%ADD28R,0.02369X0.02369*%
%ADD29R,0.02369X0.01975*%
%ADD30C,0.14243*%
%ADD31C,0.07400*%
%ADD32R,0.02172X0.03943*%
%ADD33C,0.04337*%
%ADD34C,0.01969*%
%ADD35R,0.03550X0.05715*%
%ADD36R,0.05912X0.04337*%
%ADD37R,0.05715X0.03550*%
%ADD38C,0.04731*%
%ADD39R,0.03937X0.01772*%
%ADD40R,0.06306X0.10243*%
%ADD41R,0.06306X0.13786*%
%ADD42C,0.05518*%
%ADD43R,0.06400X0.16400*%
%ADD44R,0.04400X0.08400*%
%ADD45R,0.03600X0.09200*%
%ADD46R,0.05400X0.08274*%
%ADD47R,0.07400X0.07400*%
%ADD48R,0.04362X0.04362*%
D10*
X0073860Y0108494D03*
X0073860Y0114006D03*
X0073860Y0119517D03*
X0073860Y0125029D03*
X0073860Y0130541D03*
X0073860Y0136053D03*
X0073860Y0141565D03*
X0073860Y0147076D03*
X0073860Y0152588D03*
X0080710Y0152588D03*
X0080710Y0147076D03*
X0080710Y0141565D03*
X0080710Y0136053D03*
X0080710Y0130541D03*
X0080710Y0125029D03*
X0080710Y0119517D03*
X0080710Y0114006D03*
X0080710Y0108494D03*
X0130789Y0108494D03*
X0130789Y0114006D03*
X0130789Y0119517D03*
X0130789Y0125029D03*
X0130789Y0130541D03*
X0130789Y0136053D03*
X0130789Y0141565D03*
X0130789Y0147076D03*
X0130789Y0152588D03*
X0137639Y0152588D03*
X0137639Y0147076D03*
X0137639Y0141565D03*
X0137639Y0136053D03*
X0137639Y0130541D03*
X0137639Y0125029D03*
X0137639Y0119517D03*
X0137639Y0114006D03*
X0137639Y0108494D03*
D11*
X0136065Y0102588D03*
X0130553Y0102588D03*
X0125041Y0102588D03*
X0125041Y0108887D03*
X0119529Y0108887D03*
X0114017Y0108887D03*
X0108506Y0108887D03*
X0108506Y0102588D03*
X0114017Y0102588D03*
X0119529Y0102588D03*
X0102994Y0102588D03*
X0097482Y0102588D03*
X0091970Y0102588D03*
X0091970Y0108887D03*
X0097482Y0108887D03*
X0102994Y0108887D03*
X0086458Y0108887D03*
X0086458Y0102588D03*
X0080947Y0102588D03*
X0075435Y0102588D03*
X0086458Y0152195D03*
X0091970Y0152195D03*
X0097482Y0152195D03*
X0102994Y0152195D03*
X0108506Y0152195D03*
X0114017Y0152195D03*
X0119529Y0152195D03*
X0125041Y0152195D03*
X0125041Y0158494D03*
X0130553Y0158494D03*
X0136065Y0158494D03*
X0119529Y0158494D03*
X0114017Y0158494D03*
X0108506Y0158494D03*
X0102994Y0158494D03*
X0097482Y0158494D03*
X0091970Y0158494D03*
X0086458Y0158494D03*
X0080947Y0158494D03*
X0075435Y0158494D03*
D12*
X0090395Y0142352D03*
D13*
X0100632Y0142352D03*
X0110868Y0142352D03*
X0121104Y0142352D03*
X0121104Y0130541D03*
X0110868Y0130541D03*
X0100632Y0130541D03*
X0090395Y0130541D03*
X0090395Y0118730D03*
X0100632Y0118730D03*
X0110868Y0118730D03*
X0121104Y0118730D03*
D14*
X0056490Y0116297D03*
X0049010Y0116297D03*
X0049010Y0126534D03*
X0052750Y0126534D03*
X0056490Y0126534D03*
D15*
X0033388Y0134958D03*
X0033407Y0142234D03*
X0025139Y0142234D03*
X0025120Y0134958D03*
X0104750Y0165781D03*
X0104750Y0174049D03*
X0074884Y0049915D03*
X0066616Y0049915D03*
D16*
X0066510Y0043415D03*
X0073990Y0043415D03*
X0046490Y0044915D03*
X0039010Y0044915D03*
X0032490Y0044915D03*
X0025010Y0044915D03*
X0040510Y0086415D03*
X0047990Y0086415D03*
X0064510Y0085915D03*
X0064010Y0092915D03*
X0071490Y0092915D03*
X0071990Y0085915D03*
X0056490Y0107415D03*
X0049010Y0107415D03*
X0046990Y0135415D03*
X0047053Y0142415D03*
X0039573Y0142415D03*
X0039510Y0135415D03*
X0056325Y0175226D03*
X0063805Y0175226D03*
D17*
X0049317Y0166352D03*
X0049317Y0158478D03*
D18*
X0028844Y0149029D03*
X0028844Y0175801D03*
D19*
X0073191Y0173592D03*
X0073191Y0166112D03*
X0112750Y0166175D03*
X0112750Y0173655D03*
X0064250Y0119155D03*
X0064250Y0111675D03*
X0126750Y0094155D03*
X0126750Y0086675D03*
D20*
X0037750Y0103738D03*
X0037750Y0119092D03*
D21*
X0030269Y0125588D03*
X0030269Y0097242D03*
D22*
X0041293Y0098423D02*
X0041293Y0093667D01*
X0041293Y0124407D02*
X0041293Y0129163D01*
D23*
X0029876Y0114368D03*
X0029876Y0108462D03*
D24*
X0040801Y0108856D03*
X0040801Y0106297D03*
X0040801Y0111415D03*
X0040801Y0113974D03*
X0040801Y0116533D03*
D25*
X0042179Y0188265D03*
X0042179Y0194565D03*
X0058321Y0194565D03*
X0058321Y0188265D03*
D26*
X0062750Y0167699D03*
X0062750Y0153132D03*
D27*
X0059250Y0145427D03*
X0059250Y0134403D03*
D28*
X0100706Y0094368D03*
X0100706Y0088462D03*
X0107793Y0088462D03*
X0107793Y0094368D03*
D29*
X0107793Y0091415D03*
X0100706Y0091415D03*
D30*
X0135750Y0189415D03*
X0030750Y0189415D03*
D31*
X0028750Y0030415D03*
X0038750Y0030415D03*
X0048750Y0030415D03*
X0058750Y0030415D03*
X0068750Y0030415D03*
X0078750Y0030415D03*
X0088750Y0030415D03*
X0098750Y0030415D03*
X0108750Y0030415D03*
X0118750Y0030415D03*
X0128750Y0030415D03*
X0138750Y0030415D03*
X0098750Y0044915D03*
X0088750Y0044915D03*
X0050250Y0095415D03*
X0064750Y0104415D03*
X0140750Y0176415D03*
X0114250Y0184415D03*
X0114250Y0194415D03*
X0215750Y0183730D03*
X0215750Y0173730D03*
X0215750Y0163730D03*
X0215750Y0153730D03*
X0225750Y0153730D03*
X0225750Y0163730D03*
X0225750Y0173730D03*
X0225750Y0183730D03*
X0225750Y0193730D03*
X0225750Y0143730D03*
X0225750Y0133730D03*
X0225750Y0123730D03*
X0225750Y0113730D03*
X0225750Y0103730D03*
X0225750Y0093730D03*
X0225750Y0083730D03*
X0225750Y0073730D03*
X0215750Y0073730D03*
X0215750Y0083730D03*
X0215750Y0093730D03*
X0215750Y0103730D03*
X0215750Y0113730D03*
X0215750Y0123730D03*
X0215750Y0133730D03*
X0215750Y0143730D03*
D32*
X0102868Y0080262D03*
X0099325Y0080262D03*
X0096175Y0080262D03*
X0092632Y0080262D03*
X0092632Y0073569D03*
X0096175Y0073569D03*
X0099325Y0073569D03*
X0102868Y0073569D03*
X0102868Y0066262D03*
X0099325Y0066262D03*
X0096175Y0066262D03*
X0092632Y0066262D03*
X0092632Y0059569D03*
X0096175Y0059569D03*
X0099325Y0059569D03*
X0102868Y0059569D03*
X0084368Y0058569D03*
X0080825Y0058569D03*
X0077675Y0058569D03*
X0074132Y0058569D03*
X0074132Y0065262D03*
X0077675Y0065262D03*
X0080825Y0065262D03*
X0084368Y0065262D03*
X0084368Y0073569D03*
X0080825Y0073569D03*
X0077675Y0073569D03*
X0074132Y0073569D03*
X0074132Y0080262D03*
X0077675Y0080262D03*
X0080825Y0080262D03*
X0084368Y0080262D03*
D33*
X0122750Y0071415D03*
X0044250Y0070915D03*
X0028750Y0165415D03*
D34*
X0025797Y0165415D02*
X0025799Y0165307D01*
X0025805Y0165199D01*
X0025815Y0165092D01*
X0025828Y0164985D01*
X0025846Y0164879D01*
X0025868Y0164773D01*
X0025893Y0164668D01*
X0025922Y0164564D01*
X0025955Y0164462D01*
X0025992Y0164360D01*
X0026032Y0164260D01*
X0026076Y0164162D01*
X0026124Y0164065D01*
X0026175Y0163970D01*
X0026229Y0163877D01*
X0026287Y0163786D01*
X0026348Y0163697D01*
X0026413Y0163610D01*
X0026480Y0163526D01*
X0026551Y0163444D01*
X0026624Y0163365D01*
X0026700Y0163289D01*
X0026779Y0163216D01*
X0026861Y0163145D01*
X0026945Y0163078D01*
X0027032Y0163013D01*
X0027121Y0162952D01*
X0027212Y0162894D01*
X0027305Y0162840D01*
X0027400Y0162789D01*
X0027497Y0162741D01*
X0027595Y0162697D01*
X0027695Y0162657D01*
X0027797Y0162620D01*
X0027899Y0162587D01*
X0028003Y0162558D01*
X0028108Y0162533D01*
X0028214Y0162511D01*
X0028320Y0162493D01*
X0028427Y0162480D01*
X0028534Y0162470D01*
X0028642Y0162464D01*
X0028750Y0162462D01*
X0028858Y0162464D01*
X0028966Y0162470D01*
X0029073Y0162480D01*
X0029180Y0162493D01*
X0029286Y0162511D01*
X0029392Y0162533D01*
X0029497Y0162558D01*
X0029601Y0162587D01*
X0029703Y0162620D01*
X0029805Y0162657D01*
X0029905Y0162697D01*
X0030003Y0162741D01*
X0030100Y0162789D01*
X0030195Y0162840D01*
X0030288Y0162894D01*
X0030379Y0162952D01*
X0030468Y0163013D01*
X0030555Y0163078D01*
X0030639Y0163145D01*
X0030721Y0163216D01*
X0030800Y0163289D01*
X0030876Y0163365D01*
X0030949Y0163444D01*
X0031020Y0163526D01*
X0031087Y0163610D01*
X0031152Y0163697D01*
X0031213Y0163786D01*
X0031271Y0163877D01*
X0031325Y0163970D01*
X0031376Y0164065D01*
X0031424Y0164162D01*
X0031468Y0164260D01*
X0031508Y0164360D01*
X0031545Y0164462D01*
X0031578Y0164564D01*
X0031607Y0164668D01*
X0031632Y0164773D01*
X0031654Y0164879D01*
X0031672Y0164985D01*
X0031685Y0165092D01*
X0031695Y0165199D01*
X0031701Y0165307D01*
X0031703Y0165415D01*
X0031701Y0165523D01*
X0031695Y0165631D01*
X0031685Y0165738D01*
X0031672Y0165845D01*
X0031654Y0165951D01*
X0031632Y0166057D01*
X0031607Y0166162D01*
X0031578Y0166266D01*
X0031545Y0166368D01*
X0031508Y0166470D01*
X0031468Y0166570D01*
X0031424Y0166668D01*
X0031376Y0166765D01*
X0031325Y0166860D01*
X0031271Y0166953D01*
X0031213Y0167044D01*
X0031152Y0167133D01*
X0031087Y0167220D01*
X0031020Y0167304D01*
X0030949Y0167386D01*
X0030876Y0167465D01*
X0030800Y0167541D01*
X0030721Y0167614D01*
X0030639Y0167685D01*
X0030555Y0167752D01*
X0030468Y0167817D01*
X0030379Y0167878D01*
X0030288Y0167936D01*
X0030195Y0167990D01*
X0030100Y0168041D01*
X0030003Y0168089D01*
X0029905Y0168133D01*
X0029805Y0168173D01*
X0029703Y0168210D01*
X0029601Y0168243D01*
X0029497Y0168272D01*
X0029392Y0168297D01*
X0029286Y0168319D01*
X0029180Y0168337D01*
X0029073Y0168350D01*
X0028966Y0168360D01*
X0028858Y0168366D01*
X0028750Y0168368D01*
X0028642Y0168366D01*
X0028534Y0168360D01*
X0028427Y0168350D01*
X0028320Y0168337D01*
X0028214Y0168319D01*
X0028108Y0168297D01*
X0028003Y0168272D01*
X0027899Y0168243D01*
X0027797Y0168210D01*
X0027695Y0168173D01*
X0027595Y0168133D01*
X0027497Y0168089D01*
X0027400Y0168041D01*
X0027305Y0167990D01*
X0027212Y0167936D01*
X0027121Y0167878D01*
X0027032Y0167817D01*
X0026945Y0167752D01*
X0026861Y0167685D01*
X0026779Y0167614D01*
X0026700Y0167541D01*
X0026624Y0167465D01*
X0026551Y0167386D01*
X0026480Y0167304D01*
X0026413Y0167220D01*
X0026348Y0167133D01*
X0026287Y0167044D01*
X0026229Y0166953D01*
X0026175Y0166860D01*
X0026124Y0166765D01*
X0026076Y0166668D01*
X0026032Y0166570D01*
X0025992Y0166470D01*
X0025955Y0166368D01*
X0025922Y0166266D01*
X0025893Y0166162D01*
X0025868Y0166057D01*
X0025846Y0165951D01*
X0025828Y0165845D01*
X0025815Y0165738D01*
X0025805Y0165631D01*
X0025799Y0165523D01*
X0025797Y0165415D01*
X0041297Y0070915D02*
X0041299Y0070807D01*
X0041305Y0070699D01*
X0041315Y0070592D01*
X0041328Y0070485D01*
X0041346Y0070379D01*
X0041368Y0070273D01*
X0041393Y0070168D01*
X0041422Y0070064D01*
X0041455Y0069962D01*
X0041492Y0069860D01*
X0041532Y0069760D01*
X0041576Y0069662D01*
X0041624Y0069565D01*
X0041675Y0069470D01*
X0041729Y0069377D01*
X0041787Y0069286D01*
X0041848Y0069197D01*
X0041913Y0069110D01*
X0041980Y0069026D01*
X0042051Y0068944D01*
X0042124Y0068865D01*
X0042200Y0068789D01*
X0042279Y0068716D01*
X0042361Y0068645D01*
X0042445Y0068578D01*
X0042532Y0068513D01*
X0042621Y0068452D01*
X0042712Y0068394D01*
X0042805Y0068340D01*
X0042900Y0068289D01*
X0042997Y0068241D01*
X0043095Y0068197D01*
X0043195Y0068157D01*
X0043297Y0068120D01*
X0043399Y0068087D01*
X0043503Y0068058D01*
X0043608Y0068033D01*
X0043714Y0068011D01*
X0043820Y0067993D01*
X0043927Y0067980D01*
X0044034Y0067970D01*
X0044142Y0067964D01*
X0044250Y0067962D01*
X0044358Y0067964D01*
X0044466Y0067970D01*
X0044573Y0067980D01*
X0044680Y0067993D01*
X0044786Y0068011D01*
X0044892Y0068033D01*
X0044997Y0068058D01*
X0045101Y0068087D01*
X0045203Y0068120D01*
X0045305Y0068157D01*
X0045405Y0068197D01*
X0045503Y0068241D01*
X0045600Y0068289D01*
X0045695Y0068340D01*
X0045788Y0068394D01*
X0045879Y0068452D01*
X0045968Y0068513D01*
X0046055Y0068578D01*
X0046139Y0068645D01*
X0046221Y0068716D01*
X0046300Y0068789D01*
X0046376Y0068865D01*
X0046449Y0068944D01*
X0046520Y0069026D01*
X0046587Y0069110D01*
X0046652Y0069197D01*
X0046713Y0069286D01*
X0046771Y0069377D01*
X0046825Y0069470D01*
X0046876Y0069565D01*
X0046924Y0069662D01*
X0046968Y0069760D01*
X0047008Y0069860D01*
X0047045Y0069962D01*
X0047078Y0070064D01*
X0047107Y0070168D01*
X0047132Y0070273D01*
X0047154Y0070379D01*
X0047172Y0070485D01*
X0047185Y0070592D01*
X0047195Y0070699D01*
X0047201Y0070807D01*
X0047203Y0070915D01*
X0047201Y0071023D01*
X0047195Y0071131D01*
X0047185Y0071238D01*
X0047172Y0071345D01*
X0047154Y0071451D01*
X0047132Y0071557D01*
X0047107Y0071662D01*
X0047078Y0071766D01*
X0047045Y0071868D01*
X0047008Y0071970D01*
X0046968Y0072070D01*
X0046924Y0072168D01*
X0046876Y0072265D01*
X0046825Y0072360D01*
X0046771Y0072453D01*
X0046713Y0072544D01*
X0046652Y0072633D01*
X0046587Y0072720D01*
X0046520Y0072804D01*
X0046449Y0072886D01*
X0046376Y0072965D01*
X0046300Y0073041D01*
X0046221Y0073114D01*
X0046139Y0073185D01*
X0046055Y0073252D01*
X0045968Y0073317D01*
X0045879Y0073378D01*
X0045788Y0073436D01*
X0045695Y0073490D01*
X0045600Y0073541D01*
X0045503Y0073589D01*
X0045405Y0073633D01*
X0045305Y0073673D01*
X0045203Y0073710D01*
X0045101Y0073743D01*
X0044997Y0073772D01*
X0044892Y0073797D01*
X0044786Y0073819D01*
X0044680Y0073837D01*
X0044573Y0073850D01*
X0044466Y0073860D01*
X0044358Y0073866D01*
X0044250Y0073868D01*
X0044142Y0073866D01*
X0044034Y0073860D01*
X0043927Y0073850D01*
X0043820Y0073837D01*
X0043714Y0073819D01*
X0043608Y0073797D01*
X0043503Y0073772D01*
X0043399Y0073743D01*
X0043297Y0073710D01*
X0043195Y0073673D01*
X0043095Y0073633D01*
X0042997Y0073589D01*
X0042900Y0073541D01*
X0042805Y0073490D01*
X0042712Y0073436D01*
X0042621Y0073378D01*
X0042532Y0073317D01*
X0042445Y0073252D01*
X0042361Y0073185D01*
X0042279Y0073114D01*
X0042200Y0073041D01*
X0042124Y0072965D01*
X0042051Y0072886D01*
X0041980Y0072804D01*
X0041913Y0072720D01*
X0041848Y0072633D01*
X0041787Y0072544D01*
X0041729Y0072453D01*
X0041675Y0072360D01*
X0041624Y0072265D01*
X0041576Y0072168D01*
X0041532Y0072070D01*
X0041492Y0071970D01*
X0041455Y0071868D01*
X0041422Y0071766D01*
X0041393Y0071662D01*
X0041368Y0071557D01*
X0041346Y0071451D01*
X0041328Y0071345D01*
X0041315Y0071238D01*
X0041305Y0071131D01*
X0041299Y0071023D01*
X0041297Y0070915D01*
X0119797Y0071415D02*
X0119799Y0071307D01*
X0119805Y0071199D01*
X0119815Y0071092D01*
X0119828Y0070985D01*
X0119846Y0070879D01*
X0119868Y0070773D01*
X0119893Y0070668D01*
X0119922Y0070564D01*
X0119955Y0070462D01*
X0119992Y0070360D01*
X0120032Y0070260D01*
X0120076Y0070162D01*
X0120124Y0070065D01*
X0120175Y0069970D01*
X0120229Y0069877D01*
X0120287Y0069786D01*
X0120348Y0069697D01*
X0120413Y0069610D01*
X0120480Y0069526D01*
X0120551Y0069444D01*
X0120624Y0069365D01*
X0120700Y0069289D01*
X0120779Y0069216D01*
X0120861Y0069145D01*
X0120945Y0069078D01*
X0121032Y0069013D01*
X0121121Y0068952D01*
X0121212Y0068894D01*
X0121305Y0068840D01*
X0121400Y0068789D01*
X0121497Y0068741D01*
X0121595Y0068697D01*
X0121695Y0068657D01*
X0121797Y0068620D01*
X0121899Y0068587D01*
X0122003Y0068558D01*
X0122108Y0068533D01*
X0122214Y0068511D01*
X0122320Y0068493D01*
X0122427Y0068480D01*
X0122534Y0068470D01*
X0122642Y0068464D01*
X0122750Y0068462D01*
X0122858Y0068464D01*
X0122966Y0068470D01*
X0123073Y0068480D01*
X0123180Y0068493D01*
X0123286Y0068511D01*
X0123392Y0068533D01*
X0123497Y0068558D01*
X0123601Y0068587D01*
X0123703Y0068620D01*
X0123805Y0068657D01*
X0123905Y0068697D01*
X0124003Y0068741D01*
X0124100Y0068789D01*
X0124195Y0068840D01*
X0124288Y0068894D01*
X0124379Y0068952D01*
X0124468Y0069013D01*
X0124555Y0069078D01*
X0124639Y0069145D01*
X0124721Y0069216D01*
X0124800Y0069289D01*
X0124876Y0069365D01*
X0124949Y0069444D01*
X0125020Y0069526D01*
X0125087Y0069610D01*
X0125152Y0069697D01*
X0125213Y0069786D01*
X0125271Y0069877D01*
X0125325Y0069970D01*
X0125376Y0070065D01*
X0125424Y0070162D01*
X0125468Y0070260D01*
X0125508Y0070360D01*
X0125545Y0070462D01*
X0125578Y0070564D01*
X0125607Y0070668D01*
X0125632Y0070773D01*
X0125654Y0070879D01*
X0125672Y0070985D01*
X0125685Y0071092D01*
X0125695Y0071199D01*
X0125701Y0071307D01*
X0125703Y0071415D01*
X0125701Y0071523D01*
X0125695Y0071631D01*
X0125685Y0071738D01*
X0125672Y0071845D01*
X0125654Y0071951D01*
X0125632Y0072057D01*
X0125607Y0072162D01*
X0125578Y0072266D01*
X0125545Y0072368D01*
X0125508Y0072470D01*
X0125468Y0072570D01*
X0125424Y0072668D01*
X0125376Y0072765D01*
X0125325Y0072860D01*
X0125271Y0072953D01*
X0125213Y0073044D01*
X0125152Y0073133D01*
X0125087Y0073220D01*
X0125020Y0073304D01*
X0124949Y0073386D01*
X0124876Y0073465D01*
X0124800Y0073541D01*
X0124721Y0073614D01*
X0124639Y0073685D01*
X0124555Y0073752D01*
X0124468Y0073817D01*
X0124379Y0073878D01*
X0124288Y0073936D01*
X0124195Y0073990D01*
X0124100Y0074041D01*
X0124003Y0074089D01*
X0123905Y0074133D01*
X0123805Y0074173D01*
X0123703Y0074210D01*
X0123601Y0074243D01*
X0123497Y0074272D01*
X0123392Y0074297D01*
X0123286Y0074319D01*
X0123180Y0074337D01*
X0123073Y0074350D01*
X0122966Y0074360D01*
X0122858Y0074366D01*
X0122750Y0074368D01*
X0122642Y0074366D01*
X0122534Y0074360D01*
X0122427Y0074350D01*
X0122320Y0074337D01*
X0122214Y0074319D01*
X0122108Y0074297D01*
X0122003Y0074272D01*
X0121899Y0074243D01*
X0121797Y0074210D01*
X0121695Y0074173D01*
X0121595Y0074133D01*
X0121497Y0074089D01*
X0121400Y0074041D01*
X0121305Y0073990D01*
X0121212Y0073936D01*
X0121121Y0073878D01*
X0121032Y0073817D01*
X0120945Y0073752D01*
X0120861Y0073685D01*
X0120779Y0073614D01*
X0120700Y0073541D01*
X0120624Y0073465D01*
X0120551Y0073386D01*
X0120480Y0073304D01*
X0120413Y0073220D01*
X0120348Y0073133D01*
X0120287Y0073044D01*
X0120229Y0072953D01*
X0120175Y0072860D01*
X0120124Y0072765D01*
X0120076Y0072668D01*
X0120032Y0072570D01*
X0119992Y0072470D01*
X0119955Y0072368D01*
X0119922Y0072266D01*
X0119893Y0072162D01*
X0119868Y0072057D01*
X0119846Y0071951D01*
X0119828Y0071845D01*
X0119815Y0071738D01*
X0119805Y0071631D01*
X0119799Y0071523D01*
X0119797Y0071415D01*
D35*
X0117250Y0056915D03*
X0117250Y0046915D03*
X0122750Y0184415D03*
X0122750Y0194415D03*
D36*
X0121025Y0175655D03*
X0121025Y0168175D03*
X0130474Y0171915D03*
D37*
X0126750Y0052415D03*
X0126750Y0045915D03*
X0136750Y0045915D03*
X0136750Y0052415D03*
D38*
X0137250Y0092415D03*
D39*
X0136765Y0079092D03*
X0136765Y0076533D03*
X0136765Y0073974D03*
X0136765Y0071415D03*
X0136765Y0068856D03*
X0136765Y0066297D03*
X0136765Y0063738D03*
X0113734Y0063738D03*
X0113734Y0066297D03*
X0113734Y0068856D03*
X0113734Y0071415D03*
X0113734Y0073974D03*
X0113734Y0076533D03*
X0113734Y0079092D03*
D40*
X0057364Y0081801D03*
X0042403Y0055423D03*
X0031773Y0055423D03*
D41*
X0031773Y0079832D03*
D42*
X0062088Y0068415D03*
D43*
X0076750Y0190415D03*
X0096750Y0190415D03*
D44*
X0086750Y0186415D03*
D45*
X0081256Y0190315D03*
X0092243Y0190315D03*
D46*
X0150691Y0183506D03*
X0158565Y0183506D03*
X0166439Y0183506D03*
X0174313Y0183506D03*
X0182187Y0183506D03*
X0190061Y0183506D03*
X0197935Y0183506D03*
X0205809Y0183506D03*
X0205809Y0106734D03*
X0197935Y0106734D03*
X0190061Y0106734D03*
X0182187Y0106734D03*
X0174313Y0106734D03*
X0166439Y0106734D03*
X0158565Y0106734D03*
X0150691Y0106734D03*
D47*
X0215750Y0193730D03*
D48*
X0205750Y0175230D03*
X0197750Y0175230D03*
X0182250Y0175230D03*
X0197750Y0142230D03*
X0205750Y0142230D03*
X0197750Y0115730D03*
X0190250Y0099230D03*
X0197750Y0088730D03*
X0204750Y0098730D03*
X0210250Y0088730D03*
X0166750Y0079230D03*
X0160750Y0086230D03*
X0149750Y0086230D03*
X0166750Y0123730D03*
X0160750Y0128730D03*
X0150250Y0129230D03*
M02*
