G75*
%MOIN*%
%OFA0B0*%
%FSLAX25Y25*%
%IPPOS*%
%LPD*%
%AMOC8*
5,1,8,0,0,1.08239X$1,22.5*
%
%ADD10R,0.04331X0.03543*%
%ADD11R,0.03543X0.04331*%
%ADD12R,0.05906X0.05906*%
%ADD13R,0.09055X0.10630*%
%ADD14C,0.00500*%
%ADD15R,0.02165X0.04724*%
%ADD16R,0.04724X0.04724*%
%ADD17R,0.05118X0.05906*%
%ADD18R,0.18110X0.03937*%
%ADD19R,0.13386X0.06299*%
%ADD20R,0.05906X0.05118*%
%ADD21R,0.09843X0.09843*%
%ADD22C,0.04756*%
%ADD23R,0.05315X0.01575*%
%ADD24R,0.07874X0.03937*%
%ADD25R,0.03543X0.03937*%
%ADD26R,0.05512X0.05512*%
%ADD27R,0.10630X0.06299*%
%ADD28R,0.01969X0.01969*%
%ADD29R,0.01969X0.01575*%
%ADD30C,0.13843*%
%ADD31C,0.07000*%
%ADD32R,0.01772X0.03543*%
%ADD33C,0.03937*%
%ADD34R,0.03150X0.05315*%
%ADD35R,0.05512X0.03937*%
%ADD36R,0.05315X0.03150*%
%ADD37C,0.04331*%
%ADD38R,0.03543X0.01378*%
%ADD39R,0.05906X0.09843*%
%ADD40R,0.05906X0.13386*%
%ADD41R,0.06000X0.16000*%
%ADD42R,0.04000X0.08000*%
%ADD43C,0.00800*%
%ADD44R,0.05000X0.07874*%
%ADD45R,0.07000X0.07000*%
%ADD46C,0.03150*%
%ADD47C,0.02400*%
%ADD48C,0.01000*%
%ADD49C,0.03200*%
%ADD50C,0.01600*%
%ADD51C,0.00600*%
%ADD52R,0.03962X0.03962*%
%ADD53C,0.03543*%
%ADD54C,0.01200*%
%ADD55C,0.10630*%
%ADD56C,0.04000*%
D10*
X0073860Y0108494D03*
X0073860Y0114006D03*
X0073860Y0119517D03*
X0073860Y0125029D03*
X0073860Y0130541D03*
X0073860Y0136053D03*
X0073860Y0141565D03*
X0073860Y0147076D03*
X0073860Y0152588D03*
X0080710Y0152588D03*
X0080710Y0147076D03*
X0080710Y0141565D03*
X0080710Y0136053D03*
X0080710Y0130541D03*
X0080710Y0125029D03*
X0080710Y0119517D03*
X0080710Y0114006D03*
X0080710Y0108494D03*
X0130789Y0108494D03*
X0130789Y0114006D03*
X0130789Y0119517D03*
X0130789Y0125029D03*
X0130789Y0130541D03*
X0130789Y0136053D03*
X0130789Y0141565D03*
X0130789Y0147076D03*
X0130789Y0152588D03*
X0137639Y0152588D03*
X0137639Y0147076D03*
X0137639Y0141565D03*
X0137639Y0136053D03*
X0137639Y0130541D03*
X0137639Y0125029D03*
X0137639Y0119517D03*
X0137639Y0114006D03*
X0137639Y0108494D03*
D11*
X0136065Y0102588D03*
X0130553Y0102588D03*
X0125041Y0102588D03*
X0125041Y0108887D03*
X0119529Y0108887D03*
X0114017Y0108887D03*
X0108506Y0108887D03*
X0108506Y0102588D03*
X0114017Y0102588D03*
X0119529Y0102588D03*
X0102994Y0102588D03*
X0097482Y0102588D03*
X0091970Y0102588D03*
X0091970Y0108887D03*
X0097482Y0108887D03*
X0102994Y0108887D03*
X0086458Y0108887D03*
X0086458Y0102588D03*
X0080947Y0102588D03*
X0075435Y0102588D03*
X0086458Y0152195D03*
X0091970Y0152195D03*
X0097482Y0152195D03*
X0102994Y0152195D03*
X0108506Y0152195D03*
X0114017Y0152195D03*
X0119529Y0152195D03*
X0125041Y0152195D03*
X0125041Y0158494D03*
X0130553Y0158494D03*
X0136065Y0158494D03*
X0119529Y0158494D03*
X0114017Y0158494D03*
X0108506Y0158494D03*
X0102994Y0158494D03*
X0097482Y0158494D03*
X0091970Y0158494D03*
X0086458Y0158494D03*
X0080947Y0158494D03*
X0075435Y0158494D03*
D12*
X0090395Y0142352D03*
D13*
X0100632Y0142352D03*
X0110868Y0142352D03*
X0121104Y0142352D03*
X0121104Y0130541D03*
X0110868Y0130541D03*
X0100632Y0130541D03*
X0090395Y0130541D03*
X0090395Y0118730D03*
X0100632Y0118730D03*
X0110868Y0118730D03*
X0121104Y0118730D03*
D14*
X0094726Y0137234D02*
X0094726Y0147470D01*
X0089411Y0147470D01*
X0086065Y0144124D01*
X0086065Y0137234D01*
X0094726Y0137234D01*
X0094726Y0137334D02*
X0086065Y0137334D01*
X0086065Y0137833D02*
X0094726Y0137833D01*
X0094726Y0138331D02*
X0086065Y0138331D01*
X0086065Y0138830D02*
X0094726Y0138830D01*
X0094726Y0139328D02*
X0086065Y0139328D01*
X0086065Y0139827D02*
X0094726Y0139827D01*
X0094726Y0140325D02*
X0086065Y0140325D01*
X0086065Y0140824D02*
X0094726Y0140824D01*
X0094726Y0141322D02*
X0086065Y0141322D01*
X0086065Y0141821D02*
X0094726Y0141821D01*
X0094726Y0142319D02*
X0086065Y0142319D01*
X0086065Y0142818D02*
X0094726Y0142818D01*
X0094726Y0143316D02*
X0086065Y0143316D01*
X0086065Y0143815D02*
X0094726Y0143815D01*
X0094726Y0144313D02*
X0086254Y0144313D01*
X0086753Y0144812D02*
X0094726Y0144812D01*
X0094726Y0145310D02*
X0087251Y0145310D01*
X0087750Y0145809D02*
X0094726Y0145809D01*
X0094726Y0146307D02*
X0088248Y0146307D01*
X0088747Y0146806D02*
X0094726Y0146806D01*
X0094726Y0147304D02*
X0089245Y0147304D01*
D15*
X0056490Y0126534D03*
X0052750Y0126534D03*
X0049010Y0126534D03*
X0049010Y0116297D03*
X0056490Y0116297D03*
D16*
X0033388Y0134958D03*
X0033407Y0142234D03*
X0025139Y0142234D03*
X0025120Y0134958D03*
X0104750Y0165781D03*
X0104750Y0174049D03*
X0074884Y0049915D03*
X0066616Y0049915D03*
D17*
X0066510Y0043415D03*
X0073990Y0043415D03*
X0046490Y0044915D03*
X0039010Y0044915D03*
X0032490Y0044915D03*
X0025010Y0044915D03*
X0040510Y0086415D03*
X0047990Y0086415D03*
X0064510Y0085915D03*
X0064010Y0092915D03*
X0071490Y0092915D03*
X0071990Y0085915D03*
X0056490Y0107415D03*
X0049010Y0107415D03*
X0046990Y0135415D03*
X0047053Y0142415D03*
X0039573Y0142415D03*
X0039510Y0135415D03*
X0056325Y0175226D03*
X0063805Y0175226D03*
D18*
X0049317Y0166352D03*
X0049317Y0158478D03*
D19*
X0028844Y0149029D03*
X0028844Y0175801D03*
D20*
X0073191Y0173592D03*
X0073191Y0166112D03*
X0112750Y0166175D03*
X0112750Y0173655D03*
X0064250Y0119155D03*
X0064250Y0111675D03*
X0126750Y0094155D03*
X0126750Y0086675D03*
D21*
X0030269Y0097242D03*
X0030269Y0125588D03*
D22*
X0041293Y0124407D02*
X0041293Y0129163D01*
X0041293Y0098423D02*
X0041293Y0093667D01*
D23*
X0040801Y0106297D03*
X0040801Y0108856D03*
X0040801Y0111415D03*
X0040801Y0113974D03*
X0040801Y0116533D03*
D24*
X0029876Y0114368D03*
X0029876Y0108462D03*
D25*
X0042179Y0188265D03*
X0042179Y0194565D03*
X0058321Y0194565D03*
X0058321Y0188265D03*
D26*
X0062750Y0167699D03*
X0062750Y0153132D03*
D27*
X0059250Y0145427D03*
X0059250Y0134403D03*
D28*
X0100706Y0094368D03*
X0100706Y0088462D03*
X0107793Y0088462D03*
X0107793Y0094368D03*
D29*
X0107793Y0091415D03*
X0100706Y0091415D03*
D30*
X0135750Y0189415D03*
X0030750Y0189415D03*
D31*
X0114250Y0184415D03*
X0114250Y0194415D03*
X0140750Y0176415D03*
X0215750Y0173730D03*
X0215750Y0163730D03*
X0215750Y0153730D03*
X0225750Y0153730D03*
X0225750Y0163730D03*
X0225750Y0173730D03*
X0225750Y0183730D03*
X0225750Y0193730D03*
X0215750Y0183730D03*
X0215750Y0143730D03*
X0215750Y0133730D03*
X0215750Y0123730D03*
X0215750Y0113730D03*
X0215750Y0103730D03*
X0215750Y0093730D03*
X0215750Y0083730D03*
X0215750Y0073730D03*
X0225750Y0073730D03*
X0225750Y0083730D03*
X0225750Y0093730D03*
X0225750Y0103730D03*
X0225750Y0113730D03*
X0225750Y0123730D03*
X0225750Y0133730D03*
X0225750Y0143730D03*
X0138750Y0030415D03*
X0128750Y0030415D03*
X0118750Y0030415D03*
X0108750Y0030415D03*
X0098750Y0030415D03*
X0088750Y0030415D03*
X0078750Y0030415D03*
X0068750Y0030415D03*
X0058750Y0030415D03*
X0048750Y0030415D03*
X0038750Y0030415D03*
X0028750Y0030415D03*
X0088750Y0044915D03*
X0098750Y0044915D03*
X0050250Y0095415D03*
X0064750Y0104415D03*
D32*
X0074132Y0080262D03*
X0077675Y0080262D03*
X0080825Y0080262D03*
X0084368Y0080262D03*
X0084368Y0073569D03*
X0080825Y0073569D03*
X0077675Y0073569D03*
X0074132Y0073569D03*
X0074132Y0065262D03*
X0077675Y0065262D03*
X0080825Y0065262D03*
X0084368Y0065262D03*
X0084368Y0058569D03*
X0080825Y0058569D03*
X0077675Y0058569D03*
X0074132Y0058569D03*
X0092632Y0059569D03*
X0096175Y0059569D03*
X0099325Y0059569D03*
X0102868Y0059569D03*
X0102868Y0066262D03*
X0099325Y0066262D03*
X0096175Y0066262D03*
X0092632Y0066262D03*
X0092632Y0073569D03*
X0096175Y0073569D03*
X0099325Y0073569D03*
X0102868Y0073569D03*
X0102868Y0080262D03*
X0099325Y0080262D03*
X0096175Y0080262D03*
X0092632Y0080262D03*
D33*
X0122750Y0071415D03*
X0044250Y0070915D03*
X0028750Y0165415D03*
D34*
X0122750Y0184415D03*
X0122750Y0194415D03*
X0117250Y0056915D03*
X0117250Y0046915D03*
D35*
X0121025Y0168175D03*
X0121025Y0175655D03*
X0130474Y0171915D03*
D36*
X0126750Y0052415D03*
X0126750Y0045915D03*
X0136750Y0045915D03*
X0136750Y0052415D03*
D37*
X0137250Y0092415D03*
D38*
X0136765Y0079092D03*
X0136765Y0076533D03*
X0136765Y0073974D03*
X0136765Y0071415D03*
X0136765Y0068856D03*
X0136765Y0066297D03*
X0136765Y0063738D03*
X0113734Y0063738D03*
X0113734Y0066297D03*
X0113734Y0068856D03*
X0113734Y0071415D03*
X0113734Y0073974D03*
X0113734Y0076533D03*
X0113734Y0079092D03*
D39*
X0057364Y0081801D03*
X0042403Y0055423D03*
X0031773Y0055423D03*
D40*
X0031773Y0079832D03*
D41*
X0076750Y0190415D03*
X0096750Y0190415D03*
D42*
X0086750Y0186415D03*
D43*
X0082556Y0186215D02*
X0082556Y0194415D01*
X0074250Y0194415D01*
X0074250Y0186215D01*
X0082556Y0186215D01*
X0082556Y0186791D02*
X0074250Y0186791D01*
X0074250Y0187589D02*
X0082556Y0187589D01*
X0082556Y0188388D02*
X0074250Y0188388D01*
X0074250Y0189186D02*
X0082556Y0189186D01*
X0082556Y0189985D02*
X0074250Y0189985D01*
X0074250Y0190783D02*
X0082556Y0190783D01*
X0082556Y0191582D02*
X0074250Y0191582D01*
X0074250Y0192380D02*
X0082556Y0192380D01*
X0082556Y0193179D02*
X0074250Y0193179D01*
X0074250Y0193977D02*
X0082556Y0193977D01*
X0090943Y0193977D02*
X0099250Y0193977D01*
X0099250Y0194415D02*
X0099250Y0186215D01*
X0090943Y0186215D01*
X0090943Y0194415D01*
X0099250Y0194415D01*
X0099250Y0193179D02*
X0090943Y0193179D01*
X0090943Y0192380D02*
X0099250Y0192380D01*
X0099250Y0191582D02*
X0090943Y0191582D01*
X0090943Y0190783D02*
X0099250Y0190783D01*
X0099250Y0189985D02*
X0090943Y0189985D01*
X0090943Y0189186D02*
X0099250Y0189186D01*
X0099250Y0188388D02*
X0090943Y0188388D01*
X0090943Y0187589D02*
X0099250Y0187589D01*
X0099250Y0186791D02*
X0090943Y0186791D01*
X0127750Y0164415D02*
X0131750Y0164415D01*
X0135750Y0168415D01*
X0140750Y0168415D01*
X0136750Y0162218D02*
X0136750Y0161915D01*
X0136250Y0158679D02*
X0136065Y0158494D01*
X0130553Y0158494D02*
X0130553Y0162218D01*
X0130789Y0130541D02*
X0131189Y0130541D01*
X0133915Y0127815D01*
X0144250Y0127815D02*
X0144250Y0080415D01*
X0137250Y0095415D02*
X0133750Y0098915D01*
X0120750Y0098915D01*
X0119529Y0100136D01*
X0119529Y0102588D01*
X0116750Y0099655D02*
X0119490Y0096915D01*
X0125250Y0096915D01*
X0126750Y0095415D01*
X0126750Y0094155D01*
X0126750Y0094915D01*
X0110750Y0091915D02*
X0110750Y0090415D01*
X0108750Y0099415D02*
X0108750Y0102344D01*
X0108506Y0102588D01*
X0108506Y0108159D02*
X0108506Y0108887D01*
X0102994Y0102588D02*
X0102994Y0099667D01*
X0103998Y0098663D01*
X0097482Y0102588D02*
X0096750Y0101856D01*
X0096750Y0093915D01*
X0097750Y0092915D01*
X0099250Y0084915D02*
X0099325Y0084840D01*
X0099325Y0080262D01*
X0102868Y0080262D01*
X0099325Y0073569D02*
X0096175Y0073569D01*
X0096175Y0066262D01*
X0099325Y0066262D01*
X0099325Y0059569D01*
X0102868Y0059569D01*
X0096175Y0059569D02*
X0096175Y0055340D01*
X0096175Y0059569D02*
X0092632Y0059569D01*
X0092632Y0073569D02*
X0096175Y0073569D01*
X0096175Y0080262D01*
X0076750Y0094915D02*
X0072250Y0099415D01*
X0072250Y0105415D01*
X0078020Y0111265D02*
X0080710Y0113956D01*
X0080710Y0114006D01*
X0080710Y0119517D02*
X0080510Y0119517D01*
X0077813Y0122215D01*
D44*
X0150691Y0106734D03*
X0158565Y0106734D03*
X0166439Y0106734D03*
X0174313Y0106734D03*
X0182187Y0106734D03*
X0190061Y0106734D03*
X0197935Y0106734D03*
X0205809Y0106734D03*
X0205809Y0183506D03*
X0197935Y0183506D03*
X0190061Y0183506D03*
X0182187Y0183506D03*
X0174313Y0183506D03*
X0166439Y0183506D03*
X0158565Y0183506D03*
X0150691Y0183506D03*
D45*
X0215750Y0193730D03*
D46*
X0140750Y0168415D03*
X0140750Y0163915D03*
X0136750Y0164915D03*
X0126750Y0179415D03*
X0110250Y0178915D03*
X0105250Y0180915D03*
X0108250Y0184415D03*
X0107931Y0190021D03*
X0103250Y0190415D03*
X0103250Y0185915D03*
X0100250Y0179915D03*
X0098687Y0176415D03*
X0095187Y0173915D03*
X0095187Y0169415D03*
X0094399Y0163809D03*
X0094750Y0179415D03*
X0078813Y0175021D03*
X0076750Y0179415D03*
X0069750Y0179915D03*
X0065856Y0184309D03*
X0061250Y0181915D03*
X0055750Y0182415D03*
X0049600Y0187765D03*
X0052750Y0192415D03*
X0047750Y0194915D03*
X0064250Y0195915D03*
X0069250Y0195415D03*
X0064750Y0190915D03*
X0069250Y0188915D03*
X0078667Y0170088D03*
X0079313Y0163915D03*
X0068250Y0160415D03*
X0068750Y0155915D03*
X0068250Y0148915D03*
X0068750Y0142915D03*
X0067750Y0136415D03*
X0068250Y0128715D03*
X0063750Y0124415D03*
X0060250Y0127915D03*
X0052750Y0112915D03*
X0055250Y0090415D03*
X0046250Y0078415D03*
X0050250Y0071415D03*
X0040250Y0064915D03*
X0035250Y0063915D03*
X0031750Y0068415D03*
X0051750Y0053915D03*
X0061250Y0061915D03*
X0070750Y0068915D03*
X0075750Y0069415D03*
X0077750Y0084415D03*
X0084750Y0086415D03*
X0083750Y0090915D03*
X0088750Y0097415D03*
X0094250Y0088415D03*
X0099250Y0084915D03*
X0103750Y0084915D03*
X0112250Y0093915D03*
X0104748Y0097913D03*
X0100250Y0097915D03*
X0101250Y0114915D03*
X0105750Y0116415D03*
X0105750Y0121415D03*
X0100750Y0124415D03*
X0105750Y0127415D03*
X0105750Y0133415D03*
X0100750Y0136415D03*
X0095750Y0133415D03*
X0091750Y0136415D03*
X0095750Y0140415D03*
X0095750Y0145415D03*
X0091250Y0146415D03*
X0086750Y0146415D03*
X0086250Y0140915D03*
X0086750Y0136415D03*
X0086750Y0130415D03*
X0086750Y0124415D03*
X0086750Y0119915D03*
X0086750Y0114915D03*
X0091250Y0114915D03*
X0095750Y0116415D03*
X0095750Y0121415D03*
X0091750Y0124415D03*
X0095750Y0127415D03*
X0105750Y0140415D03*
X0105750Y0145415D03*
X0110750Y0136415D03*
X0115750Y0133415D03*
X0119250Y0136415D03*
X0124250Y0136415D03*
X0115750Y0140415D03*
X0115750Y0145415D03*
X0115750Y0127415D03*
X0119250Y0124415D03*
X0115750Y0121415D03*
X0115750Y0116415D03*
X0110750Y0124415D03*
X0124250Y0124415D03*
X0132250Y0093915D03*
X0136250Y0085415D03*
X0132750Y0081915D03*
X0124250Y0078415D03*
X0116750Y0082915D03*
X0120750Y0091415D03*
X0132250Y0071415D03*
X0129750Y0063415D03*
X0134750Y0056415D03*
X0141250Y0065415D03*
X0140750Y0041915D03*
X0123750Y0035915D03*
X0108250Y0042915D03*
X0115250Y0051915D03*
X0106750Y0056915D03*
X0087250Y0050915D03*
X0079750Y0049915D03*
X0083250Y0041415D03*
X0057250Y0040915D03*
X0077250Y0092915D03*
X0078250Y0097415D03*
X0029750Y0108415D03*
X0029750Y0114415D03*
X0038250Y0148415D03*
X0032250Y0157915D03*
X0045250Y0172415D03*
X0050250Y0172415D03*
X0063250Y0160415D03*
X0056250Y0152915D03*
X0052250Y0152915D03*
X0103250Y0195915D03*
X0107687Y0195978D03*
D47*
X0102994Y0158494D02*
X0097482Y0158494D01*
X0091970Y0158494D01*
X0086065Y0152588D02*
X0080710Y0152588D01*
X0080710Y0147076D01*
X0080710Y0141565D01*
X0080710Y0147076D02*
X0073860Y0147076D01*
X0080710Y0152588D02*
X0080947Y0152825D01*
X0080947Y0158494D01*
X0086065Y0152588D02*
X0086458Y0152195D01*
X0100632Y0142352D02*
X0102994Y0144714D01*
X0102994Y0152195D01*
X0102994Y0158494D01*
X0108506Y0152195D02*
X0108250Y0151939D01*
X0108250Y0146415D01*
X0113750Y0146415D02*
X0113750Y0151927D01*
X0114017Y0152195D01*
X0114017Y0158494D01*
X0123750Y0146415D02*
X0130128Y0146415D01*
X0130789Y0147076D01*
X0059250Y0145427D02*
X0055250Y0145427D01*
X0054238Y0145427D02*
X0048250Y0151415D01*
X0040750Y0151415D01*
X0035750Y0156415D01*
X0035750Y0157415D02*
X0035250Y0157915D01*
X0032250Y0157915D01*
X0035750Y0157415D02*
X0035750Y0165415D01*
X0037750Y0167415D01*
X0048254Y0167415D01*
D48*
X0056325Y0175226D02*
X0055750Y0175801D01*
X0055750Y0182415D01*
X0058321Y0188265D02*
X0050100Y0188265D01*
X0049600Y0187765D01*
X0049100Y0188265D01*
X0042179Y0188265D01*
X0076750Y0183415D02*
X0076750Y0179415D01*
X0086769Y0183915D02*
X0086769Y0186395D01*
X0086750Y0186415D01*
X0086750Y0170498D02*
X0086769Y0170478D01*
X0086458Y0166246D02*
X0086769Y0165935D01*
X0086769Y0165915D01*
X0104750Y0165781D02*
X0112356Y0165781D01*
X0112750Y0166175D01*
X0112750Y0173655D02*
X0117250Y0178155D01*
X0117250Y0179415D01*
X0126750Y0179415D01*
X0122510Y0175655D02*
X0121025Y0175655D01*
X0122510Y0175655D02*
X0125750Y0172415D01*
X0125750Y0169415D01*
X0127250Y0167915D01*
X0132750Y0167915D01*
X0136750Y0171915D01*
X0140750Y0171915D01*
X0140750Y0176415D01*
X0140750Y0171915D02*
X0144250Y0171915D01*
X0144250Y0132915D01*
X0141876Y0130541D01*
X0137639Y0130541D01*
X0123750Y0142352D02*
X0121104Y0142352D01*
X0123750Y0142352D02*
X0123750Y0146415D01*
X0115750Y0145415D02*
X0110868Y0145415D01*
X0110868Y0142352D01*
X0110868Y0145415D02*
X0105750Y0145415D01*
X0100632Y0145415D02*
X0100632Y0142352D01*
X0100632Y0145415D02*
X0095750Y0145415D01*
X0100750Y0136415D02*
X0100750Y0133415D01*
X0095750Y0133415D01*
X0091750Y0131415D02*
X0086750Y0136415D01*
X0086750Y0124415D01*
X0091750Y0124415D02*
X0091750Y0121415D01*
X0095750Y0121415D01*
X0105750Y0121415D01*
X0115750Y0121415D01*
X0119750Y0121415D01*
X0119750Y0116415D02*
X0115750Y0116415D01*
X0105750Y0116415D01*
X0095750Y0116415D01*
X0091750Y0124415D02*
X0091750Y0127415D01*
X0095750Y0127415D01*
X0091750Y0124415D02*
X0091750Y0131415D01*
X0100750Y0127415D02*
X0100750Y0124415D01*
X0100750Y0127415D02*
X0105750Y0127415D01*
X0105750Y0133415D02*
X0115750Y0133415D01*
X0119750Y0133415D01*
X0119750Y0127415D02*
X0115750Y0127415D01*
X0114017Y0102588D02*
X0114017Y0099147D01*
X0117250Y0095915D01*
X0117250Y0090915D01*
X0108250Y0081915D01*
X0108250Y0078415D01*
X0106250Y0076415D01*
X0106250Y0063415D01*
X0109750Y0059915D01*
X0109750Y0044415D01*
X0108250Y0042915D01*
X0109750Y0039415D02*
X0112250Y0041915D01*
X0112250Y0060415D01*
X0108250Y0064415D01*
X0108250Y0071915D01*
X0110250Y0073915D01*
X0113675Y0073915D01*
X0113734Y0073974D01*
X0113734Y0076533D02*
X0117368Y0076533D01*
X0117750Y0076915D01*
X0117750Y0081915D01*
X0116750Y0082915D01*
X0110750Y0090415D02*
X0108797Y0088462D01*
X0107793Y0088462D01*
X0110750Y0091915D02*
X0112250Y0093415D01*
X0112250Y0093915D01*
X0112250Y0095915D01*
X0108750Y0099415D01*
X0104748Y0097913D02*
X0104748Y0097413D01*
X0107793Y0094368D01*
X0104748Y0097913D02*
X0103998Y0098663D01*
X0100250Y0097915D02*
X0100250Y0094825D01*
X0100706Y0094368D01*
X0100706Y0091415D02*
X0099250Y0091415D01*
X0097750Y0092915D01*
X0100706Y0091415D02*
X0101750Y0091415D01*
X0103250Y0089915D01*
X0103250Y0085415D01*
X0103750Y0084915D01*
X0096175Y0086490D02*
X0096175Y0080262D01*
X0096175Y0086490D02*
X0094250Y0088415D01*
X0094250Y0093915D02*
X0094250Y0098915D01*
X0100250Y0099415D02*
X0100250Y0097915D01*
X0086458Y0108206D02*
X0086458Y0108887D01*
X0080947Y0102588D02*
X0080947Y0100718D01*
X0081250Y0100415D01*
X0081250Y0093915D01*
X0080750Y0093415D01*
X0080750Y0080336D01*
X0080825Y0080262D01*
X0077675Y0080262D01*
X0080825Y0080262D02*
X0080825Y0073569D01*
X0084368Y0073569D01*
X0084368Y0065262D01*
X0080825Y0065262D01*
X0077675Y0065262D01*
X0080825Y0065262D02*
X0080825Y0058569D01*
X0077675Y0058569D02*
X0074132Y0058569D01*
X0070750Y0061950D01*
X0070750Y0068915D01*
X0070750Y0071915D01*
X0072403Y0073569D01*
X0074132Y0073569D01*
X0077675Y0073569D01*
X0084368Y0080262D02*
X0084521Y0080415D01*
X0077250Y0092915D02*
X0077250Y0094415D01*
X0076750Y0094915D01*
X0078250Y0097415D02*
X0075435Y0100230D01*
X0075435Y0102588D01*
X0072250Y0105415D02*
X0072250Y0106884D01*
X0073860Y0108494D01*
X0070650Y0111265D02*
X0069750Y0110365D01*
X0069750Y0105915D01*
X0068250Y0104415D01*
X0064750Y0104415D01*
X0064250Y0111675D02*
X0061112Y0111675D01*
X0056490Y0116297D01*
X0055250Y0121915D02*
X0056490Y0123155D01*
X0056490Y0126534D01*
X0055250Y0121915D02*
X0046750Y0121915D01*
X0045250Y0123415D01*
X0045250Y0133675D01*
X0046990Y0135415D01*
X0047053Y0135478D01*
X0047053Y0142415D01*
X0039573Y0142415D02*
X0039391Y0142234D01*
X0033407Y0142234D01*
X0033388Y0134958D02*
X0039053Y0134958D01*
X0039510Y0135415D01*
X0029250Y0134915D02*
X0029250Y0125588D01*
X0030269Y0125588D01*
X0034250Y0118415D02*
X0023750Y0118415D01*
X0022750Y0119415D01*
X0022750Y0132588D01*
X0025120Y0134958D01*
X0034250Y0118415D02*
X0036132Y0116533D01*
X0040801Y0116533D01*
X0048773Y0116533D01*
X0049010Y0116297D01*
X0049010Y0107415D02*
X0050250Y0106175D01*
X0050250Y0095415D01*
X0049750Y0086415D02*
X0047990Y0086415D01*
X0050250Y0084155D01*
X0050250Y0071415D01*
X0049750Y0064915D02*
X0040250Y0064915D01*
X0037250Y0067915D01*
X0037250Y0071915D01*
X0040510Y0075175D01*
X0040510Y0086415D01*
X0057364Y0081801D02*
X0057364Y0072529D01*
X0049750Y0064915D01*
X0040250Y0064915D02*
X0040250Y0057576D01*
X0042403Y0055423D01*
X0039010Y0044915D02*
X0032490Y0044915D01*
X0032490Y0055706D01*
X0032057Y0055706D01*
X0031773Y0055423D01*
X0031773Y0068391D01*
X0031750Y0068415D01*
X0057364Y0081801D02*
X0060395Y0081801D01*
X0064510Y0085915D01*
X0064510Y0092415D01*
X0064010Y0092915D01*
X0069250Y0122215D02*
X0068050Y0123415D01*
X0064750Y0123415D01*
X0063750Y0124415D01*
X0068112Y0136053D02*
X0067750Y0136415D01*
X0068112Y0136053D02*
X0073860Y0136053D01*
X0114250Y0184415D02*
X0122750Y0184415D01*
X0126750Y0184415D01*
X0130474Y0180691D01*
X0130474Y0171915D01*
X0136750Y0164915D02*
X0136750Y0162218D01*
X0130553Y0162218D01*
X0136250Y0158679D02*
X0140750Y0163179D01*
X0140750Y0163915D01*
X0155250Y0168730D02*
X0155250Y0122230D01*
X0166439Y0111041D01*
X0166439Y0106734D01*
X0174313Y0106734D02*
X0174313Y0079230D01*
X0174250Y0079230D01*
X0174250Y0078730D01*
X0215750Y0078730D01*
X0215750Y0083730D01*
X0210250Y0088730D02*
X0225750Y0088730D01*
X0225750Y0083730D01*
X0215750Y0073730D02*
X0215750Y0010230D01*
X0088750Y0010230D01*
X0088750Y0019230D01*
X0088750Y0030415D01*
X0090750Y0030415D01*
X0095750Y0035415D01*
X0103250Y0035415D01*
X0105250Y0037415D01*
X0110750Y0037415D01*
X0117250Y0043915D01*
X0117250Y0046915D01*
X0120250Y0043915D02*
X0111750Y0035415D01*
X0106250Y0035415D01*
X0101250Y0030415D01*
X0098750Y0030415D01*
X0102250Y0037415D02*
X0094250Y0037415D01*
X0092250Y0035415D01*
X0085750Y0035415D01*
X0080750Y0030415D01*
X0078750Y0030415D01*
X0078250Y0030915D01*
X0078250Y0041155D01*
X0075990Y0043415D01*
X0073990Y0043415D01*
X0066616Y0043521D02*
X0066616Y0049915D01*
X0066616Y0043521D02*
X0066510Y0043415D01*
X0079750Y0049915D02*
X0080250Y0050415D01*
X0080250Y0051915D01*
X0084368Y0056033D01*
X0084368Y0058569D01*
X0079750Y0049915D02*
X0080250Y0049415D01*
X0088750Y0044915D02*
X0096175Y0052340D01*
X0096175Y0055340D01*
X0102868Y0059569D02*
X0102868Y0049033D01*
X0098750Y0044915D01*
X0104250Y0039415D02*
X0109750Y0039415D01*
X0104250Y0039415D02*
X0102250Y0037415D01*
X0108750Y0030415D02*
X0108750Y0014230D01*
X0166750Y0014230D01*
X0166750Y0079230D01*
X0160750Y0086230D02*
X0160750Y0018730D01*
X0118750Y0018730D01*
X0118750Y0030415D01*
X0118750Y0035415D01*
X0126750Y0043415D01*
X0126750Y0045915D01*
X0122750Y0043415D02*
X0109750Y0030415D01*
X0108750Y0030415D01*
X0123750Y0035915D02*
X0126250Y0035915D01*
X0132250Y0041915D01*
X0132250Y0047915D01*
X0127750Y0052415D01*
X0126750Y0052415D01*
X0122750Y0055415D02*
X0122750Y0043415D01*
X0120250Y0043915D02*
X0120250Y0056415D01*
X0123250Y0059415D01*
X0130250Y0059415D01*
X0132750Y0061915D01*
X0132750Y0066415D01*
X0128250Y0066415D01*
X0125750Y0063915D01*
X0120250Y0063915D01*
X0117750Y0066415D01*
X0113852Y0066415D01*
X0113734Y0066297D01*
X0113734Y0068856D02*
X0118191Y0068856D01*
X0121132Y0065915D01*
X0124750Y0065915D01*
X0127250Y0068415D01*
X0127250Y0073415D01*
X0132750Y0078915D01*
X0132750Y0081915D01*
X0131750Y0085915D02*
X0130990Y0086675D01*
X0126750Y0086675D01*
X0136234Y0085399D02*
X0136250Y0085415D01*
X0136765Y0084899D01*
X0136765Y0079092D01*
X0136765Y0073974D02*
X0140809Y0073974D01*
X0144250Y0077415D01*
X0144250Y0080415D01*
X0136765Y0071415D02*
X0132250Y0071415D01*
X0133691Y0068856D02*
X0133250Y0068415D01*
X0133691Y0068856D02*
X0136765Y0068856D01*
X0136765Y0066297D02*
X0140368Y0066297D01*
X0141250Y0065415D01*
X0136765Y0063738D02*
X0136765Y0059931D01*
X0133765Y0059931D01*
X0131250Y0057415D01*
X0124750Y0057415D01*
X0122750Y0055415D01*
X0117250Y0056915D02*
X0116750Y0056415D01*
X0116750Y0053415D01*
X0115250Y0051915D01*
X0106750Y0056915D02*
X0105250Y0058415D01*
X0105250Y0061415D01*
X0103750Y0062915D01*
X0102750Y0062915D01*
X0102868Y0063033D01*
X0102868Y0066262D01*
X0102868Y0073569D01*
X0134750Y0056415D02*
X0136750Y0054415D01*
X0136750Y0052415D01*
X0136750Y0045915D02*
X0140750Y0041915D01*
X0128750Y0031415D02*
X0128750Y0030415D01*
X0088750Y0019230D02*
X0038750Y0019230D01*
X0038750Y0030415D01*
X0053250Y0034915D02*
X0053250Y0035415D01*
X0053250Y0037687D01*
X0137250Y0092415D02*
X0137250Y0095415D01*
X0149250Y0108175D02*
X0150691Y0106734D01*
X0149250Y0108175D02*
X0149250Y0109730D01*
X0155250Y0115730D01*
X0155250Y0122230D01*
X0160750Y0128730D02*
X0160750Y0158730D01*
X0221250Y0158730D01*
X0221250Y0158230D01*
X0221250Y0158730D02*
X0221250Y0163730D01*
X0225750Y0163730D01*
X0221250Y0168730D02*
X0155250Y0168730D01*
X0166750Y0148730D02*
X0166750Y0123730D01*
X0182187Y0106734D02*
X0182187Y0083230D01*
X0205750Y0083230D01*
X0205750Y0093730D01*
X0215750Y0093730D01*
X0215750Y0098730D02*
X0204750Y0098730D01*
X0197935Y0106734D02*
X0197935Y0088730D01*
X0197750Y0088730D01*
X0190250Y0099230D02*
X0190061Y0099230D01*
X0190061Y0106734D01*
X0197750Y0115730D02*
X0197750Y0142230D01*
X0205750Y0142230D02*
X0205750Y0118730D01*
X0225750Y0118730D01*
X0225750Y0113730D01*
X0215750Y0103730D02*
X0215750Y0098730D01*
X0221250Y0148230D02*
X0221250Y0148730D01*
X0166750Y0148730D01*
X0182187Y0175230D02*
X0182187Y0183506D01*
X0182250Y0175230D02*
X0182187Y0175230D01*
X0197750Y0175230D02*
X0197935Y0175230D01*
X0197935Y0183506D01*
X0205750Y0183506D02*
X0205750Y0175230D01*
X0205809Y0183506D02*
X0205750Y0183506D01*
X0221250Y0173730D02*
X0221250Y0168730D01*
X0221250Y0173730D02*
X0225750Y0173730D01*
X0225750Y0153730D02*
X0221250Y0153730D01*
X0221250Y0148730D01*
X0122750Y0194415D02*
X0114250Y0194415D01*
D49*
X0075435Y0158494D02*
X0073191Y0160738D01*
X0073191Y0166112D01*
X0072388Y0166915D01*
X0063533Y0166915D01*
X0062750Y0166915D02*
X0056325Y0166915D01*
X0056325Y0166352D01*
X0049317Y0166352D01*
X0056325Y0166915D02*
X0056325Y0175226D01*
X0062750Y0167699D02*
X0062750Y0166915D01*
X0073860Y0156919D02*
X0075435Y0158494D01*
X0073860Y0156919D02*
X0073860Y0152588D01*
X0119529Y0117155D02*
X0119529Y0108887D01*
X0119529Y0117155D02*
X0121104Y0118730D01*
D50*
X0020250Y0200730D02*
X0020250Y0005230D01*
X0233250Y0004730D01*
X0233250Y0200230D01*
X0020250Y0200730D01*
X0048254Y0167415D02*
X0049317Y0166352D01*
X0035750Y0157415D02*
X0035750Y0156415D01*
X0051250Y0141427D02*
X0055250Y0145427D01*
X0054238Y0145427D01*
X0051250Y0141427D02*
X0051250Y0131415D01*
X0049116Y0129281D01*
X0049010Y0129281D01*
X0049010Y0126534D01*
X0052750Y0126534D02*
X0053250Y0127034D01*
X0053250Y0129915D01*
X0057738Y0134403D01*
X0059250Y0134403D01*
X0049010Y0116297D02*
X0049010Y0107415D01*
X0088250Y0087915D02*
X0088250Y0056915D01*
X0083250Y0051915D01*
X0083250Y0041415D01*
X0079750Y0054915D02*
X0063750Y0054915D01*
X0061096Y0052262D01*
X0061096Y0032762D01*
X0058750Y0030415D01*
X0053250Y0034915D02*
X0048750Y0030415D01*
X0053250Y0035415D02*
X0053250Y0049415D01*
X0062403Y0058569D01*
X0074132Y0058569D01*
X0079750Y0054915D02*
X0080825Y0055990D01*
X0080825Y0058569D01*
X0088250Y0087915D02*
X0094250Y0093915D01*
X0149750Y0086230D02*
X0149750Y0030230D01*
X0138750Y0030230D01*
X0138750Y0030415D01*
X0150250Y0129230D02*
X0150250Y0183506D01*
X0150691Y0183506D01*
X0150691Y0193730D01*
X0215750Y0193730D01*
X0086769Y0183915D02*
X0086769Y0179415D01*
X0025010Y0044915D02*
X0025010Y0040970D01*
X0037250Y0028730D01*
X0037250Y0028915D01*
X0038750Y0030415D01*
D51*
X0083750Y0090915D02*
X0083750Y0105454D01*
X0080710Y0108494D01*
X0078020Y0111265D02*
X0070650Y0111265D01*
X0069250Y0122215D02*
X0077813Y0122215D01*
X0080710Y0125029D02*
X0078025Y0127715D01*
X0069450Y0127715D01*
X0068450Y0128715D01*
X0068250Y0128715D01*
X0086458Y0108206D02*
X0089250Y0105415D01*
X0089250Y0098915D01*
X0088750Y0098415D01*
X0088750Y0097415D01*
X0094250Y0098915D02*
X0094750Y0099415D01*
X0094750Y0106108D01*
X0091970Y0108887D01*
X0100250Y0106143D02*
X0100250Y0097915D01*
X0100250Y0106143D02*
X0102994Y0108887D01*
X0108506Y0108159D02*
X0110950Y0105715D01*
X0116450Y0105715D01*
X0116750Y0105415D01*
X0116750Y0099655D01*
X0133915Y0127815D02*
X0144250Y0127815D01*
X0130789Y0152588D02*
X0127750Y0155628D01*
X0127750Y0164415D01*
D52*
X0150250Y0129230D03*
X0160750Y0128730D03*
X0166750Y0123730D03*
X0190250Y0099230D03*
X0197750Y0088730D03*
X0204750Y0098730D03*
X0210250Y0088730D03*
X0197750Y0115730D03*
X0197750Y0142230D03*
X0205750Y0142230D03*
X0205750Y0175230D03*
X0197750Y0175230D03*
X0182250Y0175230D03*
X0160750Y0086230D03*
X0166750Y0079230D03*
X0149750Y0086230D03*
D53*
X0086458Y0158494D02*
X0086458Y0166246D01*
D54*
X0086769Y0166419D02*
X0086769Y0165915D01*
X0086769Y0165443D01*
D55*
X0086769Y0166419D02*
X0086769Y0170478D01*
X0086769Y0179415D01*
X0086769Y0180639D01*
X0086734Y0180675D01*
D56*
X0063533Y0166915D02*
X0062750Y0167699D01*
M02*
