G75*
%MOIN*%
%OFA0B0*%
%FSLAX25Y25*%
%IPPOS*%
%LPD*%
%AMOC8*
5,1,8,0,0,1.08239X$1,22.5*
%
%ADD10R,0.09843X0.09843*%
%ADD11C,0.04756*%
%ADD12C,0.13843*%
%ADD13C,0.07000*%
%ADD14R,0.05118X0.06693*%
%ADD15R,0.06000X0.16000*%
%ADD16C,0.03937*%
%ADD17R,0.07000X0.07000*%
%ADD18C,0.03150*%
%ADD19C,0.01000*%
%ADD20C,0.00800*%
%ADD21R,0.03962X0.03962*%
%ADD22C,0.01600*%
%ADD23C,0.02400*%
D10*
X0030269Y0097242D03*
X0030269Y0125588D03*
D11*
X0041293Y0124407D02*
X0041293Y0129163D01*
X0041293Y0098423D02*
X0041293Y0093667D01*
D12*
X0030750Y0189415D03*
X0135750Y0189415D03*
D13*
X0140750Y0176415D03*
X0114250Y0184415D03*
X0114250Y0194415D03*
X0064750Y0104415D03*
X0050250Y0095415D03*
X0088750Y0044915D03*
X0098750Y0044915D03*
X0098750Y0030415D03*
X0108750Y0030415D03*
X0118750Y0030415D03*
X0128750Y0030415D03*
X0138750Y0030415D03*
X0088750Y0030415D03*
X0078750Y0030415D03*
X0068750Y0030415D03*
X0058750Y0030415D03*
X0048750Y0030415D03*
X0038750Y0030415D03*
X0028750Y0030415D03*
X0215750Y0073730D03*
X0215750Y0083730D03*
X0215750Y0093730D03*
X0215750Y0103730D03*
X0215750Y0113730D03*
X0215750Y0123730D03*
X0215750Y0133730D03*
X0215750Y0143730D03*
X0225750Y0143730D03*
X0225750Y0133730D03*
X0225750Y0123730D03*
X0225750Y0113730D03*
X0225750Y0103730D03*
X0225750Y0093730D03*
X0225750Y0083730D03*
X0225750Y0073730D03*
X0225750Y0153730D03*
X0225750Y0163730D03*
X0225750Y0173730D03*
X0225750Y0183730D03*
X0225750Y0193730D03*
X0215750Y0183730D03*
X0215750Y0173730D03*
X0215750Y0163730D03*
X0215750Y0153730D03*
D14*
X0124663Y0165006D03*
X0114663Y0165006D03*
X0104663Y0165006D03*
X0104663Y0063825D03*
X0114663Y0063825D03*
X0124663Y0063825D03*
D15*
X0096750Y0190415D03*
X0076750Y0190415D03*
D16*
X0132750Y0178415D03*
X0033250Y0038415D03*
D17*
X0215750Y0193730D03*
D18*
X0140750Y0168415D03*
X0140750Y0163915D03*
X0136750Y0164915D03*
X0126750Y0179415D03*
X0110250Y0178915D03*
X0105250Y0180915D03*
X0108250Y0184415D03*
X0103250Y0185915D03*
X0103250Y0190415D03*
X0107931Y0190021D03*
X0107687Y0195978D03*
X0103250Y0195915D03*
X0100250Y0179915D03*
X0098687Y0176415D03*
X0095187Y0173915D03*
X0095187Y0169415D03*
X0094399Y0163809D03*
X0079313Y0163915D03*
X0078667Y0170088D03*
X0078813Y0175021D03*
X0076750Y0179415D03*
X0069750Y0179915D03*
X0065856Y0184309D03*
X0061250Y0181915D03*
X0055750Y0182415D03*
X0049600Y0187765D03*
X0052750Y0192415D03*
X0047750Y0194915D03*
X0064250Y0195915D03*
X0069250Y0195415D03*
X0064750Y0190915D03*
X0069250Y0188915D03*
X0050250Y0172415D03*
X0045250Y0172415D03*
X0032250Y0157915D03*
X0038250Y0148415D03*
X0052250Y0152915D03*
X0056250Y0152915D03*
X0063250Y0160415D03*
X0068250Y0160415D03*
X0068750Y0155915D03*
X0068250Y0148915D03*
X0068750Y0142915D03*
X0067750Y0136415D03*
X0068250Y0128715D03*
X0063750Y0124415D03*
X0060250Y0127915D03*
X0052750Y0112915D03*
X0055250Y0090415D03*
X0046250Y0078415D03*
X0050250Y0071415D03*
X0040250Y0064915D03*
X0035250Y0063915D03*
X0031750Y0068415D03*
X0051750Y0053915D03*
X0061250Y0061915D03*
X0070750Y0068915D03*
X0075750Y0069415D03*
X0077750Y0084415D03*
X0084750Y0086415D03*
X0083750Y0090915D03*
X0088750Y0097415D03*
X0094250Y0088415D03*
X0099250Y0084915D03*
X0103750Y0084915D03*
X0112250Y0093915D03*
X0104748Y0097913D03*
X0100250Y0097915D03*
X0101250Y0114915D03*
X0105750Y0116415D03*
X0105750Y0121415D03*
X0110750Y0124415D03*
X0115750Y0121415D03*
X0119250Y0124415D03*
X0115750Y0127415D03*
X0115750Y0133415D03*
X0119250Y0136415D03*
X0124250Y0136415D03*
X0115750Y0140415D03*
X0115750Y0145415D03*
X0105750Y0145415D03*
X0105750Y0140415D03*
X0110750Y0136415D03*
X0105750Y0133415D03*
X0100750Y0136415D03*
X0095750Y0133415D03*
X0091750Y0136415D03*
X0086750Y0136415D03*
X0086250Y0140915D03*
X0086750Y0146415D03*
X0091250Y0146415D03*
X0095750Y0145415D03*
X0095750Y0140415D03*
X0086750Y0130415D03*
X0086750Y0124415D03*
X0086750Y0119915D03*
X0086750Y0114915D03*
X0091250Y0114915D03*
X0095750Y0116415D03*
X0095750Y0121415D03*
X0091750Y0124415D03*
X0095750Y0127415D03*
X0100750Y0124415D03*
X0105750Y0127415D03*
X0115750Y0116415D03*
X0124250Y0124415D03*
X0132250Y0093915D03*
X0136250Y0085415D03*
X0132750Y0081915D03*
X0124250Y0078415D03*
X0116750Y0082915D03*
X0120750Y0091415D03*
X0132250Y0071415D03*
X0129750Y0063415D03*
X0134750Y0056415D03*
X0141250Y0065415D03*
X0140750Y0041915D03*
X0123750Y0035915D03*
X0108250Y0042915D03*
X0115250Y0051915D03*
X0106750Y0056915D03*
X0087250Y0050915D03*
X0079750Y0049915D03*
X0083250Y0041415D03*
X0057250Y0040915D03*
X0077250Y0092915D03*
X0078250Y0097415D03*
X0029750Y0108415D03*
X0029750Y0114415D03*
X0094750Y0179415D03*
D19*
X0031355Y0026515D02*
X0030041Y0025971D01*
X0030750Y0025915D01*
X0036568Y0025915D01*
X0036129Y0026139D01*
X0035492Y0026601D01*
X0034936Y0027158D01*
X0034473Y0027794D01*
X0034116Y0028496D01*
X0033873Y0029244D01*
X0033767Y0029915D01*
X0038250Y0029915D01*
X0038250Y0030915D01*
X0038250Y0035398D01*
X0037579Y0035292D01*
X0036830Y0035049D01*
X0036129Y0034691D01*
X0035492Y0034229D01*
X0034936Y0033672D01*
X0034473Y0033036D01*
X0034116Y0032334D01*
X0033873Y0031586D01*
X0033767Y0030915D01*
X0038250Y0030915D01*
X0039250Y0030915D01*
X0043733Y0030915D01*
X0043627Y0031586D01*
X0043383Y0032334D01*
X0043026Y0033036D01*
X0042563Y0033672D01*
X0042007Y0034229D01*
X0041370Y0034691D01*
X0040669Y0035049D01*
X0039921Y0035292D01*
X0039250Y0035398D01*
X0039250Y0030915D01*
X0039250Y0029915D01*
X0043733Y0029915D01*
X0043627Y0029244D01*
X0043383Y0028496D01*
X0043026Y0027794D01*
X0042563Y0027158D01*
X0042007Y0026601D01*
X0041370Y0026139D01*
X0040931Y0025915D01*
X0047593Y0025915D01*
X0046144Y0026515D01*
X0044850Y0027809D01*
X0044150Y0029500D01*
X0044150Y0031330D01*
X0044850Y0033021D01*
X0046144Y0034315D01*
X0047835Y0035015D01*
X0049665Y0035015D01*
X0051355Y0034315D01*
X0052649Y0033021D01*
X0053350Y0031330D01*
X0053350Y0029500D01*
X0052649Y0027809D01*
X0051355Y0026515D01*
X0049906Y0025915D01*
X0057593Y0025915D01*
X0056144Y0026515D01*
X0054850Y0027809D01*
X0054150Y0029500D01*
X0054150Y0031330D01*
X0054850Y0033021D01*
X0056144Y0034315D01*
X0057835Y0035015D01*
X0059665Y0035015D01*
X0061355Y0034315D01*
X0062649Y0033021D01*
X0063350Y0031330D01*
X0063350Y0029500D01*
X0062649Y0027809D01*
X0061355Y0026515D01*
X0059906Y0025915D01*
X0067593Y0025915D01*
X0066144Y0026515D01*
X0064850Y0027809D01*
X0064150Y0029500D01*
X0064150Y0031330D01*
X0064850Y0033021D01*
X0066144Y0034315D01*
X0067835Y0035015D01*
X0069665Y0035015D01*
X0071355Y0034315D01*
X0071730Y0033941D01*
X0073904Y0036115D01*
X0050504Y0036115D01*
X0041004Y0045615D01*
X0039950Y0046669D01*
X0039950Y0062040D01*
X0039678Y0062040D01*
X0038621Y0062478D01*
X0037812Y0063286D01*
X0037375Y0064343D01*
X0037375Y0065487D01*
X0037812Y0066544D01*
X0038621Y0067352D01*
X0039678Y0067790D01*
X0040822Y0067790D01*
X0041878Y0067352D01*
X0042687Y0066544D01*
X0043125Y0065487D01*
X0043125Y0064586D01*
X0043550Y0064161D01*
X0043550Y0048161D01*
X0051995Y0039715D01*
X0072904Y0039715D01*
X0049504Y0063115D01*
X0048450Y0064169D01*
X0048450Y0069149D01*
X0047812Y0069786D01*
X0047375Y0070843D01*
X0047375Y0071987D01*
X0047812Y0073044D01*
X0048621Y0073852D01*
X0049678Y0074290D01*
X0050822Y0074290D01*
X0051878Y0073852D01*
X0052687Y0073044D01*
X0053125Y0071987D01*
X0053125Y0070843D01*
X0052687Y0069786D01*
X0052050Y0069149D01*
X0052050Y0065661D01*
X0074495Y0043215D01*
X0080984Y0043215D01*
X0081621Y0043852D01*
X0082678Y0044290D01*
X0083822Y0044290D01*
X0084150Y0044154D01*
X0084150Y0045830D01*
X0084850Y0047521D01*
X0086144Y0048815D01*
X0087835Y0049515D01*
X0089665Y0049515D01*
X0090470Y0049181D01*
X0097450Y0056161D01*
X0097450Y0082649D01*
X0096884Y0083215D01*
X0090546Y0083215D01*
X0089550Y0084211D01*
X0085550Y0088211D01*
X0085550Y0088649D01*
X0085378Y0088478D01*
X0084322Y0088040D01*
X0083178Y0088040D01*
X0082121Y0088478D01*
X0081484Y0089115D01*
X0080495Y0089115D01*
X0072550Y0081169D01*
X0072550Y0071181D01*
X0073187Y0070544D01*
X0073625Y0069487D01*
X0073625Y0068343D01*
X0073187Y0067286D01*
X0072378Y0066478D01*
X0071322Y0066040D01*
X0070178Y0066040D01*
X0069121Y0066478D01*
X0068312Y0067286D01*
X0067875Y0068343D01*
X0067875Y0069487D01*
X0068312Y0070544D01*
X0068950Y0071181D01*
X0068950Y0082661D01*
X0070004Y0083715D01*
X0076431Y0090142D01*
X0075621Y0090478D01*
X0074812Y0091286D01*
X0074375Y0092343D01*
X0074375Y0093487D01*
X0074812Y0094544D01*
X0075621Y0095352D01*
X0076063Y0095536D01*
X0075812Y0095786D01*
X0075375Y0096843D01*
X0075375Y0097987D01*
X0075812Y0099044D01*
X0076384Y0099615D01*
X0071995Y0099615D01*
X0057550Y0085169D01*
X0057550Y0085169D01*
X0056495Y0084115D01*
X0043495Y0084115D01*
X0033550Y0074169D01*
X0033550Y0070681D01*
X0034187Y0070044D01*
X0034625Y0068987D01*
X0034625Y0067843D01*
X0034187Y0066786D01*
X0033378Y0065978D01*
X0032322Y0065540D01*
X0031178Y0065540D01*
X0030250Y0065925D01*
X0030250Y0057418D01*
X0029869Y0056499D01*
X0029166Y0055796D01*
X0028247Y0055415D01*
X0025750Y0055415D01*
X0025750Y0036951D01*
X0027729Y0034971D01*
X0027835Y0035015D01*
X0029665Y0035015D01*
X0031355Y0034315D01*
X0032649Y0033021D01*
X0033350Y0031330D01*
X0033350Y0029500D01*
X0032649Y0027809D01*
X0031355Y0026515D01*
X0031537Y0026697D02*
X0035396Y0026697D01*
X0034545Y0027696D02*
X0032536Y0027696D01*
X0033016Y0028694D02*
X0034051Y0028694D01*
X0033802Y0029693D02*
X0033350Y0029693D01*
X0033350Y0030691D02*
X0038250Y0030691D01*
X0038250Y0031690D02*
X0039250Y0031690D01*
X0039250Y0032688D02*
X0038250Y0032688D01*
X0038250Y0033687D02*
X0039250Y0033687D01*
X0039250Y0034685D02*
X0038250Y0034685D01*
X0036796Y0035684D02*
X0073473Y0035684D01*
X0072474Y0034685D02*
X0070461Y0034685D01*
X0067039Y0034685D02*
X0060461Y0034685D01*
X0061983Y0033687D02*
X0065516Y0033687D01*
X0064712Y0032688D02*
X0062787Y0032688D01*
X0063201Y0031690D02*
X0064299Y0031690D01*
X0064150Y0030691D02*
X0063350Y0030691D01*
X0063350Y0029693D02*
X0064150Y0029693D01*
X0064483Y0028694D02*
X0063016Y0028694D01*
X0062536Y0027696D02*
X0064964Y0027696D01*
X0065962Y0026697D02*
X0061537Y0026697D01*
X0055962Y0026697D02*
X0051537Y0026697D01*
X0052536Y0027696D02*
X0054964Y0027696D01*
X0054483Y0028694D02*
X0053016Y0028694D01*
X0053350Y0029693D02*
X0054150Y0029693D01*
X0054150Y0030691D02*
X0053350Y0030691D01*
X0053201Y0031690D02*
X0054299Y0031690D01*
X0054712Y0032688D02*
X0052787Y0032688D01*
X0051983Y0033687D02*
X0055516Y0033687D01*
X0057039Y0034685D02*
X0050461Y0034685D01*
X0049937Y0036682D02*
X0037373Y0036682D01*
X0037687Y0037226D02*
X0037687Y0039030D01*
X0037687Y0039604D01*
X0036498Y0041663D01*
X0036498Y0041663D01*
X0036498Y0041663D01*
X0034439Y0042852D01*
X0032061Y0042852D01*
X0030002Y0041663D01*
X0030002Y0041663D01*
X0028813Y0039604D01*
X0028813Y0037226D01*
X0030002Y0035167D01*
X0032061Y0033978D01*
X0034439Y0033978D01*
X0036498Y0035167D01*
X0037687Y0037226D01*
X0037687Y0037681D02*
X0048938Y0037681D01*
X0047940Y0038679D02*
X0037687Y0038679D01*
X0037687Y0039604D02*
X0037687Y0039604D01*
X0037644Y0039678D02*
X0046941Y0039678D01*
X0045943Y0040676D02*
X0037068Y0040676D01*
X0036477Y0041675D02*
X0044944Y0041675D01*
X0043946Y0042673D02*
X0034748Y0042673D01*
X0031751Y0042673D02*
X0025750Y0042673D01*
X0025750Y0041675D02*
X0030022Y0041675D01*
X0030002Y0041663D02*
X0030002Y0041663D01*
X0029432Y0040676D02*
X0025750Y0040676D01*
X0025750Y0039678D02*
X0028855Y0039678D01*
X0028813Y0038679D02*
X0025750Y0038679D01*
X0025750Y0037681D02*
X0028813Y0037681D01*
X0029127Y0036682D02*
X0026018Y0036682D01*
X0027016Y0035684D02*
X0029703Y0035684D01*
X0030002Y0035167D02*
X0030002Y0035167D01*
X0030002Y0035167D01*
X0030461Y0034685D02*
X0030836Y0034685D01*
X0031983Y0033687D02*
X0034950Y0033687D01*
X0034296Y0032688D02*
X0032787Y0032688D01*
X0033201Y0031690D02*
X0033907Y0031690D01*
X0035664Y0034685D02*
X0036121Y0034685D01*
X0036498Y0035167D02*
X0036498Y0035167D01*
X0036498Y0035167D01*
X0041379Y0034685D02*
X0047039Y0034685D01*
X0045516Y0033687D02*
X0042549Y0033687D01*
X0043203Y0032688D02*
X0044712Y0032688D01*
X0044299Y0031690D02*
X0043593Y0031690D01*
X0044150Y0030691D02*
X0039250Y0030691D01*
X0043698Y0029693D02*
X0044150Y0029693D01*
X0044483Y0028694D02*
X0043448Y0028694D01*
X0042954Y0027696D02*
X0044964Y0027696D01*
X0045962Y0026697D02*
X0042103Y0026697D01*
X0051250Y0037915D02*
X0041750Y0047415D01*
X0041750Y0063415D01*
X0040250Y0064915D01*
X0041193Y0067636D02*
X0048450Y0067636D01*
X0048450Y0066638D02*
X0042593Y0066638D01*
X0043062Y0065639D02*
X0048450Y0065639D01*
X0048450Y0064641D02*
X0043125Y0064641D01*
X0043550Y0063642D02*
X0048977Y0063642D01*
X0049975Y0062644D02*
X0043550Y0062644D01*
X0043550Y0061645D02*
X0050974Y0061645D01*
X0051973Y0060647D02*
X0043550Y0060647D01*
X0043550Y0059648D02*
X0052971Y0059648D01*
X0053970Y0058650D02*
X0043550Y0058650D01*
X0043550Y0057651D02*
X0054968Y0057651D01*
X0055967Y0056653D02*
X0043550Y0056653D01*
X0043550Y0055654D02*
X0056965Y0055654D01*
X0057964Y0054656D02*
X0043550Y0054656D01*
X0043550Y0053657D02*
X0058962Y0053657D01*
X0059961Y0052659D02*
X0043550Y0052659D01*
X0043550Y0051660D02*
X0060959Y0051660D01*
X0061958Y0050662D02*
X0043550Y0050662D01*
X0043550Y0049663D02*
X0062956Y0049663D01*
X0063955Y0048665D02*
X0043550Y0048665D01*
X0044044Y0047666D02*
X0064953Y0047666D01*
X0065952Y0046667D02*
X0045043Y0046667D01*
X0046041Y0045669D02*
X0066950Y0045669D01*
X0067949Y0044670D02*
X0047040Y0044670D01*
X0048038Y0043672D02*
X0068947Y0043672D01*
X0069946Y0042673D02*
X0049037Y0042673D01*
X0050035Y0041675D02*
X0070944Y0041675D01*
X0071943Y0040676D02*
X0051034Y0040676D01*
X0051250Y0037915D02*
X0090250Y0037915D01*
X0091750Y0039415D01*
X0104750Y0039415D01*
X0108250Y0042915D01*
X0110848Y0041675D02*
X0129964Y0041675D01*
X0129004Y0040715D02*
X0127950Y0039661D01*
X0127950Y0035015D01*
X0127835Y0035015D01*
X0126210Y0034342D01*
X0126625Y0035343D01*
X0126625Y0036487D01*
X0126187Y0037544D01*
X0125378Y0038352D01*
X0124322Y0038790D01*
X0123178Y0038790D01*
X0122121Y0038352D01*
X0121484Y0037715D01*
X0112495Y0037715D01*
X0112050Y0038161D01*
X0110995Y0039215D01*
X0107095Y0039215D01*
X0107920Y0040040D01*
X0108822Y0040040D01*
X0109878Y0040478D01*
X0110687Y0041286D01*
X0111125Y0042343D01*
X0111125Y0043487D01*
X0110687Y0044544D01*
X0109878Y0045352D01*
X0108822Y0045790D01*
X0107678Y0045790D01*
X0106621Y0045352D01*
X0105812Y0044544D01*
X0105375Y0043487D01*
X0105375Y0042586D01*
X0104004Y0041215D01*
X0101555Y0041215D01*
X0102649Y0042309D01*
X0103350Y0044000D01*
X0103350Y0045830D01*
X0102649Y0047521D01*
X0101355Y0048815D01*
X0099665Y0049515D01*
X0097835Y0049515D01*
X0096144Y0048815D01*
X0094850Y0047521D01*
X0094150Y0045830D01*
X0094150Y0044000D01*
X0094850Y0042309D01*
X0095944Y0041215D01*
X0091555Y0041215D01*
X0092649Y0042309D01*
X0093350Y0044000D01*
X0093350Y0045830D01*
X0093016Y0046636D01*
X0099995Y0053615D01*
X0099995Y0053615D01*
X0101050Y0054669D01*
X0101050Y0059977D01*
X0101648Y0059378D01*
X0107678Y0059378D01*
X0107959Y0059660D01*
X0109950Y0057669D01*
X0109950Y0046669D01*
X0111504Y0045115D01*
X0125995Y0045115D01*
X0134420Y0053540D01*
X0135322Y0053540D01*
X0136378Y0053978D01*
X0137187Y0054786D01*
X0137625Y0055843D01*
X0137625Y0056987D01*
X0137187Y0058044D01*
X0136378Y0058852D01*
X0135322Y0059290D01*
X0134178Y0059290D01*
X0133121Y0058852D01*
X0132312Y0058044D01*
X0131875Y0056987D01*
X0131875Y0056086D01*
X0124504Y0048715D01*
X0113550Y0048715D01*
X0113550Y0049549D01*
X0113621Y0049478D01*
X0114678Y0049040D01*
X0115822Y0049040D01*
X0116878Y0049478D01*
X0117687Y0050286D01*
X0118125Y0051343D01*
X0118125Y0051744D01*
X0120495Y0054115D01*
X0121550Y0055169D01*
X0121550Y0059074D01*
X0121907Y0058978D01*
X0124163Y0058978D01*
X0124163Y0063324D01*
X0125163Y0063324D01*
X0125163Y0058978D01*
X0127420Y0058978D01*
X0127801Y0059080D01*
X0128143Y0059278D01*
X0128422Y0059557D01*
X0128620Y0059899D01*
X0128722Y0060281D01*
X0128722Y0063325D01*
X0125163Y0063325D01*
X0125163Y0064324D01*
X0128722Y0064324D01*
X0128722Y0067368D01*
X0128712Y0067408D01*
X0129004Y0067115D01*
X0137950Y0058169D01*
X0137950Y0049661D01*
X0129004Y0040715D01*
X0128965Y0040676D02*
X0110077Y0040676D01*
X0111125Y0042673D02*
X0130963Y0042673D01*
X0131961Y0043672D02*
X0111048Y0043672D01*
X0110560Y0044670D02*
X0132960Y0044670D01*
X0133958Y0045669D02*
X0126549Y0045669D01*
X0127548Y0046667D02*
X0134957Y0046667D01*
X0135955Y0047666D02*
X0128546Y0047666D01*
X0129545Y0048665D02*
X0136954Y0048665D01*
X0137950Y0049663D02*
X0130543Y0049663D01*
X0131542Y0050662D02*
X0137950Y0050662D01*
X0137950Y0051660D02*
X0132540Y0051660D01*
X0133539Y0052659D02*
X0137950Y0052659D01*
X0137950Y0053657D02*
X0135604Y0053657D01*
X0137056Y0054656D02*
X0137950Y0054656D01*
X0137950Y0055654D02*
X0137546Y0055654D01*
X0137625Y0056653D02*
X0137950Y0056653D01*
X0137950Y0057651D02*
X0137350Y0057651D01*
X0137470Y0058650D02*
X0136581Y0058650D01*
X0136471Y0059648D02*
X0128475Y0059648D01*
X0128722Y0060647D02*
X0135473Y0060647D01*
X0134474Y0061645D02*
X0128722Y0061645D01*
X0128722Y0062644D02*
X0133475Y0062644D01*
X0132477Y0063642D02*
X0125163Y0063642D01*
X0125163Y0064325D02*
X0124163Y0064325D01*
X0124163Y0068671D01*
X0121907Y0068671D01*
X0121550Y0068575D01*
X0121550Y0085161D01*
X0119050Y0087661D01*
X0117995Y0088715D01*
X0115495Y0088715D01*
X0113068Y0091142D01*
X0113878Y0091478D01*
X0114687Y0092286D01*
X0115030Y0093115D01*
X0127995Y0093115D01*
X0129050Y0094169D01*
X0133700Y0098819D01*
X0133700Y0092911D01*
X0126504Y0085715D01*
X0125450Y0084661D01*
X0125450Y0070669D01*
X0127459Y0068660D01*
X0127420Y0068671D01*
X0125163Y0068671D01*
X0125163Y0064325D01*
X0125163Y0064641D02*
X0124163Y0064641D01*
X0124163Y0065639D02*
X0125163Y0065639D01*
X0125163Y0066638D02*
X0124163Y0066638D01*
X0124163Y0067636D02*
X0125163Y0067636D01*
X0125163Y0068635D02*
X0124163Y0068635D01*
X0121771Y0068635D02*
X0121550Y0068635D01*
X0121550Y0069633D02*
X0126486Y0069633D01*
X0125487Y0070632D02*
X0121550Y0070632D01*
X0121550Y0071630D02*
X0125450Y0071630D01*
X0125450Y0072629D02*
X0121550Y0072629D01*
X0121550Y0073627D02*
X0125450Y0073627D01*
X0125450Y0074626D02*
X0121550Y0074626D01*
X0121550Y0075624D02*
X0125450Y0075624D01*
X0125450Y0076623D02*
X0121550Y0076623D01*
X0121550Y0077621D02*
X0125450Y0077621D01*
X0125450Y0078620D02*
X0121550Y0078620D01*
X0121550Y0079618D02*
X0125450Y0079618D01*
X0125450Y0080617D02*
X0121550Y0080617D01*
X0121550Y0081615D02*
X0125450Y0081615D01*
X0125450Y0082614D02*
X0121550Y0082614D01*
X0121550Y0083612D02*
X0125450Y0083612D01*
X0125450Y0084611D02*
X0121550Y0084611D01*
X0121101Y0085609D02*
X0126398Y0085609D01*
X0127397Y0086608D02*
X0120102Y0086608D01*
X0119104Y0087606D02*
X0128396Y0087606D01*
X0129394Y0088605D02*
X0118105Y0088605D01*
X0117250Y0086915D02*
X0114750Y0086915D01*
X0109750Y0091915D01*
X0101250Y0091915D01*
X0097750Y0095415D01*
X0095750Y0095415D01*
X0095750Y0103415D01*
X0087750Y0111415D01*
X0085750Y0111415D01*
X0068250Y0128915D01*
X0068250Y0128715D01*
X0072750Y0133215D01*
X0072750Y0164915D01*
X0066750Y0170915D01*
X0059750Y0170915D01*
X0049600Y0181065D01*
X0049600Y0187765D01*
X0048576Y0190453D02*
X0039002Y0190453D01*
X0039002Y0191169D02*
X0037575Y0194374D01*
X0034968Y0196722D01*
X0031632Y0197806D01*
X0028342Y0197460D01*
X0029420Y0197810D01*
X0030750Y0197915D01*
X0072250Y0197915D01*
X0072250Y0190915D01*
X0076250Y0190915D01*
X0076250Y0189915D01*
X0077250Y0189915D01*
X0077250Y0190915D01*
X0081250Y0190915D01*
X0081250Y0197915D01*
X0092250Y0197915D01*
X0092250Y0190915D01*
X0096250Y0190915D01*
X0096250Y0189915D01*
X0097250Y0189915D01*
X0097250Y0190915D01*
X0101250Y0190915D01*
X0101250Y0197915D01*
X0111244Y0197915D01*
X0110350Y0197021D01*
X0109650Y0195330D01*
X0109650Y0193500D01*
X0110350Y0191809D01*
X0111644Y0190515D01*
X0113335Y0189815D01*
X0115165Y0189815D01*
X0115970Y0190149D01*
X0119865Y0186254D01*
X0119865Y0175076D01*
X0117004Y0172215D01*
X0101504Y0172215D01*
X0100450Y0171161D01*
X0098950Y0169661D01*
X0098950Y0153661D01*
X0098504Y0153215D01*
X0076550Y0153215D01*
X0076550Y0166661D01*
X0075495Y0167715D01*
X0066995Y0176215D01*
X0061995Y0176215D01*
X0057805Y0180405D01*
X0058187Y0180786D01*
X0058625Y0181843D01*
X0058625Y0182987D01*
X0058187Y0184044D01*
X0057378Y0184852D01*
X0056322Y0185290D01*
X0055178Y0185290D01*
X0054121Y0184852D01*
X0053312Y0184044D01*
X0052875Y0182987D01*
X0052875Y0181843D01*
X0053312Y0180786D01*
X0053950Y0180149D01*
X0053950Y0179261D01*
X0051400Y0181810D01*
X0051400Y0185500D01*
X0052037Y0186137D01*
X0052475Y0187194D01*
X0052475Y0188337D01*
X0052037Y0189394D01*
X0051229Y0190203D01*
X0050172Y0190640D01*
X0049028Y0190640D01*
X0047972Y0190203D01*
X0047163Y0189394D01*
X0046725Y0188337D01*
X0046725Y0187194D01*
X0047163Y0186137D01*
X0047800Y0185500D01*
X0047800Y0180319D01*
X0048855Y0179265D01*
X0059004Y0169115D01*
X0066004Y0169115D01*
X0070950Y0164169D01*
X0070950Y0133961D01*
X0069550Y0132561D01*
X0069550Y0134149D01*
X0070187Y0134786D01*
X0070625Y0135843D01*
X0070625Y0136987D01*
X0070187Y0138044D01*
X0069378Y0138852D01*
X0068322Y0139290D01*
X0067178Y0139290D01*
X0066121Y0138852D01*
X0065312Y0138044D01*
X0064875Y0136987D01*
X0064875Y0135843D01*
X0065312Y0134786D01*
X0065950Y0134149D01*
X0065950Y0133161D01*
X0064504Y0131715D01*
X0063450Y0130661D01*
X0063450Y0127290D01*
X0063178Y0127290D01*
X0062121Y0126852D01*
X0061312Y0126044D01*
X0060875Y0124987D01*
X0060875Y0123843D01*
X0061312Y0122786D01*
X0062121Y0121978D01*
X0063178Y0121540D01*
X0064079Y0121540D01*
X0065363Y0120257D01*
X0068259Y0120257D01*
X0084400Y0104115D01*
X0086504Y0104115D01*
X0089950Y0100669D01*
X0089950Y0100030D01*
X0089322Y0100290D01*
X0088420Y0100290D01*
X0086550Y0102161D01*
X0085495Y0103215D01*
X0070504Y0103215D01*
X0069450Y0102161D01*
X0069450Y0102161D01*
X0055004Y0087715D01*
X0042004Y0087715D01*
X0040950Y0086661D01*
X0040950Y0086661D01*
X0031004Y0076715D01*
X0030250Y0075961D01*
X0030250Y0079412D01*
X0029869Y0080331D01*
X0029166Y0081034D01*
X0028247Y0081415D01*
X0025750Y0081415D01*
X0025750Y0090821D01*
X0030179Y0090821D01*
X0030179Y0094561D01*
X0030360Y0094561D01*
X0030360Y0090821D01*
X0035388Y0090821D01*
X0035770Y0090923D01*
X0036112Y0091120D01*
X0036391Y0091400D01*
X0036588Y0091742D01*
X0036691Y0092123D01*
X0036691Y0097151D01*
X0033949Y0097151D01*
X0033941Y0097242D01*
X0033949Y0097332D01*
X0036691Y0097332D01*
X0036691Y0101062D01*
X0037177Y0100860D01*
X0038257Y0100860D01*
X0037856Y0100260D01*
X0037564Y0099554D01*
X0037415Y0098805D01*
X0037415Y0098612D01*
X0041104Y0098612D01*
X0041104Y0102301D01*
X0040911Y0102301D01*
X0040212Y0102162D01*
X0040628Y0103165D01*
X0040628Y0104310D01*
X0040190Y0105368D01*
X0039380Y0106178D01*
X0038322Y0106616D01*
X0037177Y0106616D01*
X0036119Y0106178D01*
X0035310Y0105368D01*
X0034872Y0104310D01*
X0034872Y0103663D01*
X0030360Y0103663D01*
X0030360Y0099923D01*
X0030179Y0099923D01*
X0030179Y0103663D01*
X0025750Y0103663D01*
X0025750Y0119167D01*
X0030179Y0119167D01*
X0030179Y0122907D01*
X0030360Y0122907D01*
X0030360Y0119167D01*
X0034872Y0119167D01*
X0034872Y0118520D01*
X0035310Y0117462D01*
X0036119Y0116652D01*
X0037177Y0116214D01*
X0038322Y0116214D01*
X0039380Y0116652D01*
X0040190Y0117462D01*
X0040628Y0118520D01*
X0040628Y0119665D01*
X0040212Y0120668D01*
X0040911Y0120529D01*
X0041104Y0120529D01*
X0041104Y0124218D01*
X0041482Y0124218D01*
X0041482Y0120529D01*
X0041675Y0120529D01*
X0042424Y0120678D01*
X0043130Y0120971D01*
X0043765Y0121395D01*
X0044305Y0121935D01*
X0044730Y0122570D01*
X0045022Y0123276D01*
X0045171Y0124025D01*
X0045171Y0124218D01*
X0041482Y0124218D01*
X0041482Y0124596D01*
X0045171Y0124596D01*
X0045171Y0129545D01*
X0045022Y0130294D01*
X0044730Y0131000D01*
X0044305Y0131635D01*
X0043765Y0132175D01*
X0043130Y0132600D01*
X0042424Y0132892D01*
X0041675Y0133041D01*
X0041482Y0133041D01*
X0041482Y0124596D01*
X0041104Y0124596D01*
X0041104Y0124218D01*
X0037415Y0124218D01*
X0037415Y0124025D01*
X0037564Y0123276D01*
X0037856Y0122570D01*
X0038257Y0121970D01*
X0037177Y0121970D01*
X0036691Y0121769D01*
X0036691Y0125498D01*
X0033949Y0125498D01*
X0033941Y0125588D01*
X0033949Y0125679D01*
X0036691Y0125679D01*
X0036691Y0130707D01*
X0036588Y0131089D01*
X0036391Y0131431D01*
X0036112Y0131710D01*
X0035770Y0131907D01*
X0035388Y0132010D01*
X0030360Y0132010D01*
X0030360Y0128269D01*
X0030179Y0128269D01*
X0030179Y0132010D01*
X0025750Y0132010D01*
X0025750Y0147880D01*
X0032973Y0155103D01*
X0033878Y0155478D01*
X0034687Y0156286D01*
X0035125Y0157343D01*
X0035125Y0158487D01*
X0034687Y0159544D01*
X0033878Y0160352D01*
X0032822Y0160790D01*
X0031678Y0160790D01*
X0030621Y0160352D01*
X0029812Y0159544D01*
X0029437Y0158638D01*
X0022250Y0151451D01*
X0022250Y0189415D01*
X0022354Y0190745D01*
X0023176Y0193274D01*
X0024739Y0195425D01*
X0026891Y0196989D01*
X0027969Y0197339D01*
X0025104Y0195685D01*
X0023042Y0192847D01*
X0022313Y0189415D01*
X0023042Y0185983D01*
X0025104Y0183145D01*
X0028143Y0181391D01*
X0031632Y0181024D01*
X0034968Y0182108D01*
X0037575Y0184456D01*
X0039002Y0187661D01*
X0039002Y0191169D01*
X0038877Y0191452D02*
X0072250Y0191452D01*
X0072250Y0192450D02*
X0038432Y0192450D01*
X0037987Y0193449D02*
X0072250Y0193449D01*
X0072250Y0194447D02*
X0037494Y0194447D01*
X0036385Y0195446D02*
X0072250Y0195446D01*
X0072250Y0196444D02*
X0035276Y0196444D01*
X0032749Y0197443D02*
X0072250Y0197443D01*
X0076250Y0190453D02*
X0050624Y0190453D01*
X0051977Y0189455D02*
X0072250Y0189455D01*
X0072250Y0189915D02*
X0072250Y0182218D01*
X0072352Y0181836D01*
X0072549Y0181494D01*
X0072829Y0181215D01*
X0073171Y0181017D01*
X0073552Y0180915D01*
X0076250Y0180915D01*
X0076250Y0189915D01*
X0072250Y0189915D01*
X0072250Y0188456D02*
X0052426Y0188456D01*
X0052475Y0187458D02*
X0072250Y0187458D01*
X0072250Y0186459D02*
X0052171Y0186459D01*
X0051400Y0185461D02*
X0072250Y0185461D01*
X0072250Y0184462D02*
X0057769Y0184462D01*
X0058427Y0183464D02*
X0072250Y0183464D01*
X0072250Y0182465D02*
X0058625Y0182465D01*
X0058469Y0181467D02*
X0072577Y0181467D01*
X0076250Y0181467D02*
X0077250Y0181467D01*
X0077250Y0180915D02*
X0079947Y0180915D01*
X0080329Y0181017D01*
X0080671Y0181215D01*
X0080950Y0181494D01*
X0081147Y0181836D01*
X0081250Y0182218D01*
X0081250Y0189915D01*
X0077250Y0189915D01*
X0077250Y0180915D01*
X0077250Y0182465D02*
X0076250Y0182465D01*
X0076250Y0183464D02*
X0077250Y0183464D01*
X0077250Y0184462D02*
X0076250Y0184462D01*
X0076250Y0185461D02*
X0077250Y0185461D01*
X0077250Y0186459D02*
X0076250Y0186459D01*
X0076250Y0187458D02*
X0077250Y0187458D01*
X0077250Y0188456D02*
X0076250Y0188456D01*
X0076250Y0189455D02*
X0077250Y0189455D01*
X0077250Y0190453D02*
X0096250Y0190453D01*
X0096250Y0189915D02*
X0092250Y0189915D01*
X0092250Y0182218D01*
X0092352Y0181836D01*
X0092549Y0181494D01*
X0092829Y0181215D01*
X0093171Y0181017D01*
X0093552Y0180915D01*
X0096250Y0180915D01*
X0096250Y0189915D01*
X0096250Y0189455D02*
X0097250Y0189455D01*
X0097250Y0189915D02*
X0097250Y0180915D01*
X0099947Y0180915D01*
X0100329Y0181017D01*
X0100671Y0181215D01*
X0100950Y0181494D01*
X0101147Y0181836D01*
X0101250Y0182218D01*
X0101250Y0189915D01*
X0097250Y0189915D01*
X0097250Y0190453D02*
X0111794Y0190453D01*
X0110708Y0191452D02*
X0101250Y0191452D01*
X0101250Y0192450D02*
X0110085Y0192450D01*
X0109671Y0193449D02*
X0101250Y0193449D01*
X0101250Y0194447D02*
X0109650Y0194447D01*
X0109698Y0195446D02*
X0101250Y0195446D01*
X0101250Y0196444D02*
X0110111Y0196444D01*
X0110772Y0197443D02*
X0101250Y0197443D01*
X0101250Y0189455D02*
X0116665Y0189455D01*
X0116514Y0188456D02*
X0117663Y0188456D01*
X0116855Y0188315D02*
X0115165Y0189015D01*
X0113335Y0189015D01*
X0111644Y0188315D01*
X0110350Y0187021D01*
X0109650Y0185330D01*
X0109650Y0183500D01*
X0110350Y0181809D01*
X0111644Y0180515D01*
X0113335Y0179815D01*
X0115165Y0179815D01*
X0116855Y0180515D01*
X0118149Y0181809D01*
X0118850Y0183500D01*
X0118850Y0185330D01*
X0118149Y0187021D01*
X0116855Y0188315D01*
X0117713Y0187458D02*
X0118662Y0187458D01*
X0118382Y0186459D02*
X0119660Y0186459D01*
X0119865Y0185461D02*
X0118796Y0185461D01*
X0118850Y0184462D02*
X0119865Y0184462D01*
X0119865Y0183464D02*
X0118835Y0183464D01*
X0118421Y0182465D02*
X0119865Y0182465D01*
X0119865Y0181467D02*
X0117807Y0181467D01*
X0116741Y0180468D02*
X0119865Y0180468D01*
X0119865Y0179470D02*
X0058741Y0179470D01*
X0057869Y0180468D02*
X0111758Y0180468D01*
X0110693Y0181467D02*
X0100922Y0181467D01*
X0101250Y0182465D02*
X0110078Y0182465D01*
X0109665Y0183464D02*
X0101250Y0183464D01*
X0101250Y0184462D02*
X0109650Y0184462D01*
X0109704Y0185461D02*
X0101250Y0185461D01*
X0101250Y0186459D02*
X0110117Y0186459D01*
X0110787Y0187458D02*
X0101250Y0187458D01*
X0101250Y0188456D02*
X0111985Y0188456D01*
X0114250Y0194415D02*
X0121665Y0186999D01*
X0121665Y0174331D01*
X0117750Y0170415D01*
X0102250Y0170415D01*
X0100750Y0168915D01*
X0100750Y0152915D01*
X0099250Y0151415D01*
X0074750Y0151415D01*
X0074750Y0165915D01*
X0066250Y0174415D01*
X0061250Y0174415D01*
X0055750Y0179915D01*
X0055750Y0182415D01*
X0053731Y0184462D02*
X0051400Y0184462D01*
X0051400Y0183464D02*
X0053072Y0183464D01*
X0052875Y0182465D02*
X0051400Y0182465D01*
X0051744Y0181467D02*
X0053031Y0181467D01*
X0052742Y0180468D02*
X0053631Y0180468D01*
X0053741Y0179470D02*
X0053950Y0179470D01*
X0051645Y0176474D02*
X0022250Y0176474D01*
X0022250Y0177472D02*
X0050647Y0177472D01*
X0049648Y0178471D02*
X0022250Y0178471D01*
X0022250Y0179470D02*
X0048650Y0179470D01*
X0047800Y0180468D02*
X0022250Y0180468D01*
X0022250Y0181467D02*
X0028012Y0181467D01*
X0026282Y0182465D02*
X0022250Y0182465D01*
X0022250Y0183464D02*
X0024873Y0183464D01*
X0024147Y0184462D02*
X0022250Y0184462D01*
X0022250Y0185461D02*
X0023422Y0185461D01*
X0022941Y0186459D02*
X0022250Y0186459D01*
X0022250Y0187458D02*
X0022729Y0187458D01*
X0022517Y0188456D02*
X0022250Y0188456D01*
X0022253Y0189455D02*
X0022321Y0189455D01*
X0022331Y0190453D02*
X0022533Y0190453D01*
X0022584Y0191452D02*
X0022746Y0191452D01*
X0022908Y0192450D02*
X0022958Y0192450D01*
X0023303Y0193449D02*
X0023479Y0193449D01*
X0024029Y0194447D02*
X0024205Y0194447D01*
X0024767Y0195446D02*
X0024930Y0195446D01*
X0026141Y0196444D02*
X0026419Y0196444D01*
X0039002Y0189455D02*
X0047223Y0189455D01*
X0046774Y0188456D02*
X0039002Y0188456D01*
X0038912Y0187458D02*
X0046725Y0187458D01*
X0047029Y0186459D02*
X0038467Y0186459D01*
X0038023Y0185461D02*
X0047800Y0185461D01*
X0047800Y0184462D02*
X0037578Y0184462D01*
X0036473Y0183464D02*
X0047800Y0183464D01*
X0047800Y0182465D02*
X0035364Y0182465D01*
X0032993Y0181467D02*
X0047800Y0181467D01*
X0052644Y0175475D02*
X0022250Y0175475D01*
X0022250Y0174477D02*
X0053642Y0174477D01*
X0054641Y0173478D02*
X0022250Y0173478D01*
X0022250Y0172480D02*
X0055639Y0172480D01*
X0056638Y0171481D02*
X0022250Y0171481D01*
X0022250Y0170483D02*
X0057636Y0170483D01*
X0058635Y0169484D02*
X0022250Y0169484D01*
X0022250Y0168486D02*
X0066633Y0168486D01*
X0067632Y0167487D02*
X0022250Y0167487D01*
X0022250Y0166489D02*
X0068630Y0166489D01*
X0069629Y0165490D02*
X0022250Y0165490D01*
X0022250Y0164492D02*
X0070627Y0164492D01*
X0070950Y0163493D02*
X0022250Y0163493D01*
X0022250Y0162495D02*
X0070950Y0162495D01*
X0070950Y0161496D02*
X0022250Y0161496D01*
X0022250Y0160498D02*
X0030972Y0160498D01*
X0029794Y0159499D02*
X0022250Y0159499D01*
X0022250Y0158501D02*
X0029300Y0158501D01*
X0028301Y0157502D02*
X0022250Y0157502D01*
X0022250Y0156504D02*
X0027303Y0156504D01*
X0026304Y0155505D02*
X0022250Y0155505D01*
X0022250Y0154507D02*
X0025306Y0154507D01*
X0024307Y0153508D02*
X0022250Y0153508D01*
X0022250Y0152510D02*
X0023309Y0152510D01*
X0022310Y0151511D02*
X0022250Y0151511D01*
X0026386Y0148516D02*
X0070950Y0148516D01*
X0070950Y0149514D02*
X0027384Y0149514D01*
X0028383Y0150513D02*
X0070950Y0150513D01*
X0070950Y0151511D02*
X0029381Y0151511D01*
X0030380Y0152510D02*
X0070950Y0152510D01*
X0070950Y0153508D02*
X0031378Y0153508D01*
X0032377Y0154507D02*
X0070950Y0154507D01*
X0070950Y0155505D02*
X0033906Y0155505D01*
X0034777Y0156504D02*
X0070950Y0156504D01*
X0070950Y0157502D02*
X0035125Y0157502D01*
X0035119Y0158501D02*
X0070950Y0158501D01*
X0070950Y0159499D02*
X0034705Y0159499D01*
X0033527Y0160498D02*
X0070950Y0160498D01*
X0076550Y0160498D02*
X0098950Y0160498D01*
X0098950Y0161496D02*
X0076550Y0161496D01*
X0076550Y0162495D02*
X0098950Y0162495D01*
X0098950Y0163493D02*
X0076550Y0163493D01*
X0076550Y0164492D02*
X0098950Y0164492D01*
X0098950Y0165490D02*
X0076550Y0165490D01*
X0076550Y0166489D02*
X0098950Y0166489D01*
X0098950Y0167487D02*
X0075723Y0167487D01*
X0074724Y0168486D02*
X0098950Y0168486D01*
X0098950Y0169484D02*
X0073726Y0169484D01*
X0072727Y0170483D02*
X0099772Y0170483D01*
X0100770Y0171481D02*
X0071729Y0171481D01*
X0070730Y0172480D02*
X0117269Y0172480D01*
X0118267Y0173478D02*
X0069732Y0173478D01*
X0068733Y0174477D02*
X0119266Y0174477D01*
X0119865Y0175475D02*
X0067735Y0175475D01*
X0061736Y0176474D02*
X0119865Y0176474D01*
X0119865Y0177472D02*
X0060738Y0177472D01*
X0059739Y0178471D02*
X0119865Y0178471D01*
X0126750Y0179415D02*
X0126750Y0171915D01*
X0130250Y0168415D01*
X0130250Y0163415D01*
X0135500Y0158165D01*
X0135500Y0092165D01*
X0127250Y0083915D01*
X0127250Y0071415D01*
X0129750Y0068915D01*
X0132250Y0071415D01*
X0136250Y0073915D02*
X0136250Y0085415D01*
X0132750Y0086415D02*
X0138250Y0091915D01*
X0138250Y0159415D01*
X0132250Y0157419D02*
X0132250Y0099915D01*
X0127250Y0094915D01*
X0111250Y0094915D01*
X0112250Y0093915D01*
X0114816Y0092599D02*
X0133388Y0092599D01*
X0133700Y0093598D02*
X0128478Y0093598D01*
X0129476Y0094596D02*
X0133700Y0094596D01*
X0133700Y0095595D02*
X0130475Y0095595D01*
X0131473Y0096593D02*
X0133700Y0096593D01*
X0133700Y0097592D02*
X0132472Y0097592D01*
X0133470Y0098590D02*
X0133700Y0098590D01*
X0130250Y0101415D02*
X0125750Y0096915D01*
X0105746Y0096915D01*
X0104748Y0097913D01*
X0103750Y0101415D02*
X0100250Y0097915D01*
X0099188Y0100587D02*
X0097550Y0100587D01*
X0097550Y0099589D02*
X0097857Y0099589D01*
X0097812Y0099544D02*
X0097550Y0098909D01*
X0097550Y0104161D01*
X0088495Y0113215D01*
X0086495Y0113215D01*
X0071125Y0128586D01*
X0071125Y0129044D01*
X0073495Y0131415D01*
X0073495Y0131415D01*
X0074550Y0132469D01*
X0074550Y0149615D01*
X0099995Y0149615D01*
X0101495Y0151115D01*
X0102550Y0152169D01*
X0102550Y0160559D01*
X0107560Y0160559D01*
X0110950Y0157169D01*
X0112004Y0156115D01*
X0124004Y0156115D01*
X0126450Y0153669D01*
X0126450Y0103661D01*
X0123504Y0100715D01*
X0108995Y0100715D01*
X0107550Y0102161D01*
X0106495Y0103215D01*
X0103004Y0103215D01*
X0100579Y0100790D01*
X0099678Y0100790D01*
X0098621Y0100352D01*
X0097812Y0099544D01*
X0097550Y0101586D02*
X0101375Y0101586D01*
X0102373Y0102584D02*
X0097550Y0102584D01*
X0097550Y0103583D02*
X0126372Y0103583D01*
X0126450Y0104581D02*
X0097129Y0104581D01*
X0096131Y0105580D02*
X0126450Y0105580D01*
X0126450Y0106578D02*
X0095132Y0106578D01*
X0094134Y0107577D02*
X0126450Y0107577D01*
X0126450Y0108575D02*
X0093135Y0108575D01*
X0092137Y0109574D02*
X0126450Y0109574D01*
X0126450Y0110572D02*
X0091138Y0110572D01*
X0090140Y0111571D02*
X0126450Y0111571D01*
X0126450Y0112569D02*
X0089141Y0112569D01*
X0086143Y0113568D02*
X0126450Y0113568D01*
X0126450Y0114566D02*
X0085144Y0114566D01*
X0084146Y0115565D02*
X0126450Y0115565D01*
X0126450Y0116563D02*
X0083147Y0116563D01*
X0082149Y0117562D02*
X0126450Y0117562D01*
X0126450Y0118560D02*
X0081150Y0118560D01*
X0080152Y0119559D02*
X0126450Y0119559D01*
X0126450Y0120557D02*
X0079153Y0120557D01*
X0078154Y0121556D02*
X0126450Y0121556D01*
X0126450Y0122554D02*
X0077156Y0122554D01*
X0076157Y0123553D02*
X0126450Y0123553D01*
X0126450Y0124551D02*
X0075159Y0124551D01*
X0074160Y0125550D02*
X0126450Y0125550D01*
X0126450Y0126548D02*
X0073162Y0126548D01*
X0072163Y0127547D02*
X0126450Y0127547D01*
X0126450Y0128545D02*
X0071165Y0128545D01*
X0071624Y0129544D02*
X0126450Y0129544D01*
X0126450Y0130542D02*
X0072623Y0130542D01*
X0073621Y0131541D02*
X0126450Y0131541D01*
X0126450Y0132539D02*
X0074550Y0132539D01*
X0074550Y0133538D02*
X0126450Y0133538D01*
X0126450Y0134536D02*
X0074550Y0134536D01*
X0074550Y0135535D02*
X0126450Y0135535D01*
X0126450Y0136534D02*
X0074550Y0136534D01*
X0074550Y0137532D02*
X0126450Y0137532D01*
X0126450Y0138531D02*
X0074550Y0138531D01*
X0074550Y0139529D02*
X0126450Y0139529D01*
X0126450Y0140528D02*
X0074550Y0140528D01*
X0074550Y0141526D02*
X0126450Y0141526D01*
X0126450Y0142525D02*
X0074550Y0142525D01*
X0074550Y0143523D02*
X0126450Y0143523D01*
X0126450Y0144522D02*
X0074550Y0144522D01*
X0074550Y0145520D02*
X0126450Y0145520D01*
X0126450Y0146519D02*
X0074550Y0146519D01*
X0074550Y0147517D02*
X0126450Y0147517D01*
X0126450Y0148516D02*
X0074550Y0148516D01*
X0074550Y0149514D02*
X0126450Y0149514D01*
X0126450Y0150513D02*
X0100893Y0150513D01*
X0101891Y0151511D02*
X0126450Y0151511D01*
X0126450Y0152510D02*
X0102550Y0152510D01*
X0102550Y0153508D02*
X0126450Y0153508D01*
X0125612Y0154507D02*
X0102550Y0154507D01*
X0102550Y0155505D02*
X0124614Y0155505D01*
X0124750Y0157915D02*
X0128250Y0154415D01*
X0128250Y0102915D01*
X0124250Y0098915D01*
X0108250Y0098915D01*
X0105750Y0101415D01*
X0103750Y0101415D01*
X0107126Y0102584D02*
X0125373Y0102584D01*
X0124375Y0101586D02*
X0108125Y0101586D01*
X0114001Y0091601D02*
X0132390Y0091601D01*
X0131391Y0090602D02*
X0113608Y0090602D01*
X0114607Y0089603D02*
X0130393Y0089603D01*
X0132750Y0086415D02*
X0132750Y0081915D01*
X0136250Y0073915D02*
X0137250Y0072915D01*
X0137250Y0064415D01*
X0141750Y0059915D01*
X0141750Y0047915D01*
X0133750Y0039915D01*
X0133750Y0035415D01*
X0138750Y0030415D01*
X0129750Y0032415D02*
X0128750Y0031415D01*
X0128750Y0030415D01*
X0129750Y0032415D02*
X0129750Y0038915D01*
X0139750Y0048915D01*
X0139750Y0058915D01*
X0129750Y0068915D01*
X0129481Y0066638D02*
X0128722Y0066638D01*
X0128722Y0065639D02*
X0130480Y0065639D01*
X0131478Y0064641D02*
X0128722Y0064641D01*
X0125163Y0062644D02*
X0124163Y0062644D01*
X0124163Y0061645D02*
X0125163Y0061645D01*
X0125163Y0060647D02*
X0124163Y0060647D01*
X0124163Y0059648D02*
X0125163Y0059648D01*
X0121550Y0058650D02*
X0132918Y0058650D01*
X0132150Y0057651D02*
X0121550Y0057651D01*
X0121550Y0056653D02*
X0131875Y0056653D01*
X0131443Y0055654D02*
X0121550Y0055654D01*
X0121036Y0054656D02*
X0130445Y0054656D01*
X0129446Y0053657D02*
X0120037Y0053657D01*
X0119039Y0052659D02*
X0128448Y0052659D01*
X0127449Y0051660D02*
X0118125Y0051660D01*
X0117842Y0050662D02*
X0126451Y0050662D01*
X0125452Y0049663D02*
X0117064Y0049663D01*
X0115750Y0051915D02*
X0119750Y0055915D01*
X0119750Y0084415D01*
X0117250Y0086915D01*
X0116750Y0082915D02*
X0114250Y0082915D01*
X0107250Y0089915D01*
X0100250Y0089915D01*
X0096750Y0093415D01*
X0094750Y0093415D01*
X0093750Y0094415D01*
X0093750Y0102415D01*
X0087250Y0108915D01*
X0085250Y0108915D01*
X0069750Y0124415D01*
X0068250Y0124415D01*
X0065250Y0127415D01*
X0065250Y0129915D01*
X0067750Y0132415D01*
X0067750Y0136415D01*
X0070399Y0137532D02*
X0070950Y0137532D01*
X0070950Y0136534D02*
X0070625Y0136534D01*
X0070497Y0135535D02*
X0070950Y0135535D01*
X0070950Y0134536D02*
X0069937Y0134536D01*
X0069550Y0133538D02*
X0070527Y0133538D01*
X0065950Y0133538D02*
X0025750Y0133538D01*
X0025750Y0134536D02*
X0065562Y0134536D01*
X0065002Y0135535D02*
X0025750Y0135535D01*
X0025750Y0136534D02*
X0064875Y0136534D01*
X0065100Y0137532D02*
X0025750Y0137532D01*
X0025750Y0138531D02*
X0065799Y0138531D01*
X0069700Y0138531D02*
X0070950Y0138531D01*
X0070950Y0139529D02*
X0025750Y0139529D01*
X0025750Y0140528D02*
X0070950Y0140528D01*
X0070950Y0141526D02*
X0025750Y0141526D01*
X0025750Y0142525D02*
X0070950Y0142525D01*
X0070950Y0143523D02*
X0025750Y0143523D01*
X0025750Y0144522D02*
X0070950Y0144522D01*
X0070950Y0145520D02*
X0025750Y0145520D01*
X0025750Y0146519D02*
X0070950Y0146519D01*
X0070950Y0147517D02*
X0025750Y0147517D01*
X0025750Y0132539D02*
X0039366Y0132539D01*
X0039456Y0132600D02*
X0038821Y0132175D01*
X0038281Y0131635D01*
X0037856Y0131000D01*
X0037564Y0130294D01*
X0037415Y0129545D01*
X0037415Y0124596D01*
X0041104Y0124596D01*
X0041104Y0133041D01*
X0040911Y0133041D01*
X0040162Y0132892D01*
X0039456Y0132600D01*
X0038218Y0131541D02*
X0036281Y0131541D01*
X0036691Y0130542D02*
X0037667Y0130542D01*
X0037415Y0129544D02*
X0036691Y0129544D01*
X0036691Y0128545D02*
X0037415Y0128545D01*
X0037415Y0127547D02*
X0036691Y0127547D01*
X0036691Y0126548D02*
X0037415Y0126548D01*
X0037415Y0125550D02*
X0033944Y0125550D01*
X0036691Y0124551D02*
X0041104Y0124551D01*
X0041482Y0124551D02*
X0060875Y0124551D01*
X0060995Y0123553D02*
X0045077Y0123553D01*
X0044719Y0122554D02*
X0061545Y0122554D01*
X0063140Y0121556D02*
X0043926Y0121556D01*
X0041816Y0120557D02*
X0065062Y0120557D01*
X0066108Y0122057D02*
X0063750Y0124415D01*
X0061108Y0125550D02*
X0045171Y0125550D01*
X0045171Y0126548D02*
X0061817Y0126548D01*
X0063450Y0127547D02*
X0045171Y0127547D01*
X0045171Y0128545D02*
X0063450Y0128545D01*
X0063450Y0129544D02*
X0045171Y0129544D01*
X0044919Y0130542D02*
X0063450Y0130542D01*
X0064330Y0131541D02*
X0044368Y0131541D01*
X0043220Y0132539D02*
X0065329Y0132539D01*
X0066108Y0122057D02*
X0069004Y0122057D01*
X0085146Y0105915D01*
X0087250Y0105915D01*
X0091750Y0101415D01*
X0091750Y0092415D01*
X0092750Y0091415D01*
X0095750Y0091415D01*
X0099250Y0087915D01*
X0105250Y0087915D01*
X0109750Y0083415D01*
X0109750Y0060415D01*
X0111750Y0058415D01*
X0111750Y0047415D01*
X0112250Y0046915D01*
X0125250Y0046915D01*
X0134750Y0056415D01*
X0143750Y0062915D02*
X0143750Y0044915D01*
X0140750Y0041915D01*
X0127967Y0039678D02*
X0107558Y0039678D01*
X0110250Y0037415D02*
X0094250Y0037415D01*
X0092250Y0035415D01*
X0075750Y0035415D01*
X0070750Y0030415D01*
X0068750Y0030415D01*
X0073750Y0041415D02*
X0050250Y0064915D01*
X0050250Y0071415D01*
X0052859Y0072629D02*
X0068950Y0072629D01*
X0068950Y0073627D02*
X0052103Y0073627D01*
X0053125Y0071630D02*
X0059563Y0071630D01*
X0059789Y0071856D02*
X0058647Y0070714D01*
X0058029Y0069222D01*
X0058029Y0067608D01*
X0058647Y0066116D01*
X0059789Y0064974D01*
X0061281Y0064356D01*
X0062896Y0064356D01*
X0064388Y0064974D01*
X0065529Y0066116D01*
X0066147Y0067608D01*
X0066147Y0069222D01*
X0065529Y0070714D01*
X0064388Y0071856D01*
X0062896Y0072474D01*
X0061281Y0072474D01*
X0059789Y0071856D01*
X0058613Y0070632D02*
X0053037Y0070632D01*
X0052534Y0069633D02*
X0058199Y0069633D01*
X0058029Y0068635D02*
X0052050Y0068635D01*
X0052050Y0067636D02*
X0058029Y0067636D01*
X0058431Y0066638D02*
X0052050Y0066638D01*
X0052071Y0065639D02*
X0059124Y0065639D01*
X0060594Y0064641D02*
X0053070Y0064641D01*
X0054068Y0063642D02*
X0097450Y0063642D01*
X0097450Y0062644D02*
X0055067Y0062644D01*
X0056065Y0061645D02*
X0097450Y0061645D01*
X0097450Y0060647D02*
X0057064Y0060647D01*
X0058062Y0059648D02*
X0097450Y0059648D01*
X0097450Y0058650D02*
X0059061Y0058650D01*
X0060059Y0057651D02*
X0097450Y0057651D01*
X0097450Y0056653D02*
X0061058Y0056653D01*
X0062056Y0055654D02*
X0096943Y0055654D01*
X0095945Y0054656D02*
X0063055Y0054656D01*
X0064053Y0053657D02*
X0094946Y0053657D01*
X0093948Y0052659D02*
X0065052Y0052659D01*
X0066050Y0051660D02*
X0092949Y0051660D01*
X0091951Y0050662D02*
X0067049Y0050662D01*
X0068047Y0049663D02*
X0090952Y0049663D01*
X0093048Y0046667D02*
X0094497Y0046667D01*
X0094150Y0045669D02*
X0093350Y0045669D01*
X0093350Y0044670D02*
X0094150Y0044670D01*
X0094286Y0043672D02*
X0093214Y0043672D01*
X0092800Y0042673D02*
X0094699Y0042673D01*
X0095484Y0041675D02*
X0092015Y0041675D01*
X0088750Y0044915D02*
X0099250Y0055415D01*
X0099250Y0084915D01*
X0097450Y0082614D02*
X0073994Y0082614D01*
X0072996Y0081615D02*
X0097450Y0081615D01*
X0097450Y0080617D02*
X0072550Y0080617D01*
X0072550Y0079618D02*
X0097450Y0079618D01*
X0097450Y0078620D02*
X0072550Y0078620D01*
X0072550Y0077621D02*
X0097450Y0077621D01*
X0097450Y0076623D02*
X0072550Y0076623D01*
X0072550Y0075624D02*
X0097450Y0075624D01*
X0097450Y0074626D02*
X0072550Y0074626D01*
X0072550Y0073627D02*
X0097450Y0073627D01*
X0097450Y0072629D02*
X0072550Y0072629D01*
X0072550Y0071630D02*
X0097450Y0071630D01*
X0097450Y0070632D02*
X0073099Y0070632D01*
X0073564Y0069633D02*
X0097450Y0069633D01*
X0097450Y0068635D02*
X0073625Y0068635D01*
X0073332Y0067636D02*
X0097450Y0067636D01*
X0097450Y0066638D02*
X0072538Y0066638D01*
X0070750Y0068915D02*
X0070750Y0081915D01*
X0079750Y0090915D01*
X0083750Y0090915D01*
X0085505Y0088605D02*
X0085550Y0088605D01*
X0086154Y0087606D02*
X0078987Y0087606D01*
X0077988Y0086608D02*
X0087153Y0086608D01*
X0088151Y0085609D02*
X0076990Y0085609D01*
X0075991Y0084611D02*
X0089150Y0084611D01*
X0090148Y0083612D02*
X0074993Y0083612D01*
X0072897Y0086608D02*
X0058988Y0086608D01*
X0057990Y0085609D02*
X0071899Y0085609D01*
X0070900Y0084611D02*
X0056991Y0084611D01*
X0055750Y0085915D02*
X0071250Y0101415D01*
X0084750Y0101415D01*
X0088750Y0097415D01*
X0088123Y0100587D02*
X0089950Y0100587D01*
X0089034Y0101586D02*
X0087125Y0101586D01*
X0088035Y0102584D02*
X0086126Y0102584D01*
X0087037Y0103583D02*
X0069350Y0103583D01*
X0069350Y0103500D02*
X0068649Y0101809D01*
X0067355Y0100515D01*
X0065665Y0099815D01*
X0063835Y0099815D01*
X0062144Y0100515D01*
X0060850Y0101809D01*
X0060150Y0103500D01*
X0060150Y0105330D01*
X0060850Y0107021D01*
X0062144Y0108315D01*
X0063835Y0109015D01*
X0065665Y0109015D01*
X0067355Y0108315D01*
X0068649Y0107021D01*
X0069350Y0105330D01*
X0069350Y0103500D01*
X0068970Y0102584D02*
X0069873Y0102584D01*
X0068875Y0101586D02*
X0068426Y0101586D01*
X0067876Y0100587D02*
X0067427Y0100587D01*
X0066878Y0099589D02*
X0052194Y0099589D01*
X0052855Y0099315D02*
X0051165Y0100015D01*
X0049335Y0100015D01*
X0047644Y0099315D01*
X0046350Y0098021D01*
X0045650Y0096330D01*
X0045650Y0094500D01*
X0046350Y0092809D01*
X0047644Y0091515D01*
X0049335Y0090815D01*
X0051165Y0090815D01*
X0052855Y0091515D01*
X0054149Y0092809D01*
X0054850Y0094500D01*
X0054850Y0096330D01*
X0054149Y0098021D01*
X0052855Y0099315D01*
X0053580Y0098590D02*
X0065879Y0098590D01*
X0064881Y0097592D02*
X0054327Y0097592D01*
X0054741Y0096593D02*
X0063882Y0096593D01*
X0062884Y0095595D02*
X0054850Y0095595D01*
X0054850Y0094596D02*
X0061885Y0094596D01*
X0060887Y0093598D02*
X0054476Y0093598D01*
X0053939Y0092599D02*
X0059888Y0092599D01*
X0058890Y0091601D02*
X0052941Y0091601D01*
X0055894Y0088605D02*
X0025750Y0088605D01*
X0025750Y0089603D02*
X0056893Y0089603D01*
X0057891Y0090602D02*
X0043686Y0090602D01*
X0043765Y0090655D02*
X0044305Y0091195D01*
X0044730Y0091830D01*
X0045022Y0092536D01*
X0045171Y0093285D01*
X0045171Y0098234D01*
X0041482Y0098234D01*
X0041482Y0098612D01*
X0041104Y0098612D01*
X0041104Y0098234D01*
X0037415Y0098234D01*
X0037415Y0093285D01*
X0037564Y0092536D01*
X0037856Y0091830D01*
X0038281Y0091195D01*
X0038821Y0090655D01*
X0039456Y0090230D01*
X0040162Y0089938D01*
X0040911Y0089789D01*
X0041104Y0089789D01*
X0041104Y0098234D01*
X0041482Y0098234D01*
X0041482Y0089789D01*
X0041675Y0089789D01*
X0042424Y0089938D01*
X0043130Y0090230D01*
X0043765Y0090655D01*
X0044576Y0091601D02*
X0047559Y0091601D01*
X0046560Y0092599D02*
X0045034Y0092599D01*
X0045171Y0093598D02*
X0046024Y0093598D01*
X0045650Y0094596D02*
X0045171Y0094596D01*
X0045171Y0095595D02*
X0045650Y0095595D01*
X0045759Y0096593D02*
X0045171Y0096593D01*
X0045171Y0097592D02*
X0046172Y0097592D01*
X0046919Y0098590D02*
X0041482Y0098590D01*
X0041482Y0098612D02*
X0045171Y0098612D01*
X0045171Y0098805D01*
X0045022Y0099554D01*
X0044730Y0100260D01*
X0044305Y0100895D01*
X0043765Y0101435D01*
X0043130Y0101860D01*
X0042424Y0102152D01*
X0041675Y0102301D01*
X0041482Y0102301D01*
X0041482Y0098612D01*
X0041104Y0098590D02*
X0036691Y0098590D01*
X0036691Y0097592D02*
X0037415Y0097592D01*
X0037415Y0096593D02*
X0036691Y0096593D01*
X0036691Y0095595D02*
X0037415Y0095595D01*
X0037415Y0094596D02*
X0036691Y0094596D01*
X0036691Y0093598D02*
X0037415Y0093598D01*
X0037552Y0092599D02*
X0036691Y0092599D01*
X0036507Y0091601D02*
X0038010Y0091601D01*
X0038900Y0090602D02*
X0025750Y0090602D01*
X0025750Y0087606D02*
X0041896Y0087606D01*
X0040897Y0086608D02*
X0025750Y0086608D01*
X0025750Y0085609D02*
X0039899Y0085609D01*
X0038900Y0084611D02*
X0025750Y0084611D01*
X0025750Y0083612D02*
X0037901Y0083612D01*
X0036903Y0082614D02*
X0025750Y0082614D01*
X0025750Y0081615D02*
X0035904Y0081615D01*
X0034906Y0080617D02*
X0029583Y0080617D01*
X0030164Y0079618D02*
X0033907Y0079618D01*
X0032909Y0078620D02*
X0030250Y0078620D01*
X0030250Y0077621D02*
X0031910Y0077621D01*
X0030912Y0076623D02*
X0030250Y0076623D01*
X0031750Y0074915D02*
X0031750Y0068415D01*
X0034357Y0069633D02*
X0047966Y0069633D01*
X0048450Y0068635D02*
X0034625Y0068635D01*
X0034539Y0067636D02*
X0039306Y0067636D01*
X0037907Y0066638D02*
X0034038Y0066638D01*
X0032561Y0065639D02*
X0037438Y0065639D01*
X0037375Y0064641D02*
X0030250Y0064641D01*
X0030250Y0065639D02*
X0030938Y0065639D01*
X0030250Y0063642D02*
X0037665Y0063642D01*
X0038455Y0062644D02*
X0030250Y0062644D01*
X0030250Y0061645D02*
X0039950Y0061645D01*
X0039950Y0060647D02*
X0030250Y0060647D01*
X0030250Y0059648D02*
X0039950Y0059648D01*
X0039950Y0058650D02*
X0030250Y0058650D01*
X0030250Y0057651D02*
X0039950Y0057651D01*
X0039950Y0056653D02*
X0029933Y0056653D01*
X0028824Y0055654D02*
X0039950Y0055654D01*
X0039950Y0054656D02*
X0025750Y0054656D01*
X0025750Y0053657D02*
X0039950Y0053657D01*
X0039950Y0052659D02*
X0025750Y0052659D01*
X0025750Y0051660D02*
X0039950Y0051660D01*
X0039950Y0050662D02*
X0025750Y0050662D01*
X0025750Y0049663D02*
X0039950Y0049663D01*
X0039950Y0048665D02*
X0025750Y0048665D01*
X0025750Y0047666D02*
X0039950Y0047666D01*
X0039952Y0046667D02*
X0025750Y0046667D01*
X0025750Y0045669D02*
X0040950Y0045669D01*
X0041949Y0044670D02*
X0025750Y0044670D01*
X0025750Y0043672D02*
X0042947Y0043672D01*
X0063583Y0064641D02*
X0097450Y0064641D01*
X0097450Y0065639D02*
X0065053Y0065639D01*
X0065746Y0066638D02*
X0068961Y0066638D01*
X0068168Y0067636D02*
X0066147Y0067636D01*
X0066147Y0068635D02*
X0067875Y0068635D01*
X0067935Y0069633D02*
X0065977Y0069633D01*
X0065564Y0070632D02*
X0068401Y0070632D01*
X0068950Y0071630D02*
X0064613Y0071630D01*
X0068950Y0074626D02*
X0034006Y0074626D01*
X0033550Y0073627D02*
X0048396Y0073627D01*
X0047641Y0072629D02*
X0033550Y0072629D01*
X0033550Y0071630D02*
X0047375Y0071630D01*
X0047462Y0070632D02*
X0033599Y0070632D01*
X0031750Y0074915D02*
X0042750Y0085915D01*
X0055750Y0085915D01*
X0059987Y0087606D02*
X0073896Y0087606D01*
X0074894Y0088605D02*
X0060985Y0088605D01*
X0061984Y0089603D02*
X0075893Y0089603D01*
X0075497Y0090602D02*
X0062982Y0090602D01*
X0063981Y0091601D02*
X0074682Y0091601D01*
X0074375Y0092599D02*
X0064979Y0092599D01*
X0065978Y0093598D02*
X0074421Y0093598D01*
X0074865Y0094596D02*
X0066976Y0094596D01*
X0067975Y0095595D02*
X0076004Y0095595D01*
X0075478Y0096593D02*
X0068973Y0096593D01*
X0069972Y0097592D02*
X0075375Y0097592D01*
X0075625Y0098590D02*
X0070970Y0098590D01*
X0071969Y0099589D02*
X0076357Y0099589D01*
X0078250Y0097415D02*
X0083750Y0097415D01*
X0092750Y0088415D01*
X0094250Y0088415D01*
X0103750Y0084915D02*
X0104663Y0084002D01*
X0104663Y0063825D01*
X0101378Y0059648D02*
X0101050Y0059648D01*
X0101050Y0058650D02*
X0108970Y0058650D01*
X0109950Y0057651D02*
X0101050Y0057651D01*
X0101050Y0056653D02*
X0109950Y0056653D01*
X0109950Y0055654D02*
X0101050Y0055654D01*
X0101036Y0054656D02*
X0109950Y0054656D01*
X0109950Y0053657D02*
X0100037Y0053657D01*
X0099039Y0052659D02*
X0109950Y0052659D01*
X0109950Y0051660D02*
X0098040Y0051660D01*
X0097042Y0050662D02*
X0109950Y0050662D01*
X0109950Y0049663D02*
X0096043Y0049663D01*
X0095994Y0048665D02*
X0095045Y0048665D01*
X0094995Y0047666D02*
X0094046Y0047666D01*
X0101506Y0048665D02*
X0109950Y0048665D01*
X0109950Y0047666D02*
X0102504Y0047666D01*
X0103003Y0046667D02*
X0109952Y0046667D01*
X0109114Y0045669D02*
X0110950Y0045669D01*
X0107386Y0045669D02*
X0103350Y0045669D01*
X0103350Y0044670D02*
X0105939Y0044670D01*
X0105451Y0043672D02*
X0103214Y0043672D01*
X0102800Y0042673D02*
X0105375Y0042673D01*
X0104464Y0041675D02*
X0102015Y0041675D01*
X0099665Y0035015D02*
X0097835Y0035015D01*
X0096144Y0034315D01*
X0094850Y0033021D01*
X0094150Y0031330D01*
X0094150Y0029500D01*
X0094850Y0027809D01*
X0096144Y0026515D01*
X0097593Y0025915D01*
X0090931Y0025915D01*
X0091370Y0026139D01*
X0092007Y0026601D01*
X0092563Y0027158D01*
X0093026Y0027794D01*
X0093383Y0028496D01*
X0093627Y0029244D01*
X0093733Y0029915D01*
X0089250Y0029915D01*
X0089250Y0030915D01*
X0093733Y0030915D01*
X0093627Y0031586D01*
X0093383Y0032334D01*
X0093026Y0033036D01*
X0092605Y0033615D01*
X0092995Y0033615D01*
X0094050Y0034669D01*
X0094995Y0035615D01*
X0109504Y0035615D01*
X0109950Y0035169D01*
X0110415Y0034704D01*
X0109665Y0035015D01*
X0107835Y0035015D01*
X0106144Y0034315D01*
X0104850Y0033021D01*
X0104150Y0031330D01*
X0104150Y0029500D01*
X0104850Y0027809D01*
X0106144Y0026515D01*
X0107593Y0025915D01*
X0099906Y0025915D01*
X0101355Y0026515D01*
X0102649Y0027809D01*
X0103350Y0029500D01*
X0103350Y0031330D01*
X0102649Y0033021D01*
X0101355Y0034315D01*
X0099665Y0035015D01*
X0100461Y0034685D02*
X0107039Y0034685D01*
X0105516Y0033687D02*
X0101983Y0033687D01*
X0102787Y0032688D02*
X0104712Y0032688D01*
X0104299Y0031690D02*
X0103201Y0031690D01*
X0103350Y0030691D02*
X0104150Y0030691D01*
X0104150Y0029693D02*
X0103350Y0029693D01*
X0103016Y0028694D02*
X0104483Y0028694D01*
X0104964Y0027696D02*
X0102536Y0027696D01*
X0101537Y0026697D02*
X0105962Y0026697D01*
X0095962Y0026697D02*
X0092103Y0026697D01*
X0092954Y0027696D02*
X0094964Y0027696D01*
X0094483Y0028694D02*
X0093448Y0028694D01*
X0093698Y0029693D02*
X0094150Y0029693D01*
X0094150Y0030691D02*
X0089250Y0030691D01*
X0088250Y0030691D02*
X0083350Y0030691D01*
X0083767Y0030915D02*
X0088250Y0030915D01*
X0088250Y0029915D01*
X0083767Y0029915D01*
X0083873Y0029244D01*
X0084116Y0028496D01*
X0084473Y0027794D01*
X0084936Y0027158D01*
X0085492Y0026601D01*
X0086129Y0026139D01*
X0086568Y0025915D01*
X0079906Y0025915D01*
X0081355Y0026515D01*
X0082649Y0027809D01*
X0083350Y0029500D01*
X0083350Y0031330D01*
X0082649Y0033021D01*
X0082055Y0033615D01*
X0084894Y0033615D01*
X0084473Y0033036D01*
X0084116Y0032334D01*
X0083873Y0031586D01*
X0083767Y0030915D01*
X0083907Y0031690D02*
X0083201Y0031690D01*
X0082787Y0032688D02*
X0084296Y0032688D01*
X0083802Y0029693D02*
X0083350Y0029693D01*
X0083016Y0028694D02*
X0084051Y0028694D01*
X0084545Y0027696D02*
X0082536Y0027696D01*
X0081537Y0026697D02*
X0085396Y0026697D01*
X0093593Y0031690D02*
X0094299Y0031690D01*
X0094712Y0032688D02*
X0093203Y0032688D01*
X0093067Y0033687D02*
X0095516Y0033687D01*
X0094066Y0034685D02*
X0097039Y0034685D01*
X0084150Y0044670D02*
X0073040Y0044670D01*
X0074038Y0043672D02*
X0081441Y0043672D01*
X0083250Y0041415D02*
X0073750Y0041415D01*
X0072041Y0045669D02*
X0084150Y0045669D01*
X0084497Y0046667D02*
X0071043Y0046667D01*
X0070044Y0047666D02*
X0084995Y0047666D01*
X0085994Y0048665D02*
X0069046Y0048665D01*
X0068950Y0075624D02*
X0035005Y0075624D01*
X0036003Y0076623D02*
X0068950Y0076623D01*
X0068950Y0077621D02*
X0037002Y0077621D01*
X0038000Y0078620D02*
X0068950Y0078620D01*
X0068950Y0079618D02*
X0038999Y0079618D01*
X0039997Y0080617D02*
X0068950Y0080617D01*
X0068950Y0081615D02*
X0040996Y0081615D01*
X0041994Y0082614D02*
X0068950Y0082614D01*
X0069901Y0083612D02*
X0042993Y0083612D01*
X0041482Y0090602D02*
X0041104Y0090602D01*
X0041104Y0091601D02*
X0041482Y0091601D01*
X0041482Y0092599D02*
X0041104Y0092599D01*
X0041104Y0093598D02*
X0041482Y0093598D01*
X0041482Y0094596D02*
X0041104Y0094596D01*
X0041104Y0095595D02*
X0041482Y0095595D01*
X0041482Y0096593D02*
X0041104Y0096593D01*
X0041104Y0097592D02*
X0041482Y0097592D01*
X0041482Y0099589D02*
X0041104Y0099589D01*
X0041104Y0100587D02*
X0041482Y0100587D01*
X0041482Y0101586D02*
X0041104Y0101586D01*
X0040387Y0102584D02*
X0060529Y0102584D01*
X0060150Y0103583D02*
X0040628Y0103583D01*
X0040515Y0104581D02*
X0060150Y0104581D01*
X0060253Y0105580D02*
X0039978Y0105580D01*
X0038413Y0106578D02*
X0060667Y0106578D01*
X0061406Y0107577D02*
X0025750Y0107577D01*
X0025750Y0108575D02*
X0062773Y0108575D01*
X0066727Y0108575D02*
X0079940Y0108575D01*
X0078942Y0109574D02*
X0025750Y0109574D01*
X0025750Y0110572D02*
X0077943Y0110572D01*
X0076945Y0111571D02*
X0025750Y0111571D01*
X0025750Y0112569D02*
X0075946Y0112569D01*
X0074948Y0113568D02*
X0025750Y0113568D01*
X0025750Y0114566D02*
X0073949Y0114566D01*
X0072951Y0115565D02*
X0025750Y0115565D01*
X0025750Y0116563D02*
X0036335Y0116563D01*
X0035269Y0117562D02*
X0025750Y0117562D01*
X0025750Y0118560D02*
X0034872Y0118560D01*
X0039165Y0116563D02*
X0071952Y0116563D01*
X0070954Y0117562D02*
X0040231Y0117562D01*
X0040628Y0118560D02*
X0069955Y0118560D01*
X0068957Y0119559D02*
X0040628Y0119559D01*
X0040770Y0120557D02*
X0040258Y0120557D01*
X0041104Y0120557D02*
X0041482Y0120557D01*
X0041482Y0121556D02*
X0041104Y0121556D01*
X0041104Y0122554D02*
X0041482Y0122554D01*
X0041482Y0123553D02*
X0041104Y0123553D01*
X0041104Y0125550D02*
X0041482Y0125550D01*
X0041482Y0126548D02*
X0041104Y0126548D01*
X0041104Y0127547D02*
X0041482Y0127547D01*
X0041482Y0128545D02*
X0041104Y0128545D01*
X0041104Y0129544D02*
X0041482Y0129544D01*
X0041482Y0130542D02*
X0041104Y0130542D01*
X0041104Y0131541D02*
X0041482Y0131541D01*
X0041482Y0132539D02*
X0041104Y0132539D01*
X0037509Y0123553D02*
X0036691Y0123553D01*
X0036691Y0122554D02*
X0037867Y0122554D01*
X0030360Y0122554D02*
X0030179Y0122554D01*
X0030179Y0121556D02*
X0030360Y0121556D01*
X0030360Y0120557D02*
X0030179Y0120557D01*
X0030179Y0119559D02*
X0030360Y0119559D01*
X0030360Y0128545D02*
X0030179Y0128545D01*
X0030179Y0129544D02*
X0030360Y0129544D01*
X0030360Y0130542D02*
X0030179Y0130542D01*
X0030179Y0131541D02*
X0030360Y0131541D01*
X0025750Y0106578D02*
X0037086Y0106578D01*
X0035521Y0105580D02*
X0025750Y0105580D01*
X0025750Y0104581D02*
X0034984Y0104581D01*
X0036691Y0100587D02*
X0038075Y0100587D01*
X0037578Y0099589D02*
X0036691Y0099589D01*
X0030360Y0100587D02*
X0030179Y0100587D01*
X0030179Y0101586D02*
X0030360Y0101586D01*
X0030360Y0102584D02*
X0030179Y0102584D01*
X0030179Y0103583D02*
X0030360Y0103583D01*
X0030360Y0093598D02*
X0030179Y0093598D01*
X0030179Y0092599D02*
X0030360Y0092599D01*
X0030360Y0091601D02*
X0030179Y0091601D01*
X0043540Y0101586D02*
X0061074Y0101586D01*
X0062072Y0100587D02*
X0044511Y0100587D01*
X0045008Y0099589D02*
X0048305Y0099589D01*
X0068093Y0107577D02*
X0080939Y0107577D01*
X0081937Y0106578D02*
X0068833Y0106578D01*
X0069246Y0105580D02*
X0082936Y0105580D01*
X0083934Y0104581D02*
X0069350Y0104581D01*
X0079985Y0088605D02*
X0081994Y0088605D01*
X0107948Y0059648D02*
X0107971Y0059648D01*
X0115250Y0051915D02*
X0115750Y0051915D01*
X0111531Y0038679D02*
X0122911Y0038679D01*
X0124589Y0038679D02*
X0127950Y0038679D01*
X0127950Y0037681D02*
X0126050Y0037681D01*
X0126544Y0036682D02*
X0127950Y0036682D01*
X0127950Y0035684D02*
X0126625Y0035684D01*
X0126352Y0034685D02*
X0127039Y0034685D01*
X0123750Y0035915D02*
X0111750Y0035915D01*
X0110250Y0037415D01*
X0140250Y0066415D02*
X0141250Y0065415D01*
X0140250Y0066415D02*
X0140250Y0087915D01*
X0143750Y0080415D02*
X0143750Y0067415D01*
X0144250Y0066915D01*
X0144250Y0063415D01*
X0143750Y0062915D01*
X0166750Y0079230D02*
X0166750Y0123730D01*
X0160750Y0128730D02*
X0160750Y0086230D01*
X0190250Y0098730D02*
X0190250Y0099230D01*
X0190250Y0098730D02*
X0204750Y0098730D01*
X0209250Y0098730D02*
X0209250Y0116230D01*
X0197750Y0116230D01*
X0197750Y0115730D01*
X0182250Y0128730D02*
X0182250Y0175230D01*
X0197750Y0175230D02*
X0197750Y0142230D01*
X0205750Y0142230D02*
X0205750Y0175230D01*
X0225750Y0128730D02*
X0182250Y0128730D01*
X0209250Y0098730D02*
X0225750Y0098730D01*
X0225750Y0093730D01*
X0210250Y0088730D02*
X0197750Y0088730D01*
X0225750Y0123730D02*
X0225750Y0128730D01*
X0132250Y0157419D02*
X0124663Y0165006D01*
X0126250Y0159915D02*
X0120750Y0159915D01*
X0115659Y0165006D01*
X0114663Y0165006D01*
X0109618Y0158501D02*
X0102550Y0158501D01*
X0102550Y0159499D02*
X0108620Y0159499D01*
X0107621Y0160498D02*
X0102550Y0160498D01*
X0102550Y0157502D02*
X0110617Y0157502D01*
X0111615Y0156504D02*
X0102550Y0156504D01*
X0098950Y0156504D02*
X0076550Y0156504D01*
X0076550Y0157502D02*
X0098950Y0157502D01*
X0098950Y0158501D02*
X0076550Y0158501D01*
X0076550Y0159499D02*
X0098950Y0159499D01*
X0098950Y0155505D02*
X0076550Y0155505D01*
X0076550Y0154507D02*
X0098950Y0154507D01*
X0098797Y0153508D02*
X0076550Y0153508D01*
X0080922Y0181467D02*
X0092577Y0181467D01*
X0092250Y0182465D02*
X0081250Y0182465D01*
X0081250Y0183464D02*
X0092250Y0183464D01*
X0092250Y0184462D02*
X0081250Y0184462D01*
X0081250Y0185461D02*
X0092250Y0185461D01*
X0092250Y0186459D02*
X0081250Y0186459D01*
X0081250Y0187458D02*
X0092250Y0187458D01*
X0092250Y0188456D02*
X0081250Y0188456D01*
X0081250Y0189455D02*
X0092250Y0189455D01*
X0092250Y0191452D02*
X0081250Y0191452D01*
X0081250Y0192450D02*
X0092250Y0192450D01*
X0092250Y0193449D02*
X0081250Y0193449D01*
X0081250Y0194447D02*
X0092250Y0194447D01*
X0092250Y0195446D02*
X0081250Y0195446D01*
X0081250Y0196444D02*
X0092250Y0196444D01*
X0092250Y0197443D02*
X0081250Y0197443D01*
X0096250Y0188456D02*
X0097250Y0188456D01*
X0097250Y0187458D02*
X0096250Y0187458D01*
X0096250Y0186459D02*
X0097250Y0186459D01*
X0097250Y0185461D02*
X0096250Y0185461D01*
X0096250Y0184462D02*
X0097250Y0184462D01*
X0097250Y0183464D02*
X0096250Y0183464D01*
X0096250Y0182465D02*
X0097250Y0182465D01*
X0097250Y0181467D02*
X0096250Y0181467D01*
X0104663Y0165006D02*
X0105659Y0165006D01*
X0112750Y0157915D01*
X0124750Y0157915D01*
X0126250Y0159915D02*
X0130250Y0155915D01*
X0130250Y0101415D01*
D20*
X0140250Y0087915D02*
X0140250Y0159915D01*
X0136750Y0163415D01*
X0136750Y0164915D01*
X0133750Y0163915D02*
X0133750Y0166415D01*
X0135750Y0168415D01*
X0140750Y0168415D01*
X0140750Y0163915D02*
X0142250Y0162415D01*
X0142250Y0081915D01*
X0143750Y0080415D01*
X0099250Y0084915D02*
X0091250Y0084915D01*
X0087250Y0088915D01*
X0087250Y0091415D01*
X0084750Y0093915D01*
X0078250Y0093915D01*
X0077250Y0092915D01*
X0138250Y0159415D02*
X0133750Y0163915D01*
D21*
X0150250Y0129230D03*
X0160750Y0128730D03*
X0166750Y0123730D03*
X0190250Y0099230D03*
X0197750Y0088730D03*
X0204750Y0098730D03*
X0210250Y0088730D03*
X0197750Y0115730D03*
X0197750Y0142230D03*
X0205750Y0142230D03*
X0205750Y0175230D03*
X0197750Y0175230D03*
X0182250Y0175230D03*
X0160750Y0086230D03*
X0166750Y0079230D03*
X0149750Y0086230D03*
D22*
X0149750Y0129230D01*
X0150250Y0129230D01*
D23*
X0032250Y0157915D02*
X0023250Y0148915D01*
X0023250Y0078915D01*
X0027750Y0078915D01*
X0027750Y0057915D01*
X0023250Y0057915D01*
X0023250Y0035915D01*
X0028750Y0030415D01*
M02*
