%
M48
M72
T01C0.01550
T02C0.02362
T03C0.02756
T04C0.03937
T05C0.04000
T06C0.05118
T07C0.09843
%
T01
X51750Y53915
X61250Y61915
X70750Y68915
X75750Y69415
X77750Y84415
X84750Y86415
X83750Y90915
X88750Y97415
X94250Y88415
X99250Y84915
X103750Y84915
X112250Y93915
X104748Y97913
X100250Y97915
X101250Y114915
X105750Y116415
X105750Y121415
X110750Y124415
X115750Y121415
X119250Y124415
X115750Y127415
X115750Y133415
X119250Y136415
X124250Y136415
X115750Y140415
X115750Y145415
X105750Y145415
X105750Y140415
X110750Y136415
X105750Y133415
X100750Y136415
X95750Y133415
X91750Y136415
X86750Y136415
X86250Y140915
X86750Y146415
X91250Y146415
X95750Y145415
X95750Y140415
X86750Y130415
X86750Y124415
X86750Y119915
X86750Y114915
X91250Y114915
X95750Y116415
X95750Y121415
X91750Y124415
X95750Y127415
X100750Y124415
X105750Y127415
X115750Y116415
X124250Y124415
X132250Y93915
X136250Y85415
X132750Y81915
X124250Y78415
X116750Y82915
X120750Y91415
X132250Y71415
X129750Y63415
X134750Y56415
X141250Y65415
X140750Y41915
X123750Y35915
X108250Y42915
X115250Y51915
X106750Y56915
X87250Y50915
X79750Y49915
X83250Y41415
X57250Y40915
X40250Y64915
X35250Y63915
X31750Y68415
X46250Y78415
X50250Y71415
X55250Y90415
X52750Y112915
X63750Y124415
X60250Y127915
X68250Y128715
X67750Y136415
X68750Y142915
X68250Y148915
X68750Y155915
X68250Y160415
X63250Y160415
X56250Y152915
X52250Y152915
X38250Y148415
X32250Y157915
X45250Y172415
X50250Y172415
X55750Y182415
X61250Y181915
X65856Y184309
X69250Y188915
X64750Y190915
X64250Y195915
X69250Y195415
X69750Y179915
X76750Y179415
X78813Y175021
X78667Y170088
X79313Y163915
X94399Y163809
X95187Y169415
X95187Y173915
X98687Y176415
X100250Y179915
X105250Y180915
X108250Y184415
X103250Y185915
X103250Y190415
X107931Y190021
X107687Y195978
X103250Y195915
X110250Y178915
X94750Y179415
X126750Y179415
X136750Y164915
X140750Y163915
X140750Y168415
X78250Y97415
X77250Y92915
X29750Y108415
X29750Y114415
X49600Y187765
X52750Y192415
X47750Y194915
T02
X30269Y125588
X30269Y97242
X149750Y86230
X160750Y86230
X166750Y79230
X190250Y99230
X197750Y88730
X204750Y98730
X210250Y88730
X197750Y115730
X197750Y142230
X205750Y142230
X205750Y175230
X197750Y175230
X182250Y175230
X150250Y129230
X160750Y128730
X166750Y123730
T03
X41293Y124407
X37750Y119092
X37750Y103738
X41293Y98423
T04
X88750Y44915
X98750Y44915
X215750Y73730
X215750Y83730
X215750Y93730
X215750Y103730
X215750Y113730
X215750Y123730
X215750Y133730
X215750Y143730
X225750Y143730
X225750Y133730
X225750Y123730
X225750Y113730
X225750Y103730
X225750Y93730
X225750Y83730
X225750Y73730
X225750Y153730
X225750Y163730
X225750Y173730
X225750Y183730
X225750Y193730
X215750Y193730
X215750Y183730
X215750Y173730
X215750Y163730
X215750Y153730
X114250Y184415
X114250Y194415
T05
X28750Y30415
X38750Y30415
X48750Y30415
X58750Y30415
X68750Y30415
X78750Y30415
X88750Y30415
X98750Y30415
X108750Y30415
X118750Y30415
X128750Y30415
X138750Y30415
X64750Y104415
X50250Y95415
X140750Y176415
T06
X62088Y68415
T07
X30750Y189415
X135750Y189415
M30
