G75*
%MOIN*%
%OFA0B0*%
%FSLAX25Y25*%
%IPPOS*%
%LPD*%
%AMOC8*
5,1,8,0,0,1.08239X$1,22.5*
%
%ADD10R,0.04331X0.03543*%
%ADD11R,0.03543X0.04331*%
%ADD12R,0.05906X0.05906*%
%ADD13R,0.09055X0.10630*%
%ADD14C,0.00500*%
%ADD15R,0.02165X0.04724*%
%ADD16R,0.04724X0.04724*%
%ADD17R,0.05118X0.05906*%
%ADD18R,0.18110X0.03937*%
%ADD19R,0.13386X0.06299*%
%ADD20R,0.05906X0.05118*%
%ADD21R,0.09843X0.09843*%
%ADD22C,0.04756*%
%ADD23R,0.05315X0.01575*%
%ADD24R,0.07874X0.03937*%
%ADD25R,0.03543X0.03937*%
%ADD26R,0.05512X0.05512*%
%ADD27R,0.10630X0.06299*%
%ADD28R,0.01969X0.01969*%
%ADD29R,0.01969X0.01575*%
%ADD30C,0.13843*%
%ADD31C,0.07000*%
%ADD32R,0.01772X0.03543*%
%ADD33C,0.03937*%
%ADD34R,0.03150X0.05315*%
%ADD35R,0.05512X0.03937*%
%ADD36R,0.05315X0.03150*%
%ADD37C,0.04331*%
%ADD38R,0.03543X0.01378*%
%ADD39R,0.05906X0.09843*%
%ADD40R,0.05906X0.13386*%
%ADD41R,0.06000X0.16000*%
%ADD42R,0.04000X0.08000*%
%ADD43C,0.00800*%
%ADD44R,0.05000X0.07874*%
%ADD45R,0.07000X0.07000*%
%ADD46C,0.03150*%
%ADD47C,0.02400*%
%ADD48C,0.01000*%
%ADD49C,0.03200*%
%ADD50C,0.01600*%
%ADD51C,0.00600*%
%ADD52R,0.03962X0.03962*%
%ADD53C,0.03543*%
%ADD54C,0.01200*%
%ADD55C,0.10630*%
%ADD56C,0.04000*%
D10*
X0073860Y0108494D03*
X0073860Y0114006D03*
X0073860Y0119517D03*
X0073860Y0125029D03*
X0073860Y0130541D03*
X0073860Y0136053D03*
X0073860Y0141565D03*
X0073860Y0147076D03*
X0073860Y0152588D03*
X0080710Y0152588D03*
X0080710Y0147076D03*
X0080710Y0141565D03*
X0080710Y0136053D03*
X0080710Y0130541D03*
X0080710Y0125029D03*
X0080710Y0119517D03*
X0080710Y0114006D03*
X0080710Y0108494D03*
X0130789Y0108494D03*
X0130789Y0114006D03*
X0130789Y0119517D03*
X0130789Y0125029D03*
X0130789Y0130541D03*
X0130789Y0136053D03*
X0130789Y0141565D03*
X0130789Y0147076D03*
X0130789Y0152588D03*
X0137639Y0152588D03*
X0137639Y0147076D03*
X0137639Y0141565D03*
X0137639Y0136053D03*
X0137639Y0130541D03*
X0137639Y0125029D03*
X0137639Y0119517D03*
X0137639Y0114006D03*
X0137639Y0108494D03*
D11*
X0136065Y0102588D03*
X0130553Y0102588D03*
X0125041Y0102588D03*
X0119529Y0102588D03*
X0114017Y0102588D03*
X0114017Y0108887D03*
X0119529Y0108887D03*
X0125041Y0108887D03*
X0108506Y0108887D03*
X0102994Y0108887D03*
X0097482Y0108887D03*
X0097482Y0102588D03*
X0102994Y0102588D03*
X0108506Y0102588D03*
X0091970Y0102588D03*
X0086458Y0102588D03*
X0086458Y0108887D03*
X0091970Y0108887D03*
X0080947Y0102588D03*
X0075435Y0102588D03*
X0086458Y0152195D03*
X0091970Y0152195D03*
X0097482Y0152195D03*
X0102994Y0152195D03*
X0108506Y0152195D03*
X0114017Y0152195D03*
X0119529Y0152195D03*
X0125041Y0152195D03*
X0125041Y0158494D03*
X0119529Y0158494D03*
X0114017Y0158494D03*
X0108506Y0158494D03*
X0102994Y0158494D03*
X0097482Y0158494D03*
X0091970Y0158494D03*
X0086458Y0158494D03*
X0080947Y0158494D03*
X0075435Y0158494D03*
X0130553Y0158494D03*
X0136065Y0158494D03*
D12*
X0090395Y0142352D03*
D13*
X0100632Y0142352D03*
X0110868Y0142352D03*
X0121104Y0142352D03*
X0121104Y0130541D03*
X0110868Y0130541D03*
X0100632Y0130541D03*
X0090395Y0130541D03*
X0090395Y0118730D03*
X0100632Y0118730D03*
X0110868Y0118730D03*
X0121104Y0118730D03*
D14*
X0094726Y0137234D02*
X0094726Y0147470D01*
X0089411Y0147470D01*
X0086065Y0144124D01*
X0086065Y0137234D01*
X0094726Y0137234D01*
X0094726Y0137334D02*
X0086065Y0137334D01*
X0086065Y0137833D02*
X0094726Y0137833D01*
X0094726Y0138331D02*
X0086065Y0138331D01*
X0086065Y0138830D02*
X0094726Y0138830D01*
X0094726Y0139328D02*
X0086065Y0139328D01*
X0086065Y0139827D02*
X0094726Y0139827D01*
X0094726Y0140325D02*
X0086065Y0140325D01*
X0086065Y0140824D02*
X0094726Y0140824D01*
X0094726Y0141322D02*
X0086065Y0141322D01*
X0086065Y0141821D02*
X0094726Y0141821D01*
X0094726Y0142319D02*
X0086065Y0142319D01*
X0086065Y0142818D02*
X0094726Y0142818D01*
X0094726Y0143316D02*
X0086065Y0143316D01*
X0086065Y0143815D02*
X0094726Y0143815D01*
X0094726Y0144313D02*
X0086254Y0144313D01*
X0086753Y0144812D02*
X0094726Y0144812D01*
X0094726Y0145310D02*
X0087251Y0145310D01*
X0087750Y0145809D02*
X0094726Y0145809D01*
X0094726Y0146307D02*
X0088248Y0146307D01*
X0088747Y0146806D02*
X0094726Y0146806D01*
X0094726Y0147304D02*
X0089245Y0147304D01*
D15*
X0056490Y0126534D03*
X0052750Y0126534D03*
X0049010Y0126534D03*
X0049010Y0116297D03*
X0056490Y0116297D03*
D16*
X0033388Y0134958D03*
X0033407Y0142234D03*
X0025139Y0142234D03*
X0025120Y0134958D03*
X0104750Y0165781D03*
X0104750Y0174049D03*
X0074884Y0049915D03*
X0066616Y0049915D03*
D17*
X0066510Y0043415D03*
X0073990Y0043415D03*
X0046490Y0044915D03*
X0039010Y0044915D03*
X0032490Y0044915D03*
X0025010Y0044915D03*
X0040510Y0086415D03*
X0047990Y0086415D03*
X0064510Y0085915D03*
X0064010Y0092915D03*
X0071490Y0092915D03*
X0071990Y0085915D03*
X0056490Y0107415D03*
X0049010Y0107415D03*
X0046990Y0135415D03*
X0047053Y0142415D03*
X0039573Y0142415D03*
X0039510Y0135415D03*
X0056325Y0175226D03*
X0063805Y0175226D03*
D18*
X0049317Y0166352D03*
X0049317Y0158478D03*
D19*
X0028844Y0149029D03*
X0028844Y0175801D03*
D20*
X0073191Y0173592D03*
X0073191Y0166112D03*
X0112750Y0166175D03*
X0112750Y0173655D03*
X0064250Y0119155D03*
X0064250Y0111675D03*
X0126750Y0094155D03*
X0126750Y0086675D03*
D21*
X0030269Y0097242D03*
X0030269Y0125588D03*
D22*
X0041293Y0124407D02*
X0041293Y0129163D01*
X0041293Y0098423D02*
X0041293Y0093667D01*
D23*
X0040801Y0106297D03*
X0040801Y0108856D03*
X0040801Y0111415D03*
X0040801Y0113974D03*
X0040801Y0116533D03*
D24*
X0029876Y0114368D03*
X0029876Y0108462D03*
D25*
X0042179Y0188265D03*
X0042179Y0194565D03*
X0058321Y0194565D03*
X0058321Y0188265D03*
D26*
X0062750Y0167699D03*
X0062750Y0153132D03*
D27*
X0059250Y0145427D03*
X0059250Y0134403D03*
D28*
X0100706Y0094368D03*
X0100706Y0088462D03*
X0107793Y0088462D03*
X0107793Y0094368D03*
D29*
X0107793Y0091415D03*
X0100706Y0091415D03*
D30*
X0135750Y0189415D03*
X0030750Y0189415D03*
D31*
X0064750Y0104415D03*
X0050250Y0095415D03*
X0088750Y0044915D03*
X0098750Y0044915D03*
X0098750Y0030415D03*
X0108750Y0030415D03*
X0118750Y0030415D03*
X0128750Y0030415D03*
X0138750Y0030415D03*
X0088750Y0030415D03*
X0078750Y0030415D03*
X0068750Y0030415D03*
X0058750Y0030415D03*
X0048750Y0030415D03*
X0038750Y0030415D03*
X0028750Y0030415D03*
X0140750Y0176415D03*
X0114250Y0184415D03*
X0114250Y0194415D03*
X0215750Y0183730D03*
X0215750Y0173730D03*
X0215750Y0163730D03*
X0215750Y0153730D03*
X0225750Y0153730D03*
X0225750Y0163730D03*
X0225750Y0173730D03*
X0225750Y0183730D03*
X0225750Y0193730D03*
X0225750Y0143730D03*
X0225750Y0133730D03*
X0225750Y0123730D03*
X0225750Y0113730D03*
X0225750Y0103730D03*
X0225750Y0093730D03*
X0225750Y0083730D03*
X0225750Y0073730D03*
X0215750Y0073730D03*
X0215750Y0083730D03*
X0215750Y0093730D03*
X0215750Y0103730D03*
X0215750Y0113730D03*
X0215750Y0123730D03*
X0215750Y0133730D03*
X0215750Y0143730D03*
D32*
X0102868Y0080262D03*
X0099325Y0080262D03*
X0096175Y0080262D03*
X0092632Y0080262D03*
X0092632Y0073569D03*
X0096175Y0073569D03*
X0099325Y0073569D03*
X0102868Y0073569D03*
X0102868Y0066262D03*
X0099325Y0066262D03*
X0096175Y0066262D03*
X0092632Y0066262D03*
X0092632Y0059569D03*
X0096175Y0059569D03*
X0099325Y0059569D03*
X0102868Y0059569D03*
X0084368Y0058569D03*
X0080825Y0058569D03*
X0077675Y0058569D03*
X0074132Y0058569D03*
X0074132Y0065262D03*
X0077675Y0065262D03*
X0080825Y0065262D03*
X0084368Y0065262D03*
X0084368Y0073569D03*
X0080825Y0073569D03*
X0077675Y0073569D03*
X0074132Y0073569D03*
X0074132Y0080262D03*
X0077675Y0080262D03*
X0080825Y0080262D03*
X0084368Y0080262D03*
D33*
X0122750Y0071415D03*
X0044250Y0070915D03*
X0028750Y0165415D03*
D34*
X0122750Y0184415D03*
X0122750Y0194415D03*
X0117250Y0056915D03*
X0117250Y0046915D03*
D35*
X0121025Y0168175D03*
X0121025Y0175655D03*
X0130474Y0171915D03*
D36*
X0126750Y0052415D03*
X0126750Y0045915D03*
X0136750Y0045915D03*
X0136750Y0052415D03*
D37*
X0137250Y0092415D03*
D38*
X0136765Y0079092D03*
X0136765Y0076533D03*
X0136765Y0073974D03*
X0136765Y0071415D03*
X0136765Y0068856D03*
X0136765Y0066297D03*
X0136765Y0063738D03*
X0113734Y0063738D03*
X0113734Y0066297D03*
X0113734Y0068856D03*
X0113734Y0071415D03*
X0113734Y0073974D03*
X0113734Y0076533D03*
X0113734Y0079092D03*
D39*
X0057364Y0081801D03*
X0042403Y0055423D03*
X0031773Y0055423D03*
D40*
X0031773Y0079832D03*
D41*
X0076750Y0190415D03*
X0096750Y0190415D03*
D42*
X0086750Y0186415D03*
D43*
X0090943Y0186215D02*
X0090943Y0194415D01*
X0099250Y0194415D01*
X0099250Y0186215D01*
X0090943Y0186215D01*
X0090943Y0186791D02*
X0099250Y0186791D01*
X0099250Y0187589D02*
X0090943Y0187589D01*
X0090943Y0188388D02*
X0099250Y0188388D01*
X0099250Y0189186D02*
X0090943Y0189186D01*
X0090943Y0189985D02*
X0099250Y0189985D01*
X0099250Y0190783D02*
X0090943Y0190783D01*
X0090943Y0191582D02*
X0099250Y0191582D01*
X0099250Y0192380D02*
X0090943Y0192380D01*
X0090943Y0193179D02*
X0099250Y0193179D01*
X0099250Y0193977D02*
X0090943Y0193977D01*
X0082556Y0193977D02*
X0074250Y0193977D01*
X0074250Y0194415D02*
X0082556Y0194415D01*
X0082556Y0186215D01*
X0074250Y0186215D01*
X0074250Y0194415D01*
X0074250Y0193179D02*
X0082556Y0193179D01*
X0082556Y0192380D02*
X0074250Y0192380D01*
X0074250Y0191582D02*
X0082556Y0191582D01*
X0082556Y0190783D02*
X0074250Y0190783D01*
X0074250Y0189985D02*
X0082556Y0189985D01*
X0082556Y0189186D02*
X0074250Y0189186D01*
X0074250Y0188388D02*
X0082556Y0188388D01*
X0082556Y0187589D02*
X0074250Y0187589D01*
X0074250Y0186791D02*
X0082556Y0186791D01*
X0127750Y0164415D02*
X0131750Y0164415D01*
X0135750Y0168415D01*
X0140750Y0168415D01*
X0136750Y0162218D02*
X0136750Y0161915D01*
X0136250Y0158679D02*
X0136065Y0158494D01*
X0130553Y0158494D02*
X0130553Y0162218D01*
X0130789Y0130541D02*
X0131189Y0130541D01*
X0133915Y0127815D01*
X0144250Y0127815D02*
X0144250Y0080415D01*
X0137250Y0095415D02*
X0133750Y0098915D01*
X0120750Y0098915D01*
X0119529Y0100136D01*
X0119529Y0102588D01*
X0116750Y0099655D02*
X0119490Y0096915D01*
X0125250Y0096915D01*
X0126750Y0095415D01*
X0126750Y0094155D01*
X0126750Y0094915D01*
X0110750Y0091915D02*
X0110750Y0090415D01*
X0108750Y0099415D02*
X0108750Y0102344D01*
X0108506Y0102588D01*
X0102994Y0102588D02*
X0102994Y0099667D01*
X0103998Y0098663D01*
X0097482Y0102588D02*
X0096750Y0101856D01*
X0096750Y0093915D01*
X0097750Y0092915D01*
X0099250Y0084915D02*
X0099325Y0084840D01*
X0099325Y0080262D01*
X0102868Y0080262D01*
X0099325Y0073569D02*
X0096175Y0073569D01*
X0096175Y0066262D01*
X0099325Y0066262D01*
X0099325Y0059569D01*
X0102868Y0059569D01*
X0096175Y0059569D02*
X0096175Y0055340D01*
X0096175Y0059569D02*
X0092632Y0059569D01*
X0092632Y0073569D02*
X0096175Y0073569D01*
X0096175Y0080262D01*
X0076750Y0094915D02*
X0072250Y0099415D01*
X0072250Y0105415D01*
X0078020Y0111265D02*
X0080710Y0113956D01*
X0080710Y0114006D01*
X0080710Y0119517D02*
X0080510Y0119517D01*
X0077813Y0122215D01*
X0108506Y0108887D02*
X0108506Y0108159D01*
D44*
X0150691Y0106734D03*
X0158565Y0106734D03*
X0166439Y0106734D03*
X0174313Y0106734D03*
X0182187Y0106734D03*
X0190061Y0106734D03*
X0197935Y0106734D03*
X0205809Y0106734D03*
X0205809Y0183506D03*
X0197935Y0183506D03*
X0190061Y0183506D03*
X0182187Y0183506D03*
X0174313Y0183506D03*
X0166439Y0183506D03*
X0158565Y0183506D03*
X0150691Y0183506D03*
D45*
X0215750Y0193730D03*
D46*
X0140750Y0168415D03*
X0140750Y0163915D03*
X0136750Y0164915D03*
X0126750Y0179415D03*
X0110250Y0178915D03*
X0105250Y0180915D03*
X0108250Y0184415D03*
X0103250Y0185915D03*
X0103250Y0190415D03*
X0107931Y0190021D03*
X0107687Y0195978D03*
X0103250Y0195915D03*
X0100250Y0179915D03*
X0098687Y0176415D03*
X0095187Y0173915D03*
X0095187Y0169415D03*
X0094399Y0163809D03*
X0079313Y0163915D03*
X0078667Y0170088D03*
X0078813Y0175021D03*
X0076750Y0179415D03*
X0069750Y0179915D03*
X0065856Y0184309D03*
X0061250Y0181915D03*
X0055750Y0182415D03*
X0049600Y0187765D03*
X0052750Y0192415D03*
X0047750Y0194915D03*
X0064250Y0195915D03*
X0069250Y0195415D03*
X0064750Y0190915D03*
X0069250Y0188915D03*
X0050250Y0172415D03*
X0045250Y0172415D03*
X0032250Y0157915D03*
X0038250Y0148415D03*
X0052250Y0152915D03*
X0056250Y0152915D03*
X0063250Y0160415D03*
X0068250Y0160415D03*
X0068750Y0155915D03*
X0068250Y0148915D03*
X0068750Y0142915D03*
X0067750Y0136415D03*
X0068250Y0128715D03*
X0063750Y0124415D03*
X0060250Y0127915D03*
X0052750Y0112915D03*
X0055250Y0090415D03*
X0046250Y0078415D03*
X0050250Y0071415D03*
X0040250Y0064915D03*
X0035250Y0063915D03*
X0031750Y0068415D03*
X0051750Y0053915D03*
X0061250Y0061915D03*
X0070750Y0068915D03*
X0075750Y0069415D03*
X0077750Y0084415D03*
X0084750Y0086415D03*
X0083750Y0090915D03*
X0088750Y0097415D03*
X0094250Y0088415D03*
X0099250Y0084915D03*
X0103750Y0084915D03*
X0112250Y0093915D03*
X0104748Y0097913D03*
X0100250Y0097915D03*
X0101250Y0114915D03*
X0105750Y0116415D03*
X0105750Y0121415D03*
X0110750Y0124415D03*
X0115750Y0121415D03*
X0119250Y0124415D03*
X0115750Y0127415D03*
X0115750Y0133415D03*
X0119250Y0136415D03*
X0124250Y0136415D03*
X0115750Y0140415D03*
X0115750Y0145415D03*
X0105750Y0145415D03*
X0105750Y0140415D03*
X0110750Y0136415D03*
X0105750Y0133415D03*
X0100750Y0136415D03*
X0095750Y0133415D03*
X0091750Y0136415D03*
X0086750Y0136415D03*
X0086250Y0140915D03*
X0086750Y0146415D03*
X0091250Y0146415D03*
X0095750Y0145415D03*
X0095750Y0140415D03*
X0086750Y0130415D03*
X0086750Y0124415D03*
X0086750Y0119915D03*
X0086750Y0114915D03*
X0091250Y0114915D03*
X0095750Y0116415D03*
X0095750Y0121415D03*
X0091750Y0124415D03*
X0095750Y0127415D03*
X0100750Y0124415D03*
X0105750Y0127415D03*
X0115750Y0116415D03*
X0124250Y0124415D03*
X0132250Y0093915D03*
X0136250Y0085415D03*
X0132750Y0081915D03*
X0124250Y0078415D03*
X0116750Y0082915D03*
X0120750Y0091415D03*
X0132250Y0071415D03*
X0129750Y0063415D03*
X0134750Y0056415D03*
X0141250Y0065415D03*
X0140750Y0041915D03*
X0123750Y0035915D03*
X0108250Y0042915D03*
X0115250Y0051915D03*
X0106750Y0056915D03*
X0087250Y0050915D03*
X0079750Y0049915D03*
X0083250Y0041415D03*
X0057250Y0040915D03*
X0077250Y0092915D03*
X0078250Y0097415D03*
X0029750Y0108415D03*
X0029750Y0114415D03*
X0094750Y0179415D03*
D47*
X0097482Y0158494D02*
X0091970Y0158494D01*
X0097482Y0158494D02*
X0102994Y0158494D01*
X0102994Y0152195D01*
X0102994Y0144714D01*
X0100632Y0142352D01*
X0108250Y0146415D02*
X0108250Y0151939D01*
X0108506Y0152195D01*
X0113750Y0151927D02*
X0113750Y0146415D01*
X0113750Y0151927D02*
X0114017Y0152195D01*
X0114017Y0158494D01*
X0123750Y0146415D02*
X0130128Y0146415D01*
X0130789Y0147076D01*
X0086458Y0152195D02*
X0086065Y0152588D01*
X0080710Y0152588D01*
X0080710Y0147076D01*
X0080710Y0141565D01*
X0080710Y0147076D02*
X0073860Y0147076D01*
X0080710Y0152588D02*
X0080947Y0152825D01*
X0080947Y0158494D01*
X0059250Y0145427D02*
X0055250Y0145427D01*
X0054238Y0145427D02*
X0048250Y0151415D01*
X0040750Y0151415D01*
X0035750Y0156415D01*
X0035750Y0157415D02*
X0035250Y0157915D01*
X0032250Y0157915D01*
X0035750Y0157415D02*
X0035750Y0165415D01*
X0037750Y0167415D01*
X0048254Y0167415D01*
D48*
X0023176Y0030556D02*
X0024423Y0028840D01*
X0024150Y0029500D01*
X0024150Y0031330D01*
X0024850Y0033021D01*
X0026144Y0034315D01*
X0027835Y0035015D01*
X0029665Y0035015D01*
X0031355Y0034315D01*
X0032649Y0033021D01*
X0033350Y0031330D01*
X0033350Y0029500D01*
X0032649Y0027809D01*
X0031355Y0026515D01*
X0030041Y0025971D01*
X0030750Y0025915D01*
X0036568Y0025915D01*
X0036129Y0026139D01*
X0035492Y0026601D01*
X0034936Y0027158D01*
X0034473Y0027794D01*
X0034116Y0028496D01*
X0033873Y0029244D01*
X0033767Y0029915D01*
X0038250Y0029915D01*
X0038250Y0030915D01*
X0038250Y0035398D01*
X0037579Y0035292D01*
X0036830Y0035049D01*
X0036129Y0034691D01*
X0035492Y0034229D01*
X0034936Y0033672D01*
X0034473Y0033036D01*
X0034116Y0032334D01*
X0033873Y0031586D01*
X0033767Y0030915D01*
X0038250Y0030915D01*
X0039250Y0030915D01*
X0043733Y0030915D01*
X0043627Y0031586D01*
X0043383Y0032334D01*
X0043026Y0033036D01*
X0042563Y0033672D01*
X0042007Y0034229D01*
X0041370Y0034691D01*
X0040669Y0035049D01*
X0039921Y0035292D01*
X0039250Y0035398D01*
X0039250Y0030915D01*
X0039250Y0029915D01*
X0043733Y0029915D01*
X0043627Y0029244D01*
X0043383Y0028496D01*
X0043026Y0027794D01*
X0042563Y0027158D01*
X0042007Y0026601D01*
X0041370Y0026139D01*
X0040931Y0025915D01*
X0047593Y0025915D01*
X0046144Y0026515D01*
X0044850Y0027809D01*
X0044150Y0029500D01*
X0044150Y0031330D01*
X0044850Y0033021D01*
X0046144Y0034315D01*
X0047835Y0035015D01*
X0049665Y0035015D01*
X0050170Y0034806D01*
X0051150Y0035785D01*
X0051150Y0050285D01*
X0061533Y0060669D01*
X0069486Y0060669D01*
X0068950Y0061205D01*
X0068950Y0066649D01*
X0068312Y0067286D01*
X0067875Y0068343D01*
X0067875Y0069487D01*
X0068312Y0070544D01*
X0068950Y0071181D01*
X0068950Y0072661D01*
X0070004Y0073715D01*
X0070004Y0073715D01*
X0070603Y0074314D01*
X0071658Y0075369D01*
X0072146Y0075369D01*
X0072146Y0075796D01*
X0072790Y0076440D01*
X0075473Y0076440D01*
X0075903Y0076010D01*
X0076333Y0076440D01*
X0079016Y0076440D01*
X0079025Y0076432D01*
X0079025Y0077398D01*
X0079016Y0077390D01*
X0076333Y0077390D01*
X0076186Y0077537D01*
X0075938Y0077290D01*
X0075596Y0077092D01*
X0075215Y0076990D01*
X0074132Y0076990D01*
X0074132Y0080261D01*
X0074132Y0080261D01*
X0074132Y0076990D01*
X0073048Y0076990D01*
X0072667Y0077092D01*
X0072325Y0077290D01*
X0072045Y0077569D01*
X0071848Y0077911D01*
X0071746Y0078292D01*
X0071746Y0080261D01*
X0074131Y0080261D01*
X0074131Y0080262D01*
X0071746Y0080262D01*
X0071746Y0082231D01*
X0071848Y0082612D01*
X0072045Y0082954D01*
X0072325Y0083233D01*
X0072490Y0083329D01*
X0072490Y0085415D01*
X0072490Y0086415D01*
X0076049Y0086415D01*
X0076049Y0089065D01*
X0075947Y0089447D01*
X0075749Y0089789D01*
X0075549Y0089989D01*
X0075549Y0090550D01*
X0075621Y0090478D01*
X0076678Y0090040D01*
X0077822Y0090040D01*
X0078878Y0090478D01*
X0078950Y0090549D01*
X0078950Y0083133D01*
X0076333Y0083133D01*
X0076186Y0082986D01*
X0076049Y0083123D01*
X0076049Y0085415D01*
X0072490Y0085415D01*
X0071490Y0085415D01*
X0071490Y0081462D01*
X0069233Y0081462D01*
X0068852Y0081565D01*
X0068510Y0081762D01*
X0068231Y0082041D01*
X0068038Y0082376D01*
X0067524Y0081862D01*
X0063002Y0081862D01*
X0062195Y0081055D01*
X0061417Y0080277D01*
X0061417Y0076424D01*
X0060772Y0075780D01*
X0059164Y0075780D01*
X0059164Y0071784D01*
X0051550Y0064169D01*
X0050495Y0063115D01*
X0042516Y0063115D01*
X0042050Y0062649D01*
X0042050Y0061444D01*
X0045812Y0061444D01*
X0046456Y0060800D01*
X0046456Y0050046D01*
X0045812Y0049402D01*
X0038995Y0049402D01*
X0038350Y0050046D01*
X0038350Y0060800D01*
X0038450Y0060899D01*
X0038450Y0062649D01*
X0037812Y0063286D01*
X0037375Y0064343D01*
X0037375Y0065244D01*
X0035450Y0067169D01*
X0035450Y0071825D01*
X0035305Y0071742D01*
X0034924Y0071639D01*
X0032273Y0071639D01*
X0032273Y0079332D01*
X0031273Y0079332D01*
X0031273Y0071639D01*
X0028623Y0071639D01*
X0028242Y0071742D01*
X0027900Y0071939D01*
X0027620Y0072218D01*
X0027423Y0072560D01*
X0027321Y0072942D01*
X0027321Y0079332D01*
X0031273Y0079332D01*
X0031273Y0080332D01*
X0027321Y0080332D01*
X0027321Y0086723D01*
X0027423Y0087104D01*
X0027620Y0087446D01*
X0027900Y0087726D01*
X0028242Y0087923D01*
X0028623Y0088025D01*
X0031273Y0088025D01*
X0031273Y0080332D01*
X0032273Y0080332D01*
X0036226Y0080332D01*
X0036226Y0086723D01*
X0036124Y0087104D01*
X0035926Y0087446D01*
X0035647Y0087726D01*
X0035305Y0087923D01*
X0034924Y0088025D01*
X0032273Y0088025D01*
X0032273Y0080332D01*
X0032273Y0079332D01*
X0036226Y0079332D01*
X0036226Y0073437D01*
X0036504Y0073715D01*
X0038710Y0075920D01*
X0038710Y0082362D01*
X0037495Y0082362D01*
X0036850Y0083007D01*
X0036850Y0089823D01*
X0037495Y0090468D01*
X0039101Y0090468D01*
X0038821Y0090655D01*
X0038281Y0091195D01*
X0037856Y0091830D01*
X0037564Y0092536D01*
X0037415Y0093285D01*
X0037415Y0098234D01*
X0041104Y0098234D01*
X0041104Y0098612D01*
X0041104Y0102301D01*
X0040911Y0102301D01*
X0040212Y0102162D01*
X0040628Y0103165D01*
X0040628Y0104010D01*
X0040801Y0104010D01*
X0043656Y0104010D01*
X0044037Y0104112D01*
X0044379Y0104309D01*
X0044659Y0104589D01*
X0044856Y0104931D01*
X0044958Y0105312D01*
X0044958Y0106297D01*
X0044958Y0107282D01*
X0044856Y0107663D01*
X0044659Y0108005D01*
X0044558Y0108106D01*
X0044558Y0110099D01*
X0044522Y0110136D01*
X0044558Y0110172D01*
X0044558Y0112658D01*
X0044522Y0112695D01*
X0044558Y0112731D01*
X0044558Y0114733D01*
X0046827Y0114733D01*
X0046827Y0113479D01*
X0046910Y0113396D01*
X0046910Y0111468D01*
X0045995Y0111468D01*
X0045350Y0110823D01*
X0045350Y0104007D01*
X0045995Y0103362D01*
X0048450Y0103362D01*
X0048450Y0099648D01*
X0047644Y0099315D01*
X0046350Y0098021D01*
X0045650Y0096330D01*
X0045650Y0094500D01*
X0046350Y0092809D01*
X0047644Y0091515D01*
X0049335Y0090815D01*
X0051165Y0090815D01*
X0052855Y0091515D01*
X0054149Y0092809D01*
X0054850Y0094500D01*
X0054850Y0096330D01*
X0054149Y0098021D01*
X0052855Y0099315D01*
X0052050Y0099648D01*
X0052050Y0103388D01*
X0052538Y0103876D01*
X0052731Y0103541D01*
X0053010Y0103262D01*
X0053352Y0103065D01*
X0053733Y0102962D01*
X0055990Y0102962D01*
X0055990Y0106915D01*
X0056990Y0106915D01*
X0056990Y0107915D01*
X0060549Y0107915D01*
X0060549Y0108308D01*
X0060841Y0108016D01*
X0061845Y0108016D01*
X0060850Y0107021D01*
X0060549Y0106294D01*
X0060549Y0106915D01*
X0056990Y0106915D01*
X0056990Y0102962D01*
X0059246Y0102962D01*
X0059628Y0103065D01*
X0059970Y0103262D01*
X0060167Y0103459D01*
X0060850Y0101809D01*
X0062144Y0100515D01*
X0063835Y0099815D01*
X0065665Y0099815D01*
X0067355Y0100515D01*
X0068649Y0101809D01*
X0068983Y0102615D01*
X0068995Y0102615D01*
X0070050Y0103669D01*
X0070550Y0104169D01*
X0070550Y0098711D01*
X0071990Y0097271D01*
X0071990Y0093415D01*
X0070990Y0093415D01*
X0070990Y0097368D01*
X0068733Y0097368D01*
X0068352Y0097266D01*
X0068010Y0097068D01*
X0067731Y0096789D01*
X0067538Y0096455D01*
X0067024Y0096968D01*
X0060995Y0096968D01*
X0060350Y0096323D01*
X0060350Y0089507D01*
X0060850Y0089007D01*
X0060850Y0087744D01*
X0060772Y0087822D01*
X0053955Y0087822D01*
X0053311Y0087178D01*
X0053311Y0076424D01*
X0053955Y0075780D01*
X0055564Y0075780D01*
X0055564Y0073275D01*
X0053119Y0070830D01*
X0053125Y0070843D01*
X0053125Y0071987D01*
X0052687Y0073044D01*
X0052050Y0073681D01*
X0052050Y0084901D01*
X0051649Y0085302D01*
X0051649Y0089823D01*
X0051005Y0090468D01*
X0044975Y0090468D01*
X0044331Y0089823D01*
X0044331Y0083007D01*
X0044975Y0082362D01*
X0048450Y0082362D01*
X0048450Y0073681D01*
X0048023Y0073254D01*
X0047498Y0074163D01*
X0045439Y0075352D01*
X0043061Y0075352D01*
X0042310Y0074918D01*
X0042310Y0082362D01*
X0043524Y0082362D01*
X0044169Y0083007D01*
X0044169Y0089823D01*
X0043524Y0090468D01*
X0043485Y0090468D01*
X0043765Y0090655D01*
X0044305Y0091195D01*
X0044730Y0091830D01*
X0045022Y0092536D01*
X0045171Y0093285D01*
X0045171Y0098234D01*
X0041482Y0098234D01*
X0041482Y0098612D01*
X0041104Y0098612D01*
X0037415Y0098612D01*
X0037415Y0098805D01*
X0037564Y0099554D01*
X0037856Y0100260D01*
X0038257Y0100860D01*
X0037177Y0100860D01*
X0036691Y0101062D01*
X0036691Y0097332D01*
X0033949Y0097332D01*
X0033941Y0097242D01*
X0033949Y0097151D01*
X0036691Y0097151D01*
X0036691Y0092123D01*
X0036588Y0091742D01*
X0036391Y0091400D01*
X0036112Y0091120D01*
X0035770Y0090923D01*
X0035388Y0090821D01*
X0030360Y0090821D01*
X0030360Y0094561D01*
X0030179Y0094561D01*
X0030179Y0090821D01*
X0025151Y0090821D01*
X0024769Y0090923D01*
X0024427Y0091120D01*
X0024148Y0091400D01*
X0023950Y0091742D01*
X0023848Y0092123D01*
X0023848Y0097151D01*
X0026590Y0097151D01*
X0026598Y0097242D01*
X0026590Y0097332D01*
X0023848Y0097332D01*
X0023848Y0102361D01*
X0023950Y0102742D01*
X0024148Y0103084D01*
X0024427Y0103363D01*
X0024769Y0103561D01*
X0025151Y0103663D01*
X0030179Y0103663D01*
X0030179Y0099923D01*
X0030360Y0099923D01*
X0030360Y0103663D01*
X0034872Y0103663D01*
X0034872Y0104310D01*
X0035310Y0105368D01*
X0036119Y0106178D01*
X0036643Y0106395D01*
X0036643Y0107282D01*
X0036746Y0107663D01*
X0036943Y0108005D01*
X0037043Y0108106D01*
X0037043Y0110099D01*
X0037080Y0110136D01*
X0037043Y0110172D01*
X0037043Y0112658D01*
X0037080Y0112695D01*
X0037043Y0112731D01*
X0037043Y0114733D01*
X0035386Y0114733D01*
X0035267Y0114852D01*
X0030360Y0114852D01*
X0030360Y0113884D01*
X0035313Y0113884D01*
X0035313Y0112202D01*
X0035210Y0111820D01*
X0035013Y0111478D01*
X0034950Y0111415D01*
X0035013Y0111352D01*
X0035210Y0111010D01*
X0035313Y0110628D01*
X0035313Y0108947D01*
X0030360Y0108947D01*
X0029391Y0108947D01*
X0029391Y0111931D01*
X0029391Y0113883D01*
X0030360Y0113883D01*
X0030360Y0108947D01*
X0030360Y0107978D01*
X0035313Y0107978D01*
X0035313Y0106296D01*
X0035210Y0105915D01*
X0035013Y0105573D01*
X0034734Y0105294D01*
X0034392Y0105096D01*
X0034010Y0104994D01*
X0030360Y0104994D01*
X0030360Y0107978D01*
X0029391Y0107978D01*
X0024439Y0107978D01*
X0024439Y0106296D01*
X0024541Y0105915D01*
X0024738Y0105573D01*
X0025018Y0105294D01*
X0025360Y0105096D01*
X0025741Y0104994D01*
X0029391Y0104994D01*
X0029391Y0107978D01*
X0029391Y0108947D01*
X0024439Y0108947D01*
X0024439Y0110628D01*
X0024541Y0111010D01*
X0024738Y0111352D01*
X0024802Y0111415D01*
X0024738Y0111478D01*
X0024541Y0111820D01*
X0024439Y0112202D01*
X0024439Y0113884D01*
X0029391Y0113884D01*
X0029391Y0114852D01*
X0024439Y0114852D01*
X0024439Y0116534D01*
X0024460Y0116615D01*
X0023004Y0116615D01*
X0022250Y0117369D01*
X0022250Y0077415D01*
X0025871Y0077415D01*
X0026750Y0076536D01*
X0026750Y0060294D01*
X0025871Y0059415D01*
X0022250Y0059415D01*
X0022250Y0049367D01*
X0022253Y0049368D01*
X0024510Y0049368D01*
X0024510Y0045415D01*
X0025510Y0045415D01*
X0025510Y0049368D01*
X0027766Y0049368D01*
X0028148Y0049266D01*
X0028490Y0049068D01*
X0028769Y0048789D01*
X0028962Y0048455D01*
X0029475Y0048968D01*
X0030690Y0048968D01*
X0030690Y0049402D01*
X0028365Y0049402D01*
X0027721Y0050046D01*
X0027721Y0060800D01*
X0028365Y0061444D01*
X0029973Y0061444D01*
X0029973Y0066126D01*
X0029312Y0066786D01*
X0028875Y0067843D01*
X0028875Y0068987D01*
X0029312Y0070044D01*
X0030121Y0070852D01*
X0031178Y0071290D01*
X0032322Y0071290D01*
X0033378Y0070852D01*
X0034187Y0070044D01*
X0034625Y0068987D01*
X0034625Y0067843D01*
X0034187Y0066786D01*
X0033573Y0066173D01*
X0033573Y0061444D01*
X0035182Y0061444D01*
X0035826Y0060800D01*
X0035826Y0050046D01*
X0035182Y0049402D01*
X0034290Y0049402D01*
X0034290Y0048968D01*
X0035505Y0048968D01*
X0035750Y0048723D01*
X0035995Y0048968D01*
X0042024Y0048968D01*
X0042538Y0048455D01*
X0042731Y0048789D01*
X0043010Y0049068D01*
X0043352Y0049266D01*
X0043733Y0049368D01*
X0045990Y0049368D01*
X0045990Y0045415D01*
X0046990Y0045415D01*
X0050549Y0045415D01*
X0050549Y0048065D01*
X0050447Y0048447D01*
X0050249Y0048789D01*
X0049970Y0049068D01*
X0049628Y0049266D01*
X0049246Y0049368D01*
X0046990Y0049368D01*
X0046990Y0045415D01*
X0046990Y0044415D01*
X0050549Y0044415D01*
X0050549Y0041765D01*
X0050447Y0041383D01*
X0050249Y0041041D01*
X0049970Y0040762D01*
X0049628Y0040565D01*
X0049246Y0040462D01*
X0046990Y0040462D01*
X0046990Y0044415D01*
X0045990Y0044415D01*
X0045990Y0040462D01*
X0043733Y0040462D01*
X0043352Y0040565D01*
X0043010Y0040762D01*
X0042731Y0041041D01*
X0042538Y0041376D01*
X0042024Y0040862D01*
X0035995Y0040862D01*
X0035750Y0041107D01*
X0035505Y0040862D01*
X0029475Y0040862D01*
X0028962Y0041376D01*
X0028769Y0041041D01*
X0028490Y0040762D01*
X0028148Y0040565D01*
X0027766Y0040462D01*
X0025510Y0040462D01*
X0025510Y0044415D01*
X0024510Y0044415D01*
X0024510Y0040462D01*
X0022253Y0040462D01*
X0022250Y0040463D01*
X0022250Y0034415D01*
X0022354Y0033085D01*
X0023176Y0030556D01*
X0023132Y0030691D02*
X0024150Y0030691D01*
X0024150Y0029693D02*
X0023803Y0029693D01*
X0024299Y0031690D02*
X0022808Y0031690D01*
X0022483Y0032688D02*
X0024712Y0032688D01*
X0025516Y0033687D02*
X0022307Y0033687D01*
X0022250Y0034685D02*
X0027039Y0034685D01*
X0030461Y0034685D02*
X0036121Y0034685D01*
X0034950Y0033687D02*
X0031983Y0033687D01*
X0032787Y0032688D02*
X0034296Y0032688D01*
X0033907Y0031690D02*
X0033201Y0031690D01*
X0033350Y0030691D02*
X0038250Y0030691D01*
X0038750Y0030415D02*
X0038750Y0019230D01*
X0088750Y0019230D01*
X0088750Y0010230D01*
X0215750Y0010230D01*
X0215750Y0073730D01*
X0215750Y0078730D02*
X0174250Y0078730D01*
X0174250Y0079230D01*
X0174313Y0079230D01*
X0174313Y0106734D01*
X0182187Y0106734D02*
X0182187Y0083230D01*
X0205750Y0083230D01*
X0205750Y0093730D01*
X0215750Y0093730D01*
X0215750Y0098730D02*
X0204750Y0098730D01*
X0197935Y0106734D02*
X0197935Y0088730D01*
X0197750Y0088730D01*
X0190250Y0099230D02*
X0190061Y0099230D01*
X0190061Y0106734D01*
X0197750Y0115730D02*
X0197750Y0142230D01*
X0205750Y0142230D02*
X0205750Y0118730D01*
X0225750Y0118730D01*
X0225750Y0113730D01*
X0215750Y0103730D02*
X0215750Y0098730D01*
X0210250Y0088730D02*
X0225750Y0088730D01*
X0225750Y0083730D01*
X0215750Y0083730D02*
X0215750Y0078730D01*
X0166750Y0079230D02*
X0166750Y0014230D01*
X0108750Y0014230D01*
X0108750Y0030415D01*
X0109750Y0030415D01*
X0122750Y0043415D01*
X0122750Y0055415D01*
X0124750Y0057415D01*
X0131250Y0057415D01*
X0133765Y0059931D01*
X0136765Y0059931D01*
X0136765Y0063738D01*
X0138565Y0061949D02*
X0138993Y0061949D01*
X0139637Y0062593D01*
X0139637Y0062971D01*
X0140678Y0062540D01*
X0141822Y0062540D01*
X0142878Y0062978D01*
X0143687Y0063786D01*
X0144125Y0064843D01*
X0144125Y0065987D01*
X0143687Y0067044D01*
X0142878Y0067852D01*
X0141822Y0068290D01*
X0140678Y0068290D01*
X0140212Y0068097D01*
X0140037Y0068097D01*
X0140037Y0068856D01*
X0140037Y0069742D01*
X0139935Y0070124D01*
X0139737Y0070466D01*
X0139637Y0070566D01*
X0139637Y0072174D01*
X0141554Y0072174D01*
X0142609Y0073229D01*
X0144250Y0074869D01*
X0144250Y0034415D01*
X0144145Y0033085D01*
X0143900Y0032330D01*
X0142935Y0032330D01*
X0142649Y0033021D01*
X0141355Y0034315D01*
X0139665Y0035015D01*
X0137835Y0035015D01*
X0136144Y0034315D01*
X0134850Y0033021D01*
X0134150Y0031330D01*
X0134150Y0029500D01*
X0134850Y0027809D01*
X0136144Y0026515D01*
X0137226Y0026067D01*
X0137079Y0026020D01*
X0135750Y0025915D01*
X0129906Y0025915D01*
X0131355Y0026515D01*
X0132649Y0027809D01*
X0133350Y0029500D01*
X0133350Y0031330D01*
X0132649Y0033021D01*
X0131355Y0034315D01*
X0129665Y0035015D01*
X0127895Y0035015D01*
X0128050Y0035169D01*
X0134050Y0041169D01*
X0134050Y0043240D01*
X0136879Y0043240D01*
X0137875Y0042244D01*
X0137875Y0041343D01*
X0138312Y0040286D01*
X0139121Y0039478D01*
X0140178Y0039040D01*
X0141322Y0039040D01*
X0142378Y0039478D01*
X0143187Y0040286D01*
X0143625Y0041343D01*
X0143625Y0042487D01*
X0143187Y0043544D01*
X0142378Y0044352D01*
X0141322Y0044790D01*
X0140507Y0044790D01*
X0140507Y0047945D01*
X0139863Y0048590D01*
X0134050Y0048590D01*
X0134050Y0048661D01*
X0130507Y0052203D01*
X0130507Y0054445D01*
X0129863Y0055090D01*
X0124970Y0055090D01*
X0125495Y0055615D01*
X0131969Y0055615D01*
X0132312Y0054786D01*
X0132992Y0054107D01*
X0132992Y0050385D01*
X0133637Y0049740D01*
X0139863Y0049740D01*
X0140507Y0050385D01*
X0140507Y0054445D01*
X0139863Y0055090D01*
X0138550Y0055090D01*
X0138550Y0055161D01*
X0137625Y0056086D01*
X0137625Y0056987D01*
X0137187Y0058044D01*
X0137100Y0058131D01*
X0137511Y0058131D01*
X0138565Y0059185D01*
X0138565Y0061949D01*
X0138565Y0061645D02*
X0144250Y0061645D01*
X0144250Y0060647D02*
X0138565Y0060647D01*
X0138565Y0059648D02*
X0144250Y0059648D01*
X0144250Y0058650D02*
X0138030Y0058650D01*
X0137350Y0057651D02*
X0144250Y0057651D01*
X0144250Y0056653D02*
X0137625Y0056653D01*
X0138056Y0055654D02*
X0144250Y0055654D01*
X0144250Y0054656D02*
X0140297Y0054656D01*
X0140507Y0053657D02*
X0144250Y0053657D01*
X0144250Y0052659D02*
X0140507Y0052659D01*
X0140507Y0051660D02*
X0144250Y0051660D01*
X0144250Y0050662D02*
X0140507Y0050662D01*
X0140507Y0047666D02*
X0144250Y0047666D01*
X0144250Y0046667D02*
X0140507Y0046667D01*
X0140507Y0045669D02*
X0144250Y0045669D01*
X0144250Y0044670D02*
X0141610Y0044670D01*
X0143059Y0043672D02*
X0144250Y0043672D01*
X0144250Y0042673D02*
X0143547Y0042673D01*
X0143625Y0041675D02*
X0144250Y0041675D01*
X0144250Y0040676D02*
X0143349Y0040676D01*
X0142578Y0039678D02*
X0144250Y0039678D01*
X0144250Y0038679D02*
X0131560Y0038679D01*
X0130561Y0037681D02*
X0144250Y0037681D01*
X0144250Y0036682D02*
X0129563Y0036682D01*
X0128564Y0035684D02*
X0144250Y0035684D01*
X0144250Y0034685D02*
X0140461Y0034685D01*
X0141983Y0033687D02*
X0144192Y0033687D01*
X0144016Y0032688D02*
X0142787Y0032688D01*
X0137039Y0034685D02*
X0130461Y0034685D01*
X0131983Y0033687D02*
X0135516Y0033687D01*
X0134712Y0032688D02*
X0132787Y0032688D01*
X0133201Y0031690D02*
X0134299Y0031690D01*
X0134150Y0030691D02*
X0133350Y0030691D01*
X0133350Y0029693D02*
X0134150Y0029693D01*
X0134483Y0028694D02*
X0133016Y0028694D01*
X0132536Y0027696D02*
X0134964Y0027696D01*
X0135962Y0026697D02*
X0131537Y0026697D01*
X0128750Y0030415D02*
X0128750Y0031415D01*
X0126250Y0035915D02*
X0123750Y0035915D01*
X0126250Y0035915D02*
X0132250Y0041915D01*
X0132250Y0047915D01*
X0127750Y0052415D01*
X0126750Y0052415D01*
X0130507Y0052659D02*
X0132992Y0052659D01*
X0132992Y0053657D02*
X0130507Y0053657D01*
X0130297Y0054656D02*
X0132443Y0054656D01*
X0134750Y0056415D02*
X0136750Y0054415D01*
X0136750Y0052415D01*
X0132992Y0051660D02*
X0131050Y0051660D01*
X0132049Y0050662D02*
X0132992Y0050662D01*
X0133047Y0049663D02*
X0144250Y0049663D01*
X0144250Y0048665D02*
X0134046Y0048665D01*
X0136750Y0045915D02*
X0140750Y0041915D01*
X0138151Y0040676D02*
X0133557Y0040676D01*
X0134050Y0041675D02*
X0137875Y0041675D01*
X0137446Y0042673D02*
X0134050Y0042673D01*
X0132558Y0039678D02*
X0138921Y0039678D01*
X0126750Y0043415D02*
X0118750Y0035415D01*
X0118750Y0030415D01*
X0118750Y0018730D01*
X0160750Y0018730D01*
X0160750Y0086230D01*
X0144250Y0080415D02*
X0144250Y0077415D01*
X0140809Y0073974D01*
X0136765Y0073974D01*
X0136765Y0071415D02*
X0132250Y0071415D01*
X0133494Y0068819D02*
X0133494Y0068215D01*
X0129050Y0068215D01*
X0129050Y0072669D01*
X0133494Y0077114D01*
X0133494Y0076533D01*
X0133494Y0075647D01*
X0133596Y0075265D01*
X0133794Y0074923D01*
X0133894Y0074823D01*
X0133894Y0073837D01*
X0133878Y0073852D01*
X0132822Y0074290D01*
X0131678Y0074290D01*
X0130621Y0073852D01*
X0129812Y0073044D01*
X0129375Y0071987D01*
X0129375Y0070843D01*
X0129812Y0069786D01*
X0130621Y0068978D01*
X0131678Y0068540D01*
X0132822Y0068540D01*
X0133494Y0068819D01*
X0133584Y0068856D02*
X0133584Y0068856D01*
X0136765Y0068856D01*
X0133584Y0068856D01*
X0133691Y0068856D02*
X0133250Y0068415D01*
X0133050Y0068635D02*
X0133494Y0068635D01*
X0133691Y0068856D02*
X0136765Y0068856D01*
X0136765Y0068856D01*
X0136766Y0068856D02*
X0140037Y0068856D01*
X0136766Y0068856D01*
X0136766Y0068856D01*
X0136765Y0066297D02*
X0140368Y0066297D01*
X0141250Y0065415D01*
X0143094Y0067636D02*
X0144250Y0067636D01*
X0144250Y0066638D02*
X0143855Y0066638D01*
X0144125Y0065639D02*
X0144250Y0065639D01*
X0144250Y0064641D02*
X0144041Y0064641D01*
X0144250Y0063642D02*
X0143543Y0063642D01*
X0144250Y0062644D02*
X0142072Y0062644D01*
X0140428Y0062644D02*
X0139637Y0062644D01*
X0140037Y0068635D02*
X0144250Y0068635D01*
X0144250Y0069633D02*
X0140037Y0069633D01*
X0139637Y0070632D02*
X0144250Y0070632D01*
X0144250Y0071630D02*
X0139637Y0071630D01*
X0142009Y0072629D02*
X0144250Y0072629D01*
X0144250Y0073627D02*
X0143008Y0073627D01*
X0144006Y0074626D02*
X0144250Y0074626D01*
X0141910Y0077621D02*
X0139983Y0077621D01*
X0139935Y0077801D02*
X0139737Y0078143D01*
X0139637Y0078243D01*
X0139637Y0080237D01*
X0138993Y0080881D01*
X0138565Y0080881D01*
X0138565Y0083665D01*
X0138687Y0083786D01*
X0139125Y0084843D01*
X0139125Y0085987D01*
X0138687Y0087044D01*
X0137878Y0087852D01*
X0136822Y0088290D01*
X0135678Y0088290D01*
X0134621Y0087852D01*
X0133812Y0087044D01*
X0133375Y0085987D01*
X0133375Y0084843D01*
X0133412Y0084752D01*
X0133322Y0084790D01*
X0132178Y0084790D01*
X0131202Y0084386D01*
X0131202Y0086175D01*
X0127250Y0086175D01*
X0127250Y0087175D01*
X0131202Y0087175D01*
X0131202Y0089431D01*
X0131100Y0089813D01*
X0130903Y0090155D01*
X0130623Y0090434D01*
X0130289Y0090627D01*
X0130802Y0091141D01*
X0130802Y0097170D01*
X0130757Y0097215D01*
X0133046Y0097215D01*
X0135239Y0095022D01*
X0134481Y0094265D01*
X0133984Y0093065D01*
X0133984Y0091766D01*
X0134481Y0090565D01*
X0135400Y0089647D01*
X0136600Y0089150D01*
X0137899Y0089150D01*
X0139099Y0089647D01*
X0140018Y0090565D01*
X0140515Y0091766D01*
X0140515Y0093065D01*
X0140018Y0094265D01*
X0139099Y0095183D01*
X0139050Y0095204D01*
X0139050Y0096161D01*
X0137995Y0097215D01*
X0137854Y0097215D01*
X0135746Y0099323D01*
X0138292Y0099323D01*
X0138936Y0099967D01*
X0138936Y0105209D01*
X0138523Y0105622D01*
X0140260Y0105622D01*
X0140905Y0106266D01*
X0140905Y0110721D01*
X0140376Y0111250D01*
X0140905Y0111778D01*
X0140905Y0116233D01*
X0140376Y0116762D01*
X0140905Y0117290D01*
X0140905Y0121745D01*
X0140376Y0122273D01*
X0140905Y0122802D01*
X0140905Y0126215D01*
X0142550Y0126215D01*
X0142550Y0081261D01*
X0142450Y0081161D01*
X0142450Y0078161D01*
X0140063Y0075774D01*
X0140037Y0075774D01*
X0140037Y0076533D01*
X0136766Y0076533D01*
X0136766Y0076533D01*
X0140037Y0076533D01*
X0140037Y0077420D01*
X0139935Y0077801D01*
X0139637Y0078620D02*
X0142450Y0078620D01*
X0142450Y0079618D02*
X0139637Y0079618D01*
X0139257Y0080617D02*
X0142450Y0080617D01*
X0142550Y0081615D02*
X0138565Y0081615D01*
X0138565Y0082614D02*
X0142550Y0082614D01*
X0142550Y0083612D02*
X0138565Y0083612D01*
X0139028Y0084611D02*
X0142550Y0084611D01*
X0142550Y0085609D02*
X0139125Y0085609D01*
X0138867Y0086608D02*
X0142550Y0086608D01*
X0142550Y0087606D02*
X0138124Y0087606D01*
X0138995Y0089603D02*
X0142550Y0089603D01*
X0142550Y0088605D02*
X0131202Y0088605D01*
X0131202Y0087606D02*
X0134375Y0087606D01*
X0133632Y0086608D02*
X0127250Y0086608D01*
X0127250Y0086175D02*
X0127250Y0082616D01*
X0129900Y0082616D01*
X0129932Y0082624D01*
X0129875Y0082487D01*
X0129875Y0081343D01*
X0130312Y0080286D01*
X0130944Y0079655D01*
X0125969Y0074680D01*
X0123939Y0075852D01*
X0121561Y0075852D01*
X0119502Y0074663D01*
X0119502Y0074663D01*
X0118313Y0072604D01*
X0118313Y0070656D01*
X0117006Y0070656D01*
X0117006Y0071415D01*
X0113734Y0071415D01*
X0113734Y0071415D01*
X0117006Y0071415D01*
X0117006Y0072302D01*
X0116903Y0072683D01*
X0116706Y0073025D01*
X0116606Y0073125D01*
X0116606Y0074733D01*
X0118113Y0074733D01*
X0119168Y0075788D01*
X0119550Y0076169D01*
X0119550Y0082162D01*
X0119625Y0082343D01*
X0119625Y0083487D01*
X0119187Y0084544D01*
X0118378Y0085352D01*
X0117322Y0085790D01*
X0116178Y0085790D01*
X0115121Y0085352D01*
X0114312Y0084544D01*
X0113875Y0083487D01*
X0113875Y0082343D01*
X0114312Y0081286D01*
X0114318Y0081281D01*
X0113734Y0081281D01*
X0113734Y0079092D01*
X0110462Y0079092D01*
X0110462Y0078206D01*
X0110565Y0077824D01*
X0110762Y0077482D01*
X0110862Y0077382D01*
X0110862Y0075715D01*
X0109504Y0075715D01*
X0108450Y0074661D01*
X0108050Y0074261D01*
X0108050Y0075669D01*
X0110050Y0077669D01*
X0110050Y0081169D01*
X0119050Y0090169D01*
X0119050Y0095215D01*
X0122697Y0095215D01*
X0122697Y0091141D01*
X0123210Y0090627D01*
X0122876Y0090434D01*
X0122597Y0090155D01*
X0122399Y0089813D01*
X0122297Y0089431D01*
X0122297Y0087175D01*
X0126250Y0087175D01*
X0126250Y0086175D01*
X0127250Y0086175D01*
X0127250Y0085609D02*
X0126250Y0085609D01*
X0126250Y0086175D02*
X0126250Y0082616D01*
X0123599Y0082616D01*
X0123218Y0082718D01*
X0122876Y0082916D01*
X0122597Y0083195D01*
X0122399Y0083537D01*
X0122297Y0083918D01*
X0122297Y0086175D01*
X0126250Y0086175D01*
X0126250Y0086608D02*
X0115488Y0086608D01*
X0115742Y0085609D02*
X0114490Y0085609D01*
X0114380Y0084611D02*
X0113491Y0084611D01*
X0113927Y0083612D02*
X0112493Y0083612D01*
X0111494Y0082614D02*
X0113875Y0082614D01*
X0114176Y0081615D02*
X0110496Y0081615D01*
X0111041Y0080981D02*
X0110762Y0080702D01*
X0110565Y0080360D01*
X0110462Y0079979D01*
X0110462Y0079092D01*
X0113734Y0079092D01*
X0113734Y0079092D01*
X0113734Y0079092D01*
X0113734Y0081281D01*
X0111765Y0081281D01*
X0111383Y0081179D01*
X0111041Y0080981D01*
X0110713Y0080617D02*
X0110050Y0080617D01*
X0110050Y0079618D02*
X0110462Y0079618D01*
X0110462Y0078620D02*
X0110050Y0078620D01*
X0110002Y0077621D02*
X0110682Y0077621D01*
X0110862Y0076623D02*
X0109003Y0076623D01*
X0109413Y0075624D02*
X0108050Y0075624D01*
X0108050Y0074626D02*
X0108415Y0074626D01*
X0110250Y0073915D02*
X0108250Y0071915D01*
X0108250Y0064415D01*
X0112250Y0060415D01*
X0112250Y0041915D01*
X0109750Y0039415D01*
X0104250Y0039415D01*
X0102250Y0037415D01*
X0094250Y0037415D01*
X0092250Y0035415D01*
X0085750Y0035415D01*
X0080750Y0030415D01*
X0078750Y0030415D01*
X0078250Y0030915D01*
X0078250Y0041155D01*
X0075990Y0043415D01*
X0073990Y0043415D01*
X0070331Y0043672D02*
X0070169Y0043672D01*
X0070169Y0044670D02*
X0070331Y0044670D01*
X0070331Y0045669D02*
X0070169Y0045669D01*
X0070169Y0046667D02*
X0070331Y0046667D01*
X0070331Y0046823D02*
X0070331Y0040007D01*
X0070975Y0039362D01*
X0076450Y0039362D01*
X0076450Y0034441D01*
X0076144Y0034315D01*
X0074850Y0033021D01*
X0074150Y0031330D01*
X0074150Y0029500D01*
X0074850Y0027809D01*
X0076144Y0026515D01*
X0077593Y0025915D01*
X0069906Y0025915D01*
X0071355Y0026515D01*
X0072649Y0027809D01*
X0073350Y0029500D01*
X0073350Y0031330D01*
X0072649Y0033021D01*
X0071355Y0034315D01*
X0069665Y0035015D01*
X0067835Y0035015D01*
X0066144Y0034315D01*
X0064850Y0033021D01*
X0064150Y0031330D01*
X0064150Y0029500D01*
X0064850Y0027809D01*
X0066144Y0026515D01*
X0067593Y0025915D01*
X0059906Y0025915D01*
X0061355Y0026515D01*
X0062649Y0027809D01*
X0063350Y0029500D01*
X0063350Y0031330D01*
X0063140Y0031836D01*
X0063196Y0031892D01*
X0063196Y0039661D01*
X0063495Y0039362D01*
X0069524Y0039362D01*
X0070169Y0040007D01*
X0070169Y0046823D01*
X0069986Y0047006D01*
X0070078Y0047097D01*
X0070078Y0052733D01*
X0069996Y0052815D01*
X0071113Y0052815D01*
X0071021Y0052475D01*
X0071021Y0050415D01*
X0074384Y0050415D01*
X0074384Y0049415D01*
X0071021Y0049415D01*
X0071021Y0047468D01*
X0070975Y0047468D01*
X0070331Y0046823D01*
X0070078Y0047666D02*
X0071021Y0047666D01*
X0071021Y0048665D02*
X0070078Y0048665D01*
X0070078Y0049663D02*
X0074384Y0049663D01*
X0075384Y0049663D02*
X0081150Y0049663D01*
X0080250Y0049415D02*
X0079750Y0049915D01*
X0080250Y0050415D01*
X0080250Y0051915D01*
X0084368Y0056033D01*
X0084368Y0058569D01*
X0084368Y0058569D01*
X0084368Y0061840D01*
X0085451Y0061840D01*
X0085833Y0061738D01*
X0086150Y0061555D01*
X0086150Y0062830D01*
X0085709Y0062390D01*
X0083026Y0062390D01*
X0082624Y0062792D01*
X0082624Y0061577D01*
X0082903Y0061738D01*
X0083284Y0061840D01*
X0084368Y0061840D01*
X0084368Y0058569D01*
X0084368Y0058568D02*
X0084368Y0056003D01*
X0084368Y0056003D01*
X0084368Y0058568D01*
X0084368Y0058568D01*
X0084368Y0058650D02*
X0084368Y0058650D01*
X0084368Y0059648D02*
X0084368Y0059648D01*
X0084368Y0060647D02*
X0084368Y0060647D01*
X0084368Y0061645D02*
X0084368Y0061645D01*
X0085993Y0061645D02*
X0086150Y0061645D01*
X0086150Y0062644D02*
X0085963Y0062644D01*
X0084368Y0065262D02*
X0084368Y0073569D01*
X0080825Y0073569D01*
X0080825Y0080262D01*
X0080750Y0080336D01*
X0080750Y0093415D01*
X0081250Y0093915D01*
X0081250Y0100415D01*
X0080947Y0100718D01*
X0080947Y0102588D01*
X0075435Y0102588D02*
X0075435Y0100230D01*
X0078250Y0097415D01*
X0076750Y0094915D02*
X0077250Y0094415D01*
X0077250Y0092915D01*
X0075856Y0089603D02*
X0078950Y0089603D01*
X0078950Y0088605D02*
X0076049Y0088605D01*
X0076049Y0087606D02*
X0078950Y0087606D01*
X0078950Y0086608D02*
X0076049Y0086608D01*
X0076049Y0084611D02*
X0078950Y0084611D01*
X0078950Y0085609D02*
X0072490Y0085609D01*
X0072490Y0086415D02*
X0071490Y0086415D01*
X0071490Y0090368D01*
X0070990Y0090368D01*
X0070990Y0092415D01*
X0071990Y0092415D01*
X0071990Y0088462D01*
X0072490Y0088462D01*
X0072490Y0086415D01*
X0072490Y0086608D02*
X0071490Y0086608D01*
X0071490Y0087606D02*
X0072490Y0087606D01*
X0071990Y0088605D02*
X0071490Y0088605D01*
X0071490Y0089603D02*
X0071990Y0089603D01*
X0071990Y0090602D02*
X0070990Y0090602D01*
X0070990Y0091601D02*
X0071990Y0091601D01*
X0071990Y0093598D02*
X0070990Y0093598D01*
X0070990Y0094596D02*
X0071990Y0094596D01*
X0071990Y0095595D02*
X0070990Y0095595D01*
X0070990Y0096593D02*
X0071990Y0096593D01*
X0071669Y0097592D02*
X0054327Y0097592D01*
X0054741Y0096593D02*
X0060620Y0096593D01*
X0060350Y0095595D02*
X0054850Y0095595D01*
X0054850Y0094596D02*
X0060350Y0094596D01*
X0060350Y0093598D02*
X0054476Y0093598D01*
X0053939Y0092599D02*
X0060350Y0092599D01*
X0060350Y0091601D02*
X0052941Y0091601D01*
X0051649Y0089603D02*
X0060350Y0089603D01*
X0060350Y0090602D02*
X0043686Y0090602D01*
X0044169Y0089603D02*
X0044331Y0089603D01*
X0044331Y0088605D02*
X0044169Y0088605D01*
X0044169Y0087606D02*
X0044331Y0087606D01*
X0044331Y0086608D02*
X0044169Y0086608D01*
X0044169Y0085609D02*
X0044331Y0085609D01*
X0044331Y0084611D02*
X0044169Y0084611D01*
X0044169Y0083612D02*
X0044331Y0083612D01*
X0044724Y0082614D02*
X0043776Y0082614D01*
X0042310Y0081615D02*
X0048450Y0081615D01*
X0048450Y0080617D02*
X0042310Y0080617D01*
X0042310Y0079618D02*
X0048450Y0079618D01*
X0048450Y0078620D02*
X0042310Y0078620D01*
X0042310Y0077621D02*
X0048450Y0077621D01*
X0048450Y0076623D02*
X0042310Y0076623D01*
X0042310Y0075624D02*
X0048450Y0075624D01*
X0048450Y0074626D02*
X0046696Y0074626D01*
X0047498Y0074163D02*
X0047498Y0074163D01*
X0047807Y0073627D02*
X0048396Y0073627D01*
X0050250Y0071415D02*
X0050250Y0084155D01*
X0047990Y0086415D01*
X0049750Y0086415D01*
X0051649Y0086608D02*
X0053311Y0086608D01*
X0053311Y0085609D02*
X0051649Y0085609D01*
X0052050Y0084611D02*
X0053311Y0084611D01*
X0053311Y0083612D02*
X0052050Y0083612D01*
X0052050Y0082614D02*
X0053311Y0082614D01*
X0053311Y0081615D02*
X0052050Y0081615D01*
X0052050Y0080617D02*
X0053311Y0080617D01*
X0053311Y0079618D02*
X0052050Y0079618D01*
X0052050Y0078620D02*
X0053311Y0078620D01*
X0053311Y0077621D02*
X0052050Y0077621D01*
X0052050Y0076623D02*
X0053311Y0076623D01*
X0052050Y0075624D02*
X0055564Y0075624D01*
X0055564Y0074626D02*
X0052050Y0074626D01*
X0052103Y0073627D02*
X0055564Y0073627D01*
X0054918Y0072629D02*
X0052859Y0072629D01*
X0053125Y0071630D02*
X0053919Y0071630D01*
X0057364Y0072529D02*
X0049750Y0064915D01*
X0040250Y0064915D01*
X0037250Y0067915D01*
X0037250Y0071915D01*
X0040510Y0075175D01*
X0040510Y0086415D01*
X0036850Y0086608D02*
X0036226Y0086608D01*
X0036226Y0085609D02*
X0036850Y0085609D01*
X0036850Y0084611D02*
X0036226Y0084611D01*
X0036226Y0083612D02*
X0036850Y0083612D01*
X0037243Y0082614D02*
X0036226Y0082614D01*
X0036226Y0081615D02*
X0038710Y0081615D01*
X0038710Y0080617D02*
X0036226Y0080617D01*
X0036226Y0078620D02*
X0038710Y0078620D01*
X0038710Y0079618D02*
X0032273Y0079618D01*
X0032273Y0078620D02*
X0031273Y0078620D01*
X0031273Y0079618D02*
X0022250Y0079618D01*
X0022250Y0078620D02*
X0027321Y0078620D01*
X0027321Y0077621D02*
X0022250Y0077621D01*
X0022250Y0080617D02*
X0027321Y0080617D01*
X0027321Y0081615D02*
X0022250Y0081615D01*
X0022250Y0082614D02*
X0027321Y0082614D01*
X0027321Y0083612D02*
X0022250Y0083612D01*
X0022250Y0084611D02*
X0027321Y0084611D01*
X0027321Y0085609D02*
X0022250Y0085609D01*
X0022250Y0086608D02*
X0027321Y0086608D01*
X0027780Y0087606D02*
X0022250Y0087606D01*
X0022250Y0088605D02*
X0036850Y0088605D01*
X0036850Y0089603D02*
X0022250Y0089603D01*
X0022250Y0090602D02*
X0038900Y0090602D01*
X0038010Y0091601D02*
X0036507Y0091601D01*
X0036691Y0092599D02*
X0037552Y0092599D01*
X0037415Y0093598D02*
X0036691Y0093598D01*
X0036691Y0094596D02*
X0037415Y0094596D01*
X0037415Y0095595D02*
X0036691Y0095595D01*
X0036691Y0096593D02*
X0037415Y0096593D01*
X0037415Y0097592D02*
X0036691Y0097592D01*
X0036691Y0098590D02*
X0041104Y0098590D01*
X0041482Y0098590D02*
X0046919Y0098590D01*
X0046172Y0097592D02*
X0045171Y0097592D01*
X0045171Y0096593D02*
X0045759Y0096593D01*
X0045650Y0095595D02*
X0045171Y0095595D01*
X0045171Y0094596D02*
X0045650Y0094596D01*
X0046024Y0093598D02*
X0045171Y0093598D01*
X0045034Y0092599D02*
X0046560Y0092599D01*
X0047559Y0091601D02*
X0044576Y0091601D01*
X0050250Y0095415D02*
X0050250Y0106175D01*
X0049010Y0107415D01*
X0051110Y0111468D02*
X0051110Y0113396D01*
X0051192Y0113479D01*
X0051192Y0119114D01*
X0050548Y0119759D01*
X0047471Y0119759D01*
X0046827Y0119114D01*
X0046827Y0118333D01*
X0044001Y0118333D01*
X0043914Y0118421D01*
X0040587Y0118421D01*
X0040628Y0118520D01*
X0040628Y0119665D01*
X0040212Y0120668D01*
X0040911Y0120529D01*
X0041104Y0120529D01*
X0041104Y0124218D01*
X0041482Y0124218D01*
X0041482Y0120529D01*
X0041675Y0120529D01*
X0042424Y0120678D01*
X0043130Y0120971D01*
X0043765Y0121395D01*
X0044245Y0121875D01*
X0044950Y0121169D01*
X0046004Y0120115D01*
X0055995Y0120115D01*
X0057235Y0121355D01*
X0058290Y0122410D01*
X0058290Y0123333D01*
X0058673Y0123716D01*
X0058673Y0129351D01*
X0058270Y0129754D01*
X0058750Y0129754D01*
X0058750Y0133903D01*
X0059750Y0133903D01*
X0059750Y0134903D01*
X0065264Y0134903D01*
X0065312Y0134786D01*
X0066121Y0133978D01*
X0067178Y0133540D01*
X0068322Y0133540D01*
X0069378Y0133978D01*
X0069653Y0134253D01*
X0070595Y0134253D01*
X0070595Y0133826D01*
X0071123Y0133297D01*
X0070595Y0132768D01*
X0070595Y0130436D01*
X0069878Y0131152D01*
X0068822Y0131590D01*
X0067678Y0131590D01*
X0066621Y0131152D01*
X0065812Y0130344D01*
X0065375Y0129287D01*
X0065375Y0128143D01*
X0065812Y0127086D01*
X0066621Y0126278D01*
X0067678Y0125840D01*
X0068822Y0125840D01*
X0069485Y0126115D01*
X0070195Y0126115D01*
X0070195Y0125415D01*
X0073474Y0125415D01*
X0073474Y0124643D01*
X0070195Y0124643D01*
X0070195Y0123816D01*
X0069850Y0124161D01*
X0068795Y0125215D01*
X0066530Y0125215D01*
X0066187Y0126044D01*
X0065378Y0126852D01*
X0064322Y0127290D01*
X0063178Y0127290D01*
X0062121Y0126852D01*
X0061312Y0126044D01*
X0060875Y0124987D01*
X0060875Y0123843D01*
X0061135Y0123214D01*
X0061099Y0123214D01*
X0060718Y0123112D01*
X0060376Y0122915D01*
X0060097Y0122635D01*
X0059899Y0122293D01*
X0059797Y0121912D01*
X0059797Y0119655D01*
X0063750Y0119655D01*
X0063750Y0118655D01*
X0059797Y0118655D01*
X0059797Y0116399D01*
X0059899Y0116017D01*
X0060097Y0115675D01*
X0060376Y0115396D01*
X0060710Y0115203D01*
X0060420Y0114912D01*
X0058673Y0116659D01*
X0058673Y0119114D01*
X0058028Y0119759D01*
X0054952Y0119759D01*
X0054307Y0119114D01*
X0054307Y0113479D01*
X0054952Y0112834D01*
X0057406Y0112834D01*
X0058373Y0111868D01*
X0056990Y0111868D01*
X0056990Y0107915D01*
X0055990Y0107915D01*
X0055990Y0111868D01*
X0053733Y0111868D01*
X0053352Y0111766D01*
X0053010Y0111568D01*
X0052731Y0111289D01*
X0052538Y0110955D01*
X0052024Y0111468D01*
X0051110Y0111468D01*
X0051110Y0111571D02*
X0053014Y0111571D01*
X0051110Y0112569D02*
X0057672Y0112569D01*
X0056990Y0111571D02*
X0055990Y0111571D01*
X0055990Y0110572D02*
X0056990Y0110572D01*
X0056990Y0109574D02*
X0055990Y0109574D01*
X0055990Y0108575D02*
X0056990Y0108575D01*
X0056990Y0107577D02*
X0061406Y0107577D01*
X0060667Y0106578D02*
X0060549Y0106578D01*
X0060529Y0102584D02*
X0052050Y0102584D01*
X0052050Y0101586D02*
X0061074Y0101586D01*
X0062072Y0100587D02*
X0052050Y0100587D01*
X0052194Y0099589D02*
X0070550Y0099589D01*
X0070550Y0100587D02*
X0067427Y0100587D01*
X0068426Y0101586D02*
X0070550Y0101586D01*
X0070550Y0102584D02*
X0068970Y0102584D01*
X0069963Y0103583D02*
X0070550Y0103583D01*
X0068250Y0104415D02*
X0069750Y0105915D01*
X0069750Y0110365D01*
X0070650Y0111265D01*
X0069408Y0112569D02*
X0068302Y0112569D01*
X0069004Y0112165D02*
X0068302Y0111463D01*
X0068302Y0114690D01*
X0067789Y0115203D01*
X0068123Y0115396D01*
X0068403Y0115675D01*
X0068600Y0116017D01*
X0068702Y0116399D01*
X0068702Y0118655D01*
X0064750Y0118655D01*
X0064750Y0119655D01*
X0068702Y0119655D01*
X0068702Y0120415D01*
X0069995Y0120415D01*
X0070195Y0120615D01*
X0070595Y0120615D01*
X0070595Y0117290D01*
X0070858Y0117026D01*
X0070774Y0116978D01*
X0070494Y0116698D01*
X0070297Y0116356D01*
X0070195Y0115975D01*
X0070195Y0114391D01*
X0073474Y0114391D01*
X0073474Y0113620D01*
X0070195Y0113620D01*
X0070195Y0113065D01*
X0069904Y0113065D01*
X0069004Y0112165D01*
X0068410Y0111571D02*
X0068302Y0111571D01*
X0068302Y0113568D02*
X0070195Y0113568D01*
X0070195Y0114566D02*
X0068302Y0114566D01*
X0068292Y0115565D02*
X0070195Y0115565D01*
X0070416Y0116563D02*
X0068702Y0116563D01*
X0068702Y0117562D02*
X0070595Y0117562D01*
X0070595Y0118560D02*
X0068702Y0118560D01*
X0070595Y0119559D02*
X0064750Y0119559D01*
X0063750Y0119559D02*
X0058228Y0119559D01*
X0058673Y0118560D02*
X0059797Y0118560D01*
X0059797Y0117562D02*
X0058673Y0117562D01*
X0058769Y0116563D02*
X0059797Y0116563D01*
X0059767Y0115565D02*
X0060207Y0115565D01*
X0056490Y0116297D02*
X0061112Y0111675D01*
X0064250Y0111675D01*
X0064750Y0104415D02*
X0068250Y0104415D01*
X0072250Y0105415D02*
X0072250Y0106884D01*
X0073860Y0108494D01*
X0070671Y0098590D02*
X0053580Y0098590D01*
X0052707Y0103583D02*
X0052245Y0103583D01*
X0055990Y0103583D02*
X0056990Y0103583D01*
X0056990Y0104581D02*
X0055990Y0104581D01*
X0055990Y0105580D02*
X0056990Y0105580D01*
X0056990Y0106578D02*
X0055990Y0106578D01*
X0054307Y0113568D02*
X0051192Y0113568D01*
X0051192Y0114566D02*
X0054307Y0114566D01*
X0054307Y0115565D02*
X0051192Y0115565D01*
X0051192Y0116563D02*
X0054307Y0116563D01*
X0054307Y0117562D02*
X0051192Y0117562D01*
X0051192Y0118560D02*
X0054307Y0118560D01*
X0054752Y0119559D02*
X0050748Y0119559D01*
X0047271Y0119559D02*
X0040628Y0119559D01*
X0040628Y0118560D02*
X0046827Y0118560D01*
X0045562Y0120557D02*
X0041816Y0120557D01*
X0041482Y0120557D02*
X0041104Y0120557D01*
X0040770Y0120557D02*
X0040258Y0120557D01*
X0041104Y0121556D02*
X0041482Y0121556D01*
X0041482Y0122554D02*
X0041104Y0122554D01*
X0041104Y0123553D02*
X0041482Y0123553D01*
X0041104Y0124218D02*
X0037415Y0124218D01*
X0037415Y0124025D01*
X0037564Y0123276D01*
X0037856Y0122570D01*
X0038257Y0121970D01*
X0037177Y0121970D01*
X0036691Y0121769D01*
X0036691Y0125498D01*
X0033949Y0125498D01*
X0033941Y0125588D01*
X0033949Y0125679D01*
X0036691Y0125679D01*
X0036691Y0130707D01*
X0036588Y0131089D01*
X0036391Y0131431D01*
X0036265Y0131556D01*
X0036283Y0131574D01*
X0036495Y0131362D01*
X0038099Y0131362D01*
X0037856Y0131000D01*
X0037564Y0130294D01*
X0037415Y0129545D01*
X0037415Y0124596D01*
X0041104Y0124596D01*
X0041104Y0124218D01*
X0041104Y0124551D02*
X0036691Y0124551D01*
X0036691Y0123553D02*
X0037509Y0123553D01*
X0037867Y0122554D02*
X0036691Y0122554D01*
X0037415Y0125550D02*
X0033944Y0125550D01*
X0036691Y0126548D02*
X0037415Y0126548D01*
X0037415Y0127547D02*
X0036691Y0127547D01*
X0036691Y0128545D02*
X0037415Y0128545D01*
X0037415Y0129544D02*
X0036691Y0129544D01*
X0036691Y0130542D02*
X0037667Y0130542D01*
X0036316Y0131541D02*
X0036281Y0131541D01*
X0039053Y0134958D02*
X0033388Y0134958D01*
X0035850Y0138421D02*
X0030570Y0138421D01*
X0029925Y0137776D01*
X0029925Y0132141D01*
X0030056Y0132010D01*
X0028451Y0132010D01*
X0028582Y0132141D01*
X0028582Y0137776D01*
X0027938Y0138421D01*
X0027881Y0138421D01*
X0028081Y0138474D01*
X0028423Y0138671D01*
X0028702Y0138951D01*
X0028899Y0139293D01*
X0029002Y0139674D01*
X0029002Y0141734D01*
X0025640Y0141734D01*
X0025640Y0142734D01*
X0029002Y0142734D01*
X0029002Y0144780D01*
X0029945Y0144780D01*
X0029945Y0139416D01*
X0030589Y0138772D01*
X0035850Y0138772D01*
X0035850Y0138421D01*
X0035850Y0138531D02*
X0028179Y0138531D01*
X0028582Y0137532D02*
X0029925Y0137532D01*
X0029925Y0136534D02*
X0028582Y0136534D01*
X0028582Y0135535D02*
X0029925Y0135535D01*
X0029250Y0134915D02*
X0029250Y0125588D01*
X0030269Y0125588D01*
X0029925Y0132539D02*
X0028582Y0132539D01*
X0028582Y0133538D02*
X0029925Y0133538D01*
X0029925Y0134536D02*
X0028582Y0134536D01*
X0025120Y0134958D02*
X0022750Y0132588D01*
X0022750Y0119415D01*
X0023750Y0118415D01*
X0034250Y0118415D01*
X0036132Y0116533D01*
X0040801Y0116533D01*
X0048773Y0116533D01*
X0049010Y0116297D01*
X0046827Y0114566D02*
X0044558Y0114566D01*
X0044558Y0113568D02*
X0046827Y0113568D01*
X0046910Y0112569D02*
X0044558Y0112569D01*
X0044558Y0111571D02*
X0046910Y0111571D01*
X0045350Y0110572D02*
X0044558Y0110572D01*
X0044558Y0109574D02*
X0045350Y0109574D01*
X0045350Y0108575D02*
X0044558Y0108575D01*
X0044879Y0107577D02*
X0045350Y0107577D01*
X0045350Y0106578D02*
X0044958Y0106578D01*
X0044958Y0106297D02*
X0040801Y0106297D01*
X0040801Y0106297D01*
X0044958Y0106297D01*
X0044958Y0105580D02*
X0045350Y0105580D01*
X0045350Y0104581D02*
X0044651Y0104581D01*
X0045775Y0103583D02*
X0040628Y0103583D01*
X0040801Y0104010D02*
X0040801Y0106297D01*
X0040801Y0104010D01*
X0040801Y0104581D02*
X0040801Y0104581D01*
X0040801Y0105580D02*
X0040801Y0105580D01*
X0040801Y0106297D02*
X0040801Y0106297D01*
X0040387Y0102584D02*
X0048450Y0102584D01*
X0048450Y0101586D02*
X0043540Y0101586D01*
X0043765Y0101435D02*
X0043130Y0101860D01*
X0042424Y0102152D01*
X0041675Y0102301D01*
X0041482Y0102301D01*
X0041482Y0098612D01*
X0045171Y0098612D01*
X0045171Y0098805D01*
X0045022Y0099554D01*
X0044730Y0100260D01*
X0044305Y0100895D01*
X0043765Y0101435D01*
X0044511Y0100587D02*
X0048450Y0100587D01*
X0048305Y0099589D02*
X0045008Y0099589D01*
X0041482Y0099589D02*
X0041104Y0099589D01*
X0041104Y0100587D02*
X0041482Y0100587D01*
X0041482Y0101586D02*
X0041104Y0101586D01*
X0038075Y0100587D02*
X0036691Y0100587D01*
X0036691Y0099589D02*
X0037578Y0099589D01*
X0034984Y0104581D02*
X0022250Y0104581D01*
X0022250Y0103583D02*
X0024850Y0103583D01*
X0023908Y0102584D02*
X0022250Y0102584D01*
X0022250Y0101586D02*
X0023848Y0101586D01*
X0023848Y0100587D02*
X0022250Y0100587D01*
X0022250Y0099589D02*
X0023848Y0099589D01*
X0023848Y0098590D02*
X0022250Y0098590D01*
X0022250Y0097592D02*
X0023848Y0097592D01*
X0023848Y0096593D02*
X0022250Y0096593D01*
X0022250Y0095595D02*
X0023848Y0095595D01*
X0023848Y0094596D02*
X0022250Y0094596D01*
X0022250Y0093598D02*
X0023848Y0093598D01*
X0023848Y0092599D02*
X0022250Y0092599D01*
X0022250Y0091601D02*
X0024032Y0091601D01*
X0030179Y0091601D02*
X0030360Y0091601D01*
X0030360Y0092599D02*
X0030179Y0092599D01*
X0030179Y0093598D02*
X0030360Y0093598D01*
X0031273Y0087606D02*
X0032273Y0087606D01*
X0032273Y0086608D02*
X0031273Y0086608D01*
X0031273Y0085609D02*
X0032273Y0085609D01*
X0032273Y0084611D02*
X0031273Y0084611D01*
X0031273Y0083612D02*
X0032273Y0083612D01*
X0032273Y0082614D02*
X0031273Y0082614D01*
X0031273Y0081615D02*
X0032273Y0081615D01*
X0032273Y0080617D02*
X0031273Y0080617D01*
X0031273Y0077621D02*
X0032273Y0077621D01*
X0032273Y0076623D02*
X0031273Y0076623D01*
X0031273Y0075624D02*
X0032273Y0075624D01*
X0032273Y0074626D02*
X0031273Y0074626D01*
X0031273Y0073627D02*
X0032273Y0073627D01*
X0032273Y0072629D02*
X0031273Y0072629D01*
X0029901Y0070632D02*
X0026750Y0070632D01*
X0026750Y0071630D02*
X0035450Y0071630D01*
X0035450Y0070632D02*
X0033599Y0070632D01*
X0034357Y0069633D02*
X0035450Y0069633D01*
X0035450Y0068635D02*
X0034625Y0068635D01*
X0034539Y0067636D02*
X0035450Y0067636D01*
X0035981Y0066638D02*
X0034038Y0066638D01*
X0033573Y0065639D02*
X0036980Y0065639D01*
X0037375Y0064641D02*
X0033573Y0064641D01*
X0033573Y0063642D02*
X0037665Y0063642D01*
X0038450Y0062644D02*
X0033573Y0062644D01*
X0033573Y0061645D02*
X0038450Y0061645D01*
X0038350Y0060647D02*
X0035826Y0060647D01*
X0035826Y0059648D02*
X0038350Y0059648D01*
X0038350Y0058650D02*
X0035826Y0058650D01*
X0035826Y0057651D02*
X0038350Y0057651D01*
X0038350Y0056653D02*
X0035826Y0056653D01*
X0035826Y0055654D02*
X0038350Y0055654D01*
X0038350Y0054656D02*
X0035826Y0054656D01*
X0035826Y0053657D02*
X0038350Y0053657D01*
X0038350Y0052659D02*
X0035826Y0052659D01*
X0035826Y0051660D02*
X0038350Y0051660D01*
X0038350Y0050662D02*
X0035826Y0050662D01*
X0035443Y0049663D02*
X0038733Y0049663D01*
X0042328Y0048665D02*
X0042659Y0048665D01*
X0045990Y0048665D02*
X0046990Y0048665D01*
X0046990Y0047666D02*
X0045990Y0047666D01*
X0045990Y0046667D02*
X0046990Y0046667D01*
X0046990Y0045669D02*
X0045990Y0045669D01*
X0046990Y0044670D02*
X0051150Y0044670D01*
X0051150Y0043672D02*
X0050549Y0043672D01*
X0050549Y0042673D02*
X0051150Y0042673D01*
X0051150Y0041675D02*
X0050525Y0041675D01*
X0051150Y0040676D02*
X0049822Y0040676D01*
X0051150Y0039678D02*
X0022250Y0039678D01*
X0022250Y0038679D02*
X0051150Y0038679D01*
X0051150Y0037681D02*
X0022250Y0037681D01*
X0022250Y0036682D02*
X0051150Y0036682D01*
X0051049Y0035684D02*
X0022250Y0035684D01*
X0024510Y0040676D02*
X0025510Y0040676D01*
X0025510Y0041675D02*
X0024510Y0041675D01*
X0024510Y0042673D02*
X0025510Y0042673D01*
X0025510Y0043672D02*
X0024510Y0043672D01*
X0024510Y0045669D02*
X0025510Y0045669D01*
X0025510Y0046667D02*
X0024510Y0046667D01*
X0024510Y0047666D02*
X0025510Y0047666D01*
X0025510Y0048665D02*
X0024510Y0048665D01*
X0022250Y0049663D02*
X0028104Y0049663D01*
X0027721Y0050662D02*
X0022250Y0050662D01*
X0022250Y0051660D02*
X0027721Y0051660D01*
X0027721Y0052659D02*
X0022250Y0052659D01*
X0022250Y0053657D02*
X0027721Y0053657D01*
X0027721Y0054656D02*
X0022250Y0054656D01*
X0022250Y0055654D02*
X0027721Y0055654D01*
X0027721Y0056653D02*
X0022250Y0056653D01*
X0022250Y0057651D02*
X0027721Y0057651D01*
X0027721Y0058650D02*
X0022250Y0058650D01*
X0026104Y0059648D02*
X0027721Y0059648D01*
X0027721Y0060647D02*
X0026750Y0060647D01*
X0026750Y0061645D02*
X0029973Y0061645D01*
X0029973Y0062644D02*
X0026750Y0062644D01*
X0026750Y0063642D02*
X0029973Y0063642D01*
X0029973Y0064641D02*
X0026750Y0064641D01*
X0026750Y0065639D02*
X0029973Y0065639D01*
X0029461Y0066638D02*
X0026750Y0066638D01*
X0026750Y0067636D02*
X0028960Y0067636D01*
X0028875Y0068635D02*
X0026750Y0068635D01*
X0026750Y0069633D02*
X0029142Y0069633D01*
X0031750Y0068415D02*
X0031773Y0068391D01*
X0031773Y0055423D01*
X0032057Y0055706D01*
X0032490Y0055706D01*
X0032490Y0044915D01*
X0039010Y0044915D01*
X0043158Y0040676D02*
X0028341Y0040676D01*
X0028841Y0048665D02*
X0029172Y0048665D01*
X0040250Y0057576D02*
X0042403Y0055423D01*
X0040250Y0057576D02*
X0040250Y0064915D01*
X0042050Y0062644D02*
X0068950Y0062644D01*
X0068950Y0063642D02*
X0051022Y0063642D01*
X0052021Y0064641D02*
X0060594Y0064641D01*
X0061281Y0064356D02*
X0062896Y0064356D01*
X0064388Y0064974D01*
X0065529Y0066116D01*
X0066147Y0067608D01*
X0066147Y0069222D01*
X0065529Y0070714D01*
X0064388Y0071856D01*
X0062896Y0072474D01*
X0061281Y0072474D01*
X0059789Y0071856D01*
X0058647Y0070714D01*
X0058029Y0069222D01*
X0058029Y0067608D01*
X0058647Y0066116D01*
X0059789Y0064974D01*
X0061281Y0064356D01*
X0063583Y0064641D02*
X0068950Y0064641D01*
X0068950Y0065639D02*
X0065053Y0065639D01*
X0065746Y0066638D02*
X0068950Y0066638D01*
X0068168Y0067636D02*
X0066147Y0067636D01*
X0066147Y0068635D02*
X0067875Y0068635D01*
X0067935Y0069633D02*
X0065977Y0069633D01*
X0065564Y0070632D02*
X0068401Y0070632D01*
X0068950Y0071630D02*
X0064613Y0071630D01*
X0068950Y0072629D02*
X0059164Y0072629D01*
X0059164Y0073627D02*
X0069916Y0073627D01*
X0070915Y0074626D02*
X0059164Y0074626D01*
X0059164Y0075624D02*
X0072146Y0075624D01*
X0072015Y0077621D02*
X0061417Y0077621D01*
X0061417Y0076623D02*
X0079025Y0076623D01*
X0077675Y0073569D02*
X0074132Y0073569D01*
X0072403Y0073569D01*
X0070750Y0071915D01*
X0070750Y0068915D01*
X0070750Y0061950D01*
X0074132Y0058569D01*
X0077675Y0058569D01*
X0075903Y0061010D02*
X0075473Y0061440D01*
X0073806Y0061440D01*
X0073256Y0061990D01*
X0074132Y0061990D01*
X0075215Y0061990D01*
X0075596Y0062092D01*
X0075938Y0062290D01*
X0076186Y0062537D01*
X0076333Y0062390D01*
X0079016Y0062390D01*
X0079025Y0062398D01*
X0079025Y0061432D01*
X0079016Y0061440D01*
X0076333Y0061440D01*
X0075903Y0061010D01*
X0074132Y0061990D02*
X0074132Y0065261D01*
X0074132Y0065261D01*
X0074132Y0061990D01*
X0073601Y0061645D02*
X0079025Y0061645D01*
X0080825Y0058569D02*
X0080825Y0065262D01*
X0084368Y0065262D01*
X0082568Y0067731D02*
X0082166Y0068133D01*
X0079483Y0068133D01*
X0079250Y0067900D01*
X0079016Y0068133D01*
X0076333Y0068133D01*
X0076186Y0067986D01*
X0075938Y0068233D01*
X0075596Y0068431D01*
X0075215Y0068533D01*
X0074132Y0068533D01*
X0074132Y0065262D01*
X0074132Y0065262D01*
X0074132Y0068533D01*
X0073625Y0068533D01*
X0073625Y0069487D01*
X0073187Y0070544D01*
X0073034Y0070697D01*
X0075473Y0070697D01*
X0075903Y0071127D01*
X0076333Y0070697D01*
X0079016Y0070697D01*
X0079250Y0070930D01*
X0079483Y0070697D01*
X0082166Y0070697D01*
X0082568Y0071099D01*
X0082568Y0067731D01*
X0082568Y0068635D02*
X0073625Y0068635D01*
X0073564Y0069633D02*
X0082568Y0069633D01*
X0082568Y0070632D02*
X0073099Y0070632D01*
X0074132Y0067636D02*
X0074132Y0067636D01*
X0074132Y0066638D02*
X0074132Y0066638D01*
X0074132Y0065639D02*
X0074132Y0065639D01*
X0074132Y0064641D02*
X0074132Y0064641D01*
X0074132Y0063642D02*
X0074132Y0063642D01*
X0074132Y0062644D02*
X0074132Y0062644D01*
X0077675Y0065262D02*
X0080825Y0065262D01*
X0082624Y0062644D02*
X0082773Y0062644D01*
X0082742Y0061645D02*
X0082624Y0061645D01*
X0084368Y0057651D02*
X0084368Y0057651D01*
X0084368Y0056653D02*
X0084368Y0056653D01*
X0083662Y0055297D02*
X0082380Y0054015D01*
X0082380Y0054015D01*
X0081150Y0052785D01*
X0081150Y0043381D01*
X0080812Y0043044D01*
X0080375Y0041987D01*
X0080375Y0040843D01*
X0080812Y0039786D01*
X0081621Y0038978D01*
X0082678Y0038540D01*
X0083822Y0038540D01*
X0084878Y0038978D01*
X0085687Y0039786D01*
X0086125Y0040843D01*
X0086125Y0041035D01*
X0086144Y0041015D01*
X0087835Y0040315D01*
X0089665Y0040315D01*
X0091355Y0041015D01*
X0092649Y0042309D01*
X0093350Y0044000D01*
X0093350Y0045830D01*
X0093016Y0046636D01*
X0097975Y0051595D01*
X0097975Y0056086D01*
X0097875Y0056186D01*
X0097875Y0056805D01*
X0097983Y0056697D01*
X0100666Y0056697D01*
X0101068Y0057099D01*
X0101068Y0049779D01*
X0100470Y0049181D01*
X0099665Y0049515D01*
X0097835Y0049515D01*
X0096144Y0048815D01*
X0094850Y0047521D01*
X0094150Y0045830D01*
X0094150Y0044000D01*
X0094850Y0042309D01*
X0096144Y0041015D01*
X0097835Y0040315D01*
X0099665Y0040315D01*
X0101355Y0041015D01*
X0102649Y0042309D01*
X0103350Y0044000D01*
X0103350Y0045830D01*
X0103016Y0046636D01*
X0104668Y0048288D01*
X0104668Y0057155D01*
X0104854Y0057341D01*
X0104854Y0061796D01*
X0104209Y0062440D01*
X0101526Y0062440D01*
X0101096Y0062010D01*
X0101024Y0062082D01*
X0101024Y0063326D01*
X0101061Y0063290D01*
X0101403Y0063092D01*
X0101784Y0062990D01*
X0102868Y0062990D01*
X0103951Y0062990D01*
X0104333Y0063092D01*
X0104450Y0063160D01*
X0104450Y0062669D01*
X0107950Y0059169D01*
X0107950Y0045790D01*
X0107678Y0045790D01*
X0106621Y0045352D01*
X0105812Y0044544D01*
X0105375Y0043487D01*
X0105375Y0042343D01*
X0105812Y0041286D01*
X0105884Y0041215D01*
X0103504Y0041215D01*
X0102450Y0040161D01*
X0101504Y0039215D01*
X0093504Y0039215D01*
X0091504Y0037215D01*
X0085004Y0037215D01*
X0081730Y0033941D01*
X0081355Y0034315D01*
X0080050Y0034856D01*
X0080050Y0041901D01*
X0077790Y0044161D01*
X0077649Y0044302D01*
X0077649Y0046108D01*
X0077825Y0046155D01*
X0078167Y0046353D01*
X0078446Y0046632D01*
X0078644Y0046974D01*
X0078746Y0047355D01*
X0078746Y0049415D01*
X0075384Y0049415D01*
X0075384Y0050415D01*
X0078746Y0050415D01*
X0078746Y0052475D01*
X0078655Y0052815D01*
X0080620Y0052815D01*
X0081850Y0054045D01*
X0082924Y0055120D01*
X0082924Y0055393D01*
X0083284Y0055297D01*
X0083662Y0055297D01*
X0083020Y0054656D02*
X0082460Y0054656D01*
X0082022Y0053657D02*
X0081462Y0053657D01*
X0081150Y0052659D02*
X0078696Y0052659D01*
X0078746Y0051660D02*
X0081150Y0051660D01*
X0081150Y0050662D02*
X0078746Y0050662D01*
X0078746Y0048665D02*
X0081150Y0048665D01*
X0081150Y0047666D02*
X0078746Y0047666D01*
X0078467Y0046667D02*
X0081150Y0046667D01*
X0081150Y0045669D02*
X0077649Y0045669D01*
X0077649Y0044670D02*
X0081150Y0044670D01*
X0081150Y0043672D02*
X0078279Y0043672D01*
X0079277Y0042673D02*
X0080659Y0042673D01*
X0080375Y0041675D02*
X0080050Y0041675D01*
X0080050Y0040676D02*
X0080444Y0040676D01*
X0080050Y0039678D02*
X0080921Y0039678D01*
X0080050Y0038679D02*
X0082341Y0038679D01*
X0084158Y0038679D02*
X0092968Y0038679D01*
X0091970Y0037681D02*
X0080050Y0037681D01*
X0080050Y0036682D02*
X0084471Y0036682D01*
X0083473Y0035684D02*
X0080050Y0035684D01*
X0080461Y0034685D02*
X0082474Y0034685D01*
X0083795Y0030915D02*
X0083350Y0030469D01*
X0083350Y0029500D01*
X0082649Y0027809D01*
X0081355Y0026515D01*
X0079906Y0025915D01*
X0086568Y0025915D01*
X0086129Y0026139D01*
X0085492Y0026601D01*
X0084936Y0027158D01*
X0084473Y0027794D01*
X0084116Y0028496D01*
X0083873Y0029244D01*
X0083767Y0029915D01*
X0088250Y0029915D01*
X0088250Y0030915D01*
X0083795Y0030915D01*
X0083572Y0030691D02*
X0088250Y0030691D01*
X0088750Y0030415D02*
X0088750Y0019230D01*
X0090931Y0025915D02*
X0091370Y0026139D01*
X0092007Y0026601D01*
X0092563Y0027158D01*
X0093026Y0027794D01*
X0093383Y0028496D01*
X0093627Y0029244D01*
X0093733Y0029915D01*
X0089250Y0029915D01*
X0089250Y0030915D01*
X0093733Y0030915D01*
X0093627Y0031586D01*
X0093383Y0032334D01*
X0093026Y0033036D01*
X0092605Y0033615D01*
X0092995Y0033615D01*
X0094050Y0034669D01*
X0094995Y0035615D01*
X0102995Y0035615D01*
X0104995Y0037615D01*
X0110495Y0037615D01*
X0112995Y0040115D01*
X0114050Y0041169D01*
X0114050Y0049300D01*
X0114175Y0049248D01*
X0114175Y0047202D01*
X0116962Y0047202D01*
X0116962Y0046628D01*
X0114175Y0046628D01*
X0114175Y0044060D01*
X0114277Y0043679D01*
X0114475Y0043337D01*
X0114754Y0043057D01*
X0115096Y0042860D01*
X0115477Y0042758D01*
X0116547Y0042758D01*
X0111004Y0037215D01*
X0105504Y0037215D01*
X0101980Y0033691D01*
X0101355Y0034315D01*
X0099665Y0035015D01*
X0097835Y0035015D01*
X0096144Y0034315D01*
X0094850Y0033021D01*
X0094150Y0031330D01*
X0094150Y0029500D01*
X0094850Y0027809D01*
X0096144Y0026515D01*
X0097593Y0025915D01*
X0090931Y0025915D01*
X0092103Y0026697D02*
X0095962Y0026697D01*
X0094964Y0027696D02*
X0092954Y0027696D01*
X0093448Y0028694D02*
X0094483Y0028694D01*
X0094150Y0029693D02*
X0093698Y0029693D01*
X0094150Y0030691D02*
X0089250Y0030691D01*
X0088750Y0030415D02*
X0090750Y0030415D01*
X0095750Y0035415D01*
X0103250Y0035415D01*
X0105250Y0037415D01*
X0110750Y0037415D01*
X0117250Y0043915D01*
X0117250Y0046915D01*
X0116962Y0046667D02*
X0114050Y0046667D01*
X0114050Y0045669D02*
X0114175Y0045669D01*
X0114175Y0044670D02*
X0114050Y0044670D01*
X0114050Y0043672D02*
X0114281Y0043672D01*
X0114050Y0042673D02*
X0116463Y0042673D01*
X0116962Y0043173D02*
X0116962Y0046628D01*
X0117537Y0046628D01*
X0117537Y0043748D01*
X0116962Y0043173D01*
X0116962Y0043672D02*
X0117461Y0043672D01*
X0117537Y0044670D02*
X0116962Y0044670D01*
X0116962Y0045669D02*
X0117537Y0045669D01*
X0120250Y0043915D02*
X0111750Y0035415D01*
X0106250Y0035415D01*
X0101250Y0030415D01*
X0098750Y0030415D01*
X0095516Y0033687D02*
X0093067Y0033687D01*
X0093203Y0032688D02*
X0094712Y0032688D01*
X0094299Y0031690D02*
X0093593Y0031690D01*
X0094066Y0034685D02*
X0097039Y0034685D01*
X0100461Y0034685D02*
X0102974Y0034685D01*
X0103064Y0035684D02*
X0103973Y0035684D01*
X0104063Y0036682D02*
X0104971Y0036682D01*
X0102965Y0040676D02*
X0100537Y0040676D01*
X0101967Y0039678D02*
X0085578Y0039678D01*
X0086056Y0040676D02*
X0086962Y0040676D01*
X0090537Y0040676D02*
X0096962Y0040676D01*
X0095484Y0041675D02*
X0092015Y0041675D01*
X0092800Y0042673D02*
X0094699Y0042673D01*
X0094286Y0043672D02*
X0093214Y0043672D01*
X0093350Y0044670D02*
X0094150Y0044670D01*
X0094150Y0045669D02*
X0093350Y0045669D01*
X0093048Y0046667D02*
X0094497Y0046667D01*
X0094046Y0047666D02*
X0094995Y0047666D01*
X0095045Y0048665D02*
X0095994Y0048665D01*
X0096043Y0049663D02*
X0100952Y0049663D01*
X0101068Y0050662D02*
X0097042Y0050662D01*
X0097975Y0051660D02*
X0101068Y0051660D01*
X0101068Y0052659D02*
X0097975Y0052659D01*
X0097975Y0053657D02*
X0101068Y0053657D01*
X0101068Y0054656D02*
X0097975Y0054656D01*
X0097975Y0055654D02*
X0101068Y0055654D01*
X0101068Y0056653D02*
X0097875Y0056653D01*
X0096175Y0055340D02*
X0096175Y0052340D01*
X0088750Y0044915D01*
X0085994Y0048665D02*
X0085350Y0048665D01*
X0085350Y0048020D02*
X0085350Y0051045D01*
X0090350Y0056045D01*
X0090350Y0063908D01*
X0090545Y0063569D01*
X0090825Y0063290D01*
X0091167Y0063092D01*
X0091548Y0062990D01*
X0092632Y0062990D01*
X0093715Y0062990D01*
X0094096Y0063092D01*
X0094438Y0063290D01*
X0094686Y0063537D01*
X0094833Y0063390D01*
X0097516Y0063390D01*
X0097625Y0063498D01*
X0097625Y0062332D01*
X0097516Y0062440D01*
X0094833Y0062440D01*
X0094403Y0062010D01*
X0093973Y0062440D01*
X0091290Y0062440D01*
X0090646Y0061796D01*
X0090646Y0057341D01*
X0091290Y0056697D01*
X0093973Y0056697D01*
X0094403Y0057127D01*
X0094475Y0057055D01*
X0094475Y0056186D01*
X0094375Y0056086D01*
X0094375Y0053086D01*
X0090470Y0049181D01*
X0089665Y0049515D01*
X0087835Y0049515D01*
X0086144Y0048815D01*
X0085350Y0048020D01*
X0085350Y0049663D02*
X0090952Y0049663D01*
X0091951Y0050662D02*
X0085350Y0050662D01*
X0085965Y0051660D02*
X0092949Y0051660D01*
X0093948Y0052659D02*
X0086963Y0052659D01*
X0087962Y0053657D02*
X0094375Y0053657D01*
X0094375Y0054656D02*
X0088960Y0054656D01*
X0089959Y0055654D02*
X0094375Y0055654D01*
X0094475Y0056653D02*
X0090350Y0056653D01*
X0090350Y0057651D02*
X0090646Y0057651D01*
X0090646Y0058650D02*
X0090350Y0058650D01*
X0090350Y0059648D02*
X0090646Y0059648D01*
X0090646Y0060647D02*
X0090350Y0060647D01*
X0090350Y0061645D02*
X0090646Y0061645D01*
X0090350Y0062644D02*
X0097625Y0062644D01*
X0101024Y0062644D02*
X0104475Y0062644D01*
X0103750Y0062915D02*
X0105250Y0061415D01*
X0105250Y0058415D01*
X0106750Y0056915D01*
X0107950Y0056653D02*
X0104668Y0056653D01*
X0104668Y0055654D02*
X0107950Y0055654D01*
X0107950Y0054656D02*
X0104668Y0054656D01*
X0104668Y0053657D02*
X0107950Y0053657D01*
X0107950Y0052659D02*
X0104668Y0052659D01*
X0104668Y0051660D02*
X0107950Y0051660D01*
X0107950Y0050662D02*
X0104668Y0050662D01*
X0104668Y0049663D02*
X0107950Y0049663D01*
X0107950Y0048665D02*
X0104668Y0048665D01*
X0104046Y0047666D02*
X0107950Y0047666D01*
X0107950Y0046667D02*
X0103048Y0046667D01*
X0103350Y0045669D02*
X0107386Y0045669D01*
X0105939Y0044670D02*
X0103350Y0044670D01*
X0103214Y0043672D02*
X0105451Y0043672D01*
X0105375Y0042673D02*
X0102800Y0042673D01*
X0102015Y0041675D02*
X0105651Y0041675D01*
X0108250Y0042915D02*
X0109750Y0044415D01*
X0109750Y0059915D01*
X0106250Y0063415D01*
X0106250Y0076415D01*
X0108250Y0078415D01*
X0108250Y0081915D01*
X0117250Y0090915D01*
X0117250Y0095915D01*
X0114017Y0099147D01*
X0114017Y0102588D01*
X0114403Y0108502D02*
X0114403Y0109273D01*
X0119143Y0109273D01*
X0119143Y0108502D01*
X0116258Y0108502D01*
X0114403Y0108502D01*
X0114403Y0108575D02*
X0119143Y0108575D01*
X0119750Y0116415D02*
X0115750Y0116415D01*
X0105750Y0116415D01*
X0095750Y0116415D01*
X0094604Y0118230D02*
X0100132Y0118230D01*
X0101132Y0118230D01*
X0101132Y0119230D01*
X0110368Y0119230D01*
X0110368Y0128230D01*
X0111368Y0128230D01*
X0111368Y0125545D01*
X0111368Y0119230D01*
X0120604Y0119230D01*
X0120604Y0118230D01*
X0115076Y0118230D01*
X0111368Y0118230D01*
X0111368Y0119230D01*
X0110368Y0119230D01*
X0110368Y0118230D01*
X0111368Y0118230D01*
X0111368Y0112278D01*
X0111325Y0112253D01*
X0111045Y0111974D01*
X0110997Y0111889D01*
X0110733Y0112153D01*
X0110368Y0112153D01*
X0110368Y0118230D01*
X0104840Y0118230D01*
X0101132Y0118230D01*
X0101132Y0112153D01*
X0100766Y0112153D01*
X0100238Y0111624D01*
X0099947Y0111915D01*
X0100132Y0111915D01*
X0100132Y0118230D01*
X0100132Y0119230D01*
X0100132Y0128230D01*
X0100957Y0128230D01*
X0101132Y0128405D01*
X0101132Y0123726D01*
X0101132Y0119230D01*
X0100132Y0119230D01*
X0090895Y0119230D01*
X0089895Y0119230D01*
X0089895Y0118230D01*
X0085250Y0118230D01*
X0085250Y0119230D01*
X0089895Y0119230D01*
X0089895Y0125545D01*
X0089895Y0128230D01*
X0090895Y0128230D01*
X0090895Y0119230D01*
X0090895Y0118230D01*
X0094604Y0118230D01*
X0095750Y0121415D02*
X0091750Y0121415D01*
X0091750Y0124415D01*
X0091750Y0127415D01*
X0095750Y0127415D01*
X0098354Y0130041D02*
X0092146Y0130041D01*
X0091957Y0130230D01*
X0090895Y0130230D01*
X0090895Y0131041D01*
X0089895Y0131041D01*
X0089895Y0130230D01*
X0089543Y0130230D01*
X0089354Y0130041D01*
X0084368Y0130041D01*
X0084368Y0126230D01*
X0083976Y0126230D01*
X0083976Y0127257D01*
X0083447Y0127785D01*
X0083976Y0128314D01*
X0083976Y0132768D01*
X0083447Y0133297D01*
X0083976Y0133826D01*
X0083976Y0138280D01*
X0083712Y0138544D01*
X0083797Y0138593D01*
X0084076Y0138872D01*
X0084273Y0139214D01*
X0084315Y0139368D01*
X0084315Y0137004D01*
X0084434Y0136558D01*
X0084488Y0136465D01*
X0084470Y0136435D01*
X0084368Y0136053D01*
X0084368Y0131041D01*
X0089895Y0131041D01*
X0089895Y0137356D01*
X0089895Y0141852D01*
X0084315Y0141852D01*
X0084315Y0141179D01*
X0081096Y0141179D01*
X0081096Y0141950D01*
X0084376Y0141950D01*
X0084376Y0142852D01*
X0089895Y0142852D01*
X0089895Y0141852D01*
X0090895Y0141852D01*
X0090895Y0131041D01*
X0100132Y0131041D01*
X0100132Y0137356D01*
X0100132Y0141852D01*
X0101132Y0141852D01*
X0101132Y0142852D01*
X0106659Y0142852D01*
X0110368Y0142852D01*
X0110368Y0148529D01*
X0110475Y0148529D01*
X0110856Y0148631D01*
X0111198Y0148829D01*
X0111262Y0148892D01*
X0111325Y0148829D01*
X0111368Y0148804D01*
X0111368Y0142852D01*
X0116895Y0142852D01*
X0120604Y0142852D01*
X0120604Y0141852D01*
X0121604Y0141852D01*
X0121604Y0135537D01*
X0121604Y0131041D01*
X0127132Y0131041D01*
X0127132Y0136053D01*
X0127029Y0136435D01*
X0127023Y0136447D01*
X0127029Y0136458D01*
X0127132Y0136840D01*
X0127132Y0141852D01*
X0121604Y0141852D01*
X0121604Y0142852D01*
X0127132Y0142852D01*
X0127132Y0145078D01*
X0127226Y0144726D01*
X0127423Y0144384D01*
X0127703Y0144105D01*
X0127787Y0144056D01*
X0127524Y0143792D01*
X0127524Y0139337D01*
X0128052Y0138809D01*
X0127524Y0138280D01*
X0127524Y0133826D01*
X0128052Y0133297D01*
X0127524Y0132768D01*
X0127524Y0128314D01*
X0128052Y0127785D01*
X0127524Y0127257D01*
X0127524Y0125230D01*
X0127132Y0125230D01*
X0127132Y0130041D01*
X0121604Y0130041D01*
X0121604Y0123726D01*
X0121604Y0119230D01*
X0120604Y0119230D01*
X0120604Y0130041D01*
X0121604Y0130041D01*
X0121604Y0131041D01*
X0120604Y0131041D01*
X0120604Y0130041D01*
X0112146Y0130041D01*
X0111957Y0130230D01*
X0111368Y0130230D01*
X0111368Y0131041D01*
X0115076Y0131041D01*
X0120604Y0131041D01*
X0120604Y0141852D01*
X0111368Y0141852D01*
X0111368Y0142852D01*
X0110368Y0142852D01*
X0110368Y0141852D01*
X0111368Y0141852D01*
X0111368Y0131041D01*
X0110368Y0131041D01*
X0110368Y0135537D01*
X0110368Y0141852D01*
X0101132Y0141852D01*
X0101132Y0131041D01*
X0110368Y0131041D01*
X0110368Y0130230D01*
X0110043Y0130230D01*
X0109854Y0130041D01*
X0101146Y0130041D01*
X0101132Y0130055D01*
X0101132Y0131041D01*
X0100132Y0131041D01*
X0100132Y0130230D01*
X0098543Y0130230D01*
X0098354Y0130041D01*
X0100132Y0130542D02*
X0090895Y0130542D01*
X0090895Y0131541D02*
X0089895Y0131541D01*
X0089895Y0132539D02*
X0090895Y0132539D01*
X0090895Y0133538D02*
X0089895Y0133538D01*
X0089895Y0134536D02*
X0090895Y0134536D01*
X0090895Y0135535D02*
X0089895Y0135535D01*
X0089895Y0136534D02*
X0090895Y0136534D01*
X0090895Y0137532D02*
X0089895Y0137532D01*
X0089895Y0138531D02*
X0090895Y0138531D01*
X0090895Y0139529D02*
X0089895Y0139529D01*
X0089895Y0140528D02*
X0090895Y0140528D01*
X0090895Y0141526D02*
X0089895Y0141526D01*
X0089895Y0142525D02*
X0084376Y0142525D01*
X0084315Y0141526D02*
X0081096Y0141526D01*
X0081096Y0141951D02*
X0080324Y0141951D01*
X0080324Y0144836D01*
X0080324Y0146691D01*
X0077045Y0146691D01*
X0074246Y0146691D01*
X0074246Y0147462D01*
X0080324Y0147462D01*
X0080324Y0146691D01*
X0081096Y0146691D01*
X0081096Y0147462D01*
X0084376Y0147462D01*
X0084376Y0148560D01*
X0084489Y0148529D01*
X0086073Y0148529D01*
X0086073Y0151809D01*
X0086844Y0151809D01*
X0086844Y0148529D01*
X0087995Y0148529D01*
X0084990Y0145524D01*
X0084664Y0145198D01*
X0084434Y0144799D01*
X0084315Y0144354D01*
X0084315Y0143762D01*
X0084273Y0143915D01*
X0084076Y0144257D01*
X0084013Y0144321D01*
X0084076Y0144384D01*
X0084273Y0144726D01*
X0084376Y0145107D01*
X0084376Y0146691D01*
X0081096Y0146691D01*
X0081096Y0141951D01*
X0081096Y0142525D02*
X0080324Y0142525D01*
X0080324Y0143523D02*
X0081096Y0143523D01*
X0081096Y0144522D02*
X0080324Y0144522D01*
X0080324Y0145520D02*
X0081096Y0145520D01*
X0081096Y0146519D02*
X0080324Y0146519D01*
X0080324Y0147462D02*
X0080324Y0150348D01*
X0080324Y0152202D01*
X0081096Y0152202D01*
X0081096Y0147462D01*
X0080324Y0147462D01*
X0080324Y0147517D02*
X0081096Y0147517D01*
X0081096Y0148516D02*
X0080324Y0148516D01*
X0080324Y0149514D02*
X0081096Y0149514D01*
X0081096Y0150513D02*
X0080324Y0150513D01*
X0080324Y0151511D02*
X0081096Y0151511D01*
X0081096Y0152202D02*
X0081096Y0152974D01*
X0080324Y0152974D01*
X0080324Y0154828D01*
X0080561Y0154828D01*
X0080561Y0158108D01*
X0081332Y0158108D01*
X0081332Y0155860D01*
X0081096Y0155860D01*
X0081096Y0152974D01*
X0083187Y0152974D01*
X0083187Y0152580D01*
X0086072Y0152580D01*
X0086072Y0151809D01*
X0084376Y0151809D01*
X0084376Y0152202D01*
X0081096Y0152202D01*
X0081096Y0152510D02*
X0086072Y0152510D01*
X0086073Y0151511D02*
X0086844Y0151511D01*
X0086844Y0150513D02*
X0086073Y0150513D01*
X0086073Y0149514D02*
X0086844Y0149514D01*
X0087982Y0148516D02*
X0084376Y0148516D01*
X0084376Y0147517D02*
X0086983Y0147517D01*
X0085985Y0146519D02*
X0084376Y0146519D01*
X0084376Y0145520D02*
X0084986Y0145520D01*
X0084990Y0145524D02*
X0084990Y0145524D01*
X0084360Y0144522D02*
X0084156Y0144522D01*
X0089895Y0144522D02*
X0090895Y0144522D01*
X0090895Y0145520D02*
X0089895Y0145520D01*
X0089895Y0146519D02*
X0090895Y0146519D01*
X0090895Y0147517D02*
X0089895Y0147517D01*
X0089895Y0148516D02*
X0090895Y0148516D01*
X0090895Y0148929D02*
X0089895Y0148929D01*
X0089895Y0142852D01*
X0090895Y0142852D01*
X0090895Y0148929D01*
X0095750Y0145415D02*
X0100632Y0145415D01*
X0100632Y0142352D01*
X0101132Y0142525D02*
X0110368Y0142525D01*
X0110868Y0142352D02*
X0110868Y0145415D01*
X0115750Y0145415D01*
X0111368Y0145520D02*
X0110368Y0145520D01*
X0110868Y0145415D02*
X0105750Y0145415D01*
X0101132Y0145520D02*
X0100132Y0145520D01*
X0100132Y0144522D02*
X0101132Y0144522D01*
X0101132Y0143523D02*
X0100132Y0143523D01*
X0100132Y0142852D02*
X0100132Y0148998D01*
X0100301Y0148829D01*
X0100643Y0148631D01*
X0101025Y0148529D01*
X0101132Y0148529D01*
X0101132Y0142852D01*
X0100132Y0142852D01*
X0100132Y0141852D01*
X0094604Y0141852D01*
X0090895Y0141852D01*
X0090895Y0142852D01*
X0100132Y0142852D01*
X0100132Y0142525D02*
X0090895Y0142525D01*
X0090895Y0143523D02*
X0089895Y0143523D01*
X0084315Y0138531D02*
X0083725Y0138531D01*
X0083976Y0137532D02*
X0084315Y0137532D01*
X0084448Y0136534D02*
X0083976Y0136534D01*
X0083976Y0135535D02*
X0084368Y0135535D01*
X0084368Y0134536D02*
X0083976Y0134536D01*
X0083688Y0133538D02*
X0084368Y0133538D01*
X0084368Y0132539D02*
X0083976Y0132539D01*
X0083976Y0131541D02*
X0084368Y0131541D01*
X0083976Y0130542D02*
X0089895Y0130542D01*
X0091750Y0131415D02*
X0086750Y0136415D01*
X0086750Y0124415D01*
X0089895Y0124551D02*
X0090895Y0124551D01*
X0091750Y0124415D02*
X0091750Y0131415D01*
X0090895Y0127547D02*
X0089895Y0127547D01*
X0089895Y0126548D02*
X0090895Y0126548D01*
X0090895Y0125550D02*
X0089895Y0125550D01*
X0089895Y0123553D02*
X0090895Y0123553D01*
X0090895Y0122554D02*
X0089895Y0122554D01*
X0089895Y0121556D02*
X0090895Y0121556D01*
X0090895Y0120557D02*
X0089895Y0120557D01*
X0089895Y0119559D02*
X0090895Y0119559D01*
X0090895Y0118560D02*
X0100132Y0118560D01*
X0100132Y0117562D02*
X0101132Y0117562D01*
X0101132Y0118560D02*
X0110368Y0118560D01*
X0110368Y0117562D02*
X0111368Y0117562D01*
X0111368Y0118560D02*
X0120604Y0118560D01*
X0120604Y0119559D02*
X0121604Y0119559D01*
X0121604Y0120557D02*
X0120604Y0120557D01*
X0120604Y0121556D02*
X0121604Y0121556D01*
X0121604Y0122554D02*
X0120604Y0122554D01*
X0120604Y0123553D02*
X0121604Y0123553D01*
X0121604Y0124551D02*
X0120604Y0124551D01*
X0120604Y0125550D02*
X0121604Y0125550D01*
X0121604Y0126548D02*
X0120604Y0126548D01*
X0120604Y0127547D02*
X0121604Y0127547D01*
X0121604Y0128545D02*
X0120604Y0128545D01*
X0120604Y0129544D02*
X0121604Y0129544D01*
X0121604Y0130542D02*
X0127524Y0130542D01*
X0127524Y0129544D02*
X0127132Y0129544D01*
X0127132Y0128545D02*
X0127524Y0128545D01*
X0127814Y0127547D02*
X0127132Y0127547D01*
X0127132Y0126548D02*
X0127524Y0126548D01*
X0127524Y0125550D02*
X0127132Y0125550D01*
X0127132Y0131541D02*
X0127524Y0131541D01*
X0127524Y0132539D02*
X0127132Y0132539D01*
X0127132Y0133538D02*
X0127811Y0133538D01*
X0127524Y0134536D02*
X0127132Y0134536D01*
X0127132Y0135535D02*
X0127524Y0135535D01*
X0127524Y0136534D02*
X0127050Y0136534D01*
X0127132Y0137532D02*
X0127524Y0137532D01*
X0127774Y0138531D02*
X0127132Y0138531D01*
X0127132Y0139529D02*
X0127524Y0139529D01*
X0127524Y0140528D02*
X0127132Y0140528D01*
X0127132Y0141526D02*
X0127524Y0141526D01*
X0127524Y0142525D02*
X0121604Y0142525D01*
X0121104Y0142352D02*
X0123750Y0142352D01*
X0123750Y0146415D01*
X0127132Y0144522D02*
X0127344Y0144522D01*
X0127524Y0143523D02*
X0127132Y0143523D01*
X0121604Y0141526D02*
X0120604Y0141526D01*
X0120604Y0140528D02*
X0121604Y0140528D01*
X0121604Y0139529D02*
X0120604Y0139529D01*
X0120604Y0138531D02*
X0121604Y0138531D01*
X0121604Y0137532D02*
X0120604Y0137532D01*
X0120604Y0136534D02*
X0121604Y0136534D01*
X0121604Y0135535D02*
X0120604Y0135535D01*
X0120604Y0134536D02*
X0121604Y0134536D01*
X0121604Y0133538D02*
X0120604Y0133538D01*
X0119750Y0133415D02*
X0115750Y0133415D01*
X0105750Y0133415D01*
X0110368Y0133538D02*
X0111368Y0133538D01*
X0111368Y0134536D02*
X0110368Y0134536D01*
X0110368Y0135535D02*
X0111368Y0135535D01*
X0111368Y0136534D02*
X0110368Y0136534D01*
X0110368Y0137532D02*
X0111368Y0137532D01*
X0111368Y0138531D02*
X0110368Y0138531D01*
X0110368Y0139529D02*
X0111368Y0139529D01*
X0111368Y0140528D02*
X0110368Y0140528D01*
X0110368Y0141526D02*
X0111368Y0141526D01*
X0111368Y0142525D02*
X0120604Y0142525D01*
X0111368Y0143523D02*
X0110368Y0143523D01*
X0110368Y0144522D02*
X0111368Y0144522D01*
X0111368Y0146519D02*
X0110368Y0146519D01*
X0110368Y0147517D02*
X0111368Y0147517D01*
X0111368Y0148516D02*
X0110368Y0148516D01*
X0108892Y0151809D02*
X0108892Y0152580D01*
X0110746Y0152580D01*
X0113632Y0152580D01*
X0113632Y0151809D01*
X0108892Y0151809D01*
X0108892Y0152510D02*
X0113632Y0152510D01*
X0113632Y0152580D02*
X0113632Y0155860D01*
X0113632Y0158108D01*
X0114403Y0158108D01*
X0114403Y0152580D01*
X0113632Y0152580D01*
X0113632Y0153508D02*
X0114403Y0153508D01*
X0114403Y0154507D02*
X0113632Y0154507D01*
X0113632Y0155505D02*
X0114403Y0155505D01*
X0114403Y0156504D02*
X0113632Y0156504D01*
X0113632Y0157502D02*
X0114403Y0157502D01*
X0114403Y0158880D02*
X0113632Y0158880D01*
X0113632Y0162159D01*
X0112048Y0162159D01*
X0111667Y0162057D01*
X0111325Y0161859D01*
X0111045Y0161580D01*
X0110997Y0161495D01*
X0110733Y0161759D01*
X0106278Y0161759D01*
X0106015Y0161495D01*
X0105966Y0161580D01*
X0105686Y0161859D01*
X0105344Y0162057D01*
X0104963Y0162159D01*
X0103380Y0162159D01*
X0103380Y0158880D01*
X0102608Y0158880D01*
X0102608Y0162159D01*
X0101025Y0162159D01*
X0100643Y0162057D01*
X0100301Y0161859D01*
X0100238Y0161796D01*
X0100175Y0161859D01*
X0099833Y0162057D01*
X0099451Y0162159D01*
X0097868Y0162159D01*
X0097868Y0158880D01*
X0097096Y0158880D01*
X0097096Y0162159D01*
X0095513Y0162159D01*
X0095131Y0162057D01*
X0094789Y0161859D01*
X0094726Y0161796D01*
X0094663Y0161859D01*
X0094321Y0162057D01*
X0093939Y0162159D01*
X0092356Y0162159D01*
X0092356Y0158880D01*
X0091584Y0158880D01*
X0091584Y0161879D01*
X0092377Y0162672D01*
X0093384Y0165103D01*
X0093384Y0180960D01*
X0093552Y0180915D01*
X0096250Y0180915D01*
X0096250Y0189915D01*
X0097250Y0189915D01*
X0097250Y0190915D01*
X0101250Y0190915D01*
X0101250Y0197915D01*
X0111244Y0197915D01*
X0110350Y0197021D01*
X0109650Y0195330D01*
X0109650Y0193500D01*
X0110350Y0191809D01*
X0111644Y0190515D01*
X0113335Y0189815D01*
X0115165Y0189815D01*
X0116855Y0190515D01*
X0118149Y0191809D01*
X0118483Y0192615D01*
X0120075Y0192615D01*
X0120075Y0191302D01*
X0120719Y0190658D01*
X0124780Y0190658D01*
X0125424Y0191302D01*
X0125424Y0197528D01*
X0125038Y0197915D01*
X0135750Y0197915D01*
X0137079Y0197810D01*
X0139609Y0196989D01*
X0139609Y0196989D01*
X0141760Y0195425D01*
X0142427Y0194508D01*
X0139968Y0196722D01*
X0136632Y0197806D01*
X0133143Y0197439D01*
X0130104Y0195685D01*
X0128042Y0192847D01*
X0127313Y0189415D01*
X0128042Y0185983D01*
X0128880Y0184831D01*
X0128550Y0185161D01*
X0127495Y0186215D01*
X0125424Y0186215D01*
X0125424Y0187528D01*
X0124780Y0188173D01*
X0120719Y0188173D01*
X0120075Y0187528D01*
X0120075Y0186215D01*
X0118483Y0186215D01*
X0118149Y0187021D01*
X0116855Y0188315D01*
X0115165Y0189015D01*
X0113335Y0189015D01*
X0111644Y0188315D01*
X0110350Y0187021D01*
X0109650Y0185330D01*
X0109650Y0183500D01*
X0110350Y0181809D01*
X0111644Y0180515D01*
X0113335Y0179815D01*
X0115165Y0179815D01*
X0115450Y0179933D01*
X0115450Y0178901D01*
X0113863Y0177314D01*
X0109341Y0177314D01*
X0108697Y0176670D01*
X0108697Y0170641D01*
X0109341Y0169996D01*
X0116158Y0169996D01*
X0116802Y0170641D01*
X0116802Y0175162D01*
X0117169Y0175529D01*
X0117169Y0173231D01*
X0117814Y0172587D01*
X0123032Y0172587D01*
X0123950Y0171669D01*
X0123950Y0171643D01*
X0121510Y0171643D01*
X0121510Y0168659D01*
X0120541Y0168659D01*
X0120541Y0171643D01*
X0118072Y0171643D01*
X0117690Y0171541D01*
X0117348Y0171344D01*
X0117069Y0171064D01*
X0116872Y0170722D01*
X0116769Y0170341D01*
X0116769Y0169223D01*
X0116158Y0169834D01*
X0109341Y0169834D01*
X0108697Y0169190D01*
X0108697Y0167581D01*
X0108212Y0167581D01*
X0108212Y0168599D01*
X0107568Y0169243D01*
X0101932Y0169243D01*
X0101287Y0168599D01*
X0101287Y0162963D01*
X0101932Y0162319D01*
X0107568Y0162319D01*
X0108212Y0162963D01*
X0108212Y0163981D01*
X0108697Y0163981D01*
X0108697Y0163160D01*
X0109341Y0162516D01*
X0116158Y0162516D01*
X0116802Y0163160D01*
X0116802Y0165886D01*
X0116872Y0165627D01*
X0117069Y0165285D01*
X0117348Y0165006D01*
X0117690Y0164809D01*
X0118072Y0164706D01*
X0120541Y0164706D01*
X0120541Y0167691D01*
X0121510Y0167691D01*
X0121510Y0164706D01*
X0123979Y0164706D01*
X0124360Y0164809D01*
X0124702Y0165006D01*
X0124981Y0165285D01*
X0125179Y0165627D01*
X0125281Y0166009D01*
X0125281Y0167338D01*
X0125450Y0167169D01*
X0126504Y0166115D01*
X0131046Y0166115D01*
X0131046Y0166115D01*
X0127046Y0166115D01*
X0126050Y0165119D01*
X0126050Y0163711D01*
X0126150Y0163611D01*
X0126150Y0161759D01*
X0122814Y0161759D01*
X0122285Y0161231D01*
X0121757Y0161759D01*
X0117302Y0161759D01*
X0117038Y0161495D01*
X0116989Y0161580D01*
X0116710Y0161859D01*
X0116368Y0162057D01*
X0115987Y0162159D01*
X0114403Y0162159D01*
X0114403Y0158880D01*
X0114403Y0159499D02*
X0113632Y0159499D01*
X0113632Y0160498D02*
X0114403Y0160498D01*
X0114403Y0161496D02*
X0113632Y0161496D01*
X0110997Y0161496D02*
X0110996Y0161496D01*
X0108697Y0163493D02*
X0108212Y0163493D01*
X0107743Y0162495D02*
X0126150Y0162495D01*
X0126150Y0163493D02*
X0116802Y0163493D01*
X0116802Y0164492D02*
X0126050Y0164492D01*
X0126421Y0165490D02*
X0125100Y0165490D01*
X0125281Y0166489D02*
X0126130Y0166489D01*
X0127250Y0167915D02*
X0132750Y0167915D01*
X0136750Y0171915D01*
X0140750Y0171915D01*
X0140750Y0176415D01*
X0140750Y0171915D02*
X0144250Y0171915D01*
X0144250Y0132915D01*
X0141876Y0130541D01*
X0137639Y0130541D01*
X0140905Y0125550D02*
X0142550Y0125550D01*
X0142550Y0124551D02*
X0140905Y0124551D01*
X0140905Y0123553D02*
X0142550Y0123553D01*
X0142550Y0122554D02*
X0140657Y0122554D01*
X0140905Y0121556D02*
X0142550Y0121556D01*
X0142550Y0120557D02*
X0140905Y0120557D01*
X0140905Y0119559D02*
X0142550Y0119559D01*
X0142550Y0118560D02*
X0140905Y0118560D01*
X0140905Y0117562D02*
X0142550Y0117562D01*
X0142550Y0116563D02*
X0140574Y0116563D01*
X0140905Y0115565D02*
X0142550Y0115565D01*
X0142550Y0114566D02*
X0140905Y0114566D01*
X0140905Y0113568D02*
X0142550Y0113568D01*
X0142550Y0112569D02*
X0140905Y0112569D01*
X0140697Y0111571D02*
X0142550Y0111571D01*
X0142550Y0110572D02*
X0140905Y0110572D01*
X0140905Y0109574D02*
X0142550Y0109574D01*
X0142550Y0108575D02*
X0140905Y0108575D01*
X0140905Y0107577D02*
X0142550Y0107577D01*
X0142550Y0106578D02*
X0140905Y0106578D01*
X0142550Y0105580D02*
X0138566Y0105580D01*
X0138936Y0104581D02*
X0142550Y0104581D01*
X0142550Y0103583D02*
X0138936Y0103583D01*
X0138936Y0102584D02*
X0142550Y0102584D01*
X0142550Y0101586D02*
X0138936Y0101586D01*
X0138936Y0100587D02*
X0142550Y0100587D01*
X0142550Y0099589D02*
X0138558Y0099589D01*
X0137477Y0097592D02*
X0142550Y0097592D01*
X0142550Y0098590D02*
X0136479Y0098590D01*
X0138617Y0096593D02*
X0142550Y0096593D01*
X0142550Y0095595D02*
X0139050Y0095595D01*
X0139687Y0094596D02*
X0142550Y0094596D01*
X0142550Y0093598D02*
X0140294Y0093598D01*
X0140515Y0092599D02*
X0142550Y0092599D01*
X0142550Y0091601D02*
X0140447Y0091601D01*
X0140033Y0090602D02*
X0142550Y0090602D01*
X0137250Y0092415D02*
X0137250Y0095415D01*
X0134813Y0094596D02*
X0130802Y0094596D01*
X0130802Y0093598D02*
X0134205Y0093598D01*
X0133984Y0092599D02*
X0130802Y0092599D01*
X0130802Y0091601D02*
X0134053Y0091601D01*
X0134466Y0090602D02*
X0130333Y0090602D01*
X0131156Y0089603D02*
X0135505Y0089603D01*
X0136250Y0085415D02*
X0136765Y0084899D01*
X0136765Y0079092D01*
X0136765Y0076533D02*
X0133494Y0076533D01*
X0136765Y0076533D01*
X0136765Y0076533D01*
X0133494Y0076623D02*
X0133003Y0076623D01*
X0133500Y0075624D02*
X0132005Y0075624D01*
X0131006Y0074626D02*
X0133894Y0074626D01*
X0130396Y0073627D02*
X0130008Y0073627D01*
X0129641Y0072629D02*
X0129050Y0072629D01*
X0129050Y0071630D02*
X0129375Y0071630D01*
X0129462Y0070632D02*
X0129050Y0070632D01*
X0129050Y0069633D02*
X0129966Y0069633D01*
X0129050Y0068635D02*
X0131449Y0068635D01*
X0132750Y0066415D02*
X0128250Y0066415D01*
X0125750Y0063915D01*
X0120250Y0063915D01*
X0117750Y0066415D01*
X0113852Y0066415D01*
X0113734Y0066297D01*
X0113734Y0064497D02*
X0113734Y0063738D01*
X0113734Y0063738D01*
X0117006Y0063738D01*
X0117006Y0064614D01*
X0119504Y0062115D01*
X0126495Y0062115D01*
X0127550Y0063169D01*
X0128995Y0064615D01*
X0130950Y0064615D01*
X0130950Y0062661D01*
X0129504Y0061215D01*
X0122504Y0061215D01*
X0121450Y0060161D01*
X0121450Y0060161D01*
X0119924Y0058635D01*
X0119924Y0060028D01*
X0119280Y0060673D01*
X0115219Y0060673D01*
X0114575Y0060028D01*
X0114575Y0054747D01*
X0114050Y0054530D01*
X0114050Y0061161D01*
X0113661Y0061549D01*
X0113734Y0061549D01*
X0115703Y0061549D01*
X0116085Y0061651D01*
X0116427Y0061849D01*
X0116706Y0062128D01*
X0116903Y0062470D01*
X0117006Y0062851D01*
X0117006Y0063738D01*
X0113734Y0063738D01*
X0113734Y0063738D01*
X0113734Y0064497D01*
X0113734Y0064497D01*
X0113734Y0063738D02*
X0111472Y0063738D01*
X0111473Y0063738D01*
X0113734Y0063738D01*
X0113734Y0063738D01*
X0113734Y0061549D01*
X0113734Y0063738D01*
X0113734Y0063738D01*
X0113734Y0063642D02*
X0113734Y0063642D01*
X0113734Y0062644D02*
X0113734Y0062644D01*
X0113734Y0061645D02*
X0113734Y0061645D01*
X0114050Y0060647D02*
X0115193Y0060647D01*
X0114575Y0059648D02*
X0114050Y0059648D01*
X0114050Y0058650D02*
X0114575Y0058650D01*
X0114575Y0057651D02*
X0114050Y0057651D01*
X0114050Y0056653D02*
X0114575Y0056653D01*
X0114575Y0055654D02*
X0114050Y0055654D01*
X0114050Y0054656D02*
X0114353Y0054656D01*
X0116750Y0053415D02*
X0115250Y0051915D01*
X0116750Y0053415D02*
X0116750Y0056415D01*
X0117250Y0056915D01*
X0120250Y0056415D02*
X0120250Y0043915D01*
X0115464Y0041675D02*
X0114050Y0041675D01*
X0114466Y0040676D02*
X0113557Y0040676D01*
X0113467Y0039678D02*
X0112558Y0039678D01*
X0112468Y0038679D02*
X0111560Y0038679D01*
X0111470Y0037681D02*
X0110561Y0037681D01*
X0114050Y0047666D02*
X0114175Y0047666D01*
X0114175Y0048665D02*
X0114050Y0048665D01*
X0120250Y0056415D02*
X0123250Y0059415D01*
X0130250Y0059415D01*
X0132750Y0061915D01*
X0132750Y0066415D01*
X0130950Y0063642D02*
X0128022Y0063642D01*
X0127024Y0062644D02*
X0130933Y0062644D01*
X0129934Y0061645D02*
X0116062Y0061645D01*
X0116950Y0062644D02*
X0118975Y0062644D01*
X0117977Y0063642D02*
X0117006Y0063642D01*
X0119306Y0060647D02*
X0121936Y0060647D01*
X0120937Y0059648D02*
X0119924Y0059648D01*
X0119924Y0058650D02*
X0119939Y0058650D01*
X0121132Y0065915D02*
X0118191Y0068856D01*
X0113734Y0068856D01*
X0113734Y0071415D02*
X0110462Y0071415D01*
X0110462Y0070529D01*
X0110565Y0070147D01*
X0110762Y0069805D01*
X0110862Y0069705D01*
X0110862Y0067711D01*
X0110997Y0067576D01*
X0110862Y0067442D01*
X0110862Y0065448D01*
X0110762Y0065348D01*
X0110565Y0065006D01*
X0110488Y0064722D01*
X0110050Y0065161D01*
X0110050Y0071169D01*
X0110462Y0071582D01*
X0110462Y0071415D01*
X0113734Y0071415D01*
X0113734Y0071415D01*
X0113675Y0073915D02*
X0113734Y0073974D01*
X0113675Y0073915D02*
X0110250Y0073915D01*
X0110050Y0070632D02*
X0110462Y0070632D01*
X0110862Y0069633D02*
X0110050Y0069633D01*
X0110050Y0068635D02*
X0110862Y0068635D01*
X0110937Y0067636D02*
X0110050Y0067636D01*
X0110050Y0066638D02*
X0110862Y0066638D01*
X0110862Y0065639D02*
X0110050Y0065639D01*
X0105474Y0061645D02*
X0104854Y0061645D01*
X0104854Y0060647D02*
X0106473Y0060647D01*
X0107471Y0059648D02*
X0104854Y0059648D01*
X0104854Y0058650D02*
X0107950Y0058650D01*
X0107950Y0057651D02*
X0104854Y0057651D01*
X0102868Y0059569D02*
X0102868Y0049033D01*
X0098750Y0044915D01*
X0083802Y0029693D02*
X0083350Y0029693D01*
X0083016Y0028694D02*
X0084051Y0028694D01*
X0084545Y0027696D02*
X0082536Y0027696D01*
X0081537Y0026697D02*
X0085396Y0026697D01*
X0075962Y0026697D02*
X0071537Y0026697D01*
X0072536Y0027696D02*
X0074964Y0027696D01*
X0074483Y0028694D02*
X0073016Y0028694D01*
X0073350Y0029693D02*
X0074150Y0029693D01*
X0074150Y0030691D02*
X0073350Y0030691D01*
X0073201Y0031690D02*
X0074299Y0031690D01*
X0074712Y0032688D02*
X0072787Y0032688D01*
X0071983Y0033687D02*
X0075516Y0033687D01*
X0076450Y0034685D02*
X0070461Y0034685D01*
X0067039Y0034685D02*
X0063196Y0034685D01*
X0063196Y0033687D02*
X0065516Y0033687D01*
X0064712Y0032688D02*
X0063196Y0032688D01*
X0063201Y0031690D02*
X0064299Y0031690D01*
X0064150Y0030691D02*
X0063350Y0030691D01*
X0063350Y0029693D02*
X0064150Y0029693D01*
X0064483Y0028694D02*
X0063016Y0028694D01*
X0062536Y0027696D02*
X0064964Y0027696D01*
X0065962Y0026697D02*
X0061537Y0026697D01*
X0057593Y0025915D02*
X0049906Y0025915D01*
X0051355Y0026515D01*
X0052649Y0027809D01*
X0053350Y0029500D01*
X0053350Y0031330D01*
X0053140Y0031836D01*
X0055350Y0034045D01*
X0055350Y0048545D01*
X0058996Y0052192D01*
X0058996Y0035015D01*
X0057835Y0035015D01*
X0056144Y0034315D01*
X0054850Y0033021D01*
X0054150Y0031330D01*
X0054150Y0029500D01*
X0054850Y0027809D01*
X0056144Y0026515D01*
X0057593Y0025915D01*
X0055962Y0026697D02*
X0051537Y0026697D01*
X0052536Y0027696D02*
X0054964Y0027696D01*
X0054483Y0028694D02*
X0053016Y0028694D01*
X0053350Y0029693D02*
X0054150Y0029693D01*
X0054150Y0030691D02*
X0053350Y0030691D01*
X0053201Y0031690D02*
X0054299Y0031690D01*
X0053993Y0032688D02*
X0054712Y0032688D01*
X0054991Y0033687D02*
X0055516Y0033687D01*
X0055350Y0034685D02*
X0057039Y0034685D01*
X0055350Y0035684D02*
X0058996Y0035684D01*
X0058996Y0036682D02*
X0055350Y0036682D01*
X0055350Y0037681D02*
X0058996Y0037681D01*
X0058996Y0038679D02*
X0055350Y0038679D01*
X0055350Y0039678D02*
X0058996Y0039678D01*
X0058996Y0040676D02*
X0055350Y0040676D01*
X0055350Y0041675D02*
X0058996Y0041675D01*
X0058996Y0042673D02*
X0055350Y0042673D01*
X0055350Y0043672D02*
X0058996Y0043672D01*
X0058996Y0044670D02*
X0055350Y0044670D01*
X0055350Y0045669D02*
X0058996Y0045669D01*
X0058996Y0046667D02*
X0055350Y0046667D01*
X0055350Y0047666D02*
X0058996Y0047666D01*
X0058996Y0048665D02*
X0055469Y0048665D01*
X0056468Y0049663D02*
X0058996Y0049663D01*
X0058996Y0050662D02*
X0057466Y0050662D01*
X0058465Y0051660D02*
X0058996Y0051660D01*
X0056519Y0055654D02*
X0046456Y0055654D01*
X0046456Y0054656D02*
X0055520Y0054656D01*
X0054522Y0053657D02*
X0046456Y0053657D01*
X0046456Y0052659D02*
X0053523Y0052659D01*
X0052525Y0051660D02*
X0046456Y0051660D01*
X0046456Y0050662D02*
X0051526Y0050662D01*
X0051150Y0049663D02*
X0046073Y0049663D01*
X0050321Y0048665D02*
X0051150Y0048665D01*
X0051150Y0047666D02*
X0050549Y0047666D01*
X0050549Y0046667D02*
X0051150Y0046667D01*
X0051150Y0045669D02*
X0050549Y0045669D01*
X0046990Y0043672D02*
X0045990Y0043672D01*
X0045990Y0042673D02*
X0046990Y0042673D01*
X0046990Y0041675D02*
X0045990Y0041675D01*
X0045990Y0040676D02*
X0046990Y0040676D01*
X0047039Y0034685D02*
X0041379Y0034685D01*
X0042549Y0033687D02*
X0045516Y0033687D01*
X0044712Y0032688D02*
X0043203Y0032688D01*
X0043593Y0031690D02*
X0044299Y0031690D01*
X0044150Y0030691D02*
X0039250Y0030691D01*
X0039250Y0031690D02*
X0038250Y0031690D01*
X0038250Y0032688D02*
X0039250Y0032688D01*
X0039250Y0033687D02*
X0038250Y0033687D01*
X0038250Y0034685D02*
X0039250Y0034685D01*
X0043698Y0029693D02*
X0044150Y0029693D01*
X0044483Y0028694D02*
X0043448Y0028694D01*
X0042954Y0027696D02*
X0044964Y0027696D01*
X0045962Y0026697D02*
X0042103Y0026697D01*
X0035396Y0026697D02*
X0031537Y0026697D01*
X0032536Y0027696D02*
X0034545Y0027696D01*
X0034051Y0028694D02*
X0033016Y0028694D01*
X0033350Y0029693D02*
X0033802Y0029693D01*
X0053250Y0034915D02*
X0053250Y0035415D01*
X0053250Y0037687D01*
X0063196Y0037681D02*
X0076450Y0037681D01*
X0076450Y0038679D02*
X0063196Y0038679D01*
X0063196Y0036682D02*
X0076450Y0036682D01*
X0076450Y0035684D02*
X0063196Y0035684D01*
X0069840Y0039678D02*
X0070660Y0039678D01*
X0070331Y0040676D02*
X0070169Y0040676D01*
X0070169Y0041675D02*
X0070331Y0041675D01*
X0070331Y0042673D02*
X0070169Y0042673D01*
X0066616Y0043521D02*
X0066510Y0043415D01*
X0066616Y0043521D02*
X0066616Y0049915D01*
X0070078Y0050662D02*
X0071021Y0050662D01*
X0071021Y0051660D02*
X0070078Y0051660D01*
X0070078Y0052659D02*
X0071071Y0052659D01*
X0068950Y0061645D02*
X0042050Y0061645D01*
X0046456Y0060647D02*
X0061511Y0060647D01*
X0060513Y0059648D02*
X0046456Y0059648D01*
X0046456Y0058650D02*
X0059514Y0058650D01*
X0058516Y0057651D02*
X0046456Y0057651D01*
X0046456Y0056653D02*
X0057517Y0056653D01*
X0059124Y0065639D02*
X0053019Y0065639D01*
X0054018Y0066638D02*
X0058431Y0066638D01*
X0058029Y0067636D02*
X0055016Y0067636D01*
X0056015Y0068635D02*
X0058029Y0068635D01*
X0058199Y0069633D02*
X0057013Y0069633D01*
X0058012Y0070632D02*
X0058613Y0070632D01*
X0059011Y0071630D02*
X0059563Y0071630D01*
X0057364Y0072529D02*
X0057364Y0081801D01*
X0060395Y0081801D01*
X0064510Y0085915D01*
X0064510Y0092415D01*
X0064010Y0092915D01*
X0067399Y0096593D02*
X0067617Y0096593D01*
X0060850Y0088605D02*
X0051649Y0088605D01*
X0051649Y0087606D02*
X0053740Y0087606D01*
X0061757Y0080617D02*
X0071746Y0080617D01*
X0071746Y0081615D02*
X0071490Y0081615D01*
X0071490Y0082614D02*
X0071849Y0082614D01*
X0071490Y0083612D02*
X0072490Y0083612D01*
X0072490Y0084611D02*
X0071490Y0084611D01*
X0068764Y0081615D02*
X0062755Y0081615D01*
X0061417Y0079618D02*
X0071746Y0079618D01*
X0071746Y0078620D02*
X0061417Y0078620D01*
X0074132Y0078620D02*
X0074132Y0078620D01*
X0074132Y0079618D02*
X0074132Y0079618D01*
X0074132Y0077621D02*
X0074132Y0077621D01*
X0077675Y0080262D02*
X0080825Y0080262D01*
X0082624Y0077253D02*
X0082903Y0077092D01*
X0083284Y0076990D01*
X0084368Y0076990D01*
X0085451Y0076990D01*
X0085833Y0077092D01*
X0086150Y0077275D01*
X0086150Y0076000D01*
X0085709Y0076440D01*
X0083026Y0076440D01*
X0082624Y0076038D01*
X0082624Y0077253D01*
X0082624Y0076623D02*
X0086150Y0076623D01*
X0084368Y0076990D02*
X0084368Y0080261D01*
X0084368Y0080261D01*
X0084368Y0076990D01*
X0084368Y0077621D02*
X0084368Y0077621D01*
X0084368Y0078620D02*
X0084368Y0078620D01*
X0084368Y0079618D02*
X0084368Y0079618D01*
X0084368Y0080262D02*
X0084521Y0080415D01*
X0084368Y0080262D02*
X0084368Y0080262D01*
X0084368Y0083533D01*
X0085451Y0083533D01*
X0085833Y0083431D01*
X0086150Y0083248D01*
X0086150Y0088785D01*
X0089095Y0091730D01*
X0086524Y0091730D01*
X0086625Y0091487D01*
X0086625Y0090343D01*
X0086187Y0089286D01*
X0085378Y0088478D01*
X0084322Y0088040D01*
X0083178Y0088040D01*
X0082550Y0088300D01*
X0082550Y0083222D01*
X0082561Y0083233D01*
X0082903Y0083431D01*
X0083284Y0083533D01*
X0084368Y0083533D01*
X0084368Y0080262D01*
X0084368Y0080617D02*
X0084368Y0080617D01*
X0084368Y0081615D02*
X0084368Y0081615D01*
X0084368Y0082614D02*
X0084368Y0082614D01*
X0086150Y0083612D02*
X0082550Y0083612D01*
X0082550Y0084611D02*
X0086150Y0084611D01*
X0086150Y0085609D02*
X0082550Y0085609D01*
X0082550Y0086608D02*
X0086150Y0086608D01*
X0086150Y0087606D02*
X0082550Y0087606D01*
X0085505Y0088605D02*
X0086150Y0088605D01*
X0086318Y0089603D02*
X0086968Y0089603D01*
X0086625Y0090602D02*
X0087967Y0090602D01*
X0088965Y0091601D02*
X0086578Y0091601D01*
X0085501Y0093230D02*
X0085378Y0093352D01*
X0085350Y0093364D01*
X0085350Y0098923D01*
X0086073Y0098923D01*
X0086073Y0102202D01*
X0086844Y0102202D01*
X0086844Y0099575D01*
X0086312Y0099044D01*
X0085875Y0097987D01*
X0085875Y0096843D01*
X0086312Y0095786D01*
X0087121Y0094978D01*
X0088178Y0094540D01*
X0089322Y0094540D01*
X0090378Y0094978D01*
X0091187Y0095786D01*
X0091625Y0096843D01*
X0091625Y0097987D01*
X0091187Y0099044D01*
X0090908Y0099323D01*
X0092450Y0099323D01*
X0092450Y0095085D01*
X0090595Y0093230D01*
X0085501Y0093230D01*
X0085350Y0093598D02*
X0090962Y0093598D01*
X0091961Y0094596D02*
X0089457Y0094596D01*
X0088043Y0094596D02*
X0085350Y0094596D01*
X0085350Y0095595D02*
X0086504Y0095595D01*
X0085978Y0096593D02*
X0085350Y0096593D01*
X0085350Y0097592D02*
X0085875Y0097592D01*
X0086125Y0098590D02*
X0085350Y0098590D01*
X0086073Y0099589D02*
X0086844Y0099589D01*
X0086844Y0100587D02*
X0086073Y0100587D01*
X0086073Y0101586D02*
X0086844Y0101586D01*
X0091375Y0098590D02*
X0092450Y0098590D01*
X0092450Y0097592D02*
X0091625Y0097592D01*
X0091521Y0096593D02*
X0092450Y0096593D01*
X0092450Y0095595D02*
X0090995Y0095595D01*
X0094250Y0093915D02*
X0094250Y0098915D01*
X0097750Y0092915D02*
X0099250Y0091415D01*
X0100706Y0091415D01*
X0101750Y0091415D01*
X0103250Y0089915D01*
X0103250Y0085415D01*
X0103750Y0084915D01*
X0104854Y0082260D02*
X0105378Y0082478D01*
X0106187Y0083286D01*
X0106625Y0084343D01*
X0106625Y0085487D01*
X0106187Y0086544D01*
X0105378Y0087352D01*
X0105050Y0087488D01*
X0105050Y0090661D01*
X0103995Y0091715D01*
X0103980Y0091730D01*
X0105309Y0091730D01*
X0105309Y0091415D01*
X0105309Y0090430D01*
X0105411Y0090049D01*
X0105608Y0089707D01*
X0105709Y0089606D01*
X0105709Y0087022D01*
X0106353Y0086378D01*
X0109233Y0086378D01*
X0109517Y0086662D01*
X0109543Y0086662D01*
X0112550Y0089669D01*
X0112550Y0091040D01*
X0112822Y0091040D01*
X0113878Y0091478D01*
X0114131Y0091730D01*
X0115450Y0091730D01*
X0115450Y0091661D01*
X0107504Y0083715D01*
X0106450Y0082661D01*
X0106450Y0079161D01*
X0104450Y0077161D01*
X0104450Y0076670D01*
X0104333Y0076738D01*
X0103951Y0076840D01*
X0102868Y0076840D01*
X0102868Y0073569D01*
X0102868Y0073569D01*
X0102868Y0076840D01*
X0101784Y0076840D01*
X0101403Y0076738D01*
X0101061Y0076541D01*
X0100813Y0076293D01*
X0100666Y0076440D01*
X0097983Y0076440D01*
X0097875Y0076332D01*
X0097875Y0077498D01*
X0097983Y0077390D01*
X0100666Y0077390D01*
X0101096Y0077820D01*
X0101526Y0077390D01*
X0104209Y0077390D01*
X0104854Y0078034D01*
X0104854Y0082260D01*
X0104854Y0081615D02*
X0106450Y0081615D01*
X0106450Y0080617D02*
X0104854Y0080617D01*
X0104854Y0079618D02*
X0106450Y0079618D01*
X0105909Y0078620D02*
X0104854Y0078620D01*
X0104910Y0077621D02*
X0104441Y0077621D01*
X0102868Y0076623D02*
X0102868Y0076623D01*
X0102868Y0075624D02*
X0102868Y0075624D01*
X0102868Y0074626D02*
X0102868Y0074626D01*
X0102868Y0073627D02*
X0102868Y0073627D01*
X0102868Y0073569D02*
X0102868Y0066262D01*
X0102868Y0066262D01*
X0102868Y0069533D01*
X0103951Y0069533D01*
X0104333Y0069431D01*
X0104450Y0069363D01*
X0104450Y0070467D01*
X0104333Y0070399D01*
X0103951Y0070297D01*
X0102868Y0070297D01*
X0102868Y0073568D01*
X0102868Y0073568D01*
X0102868Y0070297D01*
X0101784Y0070297D01*
X0101403Y0070399D01*
X0101061Y0070597D01*
X0100813Y0070844D01*
X0100666Y0070697D01*
X0097983Y0070697D01*
X0097875Y0070805D01*
X0097875Y0069025D01*
X0097983Y0069133D01*
X0100666Y0069133D01*
X0100813Y0068986D01*
X0101061Y0069233D01*
X0101403Y0069431D01*
X0101784Y0069533D01*
X0102868Y0069533D01*
X0102868Y0066262D01*
X0102868Y0063033D01*
X0102750Y0062915D01*
X0103750Y0062915D01*
X0102868Y0062990D02*
X0102868Y0066261D01*
X0102868Y0066261D01*
X0102868Y0062990D01*
X0102868Y0063642D02*
X0102868Y0063642D01*
X0102868Y0064641D02*
X0102868Y0064641D01*
X0102868Y0065639D02*
X0102868Y0065639D01*
X0102868Y0066638D02*
X0102868Y0066638D01*
X0102868Y0067636D02*
X0102868Y0067636D01*
X0102868Y0068635D02*
X0102868Y0068635D01*
X0104450Y0069633D02*
X0097875Y0069633D01*
X0097875Y0070632D02*
X0101026Y0070632D01*
X0102868Y0070632D02*
X0102868Y0070632D01*
X0102868Y0071630D02*
X0102868Y0071630D01*
X0102868Y0072629D02*
X0102868Y0072629D01*
X0101204Y0076623D02*
X0097875Y0076623D01*
X0100897Y0077621D02*
X0101295Y0077621D01*
X0096175Y0080262D02*
X0096175Y0086490D01*
X0094250Y0088415D01*
X0094375Y0085540D02*
X0094375Y0083270D01*
X0094096Y0083431D01*
X0093715Y0083533D01*
X0092632Y0083533D01*
X0092632Y0080262D01*
X0092632Y0080262D01*
X0092632Y0083533D01*
X0091548Y0083533D01*
X0091167Y0083431D01*
X0090825Y0083233D01*
X0090545Y0082954D01*
X0090350Y0082615D01*
X0090350Y0087045D01*
X0091375Y0088070D01*
X0091375Y0087843D01*
X0091812Y0086786D01*
X0092621Y0085978D01*
X0093678Y0085540D01*
X0094375Y0085540D01*
X0093510Y0085609D02*
X0090350Y0085609D01*
X0090350Y0084611D02*
X0094375Y0084611D01*
X0094375Y0083612D02*
X0090350Y0083612D01*
X0092632Y0082614D02*
X0092632Y0082614D01*
X0092632Y0081615D02*
X0092632Y0081615D01*
X0092632Y0080617D02*
X0092632Y0080617D01*
X0092632Y0080261D02*
X0092632Y0076990D01*
X0093715Y0076990D01*
X0094096Y0077092D01*
X0094438Y0077290D01*
X0094475Y0077326D01*
X0094475Y0076082D01*
X0094403Y0076010D01*
X0093973Y0076440D01*
X0091290Y0076440D01*
X0090646Y0075796D01*
X0090646Y0071341D01*
X0091290Y0070697D01*
X0093973Y0070697D01*
X0094403Y0071127D01*
X0094475Y0071055D01*
X0094475Y0069197D01*
X0094438Y0069233D01*
X0094096Y0069431D01*
X0093715Y0069533D01*
X0092632Y0069533D01*
X0092632Y0066262D01*
X0092632Y0066262D01*
X0092632Y0069533D01*
X0091548Y0069533D01*
X0091167Y0069431D01*
X0090825Y0069233D01*
X0090545Y0068954D01*
X0090350Y0068615D01*
X0090350Y0077908D01*
X0090545Y0077569D01*
X0090825Y0077290D01*
X0091167Y0077092D01*
X0091548Y0076990D01*
X0092632Y0076990D01*
X0092632Y0080261D01*
X0092632Y0080261D01*
X0092632Y0079618D02*
X0092632Y0079618D01*
X0092632Y0078620D02*
X0092632Y0078620D01*
X0092632Y0077621D02*
X0092632Y0077621D01*
X0094475Y0076623D02*
X0090350Y0076623D01*
X0090350Y0077621D02*
X0090515Y0077621D01*
X0090646Y0075624D02*
X0090350Y0075624D01*
X0090350Y0074626D02*
X0090646Y0074626D01*
X0090646Y0073627D02*
X0090350Y0073627D01*
X0090350Y0072629D02*
X0090646Y0072629D01*
X0090646Y0071630D02*
X0090350Y0071630D01*
X0090350Y0070632D02*
X0094475Y0070632D01*
X0094475Y0069633D02*
X0090350Y0069633D01*
X0090350Y0068635D02*
X0090361Y0068635D01*
X0092632Y0068635D02*
X0092632Y0068635D01*
X0092632Y0067636D02*
X0092632Y0067636D01*
X0092632Y0066638D02*
X0092632Y0066638D01*
X0092632Y0066261D02*
X0092632Y0062990D01*
X0092632Y0066261D01*
X0092632Y0066261D01*
X0092632Y0065639D02*
X0092632Y0065639D01*
X0092632Y0064641D02*
X0092632Y0064641D01*
X0092632Y0063642D02*
X0092632Y0063642D01*
X0090503Y0063642D02*
X0090350Y0063642D01*
X0105514Y0082614D02*
X0106450Y0082614D01*
X0106322Y0083612D02*
X0107401Y0083612D01*
X0106625Y0084611D02*
X0108400Y0084611D01*
X0109398Y0085609D02*
X0106574Y0085609D01*
X0106123Y0086608D02*
X0106123Y0086608D01*
X0105709Y0087606D02*
X0105050Y0087606D01*
X0105050Y0088605D02*
X0105709Y0088605D01*
X0105709Y0089603D02*
X0105050Y0089603D01*
X0105050Y0090602D02*
X0105309Y0090602D01*
X0105309Y0091415D02*
X0107793Y0091415D01*
X0107793Y0091415D01*
X0105309Y0091415D01*
X0105309Y0091601D02*
X0104110Y0091601D01*
X0100706Y0094368D02*
X0100250Y0094825D01*
X0100250Y0097915D01*
X0100250Y0099415D01*
X0103998Y0098663D02*
X0104748Y0097913D01*
X0104748Y0097413D01*
X0107793Y0094368D01*
X0110750Y0091915D02*
X0112250Y0093415D01*
X0112250Y0093915D01*
X0112250Y0095915D01*
X0108750Y0099415D01*
X0110750Y0090415D02*
X0108797Y0088462D01*
X0107793Y0088462D01*
X0109463Y0086608D02*
X0110397Y0086608D01*
X0110487Y0087606D02*
X0111396Y0087606D01*
X0111485Y0088605D02*
X0112394Y0088605D01*
X0112484Y0089603D02*
X0113393Y0089603D01*
X0112550Y0090602D02*
X0114391Y0090602D01*
X0114001Y0091601D02*
X0115390Y0091601D01*
X0117485Y0088605D02*
X0122297Y0088605D01*
X0122297Y0087606D02*
X0116487Y0087606D01*
X0117758Y0085609D02*
X0122297Y0085609D01*
X0122297Y0084611D02*
X0119120Y0084611D01*
X0119573Y0083612D02*
X0122379Y0083612D01*
X0119625Y0082614D02*
X0129927Y0082614D01*
X0129875Y0081615D02*
X0119550Y0081615D01*
X0119550Y0080617D02*
X0130176Y0080617D01*
X0130907Y0079618D02*
X0119550Y0079618D01*
X0119550Y0078620D02*
X0129909Y0078620D01*
X0128910Y0077621D02*
X0119550Y0077621D01*
X0119550Y0076623D02*
X0127912Y0076623D01*
X0126913Y0075624D02*
X0124333Y0075624D01*
X0121166Y0075624D02*
X0119005Y0075624D01*
X0119502Y0074663D02*
X0119502Y0074663D01*
X0119480Y0074626D02*
X0116606Y0074626D01*
X0116606Y0073627D02*
X0118904Y0073627D01*
X0118327Y0072629D02*
X0116918Y0072629D01*
X0117006Y0071630D02*
X0118313Y0071630D01*
X0117368Y0076533D02*
X0113734Y0076533D01*
X0113734Y0079618D02*
X0113734Y0079618D01*
X0113734Y0080617D02*
X0113734Y0080617D01*
X0116750Y0082915D02*
X0117750Y0081915D01*
X0117750Y0076915D01*
X0117368Y0076533D01*
X0127250Y0073415D02*
X0127250Y0068415D01*
X0124750Y0065915D01*
X0121132Y0065915D01*
X0127250Y0073415D02*
X0132750Y0078915D01*
X0132750Y0081915D01*
X0131745Y0084611D02*
X0131202Y0084611D01*
X0131202Y0085609D02*
X0133375Y0085609D01*
X0131750Y0085915D02*
X0130990Y0086675D01*
X0126750Y0086675D01*
X0126250Y0084611D02*
X0127250Y0084611D01*
X0127250Y0083612D02*
X0126250Y0083612D01*
X0122343Y0089603D02*
X0118484Y0089603D01*
X0119050Y0090602D02*
X0123166Y0090602D01*
X0122697Y0091601D02*
X0119050Y0091601D01*
X0119050Y0092599D02*
X0122697Y0092599D01*
X0122697Y0093598D02*
X0119050Y0093598D01*
X0119050Y0094596D02*
X0122697Y0094596D01*
X0130802Y0095595D02*
X0134666Y0095595D01*
X0133668Y0096593D02*
X0130802Y0096593D01*
X0136250Y0085415D02*
X0136234Y0085399D01*
X0140037Y0076623D02*
X0140912Y0076623D01*
X0150691Y0106734D02*
X0149250Y0108175D01*
X0149250Y0109730D01*
X0155250Y0115730D01*
X0155250Y0122230D01*
X0166439Y0111041D01*
X0166439Y0106734D01*
X0166750Y0123730D02*
X0166750Y0148730D01*
X0221250Y0148730D01*
X0221250Y0148230D01*
X0221250Y0148730D02*
X0221250Y0153730D01*
X0225750Y0153730D01*
X0221250Y0158230D02*
X0221250Y0158730D01*
X0160750Y0158730D01*
X0160750Y0128730D01*
X0155250Y0122230D02*
X0155250Y0168730D01*
X0221250Y0168730D01*
X0221250Y0173730D01*
X0225750Y0173730D01*
X0225750Y0163730D02*
X0221250Y0163730D01*
X0221250Y0158730D01*
X0205750Y0175230D02*
X0205750Y0183506D01*
X0205809Y0183506D01*
X0197935Y0183506D02*
X0197935Y0175230D01*
X0197750Y0175230D01*
X0182250Y0175230D02*
X0182187Y0175230D01*
X0182187Y0183506D01*
X0141732Y0195446D02*
X0141385Y0195446D01*
X0140358Y0196444D02*
X0140276Y0196444D01*
X0138211Y0197443D02*
X0137749Y0197443D01*
X0133177Y0197443D02*
X0125424Y0197443D01*
X0125424Y0196444D02*
X0131419Y0196444D01*
X0129930Y0195446D02*
X0125424Y0195446D01*
X0125424Y0194447D02*
X0129205Y0194447D01*
X0128479Y0193449D02*
X0125424Y0193449D01*
X0125424Y0192450D02*
X0127958Y0192450D01*
X0127746Y0191452D02*
X0125424Y0191452D01*
X0127533Y0190453D02*
X0116705Y0190453D01*
X0117792Y0191452D02*
X0120075Y0191452D01*
X0120075Y0192450D02*
X0118415Y0192450D01*
X0116514Y0188456D02*
X0127517Y0188456D01*
X0127321Y0189455D02*
X0101250Y0189455D01*
X0101250Y0189915D02*
X0097250Y0189915D01*
X0097250Y0180915D01*
X0099947Y0180915D01*
X0100329Y0181017D01*
X0100671Y0181215D01*
X0100950Y0181494D01*
X0101147Y0181836D01*
X0101250Y0182218D01*
X0101250Y0189915D01*
X0101250Y0188456D02*
X0111985Y0188456D01*
X0110787Y0187458D02*
X0101250Y0187458D01*
X0101250Y0186459D02*
X0110117Y0186459D01*
X0109704Y0185461D02*
X0101250Y0185461D01*
X0101250Y0184462D02*
X0109650Y0184462D01*
X0109665Y0183464D02*
X0101250Y0183464D01*
X0101250Y0182465D02*
X0110078Y0182465D01*
X0110693Y0181467D02*
X0100922Y0181467D01*
X0097250Y0181467D02*
X0096250Y0181467D01*
X0096250Y0182465D02*
X0097250Y0182465D01*
X0097250Y0183464D02*
X0096250Y0183464D01*
X0096250Y0184462D02*
X0097250Y0184462D01*
X0097250Y0185461D02*
X0096250Y0185461D01*
X0096250Y0186459D02*
X0097250Y0186459D01*
X0097250Y0187458D02*
X0096250Y0187458D01*
X0096250Y0188456D02*
X0097250Y0188456D01*
X0097250Y0189455D02*
X0096250Y0189455D01*
X0096250Y0189915D02*
X0090650Y0189915D01*
X0090650Y0190915D01*
X0096250Y0190915D01*
X0096250Y0189915D01*
X0096250Y0190453D02*
X0090650Y0190453D01*
X0086750Y0186415D02*
X0086769Y0186395D01*
X0086769Y0183915D01*
X0082850Y0189915D02*
X0077250Y0189915D01*
X0077250Y0190915D01*
X0082850Y0190915D01*
X0082850Y0189915D01*
X0082850Y0190453D02*
X0077250Y0190453D01*
X0077250Y0189915D02*
X0076250Y0189915D01*
X0076250Y0180915D01*
X0073552Y0180915D01*
X0073171Y0181017D01*
X0072829Y0181215D01*
X0072549Y0181494D01*
X0072352Y0181836D01*
X0072250Y0182218D01*
X0072250Y0189915D01*
X0076250Y0189915D01*
X0076250Y0190915D01*
X0072250Y0190915D01*
X0072250Y0197915D01*
X0060699Y0197915D01*
X0061013Y0197733D01*
X0061293Y0197454D01*
X0061490Y0197112D01*
X0061592Y0196731D01*
X0061592Y0194950D01*
X0058706Y0194950D01*
X0058706Y0194179D01*
X0061592Y0194179D01*
X0061592Y0192399D01*
X0061490Y0192017D01*
X0061293Y0191675D01*
X0061013Y0191396D01*
X0060679Y0191203D01*
X0061192Y0190690D01*
X0061192Y0185841D01*
X0060548Y0185197D01*
X0056546Y0185197D01*
X0057378Y0184852D01*
X0058187Y0184044D01*
X0058625Y0182987D01*
X0058625Y0181843D01*
X0058187Y0180786D01*
X0057550Y0180149D01*
X0057550Y0179279D01*
X0059339Y0179279D01*
X0059852Y0178766D01*
X0060045Y0179100D01*
X0060325Y0179379D01*
X0060667Y0179577D01*
X0061048Y0179679D01*
X0063305Y0179679D01*
X0063305Y0175726D01*
X0064305Y0175726D01*
X0067864Y0175726D01*
X0067864Y0178376D01*
X0067762Y0178758D01*
X0067564Y0179100D01*
X0067285Y0179379D01*
X0066943Y0179577D01*
X0066561Y0179679D01*
X0064305Y0179679D01*
X0064305Y0175726D01*
X0064305Y0174726D01*
X0067864Y0174726D01*
X0067864Y0172076D01*
X0067762Y0171694D01*
X0067564Y0171352D01*
X0067285Y0171073D01*
X0066943Y0170876D01*
X0066606Y0170785D01*
X0066606Y0169815D01*
X0069348Y0169815D01*
X0069317Y0169833D01*
X0069038Y0170112D01*
X0068840Y0170454D01*
X0068738Y0170836D01*
X0068738Y0173092D01*
X0072691Y0173092D01*
X0072691Y0174092D01*
X0072691Y0177651D01*
X0070040Y0177651D01*
X0069659Y0177549D01*
X0069317Y0177352D01*
X0069038Y0177072D01*
X0068840Y0176730D01*
X0068738Y0176349D01*
X0068738Y0174092D01*
X0072691Y0174092D01*
X0073691Y0174092D01*
X0077643Y0174092D01*
X0077643Y0176349D01*
X0077541Y0176730D01*
X0077344Y0177072D01*
X0077064Y0177352D01*
X0076722Y0177549D01*
X0076341Y0177651D01*
X0073691Y0177651D01*
X0073691Y0174092D01*
X0073691Y0173092D01*
X0077643Y0173092D01*
X0077643Y0170836D01*
X0077541Y0170454D01*
X0077344Y0170112D01*
X0077064Y0169833D01*
X0076730Y0169640D01*
X0077243Y0169127D01*
X0077243Y0163097D01*
X0076599Y0162453D01*
X0076091Y0162453D01*
X0076091Y0161939D01*
X0076271Y0161759D01*
X0077662Y0161759D01*
X0077926Y0161495D01*
X0077975Y0161580D01*
X0078254Y0161859D01*
X0078596Y0162057D01*
X0078977Y0162159D01*
X0080561Y0162159D01*
X0080561Y0158880D01*
X0081332Y0158880D01*
X0081332Y0162159D01*
X0081674Y0162159D01*
X0081161Y0162672D01*
X0080154Y0165103D01*
X0080154Y0179274D01*
X0080119Y0179359D01*
X0080119Y0180961D01*
X0079947Y0180915D01*
X0077250Y0180915D01*
X0077250Y0189915D01*
X0077250Y0189455D02*
X0076250Y0189455D01*
X0076250Y0190453D02*
X0061192Y0190453D01*
X0061192Y0189455D02*
X0072250Y0189455D01*
X0072250Y0188456D02*
X0061192Y0188456D01*
X0061192Y0187458D02*
X0072250Y0187458D01*
X0072250Y0186459D02*
X0061192Y0186459D01*
X0060811Y0185461D02*
X0072250Y0185461D01*
X0072250Y0184462D02*
X0057769Y0184462D01*
X0058427Y0183464D02*
X0072250Y0183464D01*
X0072250Y0182465D02*
X0058625Y0182465D01*
X0058469Y0181467D02*
X0072577Y0181467D01*
X0076250Y0181467D02*
X0077250Y0181467D01*
X0077250Y0182465D02*
X0076250Y0182465D01*
X0076250Y0183464D02*
X0077250Y0183464D01*
X0076750Y0183415D02*
X0076750Y0179415D01*
X0076855Y0177472D02*
X0080154Y0177472D01*
X0080154Y0176474D02*
X0077610Y0176474D01*
X0077643Y0175475D02*
X0080154Y0175475D01*
X0080154Y0174477D02*
X0077643Y0174477D01*
X0077643Y0172480D02*
X0080154Y0172480D01*
X0080154Y0173478D02*
X0073691Y0173478D01*
X0073691Y0174477D02*
X0072691Y0174477D01*
X0072691Y0175475D02*
X0073691Y0175475D01*
X0073691Y0176474D02*
X0072691Y0176474D01*
X0072691Y0177472D02*
X0073691Y0177472D01*
X0072691Y0173478D02*
X0067864Y0173478D01*
X0067864Y0172480D02*
X0068738Y0172480D01*
X0068738Y0171481D02*
X0067639Y0171481D01*
X0066606Y0170483D02*
X0068832Y0170483D01*
X0068738Y0174477D02*
X0067864Y0174477D01*
X0068738Y0175475D02*
X0064305Y0175475D01*
X0064305Y0176474D02*
X0063305Y0176474D01*
X0063305Y0177472D02*
X0064305Y0177472D01*
X0064305Y0178471D02*
X0063305Y0178471D01*
X0063305Y0179470D02*
X0064305Y0179470D01*
X0067128Y0179470D02*
X0080119Y0179470D01*
X0080119Y0180468D02*
X0057869Y0180468D01*
X0057550Y0179470D02*
X0060481Y0179470D01*
X0055750Y0182415D02*
X0055750Y0175801D01*
X0056325Y0175226D01*
X0053425Y0171173D02*
X0053425Y0169421D01*
X0049784Y0169421D01*
X0049670Y0169534D01*
X0048751Y0169915D01*
X0037252Y0169915D01*
X0036334Y0169534D01*
X0035630Y0168831D01*
X0033630Y0166831D01*
X0033250Y0165912D01*
X0033250Y0160613D01*
X0032822Y0160790D01*
X0031678Y0160790D01*
X0030621Y0160352D01*
X0029812Y0159544D01*
X0029375Y0158487D01*
X0029375Y0157343D01*
X0029812Y0156286D01*
X0030621Y0155478D01*
X0031678Y0155040D01*
X0032822Y0155040D01*
X0033497Y0155320D01*
X0033630Y0154999D01*
X0035350Y0153279D01*
X0022250Y0153279D01*
X0022250Y0171551D01*
X0035993Y0171551D01*
X0036637Y0172196D01*
X0036637Y0179406D01*
X0035993Y0180050D01*
X0022250Y0180050D01*
X0022250Y0189415D01*
X0022354Y0190745D01*
X0023176Y0193274D01*
X0024739Y0195425D01*
X0026891Y0196989D01*
X0027969Y0197339D01*
X0025104Y0195685D01*
X0023042Y0192847D01*
X0022313Y0189415D01*
X0023042Y0185983D01*
X0025104Y0183145D01*
X0028143Y0181391D01*
X0031632Y0181024D01*
X0034968Y0182108D01*
X0037575Y0184456D01*
X0039002Y0187661D01*
X0039002Y0191169D01*
X0037575Y0194374D01*
X0034968Y0196722D01*
X0031632Y0197806D01*
X0028342Y0197460D01*
X0029420Y0197810D01*
X0030750Y0197915D01*
X0039801Y0197915D01*
X0039486Y0197733D01*
X0039207Y0197454D01*
X0039009Y0197112D01*
X0038907Y0196731D01*
X0038907Y0194950D01*
X0041793Y0194950D01*
X0041793Y0194179D01*
X0038907Y0194179D01*
X0038907Y0192399D01*
X0039009Y0192017D01*
X0039207Y0191675D01*
X0039486Y0191396D01*
X0039820Y0191203D01*
X0039307Y0190690D01*
X0039307Y0185841D01*
X0039952Y0185197D01*
X0044406Y0185197D01*
X0045050Y0185841D01*
X0045050Y0186465D01*
X0047027Y0186465D01*
X0047163Y0186137D01*
X0047972Y0185328D01*
X0049028Y0184890D01*
X0050172Y0184890D01*
X0051229Y0185328D01*
X0052037Y0186137D01*
X0052173Y0186465D01*
X0055449Y0186465D01*
X0055449Y0185841D01*
X0056000Y0185290D01*
X0055178Y0185290D01*
X0054121Y0184852D01*
X0053312Y0184044D01*
X0052875Y0182987D01*
X0052875Y0181843D01*
X0053312Y0180786D01*
X0053950Y0180149D01*
X0053950Y0179279D01*
X0053310Y0179279D01*
X0052665Y0178634D01*
X0052665Y0171818D01*
X0053310Y0171173D01*
X0053425Y0171173D01*
X0053002Y0171481D02*
X0022250Y0171481D01*
X0022250Y0170483D02*
X0053425Y0170483D01*
X0053425Y0169484D02*
X0049720Y0169484D01*
X0052665Y0172480D02*
X0036637Y0172480D01*
X0036637Y0173478D02*
X0052665Y0173478D01*
X0052665Y0174477D02*
X0036637Y0174477D01*
X0036637Y0175475D02*
X0052665Y0175475D01*
X0052665Y0176474D02*
X0036637Y0176474D01*
X0036637Y0177472D02*
X0052665Y0177472D01*
X0052665Y0178471D02*
X0036637Y0178471D01*
X0036574Y0179470D02*
X0053950Y0179470D01*
X0053631Y0180468D02*
X0022250Y0180468D01*
X0022250Y0181467D02*
X0028012Y0181467D01*
X0026282Y0182465D02*
X0022250Y0182465D01*
X0022250Y0183464D02*
X0024873Y0183464D01*
X0024147Y0184462D02*
X0022250Y0184462D01*
X0022250Y0185461D02*
X0023422Y0185461D01*
X0022941Y0186459D02*
X0022250Y0186459D01*
X0022250Y0187458D02*
X0022729Y0187458D01*
X0022517Y0188456D02*
X0022250Y0188456D01*
X0022253Y0189455D02*
X0022321Y0189455D01*
X0022331Y0190453D02*
X0022533Y0190453D01*
X0022584Y0191452D02*
X0022746Y0191452D01*
X0022908Y0192450D02*
X0022958Y0192450D01*
X0023303Y0193449D02*
X0023479Y0193449D01*
X0024029Y0194447D02*
X0024205Y0194447D01*
X0024767Y0195446D02*
X0024930Y0195446D01*
X0026141Y0196444D02*
X0026419Y0196444D01*
X0032749Y0197443D02*
X0039200Y0197443D01*
X0038907Y0196444D02*
X0035276Y0196444D01*
X0036385Y0195446D02*
X0038907Y0195446D01*
X0037494Y0194447D02*
X0041793Y0194447D01*
X0042565Y0194447D02*
X0057935Y0194447D01*
X0057935Y0194179D02*
X0055049Y0194179D01*
X0055049Y0192399D01*
X0055151Y0192017D01*
X0055349Y0191675D01*
X0055628Y0191396D01*
X0055962Y0191203D01*
X0055449Y0190690D01*
X0055449Y0190065D01*
X0051366Y0190065D01*
X0051229Y0190203D01*
X0050172Y0190640D01*
X0049028Y0190640D01*
X0047972Y0190203D01*
X0047834Y0190065D01*
X0045050Y0190065D01*
X0045050Y0190690D01*
X0044537Y0191203D01*
X0044872Y0191396D01*
X0045151Y0191675D01*
X0045348Y0192017D01*
X0045450Y0192399D01*
X0045450Y0194179D01*
X0042565Y0194179D01*
X0042565Y0194950D01*
X0045450Y0194950D01*
X0045450Y0196731D01*
X0045348Y0197112D01*
X0045151Y0197454D01*
X0044872Y0197733D01*
X0044557Y0197915D01*
X0055942Y0197915D01*
X0055628Y0197733D01*
X0055349Y0197454D01*
X0055151Y0197112D01*
X0055049Y0196731D01*
X0055049Y0194950D01*
X0057935Y0194950D01*
X0057935Y0194179D01*
X0058706Y0194447D02*
X0072250Y0194447D01*
X0072250Y0193449D02*
X0061592Y0193449D01*
X0061592Y0192450D02*
X0072250Y0192450D01*
X0072250Y0191452D02*
X0061069Y0191452D01*
X0058321Y0188265D02*
X0050100Y0188265D01*
X0049600Y0187765D01*
X0049100Y0188265D01*
X0042179Y0188265D01*
X0045050Y0186459D02*
X0047029Y0186459D01*
X0047839Y0185461D02*
X0044670Y0185461D01*
X0039688Y0185461D02*
X0038023Y0185461D01*
X0038467Y0186459D02*
X0039307Y0186459D01*
X0039307Y0187458D02*
X0038912Y0187458D01*
X0039002Y0188456D02*
X0039307Y0188456D01*
X0039307Y0189455D02*
X0039002Y0189455D01*
X0039002Y0190453D02*
X0039307Y0190453D01*
X0039430Y0191452D02*
X0038877Y0191452D01*
X0038907Y0192450D02*
X0038432Y0192450D01*
X0037987Y0193449D02*
X0038907Y0193449D01*
X0044927Y0191452D02*
X0055572Y0191452D01*
X0055449Y0190453D02*
X0050624Y0190453D01*
X0048576Y0190453D02*
X0045050Y0190453D01*
X0045450Y0192450D02*
X0055049Y0192450D01*
X0055049Y0193449D02*
X0045450Y0193449D01*
X0045450Y0195446D02*
X0055049Y0195446D01*
X0055049Y0196444D02*
X0045450Y0196444D01*
X0045157Y0197443D02*
X0055342Y0197443D01*
X0061299Y0197443D02*
X0072250Y0197443D01*
X0072250Y0196444D02*
X0061592Y0196444D01*
X0061592Y0195446D02*
X0072250Y0195446D01*
X0076250Y0188456D02*
X0077250Y0188456D01*
X0077250Y0187458D02*
X0076250Y0187458D01*
X0076250Y0186459D02*
X0077250Y0186459D01*
X0077250Y0185461D02*
X0076250Y0185461D01*
X0076250Y0184462D02*
X0077250Y0184462D01*
X0080154Y0178471D02*
X0067839Y0178471D01*
X0067864Y0177472D02*
X0069526Y0177472D01*
X0068771Y0176474D02*
X0067864Y0176474D01*
X0077643Y0171481D02*
X0080154Y0171481D01*
X0080154Y0170483D02*
X0077549Y0170483D01*
X0076886Y0169484D02*
X0080154Y0169484D01*
X0080154Y0168486D02*
X0077243Y0168486D01*
X0077243Y0167487D02*
X0080154Y0167487D01*
X0080154Y0166489D02*
X0077243Y0166489D01*
X0077243Y0165490D02*
X0080154Y0165490D01*
X0080408Y0164492D02*
X0077243Y0164492D01*
X0077243Y0163493D02*
X0080821Y0163493D01*
X0081339Y0162495D02*
X0076641Y0162495D01*
X0077925Y0161496D02*
X0077926Y0161496D01*
X0080561Y0161496D02*
X0081332Y0161496D01*
X0081332Y0160498D02*
X0080561Y0160498D01*
X0080561Y0159499D02*
X0081332Y0159499D01*
X0081332Y0157502D02*
X0080561Y0157502D01*
X0080561Y0156504D02*
X0081332Y0156504D01*
X0081096Y0155505D02*
X0080561Y0155505D01*
X0080324Y0154507D02*
X0081096Y0154507D01*
X0081096Y0153508D02*
X0080324Y0153508D01*
X0073474Y0147462D02*
X0073474Y0146691D01*
X0070195Y0146691D01*
X0070195Y0145107D01*
X0070297Y0144726D01*
X0070494Y0144384D01*
X0070774Y0144105D01*
X0070858Y0144056D01*
X0070595Y0143792D01*
X0070595Y0139337D01*
X0071123Y0138809D01*
X0070595Y0138280D01*
X0070595Y0137853D01*
X0070266Y0137853D01*
X0070187Y0138044D01*
X0069378Y0138852D01*
X0068322Y0139290D01*
X0067178Y0139290D01*
X0066121Y0138852D01*
X0065754Y0138485D01*
X0065486Y0138753D01*
X0065144Y0138951D01*
X0064762Y0139053D01*
X0059750Y0139053D01*
X0059750Y0134903D01*
X0058750Y0134903D01*
X0053350Y0134903D01*
X0053350Y0133903D01*
X0058750Y0133903D01*
X0058750Y0134903D01*
X0058750Y0139053D01*
X0053737Y0139053D01*
X0053356Y0138951D01*
X0053350Y0138947D01*
X0053350Y0140557D01*
X0053970Y0141177D01*
X0065020Y0141177D01*
X0065665Y0141822D01*
X0065665Y0148876D01*
X0065703Y0148876D01*
X0066085Y0148978D01*
X0066427Y0149175D01*
X0066706Y0149455D01*
X0066903Y0149797D01*
X0067006Y0150178D01*
X0067006Y0152632D01*
X0063250Y0152632D01*
X0063250Y0153632D01*
X0062250Y0153632D01*
X0062250Y0157387D01*
X0059872Y0157387D01*
X0059872Y0157994D01*
X0049801Y0157994D01*
X0049801Y0158962D01*
X0059872Y0158962D01*
X0059872Y0160644D01*
X0059770Y0161026D01*
X0059572Y0161368D01*
X0059293Y0161647D01*
X0058951Y0161844D01*
X0058569Y0161947D01*
X0049801Y0161947D01*
X0049801Y0158962D01*
X0048832Y0158962D01*
X0048832Y0157994D01*
X0038762Y0157994D01*
X0038762Y0156939D01*
X0038250Y0157451D01*
X0038250Y0164380D01*
X0038785Y0164915D01*
X0039162Y0164915D01*
X0039162Y0163928D01*
X0039806Y0163284D01*
X0058827Y0163284D01*
X0059462Y0163918D01*
X0059538Y0163843D01*
X0062327Y0163843D01*
X0062877Y0163615D01*
X0064190Y0163615D01*
X0064739Y0163843D01*
X0065961Y0163843D01*
X0066134Y0164015D01*
X0069138Y0164015D01*
X0069138Y0163097D01*
X0069782Y0162453D01*
X0070291Y0162453D01*
X0070291Y0160161D01*
X0070732Y0159095D01*
X0071362Y0158466D01*
X0070960Y0157496D01*
X0070960Y0155181D01*
X0070595Y0154816D01*
X0070595Y0150361D01*
X0070858Y0150097D01*
X0070774Y0150048D01*
X0070494Y0149769D01*
X0070297Y0149427D01*
X0070195Y0149046D01*
X0070195Y0147462D01*
X0073474Y0147462D01*
X0070195Y0147517D02*
X0065665Y0147517D01*
X0065665Y0146519D02*
X0070195Y0146519D01*
X0070195Y0145520D02*
X0065665Y0145520D01*
X0065665Y0144522D02*
X0070415Y0144522D01*
X0070595Y0143523D02*
X0065665Y0143523D01*
X0065665Y0142525D02*
X0070595Y0142525D01*
X0070595Y0141526D02*
X0065369Y0141526D01*
X0065708Y0138531D02*
X0065799Y0138531D01*
X0067750Y0136415D02*
X0068112Y0136053D01*
X0073860Y0136053D01*
X0070882Y0133538D02*
X0066065Y0133538D01*
X0066065Y0133903D02*
X0059750Y0133903D01*
X0059750Y0129754D01*
X0064762Y0129754D01*
X0065144Y0129856D01*
X0065486Y0130053D01*
X0065765Y0130333D01*
X0065962Y0130675D01*
X0066065Y0131056D01*
X0066065Y0133903D01*
X0065562Y0134536D02*
X0059750Y0134536D01*
X0059750Y0133538D02*
X0058750Y0133538D01*
X0058750Y0134536D02*
X0053350Y0134536D01*
X0053350Y0139529D02*
X0070595Y0139529D01*
X0070595Y0140528D02*
X0053350Y0140528D01*
X0047053Y0142415D02*
X0047053Y0135478D01*
X0046990Y0135415D01*
X0045250Y0133675D01*
X0045250Y0123415D01*
X0046750Y0121915D01*
X0055250Y0121915D01*
X0056490Y0123155D01*
X0056490Y0126534D01*
X0058673Y0126548D02*
X0061817Y0126548D01*
X0061108Y0125550D02*
X0058673Y0125550D01*
X0058673Y0124551D02*
X0060875Y0124551D01*
X0060995Y0123553D02*
X0058510Y0123553D01*
X0058290Y0122554D02*
X0060050Y0122554D01*
X0059797Y0121556D02*
X0057436Y0121556D01*
X0056438Y0120557D02*
X0059797Y0120557D01*
X0063750Y0124415D02*
X0064750Y0123415D01*
X0068050Y0123415D01*
X0069250Y0122215D01*
X0070138Y0120557D02*
X0070595Y0120557D01*
X0070195Y0124551D02*
X0069459Y0124551D01*
X0070195Y0125550D02*
X0066392Y0125550D01*
X0066350Y0126548D02*
X0065682Y0126548D01*
X0065622Y0127547D02*
X0058673Y0127547D01*
X0058673Y0128545D02*
X0065375Y0128545D01*
X0065481Y0129544D02*
X0058480Y0129544D01*
X0058750Y0130542D02*
X0059750Y0130542D01*
X0059750Y0131541D02*
X0058750Y0131541D01*
X0058750Y0132539D02*
X0059750Y0132539D01*
X0059750Y0135535D02*
X0058750Y0135535D01*
X0058750Y0136534D02*
X0059750Y0136534D01*
X0059750Y0137532D02*
X0058750Y0137532D01*
X0058750Y0138531D02*
X0059750Y0138531D01*
X0066065Y0132539D02*
X0070595Y0132539D01*
X0070595Y0131541D02*
X0068940Y0131541D01*
X0067559Y0131541D02*
X0066065Y0131541D01*
X0066011Y0130542D02*
X0065886Y0130542D01*
X0070488Y0130542D02*
X0070595Y0130542D01*
X0070845Y0138531D02*
X0069700Y0138531D01*
X0070195Y0148516D02*
X0065665Y0148516D01*
X0066740Y0149514D02*
X0070347Y0149514D01*
X0070595Y0150513D02*
X0067006Y0150513D01*
X0067006Y0151511D02*
X0070595Y0151511D01*
X0070595Y0152510D02*
X0067006Y0152510D01*
X0067006Y0153632D02*
X0063250Y0153632D01*
X0063250Y0157387D01*
X0065703Y0157387D01*
X0066085Y0157285D01*
X0066427Y0157088D01*
X0066706Y0156809D01*
X0066903Y0156466D01*
X0067006Y0156085D01*
X0067006Y0153632D01*
X0067006Y0154507D02*
X0070595Y0154507D01*
X0070595Y0153508D02*
X0063250Y0153508D01*
X0063250Y0154507D02*
X0062250Y0154507D01*
X0062250Y0153632D02*
X0062250Y0152632D01*
X0058494Y0152632D01*
X0058494Y0150178D01*
X0058596Y0149797D01*
X0058665Y0149676D01*
X0053524Y0149676D01*
X0049666Y0153534D01*
X0048747Y0153915D01*
X0047752Y0153915D01*
X0041785Y0153915D01*
X0040691Y0155010D01*
X0048832Y0155010D01*
X0048832Y0157994D01*
X0049801Y0157994D01*
X0049801Y0155010D01*
X0058494Y0155010D01*
X0058494Y0153632D01*
X0062250Y0153632D01*
X0062250Y0153508D02*
X0049692Y0153508D01*
X0050691Y0152510D02*
X0058494Y0152510D01*
X0058494Y0151511D02*
X0051689Y0151511D01*
X0052688Y0150513D02*
X0058494Y0150513D01*
X0058494Y0154507D02*
X0041194Y0154507D01*
X0038762Y0157502D02*
X0038250Y0157502D01*
X0038250Y0158501D02*
X0048832Y0158501D01*
X0048832Y0158962D02*
X0038762Y0158962D01*
X0038762Y0160644D01*
X0038864Y0161026D01*
X0039061Y0161368D01*
X0039340Y0161647D01*
X0039683Y0161844D01*
X0040064Y0161947D01*
X0048832Y0161947D01*
X0048832Y0158962D01*
X0048832Y0159499D02*
X0049801Y0159499D01*
X0049801Y0158501D02*
X0071327Y0158501D01*
X0070963Y0157502D02*
X0059872Y0157502D01*
X0059872Y0159499D02*
X0070565Y0159499D01*
X0070291Y0160498D02*
X0059872Y0160498D01*
X0059443Y0161496D02*
X0070291Y0161496D01*
X0069740Y0162495D02*
X0038250Y0162495D01*
X0038250Y0163493D02*
X0039596Y0163493D01*
X0039162Y0164492D02*
X0038362Y0164492D01*
X0038250Y0161496D02*
X0039190Y0161496D01*
X0038762Y0160498D02*
X0038250Y0160498D01*
X0038250Y0159499D02*
X0038762Y0159499D01*
X0033250Y0161496D02*
X0030836Y0161496D01*
X0030972Y0160498D02*
X0022250Y0160498D01*
X0022250Y0161496D02*
X0026663Y0161496D01*
X0027561Y0160978D02*
X0029939Y0160978D01*
X0031998Y0162167D01*
X0033187Y0164226D01*
X0033187Y0166604D01*
X0031998Y0168663D01*
X0031998Y0168663D01*
X0031998Y0168663D01*
X0029939Y0169852D01*
X0028135Y0169852D01*
X0027561Y0169852D01*
X0027561Y0169852D01*
X0025502Y0168663D01*
X0025502Y0168663D01*
X0024313Y0166604D01*
X0024313Y0164226D01*
X0025502Y0162167D01*
X0027561Y0160978D01*
X0025502Y0162167D02*
X0025502Y0162167D01*
X0025312Y0162495D02*
X0022250Y0162495D01*
X0022250Y0163493D02*
X0024736Y0163493D01*
X0024313Y0164492D02*
X0022250Y0164492D01*
X0022250Y0165490D02*
X0024313Y0165490D01*
X0024313Y0166489D02*
X0022250Y0166489D01*
X0022250Y0167487D02*
X0024823Y0167487D01*
X0025399Y0168486D02*
X0022250Y0168486D01*
X0022250Y0169484D02*
X0026924Y0169484D01*
X0025502Y0168663D02*
X0025502Y0168663D01*
X0030575Y0169484D02*
X0036284Y0169484D01*
X0035285Y0168486D02*
X0032100Y0168486D01*
X0032677Y0167487D02*
X0034286Y0167487D01*
X0033489Y0166489D02*
X0033187Y0166489D01*
X0033187Y0165490D02*
X0033250Y0165490D01*
X0033250Y0164492D02*
X0033187Y0164492D01*
X0033250Y0163493D02*
X0032764Y0163493D01*
X0033250Y0162495D02*
X0032187Y0162495D01*
X0031998Y0162167D02*
X0031998Y0162167D01*
X0031998Y0162167D01*
X0029794Y0159499D02*
X0022250Y0159499D01*
X0022250Y0158501D02*
X0029380Y0158501D01*
X0029375Y0157502D02*
X0022250Y0157502D01*
X0022250Y0156504D02*
X0029722Y0156504D01*
X0030594Y0155505D02*
X0022250Y0155505D01*
X0022250Y0154507D02*
X0034123Y0154507D01*
X0035121Y0153508D02*
X0022250Y0153508D01*
X0029002Y0144522D02*
X0029945Y0144522D01*
X0029945Y0143523D02*
X0029002Y0143523D01*
X0029945Y0142525D02*
X0025640Y0142525D01*
X0029002Y0141526D02*
X0029945Y0141526D01*
X0029945Y0140528D02*
X0029002Y0140528D01*
X0028963Y0139529D02*
X0029945Y0139529D01*
X0033407Y0142234D02*
X0039391Y0142234D01*
X0039573Y0142415D01*
X0043232Y0142525D02*
X0043394Y0142525D01*
X0043394Y0143523D02*
X0043232Y0143523D01*
X0043232Y0144522D02*
X0043394Y0144522D01*
X0043394Y0145520D02*
X0043232Y0145520D01*
X0043232Y0145823D02*
X0042587Y0146468D01*
X0036637Y0146468D01*
X0036637Y0151992D01*
X0039334Y0149296D01*
X0040252Y0148915D01*
X0047214Y0148915D01*
X0049661Y0146468D01*
X0044038Y0146468D01*
X0043394Y0145823D01*
X0043394Y0139007D01*
X0043454Y0138947D01*
X0043331Y0138823D01*
X0043331Y0132465D01*
X0043169Y0132574D01*
X0043169Y0138823D01*
X0043108Y0138884D01*
X0043232Y0139007D01*
X0043232Y0145823D01*
X0043232Y0141526D02*
X0043394Y0141526D01*
X0043394Y0140528D02*
X0043232Y0140528D01*
X0043232Y0139529D02*
X0043394Y0139529D01*
X0043331Y0138531D02*
X0043169Y0138531D01*
X0043169Y0137532D02*
X0043331Y0137532D01*
X0043331Y0136534D02*
X0043169Y0136534D01*
X0043169Y0135535D02*
X0043331Y0135535D01*
X0043331Y0134536D02*
X0043169Y0134536D01*
X0043169Y0133538D02*
X0043331Y0133538D01*
X0043331Y0132539D02*
X0043220Y0132539D01*
X0039510Y0135415D02*
X0039053Y0134958D01*
X0036637Y0146519D02*
X0049611Y0146519D01*
X0048612Y0147517D02*
X0036637Y0147517D01*
X0036637Y0148516D02*
X0047614Y0148516D01*
X0048832Y0155505D02*
X0049801Y0155505D01*
X0049801Y0156504D02*
X0048832Y0156504D01*
X0048832Y0157502D02*
X0049801Y0157502D01*
X0049801Y0160498D02*
X0048832Y0160498D01*
X0048832Y0161496D02*
X0049801Y0161496D01*
X0059037Y0163493D02*
X0069138Y0163493D01*
X0070960Y0156504D02*
X0066882Y0156504D01*
X0067006Y0155505D02*
X0070960Y0155505D01*
X0063250Y0155505D02*
X0062250Y0155505D01*
X0062250Y0156504D02*
X0063250Y0156504D01*
X0086458Y0166246D02*
X0086769Y0165935D01*
X0086769Y0165915D01*
X0086769Y0170478D02*
X0086750Y0170498D01*
X0092718Y0163493D02*
X0101287Y0163493D01*
X0101287Y0164492D02*
X0093131Y0164492D01*
X0093384Y0165490D02*
X0101287Y0165490D01*
X0101287Y0166489D02*
X0093384Y0166489D01*
X0093384Y0167487D02*
X0101287Y0167487D01*
X0101287Y0168486D02*
X0093384Y0168486D01*
X0093384Y0169484D02*
X0108992Y0169484D01*
X0108855Y0170483D02*
X0108027Y0170483D01*
X0108033Y0170486D02*
X0108312Y0170766D01*
X0108510Y0171108D01*
X0108612Y0171489D01*
X0108612Y0173549D01*
X0105250Y0173549D01*
X0105250Y0174549D01*
X0108612Y0174549D01*
X0108612Y0176609D01*
X0108510Y0176990D01*
X0108312Y0177332D01*
X0108033Y0177611D01*
X0107691Y0177809D01*
X0107309Y0177911D01*
X0105250Y0177911D01*
X0105250Y0174549D01*
X0104250Y0174549D01*
X0104250Y0177911D01*
X0102190Y0177911D01*
X0101809Y0177809D01*
X0101466Y0177611D01*
X0101187Y0177332D01*
X0100990Y0176990D01*
X0100887Y0176609D01*
X0100887Y0174549D01*
X0104250Y0174549D01*
X0104250Y0173549D01*
X0105250Y0173549D01*
X0105250Y0170187D01*
X0107309Y0170187D01*
X0107691Y0170289D01*
X0108033Y0170486D01*
X0108610Y0171481D02*
X0108697Y0171481D01*
X0108697Y0172480D02*
X0108612Y0172480D01*
X0108612Y0173478D02*
X0108697Y0173478D01*
X0108697Y0174477D02*
X0105250Y0174477D01*
X0105250Y0175475D02*
X0104250Y0175475D01*
X0104250Y0174477D02*
X0093384Y0174477D01*
X0093384Y0175475D02*
X0100887Y0175475D01*
X0100887Y0176474D02*
X0093384Y0176474D01*
X0093384Y0177472D02*
X0101328Y0177472D01*
X0104250Y0177472D02*
X0105250Y0177472D01*
X0105250Y0176474D02*
X0104250Y0176474D01*
X0104250Y0173549D02*
X0100887Y0173549D01*
X0100887Y0171489D01*
X0100990Y0171108D01*
X0101187Y0170766D01*
X0101466Y0170486D01*
X0101809Y0170289D01*
X0102190Y0170187D01*
X0104250Y0170187D01*
X0104250Y0173549D01*
X0104250Y0173478D02*
X0105250Y0173478D01*
X0105250Y0172480D02*
X0104250Y0172480D01*
X0104250Y0171481D02*
X0105250Y0171481D01*
X0105250Y0170483D02*
X0104250Y0170483D01*
X0101473Y0170483D02*
X0093384Y0170483D01*
X0093384Y0171481D02*
X0100890Y0171481D01*
X0100887Y0172480D02*
X0093384Y0172480D01*
X0093384Y0173478D02*
X0100887Y0173478D01*
X0108612Y0175475D02*
X0108697Y0175475D01*
X0108697Y0176474D02*
X0108612Y0176474D01*
X0108172Y0177472D02*
X0114021Y0177472D01*
X0115020Y0178471D02*
X0093384Y0178471D01*
X0093384Y0179470D02*
X0115450Y0179470D01*
X0117250Y0179415D02*
X0126750Y0179415D01*
X0130474Y0180691D02*
X0126750Y0184415D01*
X0122750Y0184415D01*
X0114250Y0184415D01*
X0117713Y0187458D02*
X0120075Y0187458D01*
X0120075Y0186459D02*
X0118382Y0186459D01*
X0125424Y0186459D02*
X0127941Y0186459D01*
X0127729Y0187458D02*
X0125424Y0187458D01*
X0128250Y0185461D02*
X0128422Y0185461D01*
X0130474Y0180691D02*
X0130474Y0171915D01*
X0125750Y0172415D02*
X0125750Y0169415D01*
X0127250Y0167915D01*
X0125750Y0172415D02*
X0122510Y0175655D01*
X0121025Y0175655D01*
X0123139Y0172480D02*
X0116802Y0172480D01*
X0116802Y0173478D02*
X0117169Y0173478D01*
X0117169Y0174477D02*
X0116802Y0174477D01*
X0117116Y0175475D02*
X0117169Y0175475D01*
X0116802Y0171481D02*
X0117587Y0171481D01*
X0116807Y0170483D02*
X0116645Y0170483D01*
X0116769Y0169484D02*
X0116508Y0169484D01*
X0120541Y0169484D02*
X0121510Y0169484D01*
X0121510Y0170483D02*
X0120541Y0170483D01*
X0120541Y0171481D02*
X0121510Y0171481D01*
X0121510Y0167487D02*
X0120541Y0167487D01*
X0120541Y0166489D02*
X0121510Y0166489D01*
X0121510Y0165490D02*
X0120541Y0165490D01*
X0116951Y0165490D02*
X0116802Y0165490D01*
X0117038Y0161496D02*
X0117039Y0161496D01*
X0122019Y0161496D02*
X0122551Y0161496D01*
X0130553Y0162218D02*
X0136750Y0162218D01*
X0136750Y0164915D01*
X0140750Y0163915D02*
X0140750Y0163179D01*
X0136250Y0158679D01*
X0117250Y0178155D02*
X0117250Y0179415D01*
X0117250Y0178155D02*
X0112750Y0173655D01*
X0108697Y0168486D02*
X0108212Y0168486D01*
X0104750Y0165781D02*
X0112356Y0165781D01*
X0112750Y0166175D01*
X0106015Y0161496D02*
X0106014Y0161496D01*
X0103380Y0161496D02*
X0102608Y0161496D01*
X0102608Y0160498D02*
X0103380Y0160498D01*
X0103380Y0159499D02*
X0102608Y0159499D01*
X0102608Y0158880D02*
X0102608Y0158108D01*
X0103380Y0158108D01*
X0103380Y0152580D01*
X0106265Y0152580D01*
X0108120Y0152580D01*
X0108120Y0151809D01*
X0103380Y0151809D01*
X0103380Y0152580D01*
X0102608Y0152580D01*
X0102608Y0154828D01*
X0102608Y0158108D01*
X0097868Y0158108D01*
X0097868Y0158880D01*
X0100754Y0158880D01*
X0102608Y0158880D01*
X0102608Y0158501D02*
X0097868Y0158501D01*
X0097096Y0158501D02*
X0092356Y0158501D01*
X0092356Y0158880D02*
X0095242Y0158880D01*
X0097096Y0158880D01*
X0097096Y0158108D01*
X0092356Y0158108D01*
X0092356Y0158880D01*
X0092356Y0159499D02*
X0091584Y0159499D01*
X0091584Y0160498D02*
X0092356Y0160498D01*
X0092356Y0161496D02*
X0091584Y0161496D01*
X0092200Y0162495D02*
X0101756Y0162495D01*
X0097868Y0161496D02*
X0097096Y0161496D01*
X0097096Y0160498D02*
X0097868Y0160498D01*
X0097868Y0159499D02*
X0097096Y0159499D01*
X0102608Y0157502D02*
X0103380Y0157502D01*
X0103380Y0156504D02*
X0102608Y0156504D01*
X0102608Y0155505D02*
X0103380Y0155505D01*
X0103380Y0154507D02*
X0102608Y0154507D01*
X0102608Y0153508D02*
X0103380Y0153508D01*
X0103380Y0152510D02*
X0108120Y0152510D01*
X0101132Y0148516D02*
X0100132Y0148516D01*
X0100132Y0147517D02*
X0101132Y0147517D01*
X0101132Y0146519D02*
X0100132Y0146519D01*
X0100132Y0141526D02*
X0101132Y0141526D01*
X0101132Y0140528D02*
X0100132Y0140528D01*
X0100132Y0139529D02*
X0101132Y0139529D01*
X0101132Y0138531D02*
X0100132Y0138531D01*
X0100132Y0137532D02*
X0101132Y0137532D01*
X0101132Y0136534D02*
X0100132Y0136534D01*
X0100750Y0136415D02*
X0100750Y0133415D01*
X0095750Y0133415D01*
X0100132Y0133538D02*
X0101132Y0133538D01*
X0101132Y0134536D02*
X0100132Y0134536D01*
X0100132Y0135535D02*
X0101132Y0135535D01*
X0101132Y0132539D02*
X0100132Y0132539D01*
X0100132Y0131541D02*
X0101132Y0131541D01*
X0101132Y0130542D02*
X0110368Y0130542D01*
X0110368Y0131541D02*
X0111368Y0131541D01*
X0111368Y0132539D02*
X0110368Y0132539D01*
X0111368Y0130542D02*
X0120604Y0130542D01*
X0120604Y0131541D02*
X0121604Y0131541D01*
X0121604Y0132539D02*
X0120604Y0132539D01*
X0119750Y0127415D02*
X0115750Y0127415D01*
X0111368Y0127547D02*
X0110368Y0127547D01*
X0110368Y0126548D02*
X0111368Y0126548D01*
X0111368Y0125550D02*
X0110368Y0125550D01*
X0110368Y0124551D02*
X0111368Y0124551D01*
X0111368Y0123553D02*
X0110368Y0123553D01*
X0110368Y0122554D02*
X0111368Y0122554D01*
X0111368Y0121556D02*
X0110368Y0121556D01*
X0110368Y0120557D02*
X0111368Y0120557D01*
X0111368Y0119559D02*
X0110368Y0119559D01*
X0110368Y0116563D02*
X0111368Y0116563D01*
X0111368Y0115565D02*
X0110368Y0115565D01*
X0110368Y0114566D02*
X0111368Y0114566D01*
X0111368Y0113568D02*
X0110368Y0113568D01*
X0110368Y0112569D02*
X0111368Y0112569D01*
X0115750Y0121415D02*
X0105750Y0121415D01*
X0095750Y0121415D01*
X0100132Y0121556D02*
X0101132Y0121556D01*
X0101132Y0122554D02*
X0100132Y0122554D01*
X0100132Y0123553D02*
X0101132Y0123553D01*
X0100750Y0124415D02*
X0100750Y0127415D01*
X0105750Y0127415D01*
X0101132Y0127547D02*
X0100132Y0127547D01*
X0100132Y0126548D02*
X0101132Y0126548D01*
X0101132Y0125550D02*
X0100132Y0125550D01*
X0100132Y0124551D02*
X0101132Y0124551D01*
X0101132Y0120557D02*
X0100132Y0120557D01*
X0100132Y0119559D02*
X0101132Y0119559D01*
X0101132Y0116563D02*
X0100132Y0116563D01*
X0100132Y0115565D02*
X0101132Y0115565D01*
X0101132Y0114566D02*
X0100132Y0114566D01*
X0100132Y0113568D02*
X0101132Y0113568D01*
X0101132Y0112569D02*
X0100132Y0112569D01*
X0089895Y0118560D02*
X0085250Y0118560D01*
X0084368Y0126548D02*
X0083976Y0126548D01*
X0083685Y0127547D02*
X0084368Y0127547D01*
X0084368Y0128545D02*
X0083976Y0128545D01*
X0083976Y0129544D02*
X0084368Y0129544D01*
X0086458Y0108887D02*
X0086458Y0108206D01*
X0090911Y0087606D02*
X0091473Y0087606D01*
X0091991Y0086608D02*
X0090350Y0086608D01*
X0078950Y0083612D02*
X0076049Y0083612D01*
X0044563Y0121556D02*
X0043926Y0121556D01*
X0037043Y0114566D02*
X0030360Y0114566D01*
X0030360Y0114852D02*
X0029391Y0114852D01*
X0029391Y0116615D01*
X0030360Y0116615D01*
X0030360Y0114852D01*
X0030360Y0115565D02*
X0029391Y0115565D01*
X0029391Y0116563D02*
X0030360Y0116563D01*
X0029391Y0114566D02*
X0022250Y0114566D01*
X0022250Y0113568D02*
X0024439Y0113568D01*
X0024439Y0112569D02*
X0022250Y0112569D01*
X0022250Y0111571D02*
X0024685Y0111571D01*
X0024439Y0110572D02*
X0022250Y0110572D01*
X0022250Y0109574D02*
X0024439Y0109574D01*
X0024439Y0107577D02*
X0022250Y0107577D01*
X0022250Y0108575D02*
X0029391Y0108575D01*
X0030360Y0108575D02*
X0037043Y0108575D01*
X0037043Y0109574D02*
X0035313Y0109574D01*
X0035313Y0110572D02*
X0037043Y0110572D01*
X0037043Y0111571D02*
X0035066Y0111571D01*
X0035313Y0112569D02*
X0037043Y0112569D01*
X0037043Y0113568D02*
X0035313Y0113568D01*
X0030360Y0113568D02*
X0029391Y0113568D01*
X0029391Y0112569D02*
X0030360Y0112569D01*
X0030360Y0111571D02*
X0029391Y0111571D01*
X0029391Y0110572D02*
X0030360Y0110572D01*
X0030360Y0109574D02*
X0029391Y0109574D01*
X0029391Y0107577D02*
X0030360Y0107577D01*
X0030360Y0106578D02*
X0029391Y0106578D01*
X0029391Y0105580D02*
X0030360Y0105580D01*
X0030360Y0103583D02*
X0030179Y0103583D01*
X0030179Y0102584D02*
X0030360Y0102584D01*
X0030360Y0101586D02*
X0030179Y0101586D01*
X0030179Y0100587D02*
X0030360Y0100587D01*
X0035017Y0105580D02*
X0035521Y0105580D01*
X0035313Y0106578D02*
X0036643Y0106578D01*
X0036722Y0107577D02*
X0035313Y0107577D01*
X0024734Y0105580D02*
X0022250Y0105580D01*
X0022250Y0106578D02*
X0024439Y0106578D01*
X0024439Y0115565D02*
X0022250Y0115565D01*
X0022250Y0116563D02*
X0024447Y0116563D01*
X0035766Y0087606D02*
X0036850Y0087606D01*
X0036226Y0077621D02*
X0038710Y0077621D01*
X0038710Y0076623D02*
X0036226Y0076623D01*
X0036226Y0075624D02*
X0038413Y0075624D01*
X0037415Y0074626D02*
X0036226Y0074626D01*
X0036226Y0073627D02*
X0036416Y0073627D01*
X0027404Y0072629D02*
X0026750Y0072629D01*
X0026750Y0073627D02*
X0027321Y0073627D01*
X0027321Y0074626D02*
X0026750Y0074626D01*
X0026750Y0075624D02*
X0027321Y0075624D01*
X0027321Y0076623D02*
X0026663Y0076623D01*
X0036637Y0149514D02*
X0039115Y0149514D01*
X0038117Y0150513D02*
X0036637Y0150513D01*
X0036637Y0151511D02*
X0037118Y0151511D01*
X0032993Y0181467D02*
X0053031Y0181467D01*
X0052875Y0182465D02*
X0035364Y0182465D01*
X0036473Y0183464D02*
X0053072Y0183464D01*
X0053731Y0184462D02*
X0037578Y0184462D01*
X0051361Y0185461D02*
X0055830Y0185461D01*
X0055449Y0186459D02*
X0052171Y0186459D01*
X0093384Y0180468D02*
X0111758Y0180468D01*
X0111794Y0190453D02*
X0097250Y0190453D01*
X0101250Y0191452D02*
X0110708Y0191452D01*
X0110085Y0192450D02*
X0101250Y0192450D01*
X0101250Y0193449D02*
X0109671Y0193449D01*
X0109650Y0194447D02*
X0101250Y0194447D01*
X0101250Y0195446D02*
X0109698Y0195446D01*
X0110111Y0196444D02*
X0101250Y0196444D01*
X0101250Y0197443D02*
X0110772Y0197443D01*
X0114250Y0194415D02*
X0122750Y0194415D01*
X0119750Y0121415D02*
X0115750Y0121415D01*
X0126750Y0045915D02*
X0126750Y0043415D01*
D49*
X0119529Y0108887D02*
X0119529Y0117155D01*
X0121104Y0118730D01*
X0075435Y0158494D02*
X0073191Y0160738D01*
X0073191Y0166112D01*
X0072388Y0166915D01*
X0063533Y0166915D01*
X0062750Y0166915D02*
X0056325Y0166915D01*
X0056325Y0166352D01*
X0049317Y0166352D01*
X0056325Y0166915D02*
X0056325Y0175226D01*
X0062750Y0167699D02*
X0062750Y0166915D01*
X0073860Y0156919D02*
X0075435Y0158494D01*
X0073860Y0156919D02*
X0073860Y0152588D01*
D50*
X0059250Y0134403D02*
X0057738Y0134403D01*
X0053250Y0129915D01*
X0053250Y0127034D01*
X0052750Y0126534D01*
X0049010Y0126534D02*
X0049010Y0129281D01*
X0049116Y0129281D01*
X0051250Y0131415D01*
X0051250Y0141427D01*
X0055250Y0145427D01*
X0054238Y0145427D01*
X0035750Y0156415D02*
X0035750Y0157415D01*
X0048254Y0167415D02*
X0049317Y0166352D01*
X0086769Y0179415D02*
X0086769Y0183915D01*
X0150250Y0183506D02*
X0150250Y0129230D01*
X0149750Y0086230D02*
X0149750Y0030230D01*
X0138750Y0030230D01*
X0138750Y0030415D01*
X0088250Y0056915D02*
X0083250Y0051915D01*
X0083250Y0041415D01*
X0079750Y0054915D02*
X0063750Y0054915D01*
X0061096Y0052262D01*
X0061096Y0032762D01*
X0058750Y0030415D01*
X0053250Y0034915D02*
X0048750Y0030415D01*
X0053250Y0035415D02*
X0053250Y0049415D01*
X0062403Y0058569D01*
X0074132Y0058569D01*
X0080825Y0058569D02*
X0080825Y0055990D01*
X0079750Y0054915D01*
X0088250Y0056915D02*
X0088250Y0087915D01*
X0094250Y0093915D01*
X0049010Y0107415D02*
X0049010Y0116297D01*
X0150250Y0183506D02*
X0150691Y0183506D01*
X0150691Y0193730D01*
X0215750Y0193730D01*
D51*
X0144250Y0127815D02*
X0133915Y0127815D01*
X0116450Y0105715D02*
X0116750Y0105415D01*
X0116750Y0099655D01*
X0116450Y0105715D02*
X0110950Y0105715D01*
X0108506Y0108159D01*
X0102994Y0108887D02*
X0100250Y0106143D01*
X0100250Y0097915D01*
X0094750Y0099415D02*
X0094750Y0106108D01*
X0091970Y0108887D01*
X0089250Y0105415D02*
X0089250Y0098915D01*
X0088750Y0098415D01*
X0088750Y0097415D01*
X0094250Y0098915D02*
X0094750Y0099415D01*
X0089250Y0105415D02*
X0086458Y0108206D01*
X0083750Y0105454D02*
X0083750Y0090915D01*
X0083750Y0105454D02*
X0080710Y0108494D01*
X0078020Y0111265D02*
X0070650Y0111265D01*
X0069250Y0122215D02*
X0077813Y0122215D01*
X0080710Y0125029D02*
X0078025Y0127715D01*
X0069450Y0127715D01*
X0068450Y0128715D01*
X0068250Y0128715D01*
X0127750Y0155628D02*
X0127750Y0164415D01*
X0127750Y0155628D02*
X0130789Y0152588D01*
D52*
X0150250Y0129230D03*
X0160750Y0128730D03*
X0166750Y0123730D03*
X0190250Y0099230D03*
X0197750Y0088730D03*
X0204750Y0098730D03*
X0210250Y0088730D03*
X0197750Y0115730D03*
X0197750Y0142230D03*
X0205750Y0142230D03*
X0205750Y0175230D03*
X0197750Y0175230D03*
X0182250Y0175230D03*
X0160750Y0086230D03*
X0166750Y0079230D03*
X0149750Y0086230D03*
D53*
X0086458Y0158494D02*
X0086458Y0166246D01*
D54*
X0086769Y0166419D02*
X0086769Y0165915D01*
X0086769Y0165443D01*
D55*
X0086769Y0166419D02*
X0086769Y0170478D01*
X0086769Y0179415D01*
X0086769Y0180639D01*
X0086734Y0180675D01*
D56*
X0063533Y0166915D02*
X0062750Y0167699D01*
M02*
